<svg width="401" height="294" viewBox="0 0 401 294" fill="none" xmlns="http://www.w3.org/2000/svg">
<g clip-path="url(#clip0_1_461)">
<path d="M389.776 284.465L385.809 285.734L379.03 271.04L384.883 269.167L389.776 284.465Z" fill="#FFB6B6"/>
<path d="M392.016 287.986L379.229 292.076L379.177 291.915C378.755 290.594 378.874 289.161 379.509 287.929C380.144 286.697 381.242 285.767 382.562 285.345L384.331 282.826L389.256 283.204L390.373 282.847L392.016 287.986Z" fill="#2F2E41"/>
<path d="M352.173 288.42H348.01L346.029 272.36H352.174L352.173 288.42Z" fill="#FFB6B6"/>
<path d="M353.235 292.457L339.809 292.456V292.286C339.809 290.901 340.36 289.571 341.34 288.591C342.32 287.611 343.649 287.061 345.035 287.061L347.488 285.2L352.064 287.061L353.236 287.061L353.235 292.457Z" fill="#2F2E41"/>
<path d="M332.286 122.447C331.973 122.837 331.75 123.29 331.632 123.775C331.514 124.26 331.503 124.766 331.602 125.255C331.7 125.745 331.904 126.207 332.2 126.609C332.496 127.011 332.877 127.343 333.315 127.582L331.318 139.554L337.083 136.996L338.096 126.019C338.449 125.256 338.509 124.39 338.266 123.586C338.023 122.781 337.494 122.093 336.777 121.653C336.061 121.212 335.208 121.05 334.381 121.197C333.553 121.343 332.807 121.788 332.286 122.447Z" fill="#FFB6B6"/>
<path d="M384.846 221.76C384.846 221.76 385.817 209.112 382.375 206.764C378.933 204.415 350.554 203.232 350.554 203.232L348.792 205.55C348.792 205.55 348.632 206.632 345.96 215.449L344.871 264.663C344.763 269.461 343.927 275.489 345.93 276.721L346.905 281.591H352.262L355.221 273.404C356.497 271.343 357.04 268.913 356.763 266.506L358.379 259.278C358.266 259.164 358.187 259.021 358.149 258.866C357.967 257.788 358.209 256.682 358.825 255.78C358.968 255.569 359.125 255.369 359.296 255.18L365.217 228.695L373.203 259.676L378.132 270.68C377.647 271.834 377.969 272.879 378.853 273.849C378.524 274.751 379.943 275.384 380.552 276.551L382.456 280.13L387.813 277.208L388.3 274.286C388.625 273.42 387.752 272.845 387.11 271.046C388.309 269.772 388.244 268.531 387.088 267.32L385.063 258.587L385.039 254.584L385.014 250.305L384.846 221.76Z" fill="#2F2E41"/>
<path d="M362.447 146.569C367.587 146.569 371.753 142.402 371.753 137.263C371.753 132.123 367.587 127.957 362.447 127.957C357.307 127.957 353.141 132.123 353.141 137.263C353.141 142.402 357.307 146.569 362.447 146.569Z" fill="#FFB6B6"/>
<path d="M371.809 138.72L371.656 138.412C371.418 137.937 369.45 133.986 369.203 132.969L366.727 133.261L360.278 133.262L361.174 131.918L358.805 132.227C357.939 132.332 357.11 132.644 356.39 133.137C355.949 133.43 355.575 133.815 355.295 134.266C354.449 135.715 353.156 138.085 353.143 138.109L353.019 138.336L351.945 136.529C351.931 136.458 350.599 129.513 355.056 127.158C355.691 125.917 356.674 124.888 357.885 124.197C359.095 123.506 360.481 123.183 361.873 123.267C362.382 122.687 363.098 122.331 363.868 122.275C364.925 122.22 366.022 122.775 367.124 123.933C368.588 125.47 370.593 127.574 371.805 129.912L372.14 130.389C372.615 131.072 372.851 131.893 372.809 132.724C373.067 134.05 372.975 135.421 372.543 136.701L371.809 138.72Z" fill="#2F2E41"/>
<path d="M384.803 154.973L374.687 152.14L369.538 148.32L359.422 149.934L359.378 149.991C357.607 152.292 354.877 154.565 351.975 154.655C351.228 154.68 350.486 154.786 349.763 154.973L348.792 172.729V188.605C348.944 188.656 349.079 188.745 349.186 188.864C349.294 188.983 349.368 189.127 349.403 189.283C349.688 190.902 349.661 192.56 349.324 194.168C349.204 194.729 349.026 195.276 348.792 195.799C349.074 196.384 349.221 197.025 349.221 197.674C349.221 198.323 349.074 198.963 348.792 199.548C347.927 200.372 348.039 201.27 348.792 202.217V205.55C365.21 219.249 382.333 207.519 382.333 207.519L381.784 181.444L384.803 154.973Z" fill="#3F3D56"/>
<path d="M352.032 157.411L349.763 154.972L337.26 153.556L338.434 134.353L331.617 129.49L328.53 146.154C327.468 147.072 327.271 147.977 328.027 148.866C327.178 150.566 326.959 151.948 327.248 153.075L326.609 156.525L349.743 172.729L352.032 157.411Z" fill="#3F3D56"/>
<path d="M382.957 220.202C382.688 219.781 382.514 219.307 382.448 218.812C382.382 218.317 382.426 217.814 382.575 217.337C382.725 216.861 382.977 216.423 383.314 216.055C383.652 215.687 384.065 215.397 384.527 215.205L383.814 203.089L389.274 206.246L389.114 217.268C389.384 218.064 389.352 218.932 389.025 219.706C388.697 220.481 388.098 221.108 387.339 221.47C386.58 221.831 385.714 221.902 384.907 221.668C384.099 221.435 383.406 220.913 382.957 220.202Z" fill="#FFB6B6"/>
<path d="M381.003 158.003L384.803 154.973C384.803 154.973 388.689 157.116 389.871 160.959C391.054 164.802 393.123 186.678 393.123 186.678L393.442 194.823C393.851 196.115 393.744 197.267 392.769 198.186C394.234 199.7 394.015 200.962 392.015 201.956L389.941 214.762L383.43 213.41L384.254 188.156L378.933 171.897L381.003 158.003Z" fill="#3F3D56"/>
<path d="M120.932 57.6845H119.599V21.1788C119.599 18.4042 119.053 15.6567 117.991 13.0933C116.929 10.5299 115.373 8.20066 113.411 6.2387C111.449 4.27674 109.12 2.72042 106.556 1.65861C103.993 0.596801 101.245 0.0502949 98.4708 0.050293H21.1285C15.5249 0.0502813 10.1508 2.2763 6.18842 6.23866C2.22605 10.201 1.29163e-05 15.5751 0 21.1787V221.452C-2.58326e-06 227.055 2.22602 232.43 6.18838 236.392C10.1507 240.354 15.5248 242.58 21.1285 242.58H98.4707C101.245 242.58 103.993 242.034 106.556 240.972C109.12 239.91 111.449 238.354 113.411 236.392C115.373 234.43 116.929 232.101 117.991 229.537C119.053 226.974 119.599 224.227 119.599 221.452V83.6699H120.932V57.6845Z" fill="#3F3D56"/>
<path d="M99.3233 5.54739H89.2275C89.6918 6.68565 89.869 7.9206 89.7436 9.14348C89.6181 10.3664 89.1939 11.5396 88.5082 12.5599C87.8225 13.5802 86.8964 14.4162 85.8116 14.9943C84.7267 15.5724 83.5162 15.8748 82.2869 15.8749H37.9786C36.7493 15.8748 35.5389 15.5724 34.454 14.9943C33.3691 14.4162 32.443 13.5802 31.7573 12.5599C31.0716 11.5396 30.6473 10.3664 30.5219 9.14347C30.3965 7.92058 30.5737 6.68562 31.038 5.54736H21.6086C17.4238 5.54736 13.4105 7.20973 10.4515 10.1688C7.49241 13.1278 5.83002 17.1411 5.83002 21.3259V221.305C5.83002 223.377 6.23814 225.429 7.03108 227.343C7.82403 229.258 8.98626 230.997 10.4514 232.462C11.9166 233.927 13.656 235.09 15.5704 235.883C17.4847 236.675 19.5365 237.084 21.6085 237.084H99.3233C101.395 237.084 103.447 236.675 105.361 235.883C107.276 235.09 109.015 233.927 110.48 232.462C111.946 230.997 113.108 229.258 113.901 227.343C114.694 225.429 115.102 223.377 115.102 221.305V21.3259C115.102 19.2538 114.694 17.2021 113.901 15.2877C113.108 13.3734 111.946 11.634 110.48 10.1688C109.015 8.70363 107.276 7.54139 105.361 6.74845C103.447 5.95551 101.395 5.54739 99.3233 5.54739Z" fill="white"/>
<path d="M98.5759 80.4469C98.5816 84.9896 97.7715 89.4964 96.1842 93.7528C95.4634 95.7024 94.5792 97.5876 93.541 99.3884C90.2035 105.212 85.3873 110.052 79.5795 113.417C73.7717 116.783 67.1782 118.555 60.4658 118.555C53.7533 118.555 47.1598 116.783 41.352 113.417C35.5442 110.052 30.7281 105.212 27.3905 99.3884C27.0526 98.8026 26.7322 98.2082 26.4293 97.605C23.8387 92.4661 22.4455 86.8074 22.3542 81.0532C22.2628 75.299 23.4757 69.5989 25.9019 64.3804C28.328 59.1619 31.9044 54.5606 36.3628 50.9217C40.8211 47.2827 46.0456 44.7006 51.6444 43.3691C57.2431 42.0376 63.0707 41.9913 68.6899 43.2335C74.3091 44.4758 79.5741 46.9745 84.0897 50.542C88.6054 54.1096 92.2545 58.6534 94.7634 63.8326C97.2723 69.0119 98.5757 74.692 98.5759 80.4469Z" fill="#F1F1F1"/>
<path d="M62.4471 86.8808C66.471 86.8808 69.733 83.6188 69.733 79.595C69.733 75.5711 66.471 72.3091 62.4471 72.3091C58.4233 72.3091 55.1613 75.5711 55.1613 79.595C55.1613 83.6188 58.4233 86.8808 62.4471 86.8808Z" fill="#FF6582"/>
<path d="M26.4294 97.6048C29.6395 94.1357 33.9309 88.6278 37.9557 92.6076C39.9756 94.4849 43.1369 99.1367 46.1631 96.0955L69.7939 72.4647C70.2388 72.0255 70.7669 71.6796 71.3474 71.4474C71.9278 71.2152 72.5488 71.1014 73.1738 71.1126C73.7989 71.1238 74.4154 71.2598 74.9871 71.5126C75.5589 71.7654 76.0743 72.13 76.5032 72.5848L96.1843 93.7527C95.4634 95.7023 94.5792 97.5875 93.5411 99.3882H27.3905L26.4294 97.6048Z" fill="#FFBC13"/>
<path d="M78.3474 157.836C78.0867 157.837 77.8368 157.941 77.6527 158.126C77.4685 158.31 77.3651 158.56 77.3651 158.821C77.3651 159.082 77.4685 159.332 77.6527 159.516C77.8368 159.701 78.0867 159.805 78.3474 159.806H88.6789C88.94 159.806 89.1905 159.702 89.3751 159.517C89.5597 159.333 89.6635 159.082 89.6635 158.821C89.6635 158.56 89.5597 158.309 89.3751 158.125C89.1905 157.94 88.94 157.836 88.6789 157.836H78.3474Z" fill="#FFBC13"/>
<path d="M31.801 143.375C31.5399 143.375 31.2895 143.479 31.1048 143.664C30.9202 143.849 30.8165 144.099 30.8165 144.36C30.8165 144.621 30.9202 144.872 31.1048 145.056C31.2895 145.241 31.5399 145.345 31.801 145.345H89.1308C89.3919 145.345 89.6424 145.241 89.827 145.056C90.0117 144.872 90.1154 144.621 90.1154 144.36C90.1154 144.099 90.0117 143.849 89.827 143.664C89.6424 143.479 89.3919 143.375 89.1308 143.375H31.801Z" fill="#FFEEC5"/>
<path d="M31.801 150.606C31.5402 150.607 31.2904 150.711 31.1062 150.895C30.922 151.08 30.8186 151.33 30.8186 151.591C30.8186 151.851 30.922 152.101 31.1062 152.286C31.2904 152.471 31.5402 152.574 31.801 152.575H89.1308C89.2603 152.575 89.3885 152.55 89.5082 152.501C89.6279 152.451 89.7367 152.379 89.8284 152.287C89.92 152.196 89.9927 152.087 90.0424 151.968C90.092 151.848 90.1175 151.72 90.1175 151.591C90.1175 151.461 90.092 151.333 90.0424 151.213C89.9927 151.094 89.92 150.985 89.8284 150.894C89.7367 150.802 89.6279 150.73 89.5082 150.68C89.3885 150.631 89.2603 150.606 89.1308 150.606H31.801Z" fill="#FFEEC5"/>
<path d="M78.3474 204.232C78.0863 204.232 77.8359 204.336 77.6512 204.521C77.4666 204.705 77.3629 204.956 77.3629 205.217C77.3629 205.478 77.4666 205.729 77.6512 205.913C77.8359 206.098 78.0863 206.202 78.3474 206.202H88.6789C88.94 206.202 89.1905 206.098 89.3751 205.913C89.5597 205.729 89.6635 205.478 89.6635 205.217C89.6635 204.956 89.5597 204.705 89.3751 204.521C89.1905 204.336 88.94 204.232 88.6789 204.232H78.3474Z" fill="#FFBC13"/>
<path d="M31.801 189.771C31.5399 189.771 31.2895 189.875 31.1048 190.06C30.9202 190.244 30.8165 190.495 30.8165 190.756C30.8165 191.017 30.9202 191.268 31.1048 191.452C31.2895 191.637 31.5399 191.741 31.801 191.741H89.1308C89.2603 191.741 89.3886 191.716 89.5083 191.666C89.628 191.617 89.7368 191.544 89.8284 191.453C89.9201 191.362 89.9928 191.253 90.0424 191.133C90.092 191.014 90.1176 190.886 90.1176 190.756C90.1176 190.627 90.092 190.498 90.0424 190.379C89.9928 190.259 89.9201 190.151 89.8284 190.059C89.7368 189.968 89.628 189.895 89.5083 189.846C89.3886 189.796 89.2603 189.771 89.1308 189.771H31.801Z" fill="#FFEEC5"/>
<path d="M31.801 197.002C31.5399 197.002 31.2895 197.106 31.1048 197.29C30.9202 197.475 30.8165 197.725 30.8165 197.986C30.8165 198.248 30.9202 198.498 31.1048 198.683C31.2895 198.867 31.5399 198.971 31.801 198.971H89.1308C89.3919 198.971 89.6424 198.867 89.827 198.683C90.0117 198.498 90.1154 198.248 90.1154 197.986C90.1154 197.725 90.0117 197.475 89.827 197.29C89.6424 197.106 89.3919 197.002 89.1308 197.002H31.801Z" fill="#FFEEC5"/>
<path d="M326.823 111.034L318.956 107.477C318.917 108.527 318.62 109.552 318.091 110.461C317.563 111.369 316.819 112.134 315.925 112.687C315.031 113.241 314.015 113.566 312.966 113.634C311.917 113.702 310.867 113.511 309.909 113.078L275.385 97.4673C274.427 97.0341 273.59 96.372 272.949 95.5393C272.307 94.7067 271.88 93.729 271.705 92.6924C271.53 91.6558 271.613 90.5921 271.946 89.595C272.279 88.598 272.852 87.6981 273.615 86.9748L266.268 83.6526C263.007 82.1782 259.294 82.0595 255.946 83.3226C252.598 84.5857 249.889 87.1271 248.414 90.3878L177.956 246.21C177.226 247.825 176.821 249.567 176.764 251.338C176.708 253.109 177 254.874 177.626 256.532C178.251 258.19 179.197 259.708 180.409 261.001C181.622 262.293 183.077 263.334 184.691 264.064L245.246 291.445C248.507 292.919 252.219 293.038 255.568 291.775C258.916 290.512 261.625 287.97 263.1 284.71L333.558 128.887C334.288 127.273 334.693 125.53 334.749 123.759C334.806 121.988 334.513 120.223 333.888 118.566C333.262 116.908 332.317 115.389 331.104 114.097C329.892 112.805 328.437 111.764 326.823 111.034Z" fill="#E4E4E4"/>
<path d="M256.741 185.228C251.438 182.82 246.863 179.058 243.475 174.322C240.087 169.585 238.005 164.04 237.439 158.244C237.382 157.669 237.341 157.078 237.316 156.489C237.086 151.32 238.084 146.171 240.23 141.463C242.226 137.055 245.165 133.138 248.84 129.989C252.514 126.84 256.835 124.536 261.497 123.239C266.16 121.942 271.05 121.683 275.823 122.482C280.595 123.281 285.135 125.117 289.121 127.861C293.107 130.606 296.442 134.191 298.891 138.365C301.34 142.539 302.844 147.199 303.295 152.017C303.747 156.836 303.136 161.694 301.505 166.25C299.875 170.807 297.264 174.95 293.858 178.387C292.59 179.671 291.217 180.846 289.752 181.899C285.026 185.302 279.487 187.401 273.692 187.986C267.898 188.57 262.051 187.619 256.741 185.228ZM283.595 125.838C275.836 122.34 267.006 122.063 259.043 125.068C251.079 128.073 244.633 134.113 241.118 141.865C239.035 146.434 238.066 151.431 238.29 156.447C238.313 157.019 238.353 157.592 238.408 158.149C238.949 163.778 240.965 169.164 244.255 173.763C247.545 178.362 251.991 182.011 257.143 184.341C262.295 186.671 267.971 187.599 273.597 187.031C279.223 186.464 284.599 184.421 289.182 181.109C290.604 180.087 291.936 178.947 293.166 177.702C296.813 174.021 299.515 169.513 301.042 164.562C302.569 159.611 302.875 154.364 301.935 149.268C300.995 144.173 298.836 139.381 295.642 135.301C292.449 131.221 288.315 127.974 283.595 125.838Z" fill="white"/>
<path d="M260.002 124.175L259.092 124.524L282.235 184.941L283.145 184.593L260.002 124.175Z" fill="white"/>
<path d="M299.865 143.021L239.446 166.16L239.794 167.069L300.213 143.93L299.865 143.021Z" fill="white"/>
<path d="M269.901 232.433L212.748 206.589C212.324 206.397 211.994 206.045 211.83 205.61C211.666 205.175 211.681 204.692 211.872 204.268L217.249 192.378C217.441 191.954 217.793 191.624 218.228 191.46C218.664 191.296 219.146 191.311 219.57 191.502L276.724 217.345C277.147 217.537 277.477 217.889 277.641 218.325C277.806 218.76 277.79 219.242 277.599 219.666L272.223 231.557C272.031 231.98 271.678 232.31 271.243 232.475C270.808 232.639 270.325 232.624 269.901 232.433ZM219.169 192.389C218.98 192.304 218.766 192.298 218.572 192.371C218.378 192.444 218.222 192.591 218.136 192.779L212.76 204.669C212.675 204.858 212.668 205.073 212.741 205.266C212.814 205.46 212.961 205.616 213.149 205.702L270.303 231.545C270.491 231.63 270.706 231.637 270.9 231.564C271.093 231.491 271.25 231.344 271.335 231.155L276.712 219.265C276.797 219.076 276.804 218.862 276.731 218.668C276.657 218.475 276.511 218.318 276.322 218.232L219.169 192.389Z" fill="white"/>
<path d="M256.056 263.052L198.903 237.209C198.479 237.016 198.149 236.664 197.985 236.229C197.821 235.794 197.836 235.311 198.027 234.887L203.404 222.997C203.596 222.573 203.948 222.243 204.383 222.079C204.819 221.915 205.301 221.93 205.725 222.121L262.879 247.964C263.302 248.156 263.632 248.509 263.796 248.944C263.961 249.379 263.945 249.861 263.754 250.286L258.378 262.176C258.186 262.599 257.833 262.93 257.398 263.094C256.963 263.258 256.48 263.243 256.056 263.052ZM205.324 223.008C205.135 222.923 204.921 222.917 204.727 222.99C204.533 223.063 204.377 223.21 204.291 223.398L198.915 235.288C198.83 235.477 198.823 235.692 198.896 235.885C198.969 236.079 199.116 236.236 199.304 236.321L256.458 262.164C256.646 262.249 256.861 262.256 257.055 262.183C257.248 262.11 257.405 261.963 257.49 261.775L262.867 249.884C262.952 249.696 262.959 249.481 262.886 249.287C262.813 249.094 262.666 248.937 262.477 248.852L205.324 223.008Z" fill="white"/>
<path d="M233.967 185.577C232.792 179.722 230.253 174.227 226.556 169.538C222.799 164.776 218.21 160.734 213.011 157.607C207.639 154.345 201.787 151.946 195.67 150.498C188.068 148.671 180.217 148.076 172.415 148.151C164.556 148.227 156.723 148.963 148.913 149.783C147.92 149.888 146.927 149.993 145.935 150.099C145.01 150.198 145 151.66 145.935 151.56C153.63 150.739 161.336 149.931 169.075 149.683C176.751 149.436 184.484 149.738 192.038 151.203C198.329 152.371 204.399 154.516 210.026 157.563C215.267 160.402 219.969 164.141 223.915 168.609C227.781 172.976 230.577 178.184 232.081 183.819C232.263 184.529 232.42 185.245 232.558 185.965C232.735 186.888 234.143 186.497 233.967 185.577Z" fill="#2F2E41"/>
<path d="M151.153 139.644L139.483 152.057C139.406 152.136 139.347 152.232 139.311 152.338C139.276 152.443 139.265 152.556 139.279 152.666C139.294 152.776 139.333 152.882 139.394 152.975C139.455 153.068 139.536 153.147 139.631 153.204L150.159 158.236C151.003 158.64 151.746 157.381 150.897 156.975L140.368 151.942L140.516 153.09L152.186 140.677C152.83 139.992 151.799 138.957 151.153 139.644Z" fill="#2F2E41"/>
<path d="M399.625 293.1H176.918C176.764 293.1 176.617 293.039 176.508 292.93C176.399 292.822 176.338 292.674 176.338 292.52C176.338 292.367 176.399 292.219 176.508 292.11C176.617 292.001 176.764 291.94 176.918 291.94H399.625C399.779 291.94 399.926 292.001 400.035 292.11C400.144 292.219 400.205 292.367 400.205 292.52C400.205 292.674 400.144 292.822 400.035 292.93C399.926 293.039 399.779 293.1 399.625 293.1Z" fill="#CACACA"/>
</g>
<defs>
<clipPath id="clip0_1_461">
<rect width="400.205" height="293.05" fill="white" transform="translate(0 0.050293)"/>
</clipPath>
</defs>
</svg>
