<svg width="403" height="294" viewBox="0 0 403 294" fill="none" xmlns="http://www.w3.org/2000/svg">
<g clip-path="url(#clip0_1_505)">
<path d="M234.778 51.7612C242.329 51.7612 248.451 45.6394 248.451 38.0879C248.451 30.5363 242.329 24.4146 234.778 24.4146C227.226 24.4146 221.104 30.5363 221.104 38.0879C221.104 45.6394 227.226 51.7612 234.778 51.7612Z" fill="#F2F2F2"/>
<path d="M340.846 254.689C361.17 239.209 370.877 213.196 364.8 188.382C364.649 187.765 364.489 187.15 364.322 186.536C360.293 171.806 350.325 157.807 335.798 153.101C323.6 149.149 310.286 152.188 297.56 150.616C272.58 147.531 253.213 127.319 239.585 106.157C225.958 84.9941 215.485 61.3057 197.378 43.8224C167.53 15.0041 118.842 8.79948 81.8356 27.558C44.8292 46.3167 21.2566 87.9342 22.2619 129.411C23.2672 170.888 47.8903 210.543 83.6492 231.583C96.7855 239.312 111.979 244.787 127.099 242.871C140.219 241.209 152.14 234.159 165.199 232.066C185.729 228.776 206.129 238.058 223.886 248.875C241.643 259.692 258.796 272.513 278.974 277.528C298.568 282.397 322.842 268.402 340.846 254.689Z" fill="#F2F2F2"/>
<path d="M311.645 28.4292C311.2 28.1321 310.749 27.8505 310.304 27.5637C297.425 19.3271 283.621 12.6357 269.177 7.62788L265.828 53.829H244.597V0.883601C243.26 0.60707 241.913 0.345903 240.567 0.100098V53.829H215.336C201.446 53.829 188.125 48.3113 178.303 38.4897C168.482 28.6681 162.964 15.3471 162.964 1.45721C161.612 1.7491 160.27 2.06143 158.929 2.39429V53.8291H138.378L135.188 9.77357C120.345 15.4662 106.253 22.9522 93.2269 32.065C93.0015 32.2187 92.7762 32.3774 92.556 32.531C91.4243 33.3248 90.3079 34.1339 89.1967 34.9533V211.211H149.762L148.692 196.386L142.803 114.988H261.399L255.51 196.386L254.439 211.211H314.334V30.2113C313.443 29.607 312.547 29.013 311.645 28.4292ZM158.929 101.546H141.83L138.67 57.8643H158.929V101.546ZM240.567 101.546H211.848V100.681C211.848 100.265 211.766 99.8526 211.607 99.4683C211.448 99.084 211.214 98.7348 210.92 98.4409C210.625 98.147 210.276 97.9139 209.891 97.7552C209.507 97.5965 209.095 97.5151 208.679 97.5158H196.194C195.778 97.5156 195.366 97.5974 194.982 97.7564C194.598 97.9154 194.249 98.1485 193.956 98.4424C193.662 98.7363 193.429 99.0852 193.27 99.4693C193.111 99.8533 193.029 100.265 193.029 100.681V101.546H162.964V57.8643H240.567V101.546ZM244.597 101.546V57.8643H265.536L262.377 101.546H244.597Z" fill="#3F3D56"/>
<path d="M0.0738564 222.498C4.52255 227.769 9.33432 232.723 14.474 237.323L388.6 237.835C393.74 233.235 398.551 228.281 403 223.01L0.0738564 222.498Z" fill="#3F3D56"/>
<path d="M253.781 175.027V218.916C253.781 219.475 254.004 220.011 254.399 220.407C254.795 220.802 255.331 221.025 255.89 221.025H320.928C321.488 221.025 322.024 220.802 322.419 220.407C322.815 220.011 323.037 219.475 323.038 218.916V175.027C323.036 174.468 322.814 173.933 322.418 173.538C322.023 173.143 321.487 172.921 320.928 172.92H255.89C255.331 172.921 254.796 173.143 254.4 173.538C254.005 173.933 253.782 174.468 253.781 175.027Z" fill="#3F3D56"/>
<path d="M255.307 175.573V218.374C255.307 218.673 255.426 218.96 255.637 219.171C255.849 219.382 256.135 219.501 256.434 219.502H320.387C320.686 219.501 320.972 219.382 321.184 219.171C321.395 218.96 321.514 218.673 321.514 218.374V175.573C321.514 175.274 321.396 174.987 321.184 174.775C320.973 174.564 320.686 174.444 320.387 174.444H256.434C256.135 174.444 255.848 174.564 255.637 174.775C255.425 174.987 255.307 175.274 255.307 175.573Z" fill="#FFBC13"/>
<path d="M252.421 227.475C252.54 227.624 252.691 227.745 252.863 227.827C253.036 227.91 253.225 227.952 253.416 227.951H323.056C323.247 227.951 323.435 227.908 323.607 227.826C323.779 227.744 323.93 227.625 324.05 227.477C324.17 227.329 324.256 227.156 324.3 226.971C324.345 226.786 324.348 226.593 324.309 226.407L323.228 221.272C323.183 221.063 323.087 220.868 322.947 220.705C322.808 220.543 322.63 220.417 322.43 220.341C322.285 220.284 322.131 220.255 321.975 220.255H254.493C254.337 220.255 254.183 220.284 254.038 220.341C253.838 220.417 253.66 220.543 253.52 220.705C253.381 220.868 253.285 221.063 253.24 221.272L252.159 226.407C252.12 226.593 252.124 226.786 252.169 226.971C252.214 227.155 252.3 227.328 252.421 227.475Z" fill="#2F2E41"/>
<path d="M319.586 222.467H321.231C321.369 222.467 321.481 222.355 321.481 222.217V221.43C321.481 221.292 321.369 221.18 321.231 221.18H319.586C319.448 221.18 319.336 221.292 319.336 221.43V222.217C319.336 222.355 319.448 222.467 319.586 222.467Z" fill="#3F3D56"/>
<path d="M315.296 222.467H316.941C317.079 222.467 317.191 222.355 317.191 222.217V221.43C317.191 221.292 317.079 221.18 316.941 221.18H315.296C315.158 221.18 315.046 221.292 315.046 221.43V222.217C315.046 222.355 315.158 222.467 315.296 222.467Z" fill="#3F3D56"/>
<path d="M311.006 222.467H312.651C312.789 222.467 312.901 222.355 312.901 222.217V221.43C312.901 221.292 312.789 221.18 312.651 221.18H311.006C310.868 221.18 310.756 221.292 310.756 221.43V222.217C310.756 222.355 310.868 222.467 311.006 222.467Z" fill="#3F3D56"/>
<path d="M306.717 222.467H308.361C308.5 222.467 308.611 222.355 308.611 222.217V221.43C308.611 221.292 308.5 221.18 308.361 221.18H306.717C306.578 221.18 306.467 221.292 306.467 221.43V222.217C306.467 222.355 306.578 222.467 306.717 222.467Z" fill="#3F3D56"/>
<path d="M302.427 222.467H304.072C304.21 222.467 304.322 222.355 304.322 222.217V221.43C304.322 221.292 304.21 221.18 304.072 221.18H302.427C302.289 221.18 302.177 221.292 302.177 221.43V222.217C302.177 222.355 302.289 222.467 302.427 222.467Z" fill="#3F3D56"/>
<path d="M298.137 222.467H299.782C299.92 222.467 300.032 222.355 300.032 222.217V221.43C300.032 221.292 299.92 221.18 299.782 221.18H298.137C297.999 221.18 297.887 221.292 297.887 221.43V222.217C297.887 222.355 297.999 222.467 298.137 222.467Z" fill="#3F3D56"/>
<path d="M293.847 222.467H295.492C295.63 222.467 295.742 222.355 295.742 222.217V221.43C295.742 221.292 295.63 221.18 295.492 221.18H293.847C293.709 221.18 293.597 221.292 293.597 221.43V222.217C293.597 222.355 293.709 222.467 293.847 222.467Z" fill="#3F3D56"/>
<path d="M289.557 222.467H291.202C291.34 222.467 291.452 222.355 291.452 222.217V221.43C291.452 221.292 291.34 221.18 291.202 221.18H289.557C289.419 221.18 289.307 221.292 289.307 221.43V222.217C289.307 222.355 289.419 222.467 289.557 222.467Z" fill="#3F3D56"/>
<path d="M285.268 222.467H286.912C287.05 222.467 287.162 222.355 287.162 222.217V221.43C287.162 221.292 287.05 221.18 286.912 221.18H285.268C285.129 221.18 285.017 221.292 285.017 221.43V222.217C285.017 222.355 285.129 222.467 285.268 222.467Z" fill="#3F3D56"/>
<path d="M280.978 222.467H282.623C282.761 222.467 282.873 222.355 282.873 222.217V221.43C282.873 221.292 282.761 221.18 282.623 221.18H280.978C280.84 221.18 280.728 221.292 280.728 221.43V222.217C280.728 222.355 280.84 222.467 280.978 222.467Z" fill="#3F3D56"/>
<path d="M276.688 222.467H278.333C278.471 222.467 278.583 222.355 278.583 222.217V221.43C278.583 221.292 278.471 221.18 278.333 221.18H276.688C276.55 221.18 276.438 221.292 276.438 221.43V222.217C276.438 222.355 276.55 222.467 276.688 222.467Z" fill="#3F3D56"/>
<path d="M272.398 222.467H274.043C274.181 222.467 274.293 222.355 274.293 222.217V221.43C274.293 221.292 274.181 221.18 274.043 221.18H272.398C272.26 221.18 272.148 221.292 272.148 221.43V222.217C272.148 222.355 272.26 222.467 272.398 222.467Z" fill="#3F3D56"/>
<path d="M268.108 222.467H269.753C269.891 222.467 270.003 222.355 270.003 222.217V221.43C270.003 221.292 269.891 221.18 269.753 221.18H268.108C267.97 221.18 267.858 221.292 267.858 221.43V222.217C267.858 222.355 267.97 222.467 268.108 222.467Z" fill="#3F3D56"/>
<path d="M263.818 222.467H265.463C265.601 222.467 265.713 222.355 265.713 222.217V221.43C265.713 221.292 265.601 221.18 265.463 221.18H263.818C263.68 221.18 263.568 221.292 263.568 221.43V222.217C263.568 222.355 263.68 222.467 263.818 222.467Z" fill="#3F3D56"/>
<path d="M259.529 222.467H261.174C261.312 222.467 261.424 222.355 261.424 222.217V221.43C261.424 221.292 261.312 221.18 261.174 221.18H259.529C259.391 221.18 259.279 221.292 259.279 221.43V222.217C259.279 222.355 259.391 222.467 259.529 222.467Z" fill="#3F3D56"/>
<path d="M255.239 222.467H256.884C257.022 222.467 257.134 222.355 257.134 222.217V221.43C257.134 221.292 257.022 221.18 256.884 221.18H255.239C255.101 221.18 254.989 221.292 254.989 221.43V222.217C254.989 222.355 255.101 222.467 255.239 222.467Z" fill="#3F3D56"/>
<path d="M319.637 224.612H321.282C321.42 224.612 321.532 224.5 321.532 224.362V223.575C321.532 223.437 321.42 223.325 321.282 223.325H319.637C319.499 223.325 319.387 223.437 319.387 223.575V224.362C319.387 224.5 319.499 224.612 319.637 224.612Z" fill="#3F3D56"/>
<path d="M315.347 224.612H316.992C317.13 224.612 317.242 224.5 317.242 224.362V223.575C317.242 223.437 317.13 223.325 316.992 223.325H315.347C315.209 223.325 315.097 223.437 315.097 223.575V224.362C315.097 224.5 315.209 224.612 315.347 224.612Z" fill="#3F3D56"/>
<path d="M311.057 224.612H312.702C312.84 224.612 312.952 224.5 312.952 224.362V223.575C312.952 223.437 312.84 223.325 312.702 223.325H311.057C310.919 223.325 310.807 223.437 310.807 223.575V224.362C310.807 224.5 310.919 224.612 311.057 224.612Z" fill="#3F3D56"/>
<path d="M306.767 224.612H308.412C308.55 224.612 308.662 224.5 308.662 224.362V223.575C308.662 223.437 308.55 223.325 308.412 223.325H306.767C306.629 223.325 306.517 223.437 306.517 223.575V224.362C306.517 224.5 306.629 224.612 306.767 224.612Z" fill="#3F3D56"/>
<path d="M302.477 224.612H304.122C304.26 224.612 304.372 224.5 304.372 224.362V223.575C304.372 223.437 304.26 223.325 304.122 223.325H302.477C302.339 223.325 302.227 223.437 302.227 223.575V224.362C302.227 224.5 302.339 224.612 302.477 224.612Z" fill="#3F3D56"/>
<path d="M298.188 224.612H299.833C299.971 224.612 300.082 224.5 300.082 224.362V223.575C300.082 223.437 299.971 223.325 299.833 223.325H298.188C298.05 223.325 297.938 223.437 297.938 223.575V224.362C297.938 224.5 298.05 224.612 298.188 224.612Z" fill="#3F3D56"/>
<path d="M293.898 224.612H295.543C295.681 224.612 295.793 224.5 295.793 224.362V223.575C295.793 223.437 295.681 223.325 295.543 223.325H293.898C293.76 223.325 293.648 223.437 293.648 223.575V224.362C293.648 224.5 293.76 224.612 293.898 224.612Z" fill="#3F3D56"/>
<path d="M289.608 224.612H291.253C291.391 224.612 291.503 224.5 291.503 224.362V223.575C291.503 223.437 291.391 223.325 291.253 223.325H289.608C289.47 223.325 289.358 223.437 289.358 223.575V224.362C289.358 224.5 289.47 224.612 289.608 224.612Z" fill="#3F3D56"/>
<path d="M285.318 224.612H286.963C287.101 224.612 287.213 224.5 287.213 224.362V223.575C287.213 223.437 287.101 223.325 286.963 223.325H285.318C285.18 223.325 285.068 223.437 285.068 223.575V224.362C285.068 224.5 285.18 224.612 285.318 224.612Z" fill="#3F3D56"/>
<path d="M281.028 224.612H282.673C282.811 224.612 282.923 224.5 282.923 224.362V223.575C282.923 223.437 282.811 223.325 282.673 223.325H281.028C280.89 223.325 280.778 223.437 280.778 223.575V224.362C280.778 224.5 280.89 224.612 281.028 224.612Z" fill="#3F3D56"/>
<path d="M276.739 224.612H278.383C278.522 224.612 278.633 224.5 278.633 224.362V223.575C278.633 223.437 278.522 223.325 278.383 223.325H276.739C276.601 223.325 276.489 223.437 276.489 223.575V224.362C276.489 224.5 276.601 224.612 276.739 224.612Z" fill="#3F3D56"/>
<path d="M272.449 224.612H274.094C274.232 224.612 274.344 224.5 274.344 224.362V223.575C274.344 223.437 274.232 223.325 274.094 223.325H272.449C272.311 223.325 272.199 223.437 272.199 223.575V224.362C272.199 224.5 272.311 224.612 272.449 224.612Z" fill="#3F3D56"/>
<path d="M268.159 224.612H269.804C269.942 224.612 270.054 224.5 270.054 224.362V223.575C270.054 223.437 269.942 223.325 269.804 223.325H268.159C268.021 223.325 267.909 223.437 267.909 223.575V224.362C267.909 224.5 268.021 224.612 268.159 224.612Z" fill="#3F3D56"/>
<path d="M263.869 224.612H265.514C265.652 224.612 265.764 224.5 265.764 224.362V223.575C265.764 223.437 265.652 223.325 265.514 223.325H263.869C263.731 223.325 263.619 223.437 263.619 223.575V224.362C263.619 224.5 263.731 224.612 263.869 224.612Z" fill="#3F3D56"/>
<path d="M259.579 224.612H261.224C261.362 224.612 261.474 224.5 261.474 224.362V223.575C261.474 223.437 261.362 223.325 261.224 223.325H259.579C259.441 223.325 259.329 223.437 259.329 223.575V224.362C259.329 224.5 259.441 224.612 259.579 224.612Z" fill="#3F3D56"/>
<path d="M255.29 224.612H256.934C257.073 224.612 257.184 224.5 257.184 224.362V223.575C257.184 223.437 257.073 223.325 256.934 223.325H255.29C255.151 223.325 255.04 223.437 255.04 223.575V224.362C255.04 224.5 255.151 224.612 255.29 224.612Z" fill="#3F3D56"/>
<path d="M284.031 227.186H300.69C300.829 227.186 300.94 227.074 300.94 226.936V226.149C300.94 226.011 300.829 225.899 300.69 225.899H284.031C283.893 225.899 283.781 226.011 283.781 226.149V226.936C283.781 227.074 283.893 227.186 284.031 227.186Z" fill="#3F3D56"/>
<path d="M266.381 183.807H264.925C264.484 183.807 264.126 184.165 264.126 184.607C264.126 185.048 264.484 185.406 264.925 185.406H266.381C266.823 185.406 267.181 185.048 267.181 184.607C267.181 184.165 266.823 183.807 266.381 183.807Z" fill="white"/>
<path d="M283.036 183.807H281.58C281.138 183.807 280.78 184.165 280.78 184.607C280.78 185.048 281.138 185.406 281.58 185.406H283.036C283.478 185.406 283.836 185.048 283.836 184.607C283.836 184.165 283.478 183.807 283.036 183.807Z" fill="white"/>
<path d="M287.755 183.807H286.299C285.857 183.807 285.499 184.165 285.499 184.607C285.499 185.048 285.857 185.406 286.299 185.406H287.755C288.197 185.406 288.554 185.048 288.554 184.607C288.554 184.165 288.197 183.807 287.755 183.807Z" fill="white"/>
<path d="M278.506 183.674H269.455C269.014 183.674 268.656 184.032 268.656 184.473C268.656 184.915 269.014 185.273 269.455 185.273H278.506C278.947 185.273 279.305 184.915 279.305 184.473C279.305 184.032 278.947 183.674 278.506 183.674Z" fill="white"/>
<path d="M300.712 183.674H291.662C291.22 183.674 290.862 184.032 290.862 184.473C290.862 184.915 291.22 185.273 291.662 185.273H300.712C301.154 185.273 301.512 184.915 301.512 184.473C301.512 184.032 301.154 183.674 300.712 183.674Z" fill="white"/>
<path d="M270.823 187.416H269.366C268.925 187.416 268.567 187.774 268.567 188.215C268.567 188.657 268.925 189.015 269.366 189.015H270.823C271.264 189.015 271.622 188.657 271.622 188.215C271.622 187.774 271.264 187.416 270.823 187.416Z" fill="white"/>
<path d="M287.477 187.416H286.021C285.58 187.416 285.222 187.774 285.222 188.215C285.222 188.657 285.58 189.015 286.021 189.015H287.477C287.919 189.015 288.277 188.657 288.277 188.215C288.277 187.774 287.919 187.416 287.477 187.416Z" fill="white"/>
<path d="M292.196 187.416H290.74C290.299 187.416 289.941 187.774 289.941 188.215C289.941 188.657 290.299 189.015 290.74 189.015H292.196C292.638 189.015 292.996 188.657 292.996 188.215C292.996 187.774 292.638 187.416 292.196 187.416Z" fill="white"/>
<path d="M282.947 187.283H273.897C273.455 187.283 273.097 187.641 273.097 188.082C273.097 188.524 273.455 188.882 273.897 188.882H282.947C283.389 188.882 283.747 188.524 283.747 188.082C283.747 187.641 283.389 187.283 282.947 187.283Z" fill="white"/>
<path d="M305.154 187.283H296.103C295.662 187.283 295.304 187.641 295.304 188.082C295.304 188.524 295.662 188.882 296.103 188.882H305.154C305.595 188.882 305.953 188.524 305.953 188.082C305.953 187.641 305.595 187.283 305.154 187.283Z" fill="white"/>
<path d="M275.264 191.024H273.808C273.366 191.024 273.008 191.382 273.008 191.824C273.008 192.265 273.366 192.623 273.808 192.623H275.264C275.705 192.623 276.063 192.265 276.063 191.824C276.063 191.382 275.705 191.024 275.264 191.024Z" fill="white"/>
<path d="M291.919 191.024H290.463C290.021 191.024 289.663 191.382 289.663 191.824C289.663 192.265 290.021 192.623 290.463 192.623H291.919C292.36 192.623 292.718 192.265 292.718 191.824C292.718 191.382 292.36 191.024 291.919 191.024Z" fill="white"/>
<path d="M296.638 191.024H295.181C294.74 191.024 294.382 191.382 294.382 191.824C294.382 192.265 294.74 192.623 295.181 192.623H296.638C297.079 192.623 297.437 192.265 297.437 191.824C297.437 191.382 297.079 191.024 296.638 191.024Z" fill="white"/>
<path d="M287.389 190.891H278.338C277.896 190.891 277.538 191.249 277.538 191.691C277.538 192.132 277.896 192.49 278.338 192.49H287.389C287.83 192.49 288.188 192.132 288.188 191.691C288.188 191.249 287.83 190.891 287.389 190.891Z" fill="white"/>
<path d="M309.595 190.891H300.544C300.103 190.891 299.745 191.249 299.745 191.691C299.745 192.132 300.103 192.49 300.544 192.49H309.595C310.037 192.49 310.394 192.132 310.394 191.691C310.394 191.249 310.037 190.891 309.595 190.891Z" fill="white"/>
<path d="M279.705 194.633H278.249C277.807 194.633 277.45 194.991 277.45 195.432C277.45 195.874 277.807 196.232 278.249 196.232H279.705C280.147 196.232 280.505 195.874 280.505 195.432C280.505 194.991 280.147 194.633 279.705 194.633Z" fill="white"/>
<path d="M296.36 194.633H294.904C294.462 194.633 294.104 194.991 294.104 195.432C294.104 195.874 294.462 196.232 294.904 196.232H296.36C296.802 196.232 297.159 195.874 297.159 195.432C297.159 194.991 296.802 194.633 296.36 194.633Z" fill="white"/>
<path d="M301.079 194.633H299.623C299.181 194.633 298.823 194.991 298.823 195.432C298.823 195.874 299.181 196.232 299.623 196.232H301.079C301.52 196.232 301.878 195.874 301.878 195.432C301.878 194.991 301.52 194.633 301.079 194.633Z" fill="white"/>
<path d="M291.83 194.5H282.779C282.338 194.5 281.98 194.858 281.98 195.299C281.98 195.741 282.338 196.099 282.779 196.099H291.83C292.271 196.099 292.629 195.741 292.629 195.299C292.629 194.858 292.271 194.5 291.83 194.5Z" fill="white"/>
<path d="M283.036 208.982H281.58C281.138 208.982 280.78 209.34 280.78 209.782C280.78 210.223 281.138 210.581 281.58 210.581H283.036C283.478 210.581 283.836 210.223 283.836 209.782C283.836 209.34 283.478 208.982 283.036 208.982Z" fill="white"/>
<path d="M287.755 208.982H286.299C285.857 208.982 285.499 209.34 285.499 209.782C285.499 210.223 285.857 210.581 286.299 210.581H287.755C288.197 210.581 288.554 210.223 288.554 209.782C288.554 209.34 288.197 208.982 287.755 208.982Z" fill="white"/>
<path d="M300.712 209.115H291.662C291.22 209.115 290.862 209.473 290.862 209.915C290.862 210.356 291.22 210.714 291.662 210.714H300.712C301.154 210.714 301.512 210.356 301.512 209.915C301.512 209.473 301.154 209.115 300.712 209.115Z" fill="white"/>
<path d="M266.381 208.982H264.925C264.484 208.982 264.126 209.34 264.126 209.782C264.126 210.223 264.484 210.581 264.925 210.581H266.381C266.823 210.581 267.181 210.223 267.181 209.782C267.181 209.34 266.823 208.982 266.381 208.982Z" fill="white"/>
<path d="M278.506 209.115H269.455C269.014 209.115 268.656 209.473 268.656 209.915C268.656 210.356 269.014 210.714 269.455 210.714H278.506C278.947 210.714 279.305 210.356 279.305 209.915C279.305 209.473 278.947 209.115 278.506 209.115Z" fill="white"/>
<path d="M270.823 205.374H269.366C268.925 205.374 268.567 205.731 268.567 206.173C268.567 206.614 268.925 206.972 269.366 206.972H270.823C271.264 206.972 271.622 206.614 271.622 206.173C271.622 205.731 271.264 205.374 270.823 205.374Z" fill="white"/>
<path d="M287.477 205.374H286.021C285.58 205.374 285.222 205.731 285.222 206.173C285.222 206.614 285.58 206.972 286.021 206.972H287.477C287.919 206.972 288.277 206.614 288.277 206.173C288.277 205.731 287.919 205.374 287.477 205.374Z" fill="white"/>
<path d="M292.196 205.374H290.74C290.299 205.374 289.941 205.731 289.941 206.173C289.941 206.614 290.299 206.972 290.74 206.972H292.196C292.638 206.972 292.996 206.614 292.996 206.173C292.996 205.731 292.638 205.374 292.196 205.374Z" fill="white"/>
<path d="M282.947 205.507H273.897C273.455 205.507 273.097 205.865 273.097 206.306C273.097 206.748 273.455 207.106 273.897 207.106H282.947C283.389 207.106 283.747 206.748 283.747 206.306C283.747 205.865 283.389 205.507 282.947 205.507Z" fill="white"/>
<path d="M275.264 201.765H273.808C273.366 201.765 273.008 202.123 273.008 202.565C273.008 203.006 273.366 203.364 273.808 203.364H275.264C275.705 203.364 276.063 203.006 276.063 202.565C276.063 202.123 275.705 201.765 275.264 201.765Z" fill="white"/>
<path d="M291.919 201.765H290.463C290.021 201.765 289.663 202.123 289.663 202.565C289.663 203.006 290.021 203.364 290.463 203.364H291.919C292.36 203.364 292.718 203.006 292.718 202.565C292.718 202.123 292.36 201.765 291.919 201.765Z" fill="white"/>
<path d="M296.638 201.765H295.181C294.74 201.765 294.382 202.123 294.382 202.565C294.382 203.006 294.74 203.364 295.181 203.364H296.638C297.079 203.364 297.437 203.006 297.437 202.565C297.437 202.123 297.079 201.765 296.638 201.765Z" fill="white"/>
<path d="M287.389 201.898H278.338C277.896 201.898 277.538 202.256 277.538 202.698C277.538 203.139 277.896 203.497 278.338 203.497H287.389C287.83 203.497 288.188 203.139 288.188 202.698C288.188 202.256 287.83 201.898 287.389 201.898Z" fill="white"/>
<path d="M279.705 198.156H278.249C277.807 198.156 277.45 198.514 277.45 198.956C277.45 199.397 277.807 199.755 278.249 199.755H279.705C280.147 199.755 280.505 199.397 280.505 198.956C280.505 198.514 280.147 198.156 279.705 198.156Z" fill="white"/>
<path d="M296.36 198.156H294.904C294.462 198.156 294.104 198.514 294.104 198.956C294.104 199.397 294.462 199.755 294.904 199.755H296.36C296.802 199.755 297.159 199.397 297.159 198.956C297.159 198.514 296.802 198.156 296.36 198.156Z" fill="white"/>
<path d="M301.079 198.156H299.623C299.181 198.156 298.823 198.514 298.823 198.956C298.823 199.397 299.181 199.755 299.623 199.755H301.079C301.52 199.755 301.878 199.397 301.878 198.956C301.878 198.514 301.52 198.156 301.079 198.156Z" fill="white"/>
<path d="M291.83 198.29H282.779C282.338 198.29 281.98 198.648 281.98 199.089C281.98 199.531 282.338 199.889 282.779 199.889H291.83C292.271 199.889 292.629 199.531 292.629 199.089C292.629 198.648 292.271 198.29 291.83 198.29Z" fill="white"/>
<path d="M258.639 251.273L251.803 240.467L273.261 223.361L282.118 213.549C283.268 212.274 284.733 211.324 286.366 210.793C288 210.262 289.743 210.168 291.424 210.522C293.104 210.876 294.662 211.665 295.943 212.81C297.223 213.954 298.18 215.415 298.719 217.046C299.517 219.462 299.345 222.094 298.24 224.386C297.134 226.679 295.182 228.452 292.794 229.331L278.788 234.491L258.639 251.273Z" fill="#FFB6B6"/>
<path d="M98.2372 172.922V225.442H135.031V172.922C135.032 172.544 134.911 172.176 134.687 171.872C134.463 171.568 134.148 171.344 133.787 171.232C133.617 171.176 133.439 171.148 133.259 171.15H100.014C99.7812 171.15 99.5503 171.195 99.3348 171.284C99.1194 171.373 98.9235 171.503 98.7585 171.668C98.5935 171.832 98.4625 172.028 98.373 172.243C98.2836 172.458 98.2375 172.689 98.2372 172.922ZM112.596 190.968C112.606 189.933 113.024 188.943 113.76 188.214C114.495 187.486 115.489 187.077 116.524 187.077C117.56 187.077 118.553 187.486 119.289 188.214C120.024 188.943 120.442 189.933 120.452 190.968V197.062C120.447 198.1 120.03 199.094 119.294 199.827C118.558 200.559 117.562 200.97 116.524 200.97C115.486 200.97 114.49 200.559 113.754 199.827C113.018 199.094 112.602 198.1 112.596 197.062V190.968Z" fill="#2F2E41"/>
<path d="M98.1246 223.763V228.828C98.1254 229.09 98.2297 229.341 98.4147 229.527C98.5997 229.713 98.8506 229.819 99.1129 229.821H134.156C134.418 229.82 134.67 229.714 134.855 229.528C135.04 229.342 135.144 229.09 135.144 228.828V223.763H98.1246Z" fill="#3F3D56"/>
<path d="M40.3552 93.7932V189.688C40.3562 190.91 40.8421 192.082 41.7062 192.946C42.5703 193.81 43.742 194.296 44.9641 194.297H187.07C188.292 194.296 189.464 193.81 190.328 192.946C191.192 192.082 191.678 190.91 191.679 189.688V93.7932C191.676 92.5722 191.19 91.4021 190.326 90.5392C189.462 89.6764 188.291 89.191 187.07 89.1895H44.9641C43.7431 89.191 42.5725 89.6764 41.7086 90.5393C40.8448 91.4021 40.3581 92.5722 40.3552 93.7932Z" fill="#3F3D56"/>
<path d="M43.6889 94.9864V188.505C43.6901 189.158 43.9499 189.784 44.4116 190.246C44.8733 190.707 45.4992 190.967 46.1521 190.968H185.887C186.54 190.967 187.166 190.707 187.628 190.246C188.089 189.784 188.349 189.158 188.351 188.505V94.9864C188.35 94.3326 188.091 93.7056 187.629 93.2429C187.168 92.7802 186.541 92.5195 185.887 92.5181H46.1521C45.4984 92.5195 44.8719 92.7802 44.4102 93.2429C43.9484 93.7056 43.689 94.3326 43.6889 94.9864Z" fill="white"/>
<path d="M69.6214 229.478C69.7636 229.656 69.9444 229.8 70.1502 229.898C70.356 229.997 70.5814 230.047 70.8095 230.046H153.943C154.17 230.046 154.395 229.995 154.6 229.897C154.805 229.799 154.986 229.657 155.129 229.48C155.272 229.304 155.374 229.097 155.428 228.876C155.481 228.655 155.485 228.425 155.438 228.203L154.148 222.073C154.094 221.823 153.979 221.59 153.813 221.396C153.646 221.202 153.434 221.053 153.195 220.962C153.022 220.894 152.838 220.859 152.652 220.859H72.0948C71.9091 220.859 71.7249 220.894 71.552 220.962C71.3132 221.053 71.1009 221.202 70.9345 221.396C70.7681 221.59 70.653 221.823 70.5995 222.073L69.309 228.203C69.2631 228.425 69.2673 228.655 69.3214 228.876C69.3754 229.096 69.4779 229.302 69.6214 229.478Z" fill="#2F2E41"/>
<path d="M181.352 105.401H50.6028C50.4669 105.398 50.3376 105.342 50.2425 105.244C50.1475 105.147 50.0943 105.017 50.0943 104.881C50.0943 104.745 50.1475 104.614 50.2425 104.517C50.3376 104.42 50.4669 104.364 50.6028 104.361H181.352C181.488 104.364 181.618 104.42 181.713 104.517C181.808 104.614 181.861 104.745 181.861 104.881C181.861 105.017 181.808 105.147 181.713 105.244C181.618 105.342 181.488 105.398 181.352 105.401Z" fill="#3F3D56"/>
<path d="M59.5031 101.706C61.186 101.706 62.5503 100.312 62.5503 98.5912C62.5503 96.8707 61.186 95.4761 59.5031 95.4761C57.8202 95.4761 56.4559 96.8707 56.4559 98.5912C56.4559 100.312 57.8202 101.706 59.5031 101.706Z" fill="#3F3D56"/>
<path d="M70.0297 101.706C71.7126 101.706 73.0769 100.312 73.0769 98.5912C73.0769 96.8707 71.7126 95.4761 70.0297 95.4761C68.3468 95.4761 66.9825 96.8707 66.9825 98.5912C66.9825 100.312 68.3468 101.706 70.0297 101.706Z" fill="#3F3D56"/>
<path d="M80.5563 101.706C82.2393 101.706 83.6035 100.312 83.6035 98.5912C83.6035 96.8707 82.2393 95.4761 80.5563 95.4761C78.8734 95.4761 77.5092 96.8707 77.5092 98.5912C77.5092 100.312 78.8734 101.706 80.5563 101.706Z" fill="#3F3D56"/>
<path d="M175.014 96.2461H167.537C167.389 96.2495 167.249 96.3107 167.145 96.4164C167.042 96.5222 166.984 96.6641 166.984 96.8119C166.984 96.9598 167.042 97.1018 167.145 97.2075C167.249 97.3133 167.389 97.3744 167.537 97.3778H175.014C175.162 97.3757 175.304 97.3152 175.409 97.2093C175.513 97.1034 175.572 96.9607 175.572 96.8119C175.572 96.6632 175.513 96.5205 175.409 96.4146C175.304 96.3087 175.162 96.2482 175.014 96.2461Z" fill="#3F3D56"/>
<path d="M175.014 98.3716H167.537C167.389 98.3749 167.248 98.4359 167.145 98.5417C167.042 98.6474 166.984 98.7895 166.984 98.9375C166.984 99.0854 167.042 99.2275 167.145 99.3332C167.248 99.439 167.389 99.5 167.537 99.5033H175.014C175.163 99.5015 175.305 99.4411 175.409 99.3352C175.514 99.2293 175.573 99.0864 175.573 98.9375C175.573 98.7885 175.514 98.6456 175.409 98.5397C175.305 98.4338 175.163 98.3734 175.014 98.3716Z" fill="#3F3D56"/>
<path d="M175.014 100.497H167.537C167.389 100.5 167.249 100.561 167.145 100.667C167.042 100.773 166.984 100.915 166.984 101.062C166.984 101.21 167.042 101.352 167.145 101.458C167.249 101.564 167.389 101.625 167.537 101.628H175.014C175.162 101.626 175.304 101.566 175.409 101.46C175.513 101.354 175.572 101.211 175.572 101.062C175.572 100.914 175.513 100.771 175.409 100.665C175.304 100.559 175.162 100.499 175.014 100.497Z" fill="#3F3D56"/>
<path d="M355.26 225.986C355.486 226.643 355.914 227.211 356.483 227.61C357.052 228.008 357.732 228.216 358.427 228.204L371.993 227.854C372.693 227.841 373.369 227.601 373.921 227.171C374.473 226.741 374.871 226.144 375.056 225.47L376.976 204.941C377.657 205.25 378.398 205.402 379.146 205.387C379.795 205.371 380.435 205.227 381.029 204.963C381.623 204.699 382.159 204.321 382.607 203.851C383.054 203.38 383.405 202.825 383.639 202.219C383.872 201.613 383.984 200.966 383.968 200.317C383.951 199.667 383.807 199.027 383.544 198.434C383.28 197.84 382.902 197.304 382.431 196.856C381.96 196.408 381.406 196.058 380.8 195.824C380.193 195.591 379.547 195.479 378.897 195.495C378.599 195.494 378.301 195.525 378.008 195.588C377.691 195.244 377.304 194.97 376.874 194.785C376.445 194.599 375.981 194.506 375.512 194.511L354.644 195.05C354.471 195.056 354.299 195.077 354.13 195.113C353.672 195.199 353.238 195.381 352.857 195.648C352.475 195.915 352.156 196.261 351.919 196.662C351.683 197.063 351.535 197.51 351.486 197.973C351.437 198.436 351.487 198.904 351.634 199.346L355.26 225.986ZM377.369 203.547L378.735 198.655C378.891 198.09 378.894 197.494 378.746 196.927C378.812 196.927 378.871 196.896 378.937 196.896C379.873 196.876 380.78 197.229 381.457 197.877C382.133 198.524 382.526 199.414 382.548 200.351C382.57 201.287 382.219 202.194 381.574 202.873C380.928 203.552 380.039 203.947 379.103 203.971C378.497 203.99 377.898 203.844 377.369 203.547Z" fill="#2F2E41"/>
<path d="M354.13 195.113C354.574 197.655 359.573 199.442 365.583 199.132C371.11 198.877 375.629 196.937 376.457 194.636C376.15 194.546 375.832 194.503 375.512 194.511L354.644 195.049C354.471 195.056 354.299 195.077 354.13 195.113Z" fill="#3F3D56"/>
<path d="M366.684 214.705C366.712 214.698 366.738 214.687 366.762 214.671L369.708 212.743C369.744 212.72 369.773 212.688 369.793 212.65C369.813 212.613 369.824 212.571 369.824 212.529C369.824 212.486 369.813 212.444 369.793 212.407C369.773 212.37 369.744 212.338 369.708 212.315L366.646 210.309C366.618 210.29 366.586 210.277 366.553 210.271C366.52 210.265 366.486 210.265 366.453 210.272C366.42 210.278 366.389 210.292 366.361 210.311C366.333 210.33 366.309 210.354 366.291 210.382C366.272 210.41 366.259 210.442 366.253 210.475C366.247 210.508 366.247 210.542 366.254 210.575C366.261 210.608 366.275 210.639 366.294 210.667C366.313 210.695 366.337 210.719 366.365 210.737L369.1 212.528L366.481 214.243C366.431 214.276 366.393 214.326 366.376 214.384C366.359 214.442 366.363 214.504 366.387 214.56C366.412 214.615 366.455 214.66 366.509 214.687C366.564 214.714 366.626 214.72 366.684 214.705Z" fill="#FFBC13"/>
<path d="M362.031 214.92C362.081 214.907 362.125 214.88 362.159 214.842C362.193 214.804 362.215 214.757 362.222 214.706C362.229 214.656 362.221 214.604 362.198 214.558C362.176 214.513 362.14 214.475 362.096 214.449L359.38 212.892L362.005 210.943C362.032 210.923 362.055 210.897 362.072 210.869C362.089 210.84 362.101 210.808 362.105 210.775C362.11 210.741 362.109 210.708 362.1 210.675C362.092 210.642 362.078 210.612 362.058 210.585C362.038 210.558 362.012 210.535 361.984 210.518C361.955 210.5 361.923 210.489 361.89 210.484C361.856 210.479 361.822 210.481 361.79 210.489C361.757 210.497 361.727 210.512 361.7 210.532L358.761 212.715C358.727 212.74 358.7 212.774 358.682 212.812C358.664 212.851 358.655 212.893 358.658 212.935C358.66 212.978 358.673 213.019 358.696 213.055C358.718 213.091 358.749 213.121 358.786 213.142L361.841 214.893C361.899 214.927 361.967 214.936 362.031 214.92Z" fill="#FFBC13"/>
<path d="M366.391 216.395C366.416 216.389 366.44 216.379 366.462 216.365C366.49 216.348 366.515 216.325 366.535 216.298C366.555 216.271 366.569 216.24 366.577 216.207C366.585 216.175 366.587 216.141 366.582 216.107C366.577 216.074 366.565 216.042 366.547 216.013L362.371 209.147C362.336 209.089 362.279 209.048 362.213 209.032C362.147 209.016 362.077 209.027 362.019 209.062C361.961 209.097 361.92 209.154 361.904 209.22C361.888 209.286 361.898 209.356 361.933 209.414L366.11 216.28C366.138 216.327 366.181 216.363 366.232 216.384C366.282 216.405 366.338 216.408 366.391 216.395Z" fill="#FFBC13"/>
<path d="M131.6 133.668H108.97C108.047 133.668 107.299 134.417 107.299 135.34V137.551C107.299 138.474 108.047 139.222 108.97 139.222H131.6C132.523 139.222 133.272 138.474 133.272 137.551V135.34C133.272 134.417 132.523 133.668 131.6 133.668Z" fill="#FFBC13"/>
<path d="M144.791 144.776H95.7793C94.8561 144.776 94.1077 145.525 94.1077 146.448V148.659C94.1077 149.582 94.8561 150.33 95.7793 150.33H144.791C145.714 150.33 146.462 149.582 146.462 148.659V146.448C146.462 145.525 145.714 144.776 144.791 144.776Z" fill="#E6E6E6"/>
<path d="M144.791 155.884H95.7793C94.8561 155.884 94.1077 156.633 94.1077 157.556V159.767C94.1077 160.69 94.8561 161.438 95.7793 161.438H144.791C145.714 161.438 146.462 160.69 146.462 159.767V157.556C146.462 156.633 145.714 155.884 144.791 155.884Z" fill="#E6E6E6"/>
<path d="M148.945 193.081L149.056 193.431L149.062 193.443L152.404 203.602L156.248 215.309L163.48 237.309L163.55 240.727V240.738L164.087 268.23L162.598 271.957L164.274 278.068C164.274 278.068 163.503 268.831 159.367 274.135C157.025 277.15 154.285 280.234 152.036 283.126C155.313 284.452 158.643 285.651 162.025 286.724C162.756 286.958 163.492 287.18 164.228 287.402C164.385 287.449 164.543 287.495 164.701 287.542C175.913 290.858 187.504 292.721 199.191 293.086C199.798 293.104 200.394 293.115 200.973 293.127C201.177 293.133 201.376 293.139 201.574 293.139C202.229 293.145 202.877 293.15 203.531 293.15C204.852 293.15 206.166 293.131 207.474 293.092C217.16 292.819 226.789 291.517 236.199 289.207C236.134 285.322 235.959 280.783 235.708 275.935C235.591 273.557 232.968 270.981 232.81 268.492C232.699 266.623 235.054 264.864 234.931 262.966C234.136 251.276 233.143 255.764 232.407 247.486C232.331 246.674 232.261 245.897 232.197 245.155C231.724 239.839 231.397 236.515 231.397 236.515L234.54 216.705L239.476 185.603L239.096 184.978L238.67 184.768L212.633 171.881L211.219 168.259C210.807 167.216 210.093 166.319 209.167 165.685C208.242 165.051 207.148 164.709 206.026 164.701L188.874 164.631C187.984 164.627 187.106 164.836 186.312 165.239C185.519 165.642 184.833 166.229 184.312 166.951L179.668 173.382L148.945 193.081Z" fill="#3F3D56"/>
<path d="M167.435 232.414L163.55 240.727L160.898 246.405L156.335 270.292L154.051 272.716L152.094 264.134L131.612 268.682C130.94 264.949 131.432 268.808 131.017 264.713C131.134 264.596 131.256 264.479 131.379 264.363C131.706 264.059 131.981 263.772 131.975 263.498C131.741 249.372 132.442 225.333 138.296 210.77C139.213 208.392 140.421 206.137 141.894 204.058C142.011 203.9 142.122 203.742 142.233 203.584C144.932 199.805 146.638 196.084 149.056 193.437V193.431C149.072 193.419 149.085 193.405 149.097 193.39C149.106 193.386 149.114 193.38 149.121 193.373L165.735 184.563L166.448 204.589L166.956 218.983L167.435 232.414Z" fill="#3F3D56"/>
<path d="M227.342 234.775L232.195 245.157L233.888 248.773L238.45 272.658L240.726 275.077L242.688 266.496L243.609 266.307L260.231 262.865L265.076 278.251C266.168 276.432 266.598 274.291 266.294 272.191C265.989 270.091 264.969 268.161 263.406 266.726C263.075 266.427 262.799 266.136 262.807 265.86C263.083 249.246 262.067 218.909 252.889 206.423C249.975 202.461 248.226 198.514 245.681 195.757C245.673 195.749 245.673 195.741 245.665 195.741L239.474 185.603L239.095 184.98L238.67 184.768L227.342 234.775Z" fill="#3F3D56"/>
<path d="M197.945 159.75C210.547 159.75 220.763 149.534 220.763 136.932C220.763 124.33 210.547 114.114 197.945 114.114C185.343 114.114 175.127 124.33 175.127 136.932C175.127 149.534 185.343 159.75 197.945 159.75Z" fill="#FFB6B6"/>
<path d="M228.787 120.994C228.61 120.805 228.397 120.653 228.16 120.549C227.923 120.444 227.668 120.388 227.409 120.384L227.752 119.432C227.864 119.132 227.894 118.807 227.84 118.492C227.785 118.176 227.648 117.881 227.441 117.636C227.235 117.391 226.967 117.205 226.665 117.098C226.364 116.991 226.039 116.965 225.724 117.025L224.475 117.266L224.593 116.431C224.638 116.12 224.601 115.803 224.487 115.51C224.372 115.218 224.183 114.96 223.939 114.763C223.694 114.565 223.403 114.435 223.093 114.385C222.783 114.334 222.465 114.365 222.17 114.475C221.903 114.58 221.615 114.624 221.327 114.604C221.04 114.583 220.761 114.499 220.511 114.357C220.26 114.219 220.042 114.028 219.872 113.797C219.702 113.566 219.585 113.301 219.528 113.02L219.093 110.921L219.047 110.808C216.927 107.275 212.85 104.704 207.862 103.762C203.423 102.917 198.87 103.347 194.481 103.751C192.74 103.915 190.774 104.1 189.135 105.103C187.742 105.964 186.564 107.684 186.805 109.42C182.478 108.094 177.838 110.741 175.539 114.08C172.815 118.054 172.369 123.032 172.298 126.924C172.103 136.131 174.003 143.664 177.931 149.318C178.217 149.727 178.289 150.582 178.857 150.869L178.74 150.68C179.375 150.997 180.02 151.509 179.779 152.057C179.088 153.634 183.681 157.122 186.918 158.274C192.822 160.379 200.673 160.2 206.193 159.442L206.388 158.136C208.38 157.864 209.783 157.347 210.177 156.538C210.874 155.944 211.468 155.411 211.985 154.92L211.99 154.915C212 154.904 212.021 154.889 212.031 154.879C214.525 152.487 215.103 151.125 215.365 149.051C215.616 147.018 215.17 144.955 214.714 143.096C224.311 144.581 210.935 132.874 219.876 130.611C219.979 130.579 220.083 130.554 220.189 130.534C220.45 130.472 220.711 130.411 220.962 130.339C222.171 130.011 223.33 129.516 224.403 128.87C226.902 127.349 227.727 125.331 229.017 123.057C229.203 122.734 229.281 122.359 229.24 121.988C229.198 121.617 229.04 121.268 228.787 120.994Z" fill="#2F2E41"/>
<path d="M278.649 236.399C278.644 237.295 278.634 238.55 278.593 240.102C278.588 240.317 278.583 240.537 278.578 240.762C278.511 243.615 278.444 246.006 278.337 248.664C278.332 248.848 278.327 249.027 278.316 249.212C278.173 252.919 277.948 257.236 277.559 264.073C276.836 276.701 275.577 265.809 274.312 270.238C274.25 270.459 274.184 270.72 274.122 271.027C273.931 272.142 273.608 273.23 273.16 274.269C272.489 274.668 271.797 275.052 271.116 275.436C269.176 276.517 267.204 277.556 265.217 278.545C264.101 279.098 262.979 279.64 261.853 280.163C261.673 280.245 261.499 280.327 261.325 280.404C255.556 283.072 249.61 285.341 243.53 287.194C242.342 287.552 241.159 287.901 239.961 288.223C238.711 288.571 237.462 288.899 236.197 289.206C226.787 291.516 217.158 292.819 207.473 293.093C206.167 293.134 204.851 293.15 203.53 293.15C202.875 293.15 202.229 293.144 201.574 293.139C201.374 293.139 201.175 293.134 200.975 293.129C200.396 293.114 199.797 293.103 199.193 293.088C187.506 292.724 175.915 290.86 164.703 287.542L164.227 287.404C163.49 287.179 162.757 286.958 162.025 286.723C158.645 285.652 155.315 284.454 152.034 283.128C149.53 282.119 147.055 281.037 144.609 279.881C144.586 279.875 144.565 279.865 144.547 279.85C144.035 279.615 143.518 279.369 143.006 279.118C142.939 279.082 142.867 279.046 142.796 279.011C140.886 278.079 138.996 277.102 137.127 276.081C135.555 272.471 133.342 271.78 131.97 268.605C131.571 267.662 131.282 266.675 131.11 265.665C131.11 265.655 131.105 265.645 131.105 265.63C131.248 267.535 130.495 262.25 131.1 265.609C131.094 265.548 131.089 265.481 131.084 265.404C131.069 265.22 131.048 264.995 131.018 264.713C129.261 247.563 129.374 227.95 128.611 211.788C128.56 210.743 128.507 209.743 128.452 208.787C128.437 208.47 128.416 208.157 128.396 207.85C128.432 207.758 128.472 207.66 128.519 207.568C128.528 207.542 128.54 207.516 128.554 207.492C128.57 207.46 128.587 207.429 128.606 207.399C128.616 207.384 128.631 207.363 128.641 207.348C128.649 207.331 128.658 207.313 128.667 207.297C128.713 207.225 128.764 207.148 128.821 207.077C128.846 207.046 128.867 207.02 128.892 206.995C128.91 206.969 128.931 206.945 128.954 206.923C128.97 206.898 128.989 206.876 129.01 206.857C129.031 206.836 129.051 206.81 129.077 206.785C129.088 206.769 129.102 206.755 129.118 206.744C129.158 206.697 129.203 206.655 129.251 206.616C129.434 206.448 129.629 206.294 129.835 206.155C129.906 206.109 129.983 206.063 130.055 206.012C130.571 205.703 131.114 205.442 131.678 205.233C131.873 205.162 132.067 205.095 132.277 205.023C132.354 205.003 132.426 204.977 132.503 204.952C132.615 204.916 132.728 204.88 132.846 204.854C133.43 204.68 134.059 204.532 134.741 204.393C134.822 204.378 134.91 204.363 134.997 204.342C135.119 204.317 135.248 204.296 135.376 204.276C135.55 204.245 135.729 204.214 135.908 204.183C137.429 203.943 139.155 203.764 141.06 203.646C141.239 203.635 141.418 203.625 141.597 203.615C141.807 203.605 142.017 203.595 142.232 203.584C142.412 203.574 142.596 203.569 142.78 203.564C142.96 203.554 143.144 203.548 143.333 203.543C143.851 203.528 144.383 203.513 144.926 203.502C146.473 203.472 148.101 203.482 149.811 203.518C150.605 203.538 151.414 203.559 152.244 203.594C152.3 203.594 152.351 203.6 152.403 203.6C153.125 203.625 153.852 203.656 154.6 203.697C155.122 203.723 155.649 203.748 156.177 203.779C156.674 203.81 157.175 203.84 157.682 203.876C158.077 203.897 158.471 203.927 158.87 203.953C159.208 203.979 159.546 204.004 159.884 204.025L160.345 204.055C160.596 204.076 160.847 204.091 161.103 204.117C161.666 204.163 162.23 204.209 162.803 204.255C163.372 204.306 163.95 204.358 164.529 204.409C165.108 204.46 165.691 204.516 166.275 204.573C166.337 204.578 166.393 204.583 166.449 204.588C166.982 204.644 167.515 204.695 168.052 204.752C168.175 204.762 168.303 204.772 168.426 204.788C168.939 204.839 169.461 204.899 169.979 204.954C170.138 204.972 170.295 204.988 170.455 205.006C170.86 205.05 171.259 205.088 171.668 205.136C172.205 205.197 172.753 205.254 173.286 205.325C173.701 205.371 174.115 205.418 174.53 205.469C175.181 205.546 175.841 205.628 176.502 205.715C176.753 205.745 177.004 205.776 177.255 205.812C179.139 206.047 181.044 206.309 182.98 206.58C185.914 206.995 188.894 207.445 191.895 207.932C194.901 208.418 197.924 208.932 200.965 209.473C201.733 209.612 202.501 209.75 203.274 209.893C203.622 209.96 203.97 210.026 204.319 210.093C204.913 210.2 205.507 210.313 206.101 210.426C206.695 210.538 207.289 210.651 207.883 210.769C208.59 210.907 209.301 211.045 210.008 211.184C214.663 212.105 219.292 213.089 223.809 214.118C224.552 214.287 225.294 214.461 226.032 214.63C227.506 214.973 228.968 215.321 230.415 215.675C230.814 215.767 231.209 215.864 231.603 215.962C232.586 216.207 233.57 216.453 234.537 216.704L234.706 216.75C235.418 216.924 236.115 217.104 236.811 217.288C238.455 217.718 240.071 218.153 241.661 218.594C242.716 218.886 243.759 219.181 244.79 219.48C246.331 219.925 247.842 220.376 249.311 220.832C249.675 220.944 250.039 221.057 250.397 221.164C251.472 221.497 252.532 221.835 253.562 222.173C254.381 222.44 255.18 222.711 255.969 222.982C256.757 223.254 257.53 223.525 258.288 223.797C258.775 223.971 259.256 224.155 259.738 224.329C260.429 224.585 261.11 224.841 261.776 225.097C261.981 225.174 262.18 225.256 262.38 225.333C262.508 225.389 262.631 225.435 262.754 225.486C262.994 225.584 263.24 225.676 263.476 225.773C263.717 225.865 263.952 225.963 264.188 226.065C264.418 226.157 264.654 226.255 264.879 226.352C265.109 226.444 265.335 226.541 265.56 226.644C265.75 226.721 265.934 226.803 266.113 226.885C266.477 227.043 266.84 227.202 267.194 227.366C267.368 227.448 267.542 227.525 267.716 227.607L268.115 227.791C268.172 227.822 268.228 227.847 268.284 227.873C268.412 227.934 268.546 228.001 268.674 228.062C268.971 228.201 269.263 228.349 269.549 228.487C269.933 228.682 270.307 228.877 270.666 229.066C271.029 229.261 271.383 229.455 271.721 229.645C271.777 229.675 271.828 229.706 271.884 229.737C271.961 229.778 272.038 229.824 272.115 229.865C272.376 230.013 272.627 230.167 272.878 230.316C273.37 230.618 273.836 230.915 274.271 231.212C274.368 231.278 274.46 231.345 274.558 231.406C274.88 231.637 275.187 231.862 275.474 232.092C275.474 232.098 275.474 232.098 275.479 232.098C275.577 232.169 275.669 232.246 275.761 232.318C275.838 232.39 275.92 232.451 275.997 232.523C276.263 232.753 276.509 232.973 276.734 233.199C276.81 233.268 276.881 233.342 276.949 233.419C276.979 233.444 277.006 233.471 277.031 233.501C277.133 233.603 277.226 233.706 277.313 233.808C277.326 233.822 277.338 233.838 277.349 233.854C277.471 233.997 277.584 234.141 277.692 234.284C277.743 234.356 277.799 234.428 277.845 234.499C277.907 234.586 277.968 234.679 278.019 234.766C278.065 234.837 278.106 234.914 278.147 234.986C278.256 235.17 278.349 235.364 278.424 235.565C278.481 235.7 278.528 235.841 278.562 235.984C278.601 236.12 278.63 236.259 278.649 236.399Z" fill="#2F2E41"/>
<path opacity="0.2" d="M278.649 236.399C278.644 237.295 278.634 238.55 278.593 240.102C278.588 240.317 278.578 240.537 278.572 240.762C278.521 242.939 278.444 245.627 278.337 248.664C278.332 248.848 278.327 249.027 278.316 249.212C278.173 252.919 277.948 257.236 277.558 264.073C276.836 276.701 275.577 265.809 274.312 270.238C270.799 268.077 266.948 265.814 262.831 263.489C262.088 263.069 261.339 262.647 260.583 262.224C252.348 257.631 243.151 252.817 233.549 248.049C233.17 247.86 232.786 247.67 232.407 247.486C210.413 236.614 186.406 226.04 166.956 218.983C163.203 217.621 159.618 216.392 156.248 215.311C149.151 213.043 143.016 211.455 138.294 210.769C133.378 210.052 129.983 210.308 128.611 211.788C128.56 210.743 128.507 209.743 128.452 208.787C128.431 208.47 128.411 208.157 128.391 207.85C128.422 207.766 128.463 207.685 128.503 207.604C128.509 207.592 128.513 207.58 128.519 207.568C128.528 207.542 128.54 207.516 128.554 207.491C128.569 207.46 128.587 207.429 128.606 207.399C128.622 207.363 128.643 207.329 128.667 207.297C128.713 207.225 128.764 207.148 128.821 207.077C128.862 207.023 128.907 206.972 128.954 206.923C128.97 206.898 128.988 206.876 129.01 206.856C129.031 206.836 129.051 206.81 129.077 206.785C129.088 206.769 129.102 206.755 129.118 206.744C129.158 206.697 129.203 206.654 129.251 206.616C129.434 206.448 129.629 206.294 129.835 206.155C129.906 206.109 129.983 206.063 130.055 206.012C130.571 205.703 131.114 205.442 131.678 205.233C131.873 205.161 132.067 205.095 132.277 205.023C132.354 205.003 132.426 204.977 132.503 204.951C132.615 204.916 132.728 204.88 132.846 204.854C133.43 204.68 134.059 204.532 134.74 204.393C134.945 204.352 135.16 204.311 135.375 204.276C135.55 204.245 135.729 204.214 135.908 204.183C137.429 203.943 139.155 203.763 141.06 203.646C141.239 203.635 141.418 203.625 141.597 203.615C141.807 203.605 142.017 203.594 142.232 203.584C142.412 203.574 142.596 203.569 142.78 203.564C142.96 203.553 143.144 203.548 143.333 203.543C143.851 203.528 144.383 203.513 144.926 203.502C146.473 203.477 148.101 203.487 149.811 203.523C150.605 203.538 151.414 203.564 152.244 203.6C152.295 203.6 152.351 203.605 152.403 203.605C153.125 203.625 153.857 203.661 154.6 203.697C155.122 203.722 155.649 203.748 156.177 203.779C156.673 203.81 157.175 203.84 157.682 203.876C158.077 203.897 158.471 203.927 158.87 203.953C159.208 203.979 159.546 204.004 159.884 204.025C160.289 204.055 160.693 204.086 161.103 204.117C161.666 204.163 162.23 204.209 162.803 204.255C163.372 204.306 163.95 204.357 164.529 204.409C165.108 204.46 165.691 204.516 166.275 204.573C166.337 204.578 166.393 204.583 166.449 204.588C166.982 204.644 167.515 204.695 168.052 204.752C171.033 205.054 174.1 205.407 177.255 205.812C179.139 206.052 181.047 206.31 182.98 206.585C185.914 207 188.894 207.45 191.895 207.932C194.901 208.418 197.924 208.932 200.965 209.473C201.733 209.612 202.501 209.75 203.274 209.893C204.216 210.067 205.159 210.245 206.101 210.426C206.695 210.538 207.289 210.651 207.883 210.769C208.59 210.907 209.301 211.045 210.008 211.184C214.663 212.105 219.292 213.089 223.809 214.118C224.552 214.287 225.294 214.461 226.032 214.63C227.506 214.973 228.968 215.321 230.415 215.675C230.814 215.772 231.209 215.869 231.603 215.967C232.591 216.212 233.57 216.458 234.537 216.704V216.709C234.594 216.719 234.65 216.735 234.706 216.75C235.413 216.929 236.115 217.109 236.811 217.293C238.455 217.723 240.071 218.157 241.661 218.594C242.716 218.891 243.76 219.183 244.79 219.48C246.331 219.93 247.842 220.381 249.311 220.832C249.675 220.944 250.039 221.057 250.397 221.164C251.472 221.502 252.527 221.839 253.562 222.173C254.381 222.439 255.18 222.711 255.969 222.982C256.757 223.254 257.53 223.525 258.288 223.797C258.78 223.971 259.261 224.15 259.738 224.324C260.434 224.58 261.11 224.836 261.776 225.097C261.981 225.174 262.18 225.256 262.38 225.333C262.754 225.476 263.117 225.625 263.476 225.773C263.717 225.865 263.952 225.963 264.188 226.065C264.418 226.157 264.654 226.255 264.879 226.352C265.109 226.444 265.335 226.541 265.56 226.644C265.75 226.721 265.934 226.803 266.113 226.884C266.477 227.043 266.84 227.202 267.194 227.366C267.368 227.448 267.542 227.525 267.716 227.607L268.115 227.791C268.172 227.822 268.228 227.847 268.284 227.873C268.72 228.078 269.14 228.282 269.549 228.487C269.933 228.682 270.307 228.877 270.666 229.066C271.091 229.291 271.495 229.512 271.884 229.737C271.961 229.778 272.038 229.824 272.115 229.865C272.376 230.013 272.627 230.167 272.878 230.315C273.37 230.618 273.836 230.915 274.271 231.212C274.701 231.509 275.1 231.801 275.474 232.092C275.474 232.098 275.474 232.098 275.479 232.098C275.659 232.241 275.833 232.384 275.997 232.523C276.263 232.753 276.509 232.973 276.734 233.199C276.81 233.268 276.881 233.342 276.949 233.419C276.979 233.443 277.006 233.471 277.031 233.501C277.139 233.619 277.246 233.736 277.349 233.854C277.471 233.997 277.584 234.141 277.692 234.284C277.743 234.356 277.799 234.428 277.845 234.499C277.907 234.586 277.968 234.679 278.019 234.766C278.065 234.837 278.106 234.914 278.147 234.986C278.256 235.17 278.349 235.364 278.424 235.564C278.48 235.701 278.526 235.841 278.562 235.984C278.601 236.12 278.63 236.259 278.649 236.399Z" fill="black"/>
</g>
<defs>
<clipPath id="clip0_1_505">
<rect width="402.926" height="293.05" fill="white" transform="translate(0.0738525 0.100098)"/>
</clipPath>
</defs>
</svg>
