<svg width="448" height="294" viewBox="0 0 448 294" fill="none" xmlns="http://www.w3.org/2000/svg">
<g clip-path="url(#clip0_1_278)">
<path d="M221.495 50.765C228.994 50.765 235.073 44.6858 235.073 37.1867C235.073 29.6876 228.994 23.6084 221.495 23.6084C213.996 23.6084 207.917 29.6876 207.917 37.1867C207.917 44.6858 213.996 50.765 221.495 50.765Z" fill="#FD6584"/>
<path d="M251.884 30.7572C251.501 29.5016 250.76 28.3853 249.75 27.5459C248.741 26.7065 247.508 26.1806 246.204 26.0329C246.174 26.0303 246.143 26.0303 246.112 26.0329C246.076 26.0214 246.038 26.0129 246.001 26.0074C241.454 25.4175 236.399 26.8516 232.997 29.974C231.734 31.1149 230.724 32.5077 230.033 34.0626C229.402 33.2012 228.571 32.5065 227.611 32.0386C226.651 31.5708 225.592 31.3439 224.525 31.3776C223.149 31.4686 221.834 31.9818 220.76 32.8472C219.687 33.7127 218.906 34.8883 218.524 36.2138C218.482 36.3757 218.494 36.5468 218.557 36.7017C218.62 36.8566 218.732 36.9869 218.875 37.0732C219.284 37.423 219.771 37.6705 220.294 37.7953C221.418 38.0343 222.552 38.253 223.686 38.4513C225.903 38.8378 228.132 39.1514 230.373 39.3921C231.853 39.5497 233.336 39.6752 234.823 39.7684C237.895 39.9617 240.981 40.0074 244.058 39.9108C245.584 39.86 247.048 39.8091 248.442 39.1378C249.457 38.6385 250.325 37.883 250.959 36.946C251.556 36.0448 251.948 35.0235 252.108 33.9543C252.268 32.885 252.192 31.7937 251.884 30.7572Z" fill="#E6E6E6"/>
<path d="M223.95 50.5394C223.925 49.9705 223.829 49.4069 223.666 48.8613C223.281 47.6058 222.538 46.4899 221.528 45.6507C220.518 44.8115 219.285 44.2854 217.98 44.137C217.951 44.1344 217.923 44.1344 217.894 44.137C217.855 44.1261 217.816 44.1176 217.777 44.1116C215.261 43.8033 212.707 44.0658 210.306 44.8795C206.614 46.1152 203.375 48.607 201.814 52.1668C201.183 51.3048 200.351 50.6098 199.39 50.1419C198.429 49.674 197.369 49.4474 196.301 49.4817C194.925 49.5727 193.611 50.0859 192.537 50.9513C191.463 51.8168 190.682 52.9924 190.301 54.3179C190.261 54.4798 190.274 54.6501 190.337 54.8045C190.4 54.9588 190.51 55.0893 190.652 55.1773C191.061 55.5261 191.547 55.7735 192.07 55.8994C193.199 56.1384 194.328 56.3571 195.467 56.5554C197.685 56.9419 199.912 57.2555 202.15 57.4962C206.695 57.9842 211.27 58.1575 215.839 58.0149C217.36 57.964 218.829 57.9132 220.223 57.242C221.237 56.7424 222.103 55.9869 222.735 55.0502C223.626 53.7217 224.054 52.1359 223.95 50.5394Z" fill="#E6E6E6"/>
<path d="M400.793 215.299C400.989 224.557 399.711 233.787 397.009 242.644C396.914 242.966 396.8 243.288 396.687 243.61H340.974C341.771 239.688 343.035 235.876 344.74 232.255C349.377 222.415 356.946 213.993 364.421 205.629C374.716 194.104 384.765 182.674 386.354 167.686C390.435 173.907 393.692 180.631 396.043 187.689C393.164 188.755 390.522 190.375 388.266 192.458C387.641 193.044 386.979 193.896 387.301 194.71C387.603 195.391 388.436 195.618 389.174 195.769C390.953 196.11 392.732 196.451 394.511 196.772C395.911 197.056 397.33 197.321 398.75 197.586C399.997 203.411 400.682 209.343 400.793 215.299Z" fill="#F2F2F2"/>
<path d="M447.593 209.168C438.661 214.599 432.983 223.001 428.347 232.406C424.312 233.326 420.588 235.283 417.541 238.084C416.898 238.67 416.235 239.522 416.576 240.336C416.86 241.017 417.712 241.244 418.45 241.395C420.209 241.736 422.007 242.077 423.767 242.398C423.597 242.796 423.427 243.212 423.256 243.61H364.213C366.893 239.995 369.861 236.603 373.088 233.466C373.789 232.766 374.508 232.104 375.246 231.422C382.772 224.62 391.415 219.166 400.793 215.299C415.568 209.122 431.725 207.006 447.593 209.168Z" fill="#F2F2F2"/>
<path d="M374.054 243.609H321.482C321.195 239.4 321.221 235.174 321.558 230.968C323.659 204.985 337.795 180.233 359.122 165.245C356.397 174.953 357.798 184.604 360.636 194.293C360.239 194.426 359.842 194.539 359.482 194.691C356.603 195.757 353.961 197.377 351.704 199.459C351.08 200.046 350.417 200.898 350.739 201.711C351.023 202.393 351.875 202.62 352.613 202.771C354.391 203.112 356.17 203.452 357.93 203.774C359.35 204.058 360.769 204.323 362.188 204.607C362.85 204.72 363.513 204.853 364.175 204.985C364.27 205.212 364.327 205.421 364.421 205.629C367.752 214.807 371.385 224.061 373.088 233.466C373.51 235.826 373.801 238.208 373.959 240.6C374.016 241.604 374.054 242.606 374.054 243.609Z" fill="#F2F2F2"/>
<path d="M87.5355 215.299C87.7306 224.557 86.4531 233.787 83.7507 242.644C83.656 242.966 83.5424 243.288 83.4289 243.61H27.7162C28.5127 239.688 29.777 235.876 31.4822 232.255C36.1186 222.415 43.6882 213.993 51.1633 205.629C61.458 194.104 71.5067 182.674 73.0964 167.686C77.177 173.907 80.4339 180.631 82.7855 187.689C79.9064 188.755 77.2641 190.375 75.0077 192.458C74.3832 193.044 73.7208 193.896 74.0426 194.71C74.3453 195.391 75.178 195.618 75.9161 195.769C77.6949 196.11 79.4738 196.451 81.2527 196.772C82.653 197.056 84.0723 197.321 85.4917 197.586C86.7391 203.411 87.4236 209.343 87.5355 215.299Z" fill="#F2F2F2"/>
<path d="M134.335 209.168C125.403 214.599 119.725 223.001 115.089 232.406C111.054 233.326 107.33 235.283 104.283 238.084C103.64 238.67 102.978 239.522 103.318 240.336C103.602 241.017 104.454 241.244 105.192 241.395C106.952 241.736 108.749 242.077 110.509 242.398C110.339 242.796 110.169 243.212 109.998 243.61H50.9551C53.6354 239.995 56.6036 236.603 59.8306 233.466C60.5307 232.766 61.2499 232.104 61.9879 231.422C69.5145 224.62 78.1568 219.166 87.5355 215.299C102.31 209.122 118.467 207.006 134.335 209.168Z" fill="#F2F2F2"/>
<path d="M60.7957 243.609H8.22443C7.93734 239.4 7.96267 235.174 8.3002 230.968C10.4008 204.985 24.537 180.233 45.8645 165.245C43.1395 174.953 44.5398 184.604 47.3785 194.293C46.9811 194.426 46.5837 194.539 46.2241 194.691C43.345 195.757 40.7027 197.377 38.4463 199.459C37.8218 200.046 37.1595 200.898 37.4812 201.711C37.765 202.393 38.6166 202.62 39.3546 202.771C41.1335 203.112 42.9124 203.452 44.6723 203.774C46.0916 204.058 47.5109 204.323 48.9302 204.607C49.5925 204.72 50.255 204.853 50.9172 204.985C51.0118 205.212 51.0687 205.421 51.1633 205.629C54.4939 214.807 58.1273 224.061 59.8305 233.466C60.2521 235.826 60.5428 238.208 60.7011 240.6C60.7578 241.604 60.7957 242.606 60.7957 243.609Z" fill="#F2F2F2"/>
<path d="M256.51 221.538L303.484 225.708L303.987 225.754V25.3193C303.82 25.2024 303.652 25.0854 303.484 24.9685C293.694 18.1209 283.104 12.4954 271.95 8.21729L269.549 41.3229L269.331 44.3538L266.956 77.1849L266.223 87.2844L256.597 220.368L256.51 221.538Z" fill="#E6E6E6"/>
<path d="M140.346 21.5869C140.01 21.8005 139.674 22.0141 139.339 22.2378V225.754L140.346 225.662L186.811 221.538L186.724 220.368L177.098 87.2846L176.365 77.1851L173.99 44.3541L173.772 41.3232L171.254 6.60547C160.399 10.3683 150.025 15.3968 140.346 21.5869Z" fill="#E6E6E6"/>
<path d="M139.339 22.2378C138.662 22.6752 137.986 23.1227 137.32 23.5753V228.53C137.32 233.651 140.356 237.943 144.414 239.037C145.077 239.216 145.761 239.307 146.448 239.306H297.381C298.067 239.307 298.749 239.217 299.411 239.037C300.919 238.618 302.286 237.799 303.367 236.667C305.428 234.464 306.555 231.547 306.51 228.53V27.1401C305.676 26.5248 304.837 25.9145 303.987 25.3196C303.82 25.2026 303.652 25.0856 303.484 24.9687V228.53C303.485 229.19 303.406 229.847 303.25 230.488C302.533 233.514 300.168 235.731 297.381 235.731H146.448C143.082 235.731 140.346 232.502 140.346 228.53V21.5869C140.01 21.8005 139.674 22.0141 139.339 22.2378Z" fill="#E6E6E6"/>
<path d="M304.997 41.3252H138.832V44.3556H304.997V41.3252Z" fill="#E6E6E6"/>
<path d="M254.105 2.66907C253.098 2.41988 252.091 2.18596 251.074 1.96729V84.2534H254.105V2.66907Z" fill="#E6E6E6"/>
<path d="M192.755 0.945312C191.743 1.13347 190.731 1.32672 189.724 1.53522V84.2536H192.755V0.945312Z" fill="#E6E6E6"/>
<path d="M106.253 234.002C106.253 235.741 106.586 237.464 107.235 239.077C107.484 239.703 107.782 240.308 108.125 240.888C108.568 241.643 109.082 242.355 109.661 243.013C110.938 244.469 112.512 245.636 114.276 246.434C116.041 247.233 117.955 247.646 119.892 247.646H318.887C322.505 247.646 325.974 246.209 328.532 243.651C331.089 241.093 332.526 237.624 332.526 234.007C332.526 230.39 331.089 226.921 328.532 224.363C325.974 221.805 322.505 220.368 318.887 220.368H119.892C116.277 220.372 112.811 221.809 110.254 224.365C107.697 226.921 106.258 230.387 106.253 234.002Z" fill="#E6E6E6"/>
<path d="M138.832 87.2856L303.987 87.2856V77.1844L138.832 77.1844V87.2856Z" fill="#E6E6E6"/>
<path d="M228.48 79.71H214.338C214.338 78.2365 214.924 76.8234 215.965 75.7815C217.007 74.7396 218.42 74.1543 219.894 74.1543H222.924C223.654 74.1543 224.376 74.298 225.05 74.5772C225.724 74.8564 226.337 75.2656 226.853 75.7815C227.369 76.2974 227.778 76.9099 228.057 77.5839C228.336 78.2579 228.48 78.9804 228.48 79.71Z" fill="#E6E6E6"/>
<path d="M0 241.793C4.41778 247.028 9.1961 251.947 14.3 256.515H424.475C429.579 251.947 434.357 247.028 438.775 241.793H0Z" fill="#3F3D56"/>
<path d="M201.731 192.561V244.717H238.269V192.561C238.27 192.186 238.15 191.821 237.928 191.519C237.705 191.217 237.392 190.994 237.033 190.883C236.865 190.827 236.688 190.8 236.51 190.802H203.496C203.264 190.801 203.035 190.847 202.821 190.935C202.607 191.023 202.412 191.153 202.249 191.316C202.085 191.479 201.955 191.673 201.866 191.887C201.777 192.101 201.731 192.33 201.731 192.561ZM215.99 210.482C216 209.454 216.415 208.471 217.146 207.748C217.876 207.024 218.863 206.618 219.891 206.618C220.919 206.618 221.905 207.024 222.636 207.748C223.366 208.471 223.782 209.454 223.791 210.482V216.534C223.786 217.565 223.373 218.552 222.642 219.279C221.911 220.006 220.922 220.414 219.891 220.414C218.86 220.414 217.871 220.006 217.14 219.279C216.409 218.552 215.996 217.565 215.99 216.534V210.482Z" fill="#2F2E41"/>
<path d="M201.619 243.049V248.078C201.62 248.339 201.723 248.588 201.907 248.773C202.091 248.958 202.34 249.063 202.601 249.065H237.4C237.66 249.064 237.91 248.959 238.094 248.774C238.278 248.589 238.381 248.339 238.381 248.078V243.049H201.619Z" fill="#3F3D56"/>
<path d="M144.251 113.983V209.211C144.252 210.425 144.735 211.588 145.593 212.446C146.451 213.305 147.614 213.787 148.828 213.788H289.947C291.16 213.787 292.324 213.305 293.182 212.446C294.04 211.588 294.523 210.425 294.523 209.211V113.983C294.521 112.77 294.037 111.608 293.179 110.752C292.322 109.895 291.159 109.413 289.947 109.411H148.828C147.616 109.413 146.453 109.895 145.595 110.752C144.737 111.608 144.254 112.77 144.251 113.983Z" fill="#3F3D56"/>
<path d="M147.562 115.167V208.036C147.563 208.685 147.821 209.306 148.279 209.765C148.738 210.223 149.359 210.481 150.008 210.482H288.772C289.42 210.481 290.042 210.223 290.5 209.765C290.959 209.306 291.217 208.685 291.218 208.036V115.167C291.218 114.518 290.96 113.896 290.502 113.436C290.043 112.977 289.421 112.718 288.772 112.716H150.008C149.359 112.718 148.737 112.977 148.278 113.436C147.819 113.896 147.562 114.518 147.562 115.167Z" fill="#FFBC13"/>
<path d="M175.857 250.25C175.998 250.427 176.177 250.569 176.382 250.667C176.586 250.765 176.81 250.815 177.036 250.814H259.592C259.818 250.814 260.041 250.763 260.245 250.666C260.448 250.569 260.628 250.427 260.77 250.252C260.912 250.077 261.014 249.872 261.067 249.652C261.12 249.433 261.123 249.204 261.077 248.983L259.796 242.896C259.742 242.648 259.628 242.417 259.463 242.224C259.298 242.031 259.087 241.883 258.85 241.793C258.678 241.725 258.495 241.691 258.311 241.691H178.313C178.128 241.691 177.946 241.725 177.774 241.793C177.537 241.883 177.326 242.031 177.161 242.224C176.995 242.417 176.881 242.648 176.828 242.896L175.546 248.983C175.501 249.204 175.505 249.432 175.559 249.651C175.612 249.87 175.714 250.075 175.857 250.25Z" fill="#2F2E41"/>
<path d="M255.43 244.313H257.476C257.613 244.313 257.724 244.202 257.724 244.065V243.036C257.724 242.899 257.613 242.787 257.476 242.787H255.43C255.293 242.787 255.182 242.899 255.182 243.036V244.065C255.182 244.202 255.293 244.313 255.43 244.313Z" fill="#3F3D56"/>
<path d="M250.345 244.313H252.391C252.528 244.313 252.639 244.202 252.639 244.065V243.036C252.639 242.899 252.528 242.787 252.391 242.787H250.345C250.207 242.787 250.096 242.899 250.096 243.036V244.065C250.096 244.202 250.207 244.313 250.345 244.313Z" fill="#3F3D56"/>
<path d="M245.259 244.313H247.305C247.442 244.313 247.554 244.202 247.554 244.065V243.036C247.554 242.899 247.442 242.787 247.305 242.787H245.259C245.122 242.787 245.011 242.899 245.011 243.036V244.065C245.011 244.202 245.122 244.313 245.259 244.313Z" fill="#3F3D56"/>
<path d="M240.174 244.313H242.22C242.357 244.313 242.468 244.202 242.468 244.065V243.036C242.468 242.899 242.357 242.787 242.22 242.787H240.174C240.037 242.787 239.926 242.899 239.926 243.036V244.065C239.926 244.202 240.037 244.313 240.174 244.313Z" fill="#3F3D56"/>
<path d="M235.088 244.313H237.135C237.272 244.313 237.383 244.202 237.383 244.065V243.036C237.383 242.899 237.272 242.787 237.135 242.787H235.088C234.951 242.787 234.84 242.899 234.84 243.036V244.065C234.84 244.202 234.951 244.313 235.088 244.313Z" fill="#3F3D56"/>
<path d="M230.003 244.313H232.049C232.186 244.313 232.298 244.202 232.298 244.065V243.036C232.298 242.899 232.186 242.787 232.049 242.787H230.003C229.866 242.787 229.755 242.899 229.755 243.036V244.065C229.755 244.202 229.866 244.313 230.003 244.313Z" fill="#3F3D56"/>
<path d="M224.918 244.313H226.964C227.101 244.313 227.212 244.202 227.212 244.065V243.036C227.212 242.899 227.101 242.787 226.964 242.787H224.918C224.781 242.787 224.669 242.899 224.669 243.036V244.065C224.669 244.202 224.781 244.313 224.918 244.313Z" fill="#3F3D56"/>
<path d="M219.832 244.313H221.879C222.016 244.313 222.127 244.202 222.127 244.065V243.036C222.127 242.899 222.016 242.787 221.879 242.787H219.832C219.695 242.787 219.584 242.899 219.584 243.036V244.065C219.584 244.202 219.695 244.313 219.832 244.313Z" fill="#3F3D56"/>
<path d="M214.747 244.313H216.793C216.93 244.313 217.042 244.202 217.042 244.065V243.036C217.042 242.899 216.93 242.787 216.793 242.787H214.747C214.61 242.787 214.499 242.899 214.499 243.036V244.065C214.499 244.202 214.61 244.313 214.747 244.313Z" fill="#3F3D56"/>
<path d="M209.662 244.313H211.708C211.845 244.313 211.956 244.202 211.956 244.065V243.036C211.956 242.899 211.845 242.787 211.708 242.787H209.662C209.525 242.787 209.413 242.899 209.413 243.036V244.065C209.413 244.202 209.525 244.313 209.662 244.313Z" fill="#3F3D56"/>
<path d="M204.576 244.313H206.622C206.76 244.313 206.871 244.202 206.871 244.065V243.036C206.871 242.899 206.76 242.787 206.622 242.787H204.576C204.439 242.787 204.328 242.899 204.328 243.036V244.065C204.328 244.202 204.439 244.313 204.576 244.313Z" fill="#3F3D56"/>
<path d="M199.491 244.313H201.537C201.674 244.313 201.785 244.202 201.785 244.065V243.036C201.785 242.899 201.674 242.787 201.537 242.787H199.491C199.354 242.787 199.243 242.899 199.243 243.036V244.065C199.243 244.202 199.354 244.313 199.491 244.313Z" fill="#3F3D56"/>
<path d="M194.406 244.313H196.452C196.589 244.313 196.7 244.202 196.7 244.065V243.036C196.7 242.899 196.589 242.787 196.452 242.787H194.406C194.269 242.787 194.157 242.899 194.157 243.036V244.065C194.157 244.202 194.269 244.313 194.406 244.313Z" fill="#3F3D56"/>
<path d="M189.32 244.313H191.366C191.504 244.313 191.615 244.202 191.615 244.065V243.036C191.615 242.899 191.504 242.787 191.366 242.787H189.32C189.183 242.787 189.072 242.899 189.072 243.036V244.065C189.072 244.202 189.183 244.313 189.32 244.313Z" fill="#3F3D56"/>
<path d="M184.235 244.313H186.281C186.418 244.313 186.529 244.202 186.529 244.065V243.036C186.529 242.899 186.418 242.787 186.281 242.787H184.235C184.098 242.787 183.987 242.899 183.987 243.036V244.065C183.987 244.202 184.098 244.313 184.235 244.313Z" fill="#3F3D56"/>
<path d="M179.15 244.313H181.196C181.333 244.313 181.444 244.202 181.444 244.065V243.036C181.444 242.899 181.333 242.787 181.196 242.787H179.15C179.012 242.787 178.901 242.899 178.901 243.036V244.065C178.901 244.202 179.012 244.313 179.15 244.313Z" fill="#3F3D56"/>
<path d="M255.49 246.855H257.536C257.673 246.855 257.784 246.744 257.784 246.607V245.578C257.784 245.441 257.673 245.33 257.536 245.33H255.49C255.353 245.33 255.242 245.441 255.242 245.578V246.607C255.242 246.744 255.353 246.855 255.49 246.855Z" fill="#3F3D56"/>
<path d="M250.405 246.855H252.451C252.588 246.855 252.699 246.744 252.699 246.607V245.578C252.699 245.441 252.588 245.33 252.451 245.33H250.405C250.268 245.33 250.156 245.441 250.156 245.578V246.607C250.156 246.744 250.268 246.855 250.405 246.855Z" fill="#3F3D56"/>
<path d="M245.319 246.855H247.365C247.503 246.855 247.614 246.744 247.614 246.607V245.578C247.614 245.441 247.503 245.33 247.365 245.33H245.319C245.182 245.33 245.071 245.441 245.071 245.578V246.607C245.071 246.744 245.182 246.855 245.319 246.855Z" fill="#3F3D56"/>
<path d="M240.234 246.855H242.28C242.417 246.855 242.528 246.744 242.528 246.607V245.578C242.528 245.441 242.417 245.33 242.28 245.33H240.234C240.097 245.33 239.986 245.441 239.986 245.578V246.607C239.986 246.744 240.097 246.855 240.234 246.855Z" fill="#3F3D56"/>
<path d="M235.149 246.855H237.195C237.332 246.855 237.443 246.744 237.443 246.607V245.578C237.443 245.441 237.332 245.33 237.195 245.33H235.149C235.011 245.33 234.9 245.441 234.9 245.578V246.607C234.9 246.744 235.011 246.855 235.149 246.855Z" fill="#3F3D56"/>
<path d="M230.063 246.855H232.109C232.246 246.855 232.358 246.744 232.358 246.607V245.578C232.358 245.441 232.246 245.33 232.109 245.33H230.063C229.926 245.33 229.815 245.441 229.815 245.578V246.607C229.815 246.744 229.926 246.855 230.063 246.855Z" fill="#3F3D56"/>
<path d="M224.978 246.855H227.024C227.161 246.855 227.272 246.744 227.272 246.607V245.578C227.272 245.441 227.161 245.33 227.024 245.33H224.978C224.841 245.33 224.73 245.441 224.73 245.578V246.607C224.73 246.744 224.841 246.855 224.978 246.855Z" fill="#3F3D56"/>
<path d="M219.893 246.855H221.939C222.076 246.855 222.187 246.744 222.187 246.607V245.578C222.187 245.441 222.076 245.33 221.939 245.33H219.893C219.755 245.33 219.644 245.441 219.644 245.578V246.607C219.644 246.744 219.755 246.855 219.893 246.855Z" fill="#3F3D56"/>
<path d="M214.807 246.855H216.853C216.99 246.855 217.102 246.744 217.102 246.607V245.578C217.102 245.441 216.99 245.33 216.853 245.33H214.807C214.67 245.33 214.559 245.441 214.559 245.578V246.607C214.559 246.744 214.67 246.855 214.807 246.855Z" fill="#3F3D56"/>
<path d="M209.722 246.855H211.768C211.905 246.855 212.016 246.744 212.016 246.607V245.578C212.016 245.441 211.905 245.33 211.768 245.33H209.722C209.585 245.33 209.474 245.441 209.474 245.578V246.607C209.474 246.744 209.585 246.855 209.722 246.855Z" fill="#3F3D56"/>
<path d="M204.636 246.855H206.683C206.82 246.855 206.931 246.744 206.931 246.607V245.578C206.931 245.441 206.82 245.33 206.683 245.33H204.636C204.499 245.33 204.388 245.441 204.388 245.578V246.607C204.388 246.744 204.499 246.855 204.636 246.855Z" fill="#3F3D56"/>
<path d="M199.551 246.855H201.597C201.734 246.855 201.846 246.744 201.846 246.607V245.578C201.846 245.441 201.734 245.33 201.597 245.33H199.551C199.414 245.33 199.303 245.441 199.303 245.578V246.607C199.303 246.744 199.414 246.855 199.551 246.855Z" fill="#3F3D56"/>
<path d="M194.466 246.855H196.512C196.649 246.855 196.76 246.744 196.76 246.607V245.578C196.76 245.441 196.649 245.33 196.512 245.33H194.466C194.329 245.33 194.217 245.441 194.217 245.578V246.607C194.217 246.744 194.329 246.855 194.466 246.855Z" fill="#3F3D56"/>
<path d="M189.38 246.855H191.427C191.564 246.855 191.675 246.744 191.675 246.607V245.578C191.675 245.441 191.564 245.33 191.427 245.33H189.38C189.243 245.33 189.132 245.441 189.132 245.578V246.607C189.132 246.744 189.243 246.855 189.38 246.855Z" fill="#3F3D56"/>
<path d="M184.295 246.855H186.341C186.478 246.855 186.589 246.744 186.589 246.607V245.578C186.589 245.441 186.478 245.33 186.341 245.33H184.295C184.158 245.33 184.047 245.441 184.047 245.578V246.607C184.047 246.744 184.158 246.855 184.295 246.855Z" fill="#3F3D56"/>
<path d="M179.21 246.855H181.256C181.393 246.855 181.504 246.744 181.504 246.607V245.578C181.504 245.441 181.393 245.33 181.256 245.33H179.21C179.073 245.33 178.961 245.441 178.961 245.578V246.607C178.961 246.744 179.073 246.855 179.21 246.855Z" fill="#3F3D56"/>
<path d="M213.282 249.907H233.126C233.264 249.907 233.375 249.796 233.375 249.658V248.629C233.375 248.492 233.264 248.381 233.126 248.381H213.282C213.144 248.381 213.033 248.492 213.033 248.629V249.658C213.033 249.796 213.144 249.907 213.282 249.907Z" fill="#3F3D56"/>
<path d="M156.981 125.509H286.822C286.957 125.506 287.085 125.451 287.18 125.354C287.274 125.258 287.327 125.128 287.327 124.993C287.327 124.858 287.274 124.728 287.18 124.632C287.085 124.535 286.957 124.48 286.822 124.477H156.981C156.846 124.48 156.717 124.535 156.623 124.632C156.529 124.728 156.476 124.858 156.476 124.993C156.476 125.128 156.529 125.258 156.623 125.354C156.717 125.451 156.846 125.506 156.981 125.509Z" fill="#3F3D56"/>
<path d="M277.983 121.84C279.655 121.84 281.009 120.455 281.009 118.747C281.009 117.038 279.655 115.653 277.983 115.653C276.312 115.653 274.957 117.038 274.957 118.747C274.957 120.455 276.312 121.84 277.983 121.84Z" fill="#3F3D56"/>
<path d="M267.53 121.84C269.201 121.84 270.556 120.455 270.556 118.747C270.556 117.038 269.201 115.653 267.53 115.653C265.859 115.653 264.504 117.038 264.504 118.747C264.504 120.455 265.859 121.84 267.53 121.84Z" fill="#3F3D56"/>
<path d="M257.076 121.84C258.748 121.84 260.102 120.455 260.102 118.747C260.102 117.038 258.748 115.653 257.076 115.653C255.405 115.653 254.05 117.038 254.05 118.747C254.05 120.455 255.405 121.84 257.076 121.84Z" fill="#3F3D56"/>
<path d="M162.721 116.983C162.721 117.056 162.735 117.129 162.763 117.196C162.79 117.264 162.831 117.326 162.882 117.377C162.934 117.429 162.995 117.471 163.063 117.499C163.13 117.527 163.202 117.542 163.276 117.542H170.7C170.847 117.539 170.986 117.478 171.089 117.373C171.192 117.268 171.249 117.127 171.249 116.98C171.249 116.834 171.192 116.693 171.089 116.588C170.986 116.483 170.847 116.422 170.7 116.418H163.276C163.127 116.42 162.986 116.481 162.882 116.586C162.778 116.692 162.72 116.835 162.721 116.983Z" fill="#3F3D56"/>
<path d="M162.721 119.093C162.721 119.166 162.735 119.239 162.763 119.307C162.79 119.374 162.831 119.436 162.882 119.488C162.934 119.54 162.995 119.581 163.063 119.609C163.13 119.638 163.202 119.652 163.276 119.653H170.7C170.847 119.649 170.987 119.589 171.09 119.484C171.192 119.379 171.25 119.238 171.25 119.091C171.25 118.944 171.192 118.803 171.09 118.698C170.987 118.593 170.847 118.532 170.7 118.529H163.276C163.127 118.531 162.986 118.591 162.882 118.697C162.778 118.802 162.72 118.945 162.721 119.093Z" fill="#3F3D56"/>
<path d="M162.721 121.199C162.72 121.347 162.778 121.489 162.882 121.595C162.986 121.701 163.127 121.761 163.276 121.763H170.7C170.847 121.76 170.986 121.699 171.089 121.594C171.192 121.489 171.249 121.348 171.249 121.201C171.249 121.054 171.192 120.913 171.089 120.808C170.986 120.703 170.847 120.643 170.7 120.639H163.276C163.202 120.639 163.13 120.654 163.063 120.682C162.995 120.711 162.934 120.752 162.882 120.804C162.831 120.856 162.79 120.918 162.763 120.985C162.735 121.053 162.721 121.125 162.721 121.199Z" fill="#3F3D56"/>
<path d="M165.016 137.509H162.348C161.539 137.509 160.883 138.165 160.883 138.974C160.883 139.783 161.539 140.438 162.348 140.438H165.016C165.825 140.438 166.48 139.783 166.48 138.974C166.48 138.165 165.825 137.509 165.016 137.509Z" fill="#E6E6E6"/>
<path d="M195.528 137.509H192.86C192.051 137.509 191.396 138.165 191.396 138.974C191.396 139.783 192.051 140.438 192.86 140.438H195.528C196.337 140.438 196.992 139.783 196.992 138.974C196.992 138.165 196.337 137.509 195.528 137.509Z" fill="#E6E6E6"/>
<path d="M204.173 137.509H201.505C200.696 137.509 200.041 138.165 200.041 138.974C200.041 139.783 200.696 140.438 201.505 140.438H204.173C204.982 140.438 205.638 139.783 205.638 138.974C205.638 138.165 204.982 137.509 204.173 137.509Z" fill="#E6E6E6"/>
<path d="M187.228 137.265H170.647C169.838 137.265 169.183 137.921 169.183 138.73C169.183 139.539 169.838 140.194 170.647 140.194H187.228C188.037 140.194 188.693 139.539 188.693 138.73C188.693 137.921 188.037 137.265 187.228 137.265Z" fill="#E6E6E6"/>
<path d="M227.911 137.265H211.33C210.521 137.265 209.866 137.921 209.866 138.73C209.866 139.539 210.521 140.194 211.33 140.194H227.911C228.72 140.194 229.376 139.539 229.376 138.73C229.376 137.921 228.72 137.265 227.911 137.265Z" fill="#E6E6E6"/>
<path d="M173.152 144.12H170.485C169.676 144.12 169.02 144.776 169.02 145.585C169.02 146.394 169.676 147.049 170.485 147.049H173.152C173.961 147.049 174.617 146.394 174.617 145.585C174.617 144.776 173.961 144.12 173.152 144.12Z" fill="#E6E6E6"/>
<path d="M203.665 144.12H200.997C200.188 144.12 199.532 144.776 199.532 145.585C199.532 146.394 200.188 147.049 200.997 147.049H203.665C204.473 147.049 205.129 146.394 205.129 145.585C205.129 144.776 204.473 144.12 203.665 144.12Z" fill="#E6E6E6"/>
<path d="M212.31 144.12H209.642C208.833 144.12 208.177 144.776 208.177 145.585C208.177 146.394 208.833 147.049 209.642 147.049H212.31C213.118 147.049 213.774 146.394 213.774 145.585C213.774 144.776 213.118 144.12 212.31 144.12Z" fill="#E6E6E6"/>
<path d="M195.365 143.876H178.784C177.975 143.876 177.319 144.532 177.319 145.341C177.319 146.149 177.975 146.805 178.784 146.805H195.365C196.174 146.805 196.83 146.149 196.83 145.341C196.83 144.532 196.174 143.876 195.365 143.876Z" fill="#E6E6E6"/>
<path d="M236.048 143.876H219.467C218.658 143.876 218.002 144.532 218.002 145.341C218.002 146.149 218.658 146.805 219.467 146.805H236.048C236.857 146.805 237.513 146.149 237.513 145.341C237.513 144.532 236.857 143.876 236.048 143.876Z" fill="#E6E6E6"/>
<path d="M181.289 150.731H178.621C177.812 150.731 177.156 151.387 177.156 152.196C177.156 153.004 177.812 153.66 178.621 153.66H181.289C182.098 153.66 182.753 153.004 182.753 152.196C182.753 151.387 182.098 150.731 181.289 150.731Z" fill="#E6E6E6"/>
<path d="M211.801 150.731H209.133C208.324 150.731 207.669 151.387 207.669 152.196C207.669 153.004 208.324 153.66 209.133 153.66H211.801C212.61 153.66 213.266 153.004 213.266 152.196C213.266 151.387 212.61 150.731 211.801 150.731Z" fill="#E6E6E6"/>
<path d="M220.446 150.731H217.778C216.969 150.731 216.314 151.387 216.314 152.196C216.314 153.004 216.969 153.66 217.778 153.66H220.446C221.255 153.66 221.911 153.004 221.911 152.196C221.911 151.387 221.255 150.731 220.446 150.731Z" fill="#E6E6E6"/>
<path d="M203.502 150.487H186.92C186.112 150.487 185.456 151.143 185.456 151.951C185.456 152.76 186.112 153.416 186.92 153.416H203.502C204.311 153.416 204.966 152.76 204.966 151.951C204.966 151.143 204.311 150.487 203.502 150.487Z" fill="#E6E6E6"/>
<path d="M244.185 150.487H227.603C226.794 150.487 226.139 151.143 226.139 151.951C226.139 152.76 226.794 153.416 227.603 153.416H244.185C244.993 153.416 245.649 152.76 245.649 151.951C245.649 151.143 244.993 150.487 244.185 150.487Z" fill="#E6E6E6"/>
<path d="M189.426 157.342H186.758C185.949 157.342 185.293 157.997 185.293 158.806C185.293 159.615 185.949 160.271 186.758 160.271H189.426C190.234 160.271 190.89 159.615 190.89 158.806C190.89 157.997 190.234 157.342 189.426 157.342Z" fill="#E6E6E6"/>
<path d="M219.938 157.342H217.27C216.461 157.342 215.805 157.997 215.805 158.806C215.805 159.615 216.461 160.271 217.27 160.271H219.938C220.747 160.271 221.402 159.615 221.402 158.806C221.402 157.997 220.747 157.342 219.938 157.342Z" fill="#E6E6E6"/>
<path d="M228.583 157.342H225.915C225.106 157.342 224.45 157.997 224.45 158.806C224.45 159.615 225.106 160.271 225.915 160.271H228.583C229.392 160.271 230.047 159.615 230.047 158.806C230.047 157.997 229.392 157.342 228.583 157.342Z" fill="#E6E6E6"/>
<path d="M211.638 157.098H195.057C194.248 157.098 193.592 157.753 193.592 158.562C193.592 159.371 194.248 160.027 195.057 160.027H211.638C212.447 160.027 213.103 159.371 213.103 158.562C213.103 157.753 212.447 157.098 211.638 157.098Z" fill="#E6E6E6"/>
<path d="M195.528 183.63H192.86C192.051 183.63 191.396 184.286 191.396 185.094C191.396 185.903 192.051 186.559 192.86 186.559H195.528C196.337 186.559 196.992 185.903 196.992 185.094C196.992 184.286 196.337 183.63 195.528 183.63Z" fill="#E6E6E6"/>
<path d="M204.173 183.63H201.505C200.696 183.63 200.041 184.286 200.041 185.094C200.041 185.903 200.696 186.559 201.505 186.559H204.173C204.982 186.559 205.638 185.903 205.638 185.094C205.638 184.286 204.982 183.63 204.173 183.63Z" fill="#E6E6E6"/>
<path d="M227.911 183.874H211.33C210.521 183.874 209.866 184.53 209.866 185.339C209.866 186.147 210.521 186.803 211.33 186.803H227.911C228.72 186.803 229.376 186.147 229.376 185.339C229.376 184.53 228.72 183.874 227.911 183.874Z" fill="#E6E6E6"/>
<path d="M165.016 183.63H162.348C161.539 183.63 160.883 184.286 160.883 185.094C160.883 185.903 161.539 186.559 162.348 186.559H165.016C165.825 186.559 166.48 185.903 166.48 185.094C166.48 184.286 165.825 183.63 165.016 183.63Z" fill="#E6E6E6"/>
<path d="M187.228 183.874H170.647C169.838 183.874 169.183 184.53 169.183 185.339C169.183 186.147 169.838 186.803 170.647 186.803H187.228C188.037 186.803 188.693 186.147 188.693 185.339C188.693 184.53 188.037 183.874 187.228 183.874Z" fill="#E6E6E6"/>
<path d="M173.152 177.019H170.485C169.676 177.019 169.02 177.675 169.02 178.484C169.02 179.292 169.676 179.948 170.485 179.948H173.152C173.961 179.948 174.617 179.292 174.617 178.484C174.617 177.675 173.961 177.019 173.152 177.019Z" fill="#E6E6E6"/>
<path d="M203.665 177.019H200.997C200.188 177.019 199.532 177.675 199.532 178.484C199.532 179.292 200.188 179.948 200.997 179.948H203.665C204.473 179.948 205.129 179.292 205.129 178.484C205.129 177.675 204.473 177.019 203.665 177.019Z" fill="#E6E6E6"/>
<path d="M212.31 177.019H209.642C208.833 177.019 208.177 177.675 208.177 178.484C208.177 179.292 208.833 179.948 209.642 179.948H212.31C213.118 179.948 213.774 179.292 213.774 178.484C213.774 177.675 213.118 177.019 212.31 177.019Z" fill="#E6E6E6"/>
<path d="M195.365 177.263H178.784C177.975 177.263 177.319 177.919 177.319 178.728C177.319 179.537 177.975 180.192 178.784 180.192H195.365C196.174 180.192 196.83 179.537 196.83 178.728C196.83 177.919 196.174 177.263 195.365 177.263Z" fill="#E6E6E6"/>
<path d="M181.289 170.408H178.621C177.812 170.408 177.156 171.064 177.156 171.873C177.156 172.682 177.812 173.337 178.621 173.337H181.289C182.098 173.337 182.753 172.682 182.753 171.873C182.753 171.064 182.098 170.408 181.289 170.408Z" fill="#E6E6E6"/>
<path d="M211.801 170.408H209.133C208.324 170.408 207.669 171.064 207.669 171.873C207.669 172.682 208.324 173.337 209.133 173.337H211.801C212.61 173.337 213.266 172.682 213.266 171.873C213.266 171.064 212.61 170.408 211.801 170.408Z" fill="#E6E6E6"/>
<path d="M220.446 170.408H217.778C216.969 170.408 216.314 171.064 216.314 171.873C216.314 172.682 216.969 173.337 217.778 173.337H220.446C221.255 173.337 221.911 172.682 221.911 171.873C221.911 171.064 221.255 170.408 220.446 170.408Z" fill="#E6E6E6"/>
<path d="M203.502 170.652H186.92C186.112 170.652 185.456 171.308 185.456 172.117C185.456 172.926 186.112 173.581 186.92 173.581H203.502C204.311 173.581 204.966 172.926 204.966 172.117C204.966 171.308 204.311 170.652 203.502 170.652Z" fill="#E6E6E6"/>
<path d="M189.426 163.797H186.758C185.949 163.797 185.293 164.453 185.293 165.262C185.293 166.071 185.949 166.726 186.758 166.726H189.426C190.234 166.726 190.89 166.071 190.89 165.262C190.89 164.453 190.234 163.797 189.426 163.797Z" fill="#E6E6E6"/>
<path d="M219.938 163.797H217.27C216.461 163.797 215.805 164.453 215.805 165.262C215.805 166.071 216.461 166.726 217.27 166.726H219.938C220.747 166.726 221.402 166.071 221.402 165.262C221.402 164.453 220.747 163.797 219.938 163.797Z" fill="#E6E6E6"/>
<path d="M228.583 163.797H225.915C225.106 163.797 224.45 164.453 224.45 165.262C224.45 166.071 225.106 166.726 225.915 166.726H228.583C229.392 166.726 230.047 166.071 230.047 165.262C230.047 164.453 229.392 163.797 228.583 163.797Z" fill="#E6E6E6"/>
<path d="M211.638 164.042H195.057C194.248 164.042 193.592 164.697 193.592 165.506C193.592 166.315 194.248 166.971 195.057 166.971H211.638C212.447 166.971 213.103 166.315 213.103 165.506C213.103 164.697 212.447 164.042 211.638 164.042Z" fill="#E6E6E6"/>
<path d="M177.943 278.581C177.831 278.637 177.719 278.693 177.607 278.744C176.9 279.095 176.188 279.441 175.471 279.782C173.325 280.804 171.152 281.775 168.952 282.695C163.162 285.117 157.222 287.16 151.168 288.813C150.151 282.472 149.165 267.516 148.219 256.516C148.041 254.446 147.863 252.519 147.685 250.815C147.516 248.579 147.195 246.357 146.724 244.164C146.678 243.992 146.611 243.826 146.525 243.67C146.622 244.55 146.724 247.174 146.82 250.815C146.871 252.519 146.917 254.446 146.968 256.516C147.207 267.104 147.456 281.511 147.705 289.713C146.998 289.886 146.286 290.059 145.574 290.222C145.127 290.329 144.674 290.43 144.222 290.527C143.672 290.649 143.123 290.771 142.574 290.883C141.999 291.005 141.425 291.122 140.85 291.234C131.46 293.078 121.912 294.005 112.342 294C111.706 294 111.075 293.995 110.44 293.99C110.246 293.99 110.053 293.985 109.855 293.98C109.295 293.97 108.716 293.96 108.126 293.944C96.8165 293.632 85.5812 292.012 74.6438 289.118L75.0863 256.516L75.1625 250.815L75.1931 248.654C74.9412 249.349 74.7904 250.077 74.7455 250.815C74.5676 252.204 74.3845 254.172 74.2014 256.516C73.5047 265.548 72.7877 280.117 72.0452 288.406C63.2526 285.904 56.8248 283.621 48.7899 279.604C48.4797 279.451 48.1644 279.293 47.8542 279.136C47.9101 278.744 47.9712 278.353 48.0271 277.951C48.9374 271.625 47.8644 263.391 48.8713 256.516C49.6392 251.212 50.4325 246.117 51.2309 241.794C52.1971 236.592 53.1785 232.503 54.1499 230.515C55.2686 228.221 56.3874 225.963 57.4706 223.802C57.9385 222.871 58.3979 221.958 58.8487 221.061C59.0928 220.578 59.3369 220.1 59.5759 219.632C60.6642 217.501 61.6914 215.533 62.6322 213.789C63.2933 212.563 63.9036 211.455 64.463 210.483C65.119 209.339 65.6987 208.393 66.1767 207.676C69.7075 202.324 74.961 198.339 81.0667 196.382L81.2192 196.341L81.3667 196.402L81.5345 196.478L91.2272 192.934L95.5548 182.514L117.783 181.146L121.373 183.877L123.209 185.275L125.167 186.765L128.767 189.506L129.789 189.822L131.31 190.289L141.709 193.483L141.816 193.437L141.969 193.478C147.525 195.256 152.388 198.723 155.882 203.394C156.228 203.842 156.549 204.305 156.859 204.773C157.703 206.024 158.842 208.002 160.185 210.483C160.739 211.506 161.324 212.614 161.939 213.789C162.31 214.496 165.514 224.494 168.631 234.705C171.545 244.265 174.383 254.014 174.754 256.516C174.82 256.979 174.891 257.447 174.958 257.909C175.38 260.803 175.797 263.717 176.198 266.56C176.793 270.775 177.373 274.844 177.927 278.48C177.933 278.515 177.938 278.546 177.943 278.581Z" fill="#3F3D56"/>
<path opacity="0.2" d="M154.386 241.771L150.065 225.095L146.25 239.484L154.386 241.771Z" fill="#311A00"/>
<path d="M8.04977 241.577C8.27381 242.23 8.69882 242.794 9.26375 243.19C9.82868 243.586 10.5045 243.792 11.1941 243.78L24.6661 243.433C25.3608 243.419 26.0324 243.181 26.5807 242.755C27.1289 242.328 27.5242 241.735 27.7076 241.065L29.614 220.679C30.2904 220.985 31.0268 221.137 31.7692 221.122C33.0718 221.089 34.3081 220.54 35.2061 219.596C36.1041 218.652 36.5902 217.39 36.5575 216.087C36.5248 214.784 35.9759 213.548 35.0317 212.65C34.0875 211.752 32.8252 211.266 31.5226 211.299C31.2259 211.298 30.9299 211.328 30.6397 211.39C30.3241 211.049 29.9405 210.777 29.5136 210.593C29.0867 210.409 28.626 210.316 28.1611 210.321L7.43797 210.856C7.26606 210.862 7.09503 210.884 6.92679 210.92C6.47234 211.004 6.0413 211.185 5.6627 211.451C5.2841 211.716 4.96671 212.059 4.7319 212.457C4.4971 212.856 4.35033 213.3 4.30146 213.759C4.25259 214.219 4.30277 214.684 4.44861 215.122L8.04977 241.577ZM30.005 219.295L31.3616 214.437C31.5159 213.876 31.5195 213.284 31.3719 212.721C31.4378 212.721 31.4958 212.689 31.5617 212.689C32.4918 212.67 33.3917 213.02 34.0639 213.664C34.7361 214.307 35.1258 215.19 35.1476 216.12C35.1694 217.051 34.8214 217.951 34.1801 218.625C33.5387 219.299 32.6563 219.691 31.7262 219.716C31.1249 219.735 30.5298 219.589 30.005 219.295Z" fill="#2F2E41"/>
<path d="M6.92682 210.92C7.36832 213.444 12.3321 215.219 18.3006 214.91C23.7891 214.657 28.2768 212.73 29.099 210.446C28.7947 210.356 28.4783 210.314 28.1611 210.321L7.43799 210.856C7.26609 210.863 7.09506 210.884 6.92682 210.92Z" fill="#3F3D56"/>
<path d="M19.3945 230.375C19.4218 230.368 19.4477 230.356 19.4713 230.341L22.3969 228.426C22.4323 228.403 22.4614 228.371 22.4815 228.334C22.5016 228.297 22.5121 228.256 22.5122 228.213C22.5122 228.171 22.5017 228.13 22.4816 228.093C22.4615 228.055 22.4324 228.024 22.3971 228.001L19.3562 226.009C19.3282 225.991 19.297 225.978 19.2641 225.971C19.2312 225.965 19.1975 225.965 19.1647 225.972C19.1319 225.979 19.1008 225.992 19.0731 226.011C19.0454 226.03 19.0217 226.054 19.0034 226.082C18.985 226.11 18.9724 226.141 18.9662 226.174C18.96 226.207 18.9603 226.24 18.9672 226.273C18.9741 226.306 18.9874 226.337 19.0063 226.365C19.0253 226.392 19.0495 226.416 19.0775 226.434L21.7936 228.213L19.1929 229.916C19.1426 229.948 19.1055 229.998 19.0884 230.056C19.0712 230.114 19.0751 230.175 19.0993 230.23C19.1234 230.286 19.1664 230.33 19.2204 230.357C19.2745 230.383 19.3362 230.39 19.3945 230.375Z" fill="#FFBC13"/>
<path d="M14.7736 230.588C14.8227 230.576 14.8669 230.549 14.9007 230.511C14.9345 230.473 14.9562 230.426 14.9631 230.376C14.9699 230.326 14.9617 230.275 14.9394 230.229C14.917 230.184 14.8816 230.146 14.8377 230.121L12.1409 228.575L14.7474 226.639C14.7742 226.619 14.7968 226.594 14.8139 226.565C14.8311 226.537 14.8424 226.505 14.8473 226.472C14.8521 226.439 14.8504 226.405 14.8423 226.373C14.8342 226.34 14.8197 226.31 14.7998 226.283C14.7799 226.256 14.7549 226.234 14.7263 226.217C14.6977 226.2 14.666 226.188 14.6329 226.183C14.5999 226.179 14.5663 226.18 14.5339 226.188C14.5016 226.196 14.4711 226.211 14.4443 226.231L11.526 228.399C11.4921 228.424 11.465 228.457 11.4472 228.495C11.4293 228.533 11.4212 228.575 11.4237 228.618C11.4262 228.66 11.4391 228.701 11.4614 228.736C11.4836 228.772 11.5144 228.802 11.5511 228.823L14.5846 230.562C14.6418 230.595 14.7096 230.604 14.7736 230.588Z" fill="#FFBC13"/>
<path d="M19.1035 232.053C19.1281 232.047 19.1516 232.037 19.1732 232.023C19.2017 232.006 19.2266 231.983 19.2463 231.956C19.2661 231.929 19.2803 231.899 19.2882 231.866C19.2961 231.834 19.2976 231.8 19.2924 231.767C19.2873 231.734 19.2757 231.703 19.2584 231.674L15.111 224.855C15.0757 224.798 15.0192 224.757 14.9538 224.741C14.8884 224.726 14.8194 224.737 14.762 224.772C14.7045 224.807 14.6633 224.863 14.6473 224.928C14.6313 224.994 14.6418 225.063 14.6765 225.12L18.8238 231.939C18.8522 231.985 18.8946 232.021 18.9449 232.042C18.9952 232.062 19.0508 232.066 19.1035 232.053Z" fill="#FFBC13"/>
<path d="M399.276 279.135C398.966 279.292 398.651 279.45 398.341 279.603C390.306 283.62 383.878 285.903 375.085 288.405C374.343 280.116 373.626 265.547 372.929 256.515C372.746 254.171 372.563 252.203 372.385 250.814C372.34 250.076 372.189 249.348 371.937 248.653L371.968 250.814L372.044 256.515L372.487 289.117C361.549 292.011 350.314 293.631 339.005 293.943C338.415 293.959 337.835 293.969 337.276 293.979C337.077 293.984 336.884 293.989 336.691 293.989C336.055 293.994 335.424 293.999 334.789 293.999C322.871 294.008 310.996 292.569 299.425 289.712C299.674 281.51 299.924 267.103 300.163 256.515C300.213 254.445 300.259 252.518 300.31 250.814C300.407 247.173 300.508 244.549 300.605 243.669C300.519 243.825 300.453 243.991 300.407 244.163C299.936 246.356 299.615 248.578 299.446 250.814C299.268 252.518 299.09 254.445 298.912 256.515C297.966 267.515 296.979 282.471 295.962 288.812C289.908 287.159 283.968 285.116 278.179 282.694C275.127 281.423 272.13 280.052 269.188 278.58C269.747 274.919 270.332 270.815 270.932 266.559C271.4 263.258 271.883 259.866 272.376 256.515C273.139 251.338 299.054 195.435 305.162 193.477L305.314 193.436L305.421 193.482L315.82 190.288L317.341 189.821L318.363 189.505L321.964 186.764L323.921 185.274L325.757 183.876L329.347 181.145L351.576 182.513L355.903 192.933L365.596 196.477L365.764 196.401L365.911 196.34L366.064 196.381C372.169 198.338 377.423 202.323 380.954 207.675C381.432 208.392 382.011 209.338 382.667 210.482C383.227 211.454 383.837 212.562 384.498 213.788C385.439 215.532 386.466 217.5 387.554 219.631C387.793 220.099 388.038 220.577 388.282 221.06C388.734 221.955 389.194 222.869 389.66 223.801C390.743 225.962 391.862 228.22 392.981 230.514C393.952 232.502 394.933 236.591 395.9 241.793C396.698 246.115 397.491 251.211 398.259 256.515C399.266 263.39 398.193 271.624 399.103 277.95C399.159 278.352 399.22 278.743 399.276 279.135Z" fill="#3F3D56"/>
<path d="M334.085 177.404C348.362 177.404 359.937 165.83 359.937 151.552C359.937 137.275 348.362 125.7 334.085 125.7C319.807 125.7 308.232 137.275 308.232 151.552C308.232 165.83 319.807 177.404 334.085 177.404Z" fill="#FFB6B6"/>
<path opacity="0.2" d="M292.743 241.771L297.064 225.095L300.88 239.484L292.743 241.771Z" fill="#311A00"/>
<path d="M407.728 230.905C406.182 252.202 407.784 261.58 399.251 279.14C391.487 282.94 383.4 286.04 375.085 288.405C374.221 288.649 373.355 288.886 372.487 289.117C361.549 292.011 350.314 293.63 339.005 293.943C338.415 293.958 337.835 293.968 337.276 293.979C337.077 293.984 336.884 293.989 336.691 293.989C336.055 293.994 335.425 293.999 334.789 293.999C322.871 294.008 310.996 292.568 299.425 289.712C298.266 289.427 297.112 289.127 295.962 288.812C289.908 287.159 283.968 285.116 278.179 282.694C275.128 281.423 272.131 280.052 269.188 278.58C268.522 278.245 267.855 277.909 267.199 277.563C263.828 271.634 261.911 264.423 261.87 255.757C264.204 240.826 402.572 218.029 407.728 230.905Z" fill="#2F2E41"/>
<path opacity="0.2" d="M407.724 234.552C407.803 233.234 407.891 231.872 407.994 230.454C402.838 217.578 264.47 240.375 262.136 255.306C262.143 256.675 262.201 258.003 262.299 259.3C267.952 244.564 399.403 222.896 407.724 234.552Z" fill="#311A00"/>
<path d="M258.429 231.909L269.786 226.231L260.322 200.676L257.827 187.789C257.503 186.115 256.746 184.555 255.63 183.265C254.514 181.975 253.079 181.001 251.469 180.44C249.859 179.878 248.129 179.749 246.453 180.066C244.778 180.382 243.214 181.132 241.919 182.242C240.001 183.887 238.796 186.213 238.559 188.729C238.323 191.245 239.073 193.754 240.652 195.728L249.911 207.302L258.429 231.909Z" fill="#FFB6B6"/>
<path d="M269.786 221.499L254.643 229.07L266.135 265.079C266.96 267.665 268.44 269.994 270.43 271.839C272.42 273.685 274.853 274.985 277.494 275.614C280.75 276.389 284.168 276.107 287.252 274.809C290.337 273.511 292.928 271.264 294.65 268.394L325.124 216.161C327.284 212.561 327.951 208.26 326.982 204.176C326.013 200.092 323.486 196.549 319.939 194.303C318.032 193.095 315.892 192.302 313.658 191.976C311.424 191.65 309.147 191.798 306.974 192.41C304.801 193.023 302.782 194.086 301.047 195.53C299.312 196.975 297.901 198.768 296.905 200.794L278.305 240.428L269.786 221.499Z" fill="#3F3D56"/>
<path d="M106.542 175.62C122.252 175.62 134.987 162.885 134.987 147.175C134.987 131.466 122.252 118.73 106.542 118.73C90.8324 118.73 78.0972 131.466 78.0972 147.175C78.0972 162.885 90.8324 175.62 106.542 175.62Z" fill="#A0616A"/>
<path d="M78.4387 127.573C80.7515 124.456 84.0757 122.24 86.6184 119.307C88.0135 117.698 89.172 115.875 90.7404 114.434C93.6545 111.758 97.7299 110.661 101.684 110.525C106.018 110.413 110.317 111.324 114.234 113.183C118.15 115.041 121.574 117.796 124.228 121.224C126.295 120.012 128.362 118.8 130.429 117.588C131.246 119.737 132.062 121.887 132.879 124.036C133.549 123.453 134.404 123.127 135.292 123.114C136.18 123.102 137.043 123.404 137.729 123.968C138.416 124.531 138.88 125.319 139.041 126.193C139.202 127.066 139.048 127.968 138.607 128.739C139.099 127.219 141.353 126.896 142.595 127.9C143.838 128.905 144.17 130.691 143.968 132.276C143.713 134.014 142.945 135.637 141.761 136.935C140.577 138.234 139.031 139.148 137.324 139.561C134.626 140.162 131.487 139.531 129.328 141.256C127.597 142.639 127.075 145.157 125.309 146.494C123.132 148.142 120.056 147.38 117.35 147.744C112.617 148.382 108.869 153.223 109.438 157.965C109.009 156.469 108.559 154.929 107.587 153.714C106.615 152.498 104.978 151.676 103.487 152.123C101.023 152.862 100.62 156.22 101.217 158.723C102.801 165.359 108.804 176.086 108.804 176.086C101.009 179.161 91.7229 176.253 85.7087 170.419C79.6947 164.585 76.5624 156.323 75.198 148.056C74.041 141.045 74.2049 133.28 78.4387 127.573Z" fill="#2F2E41"/>
<path d="M366.482 165.803C371.894 153.396 368.828 141.979 362.231 135.922V135.917C359.637 130.104 356.189 125.619 352.243 124.566C350.336 123.341 348.485 121.902 346.431 121.169C345.474 120.811 344.454 120.65 343.433 120.697C342.412 120.743 341.412 120.995 340.491 121.439L339.443 121.159C338.553 118.886 337.511 118.84 336.352 120.335C331.887 118.255 327.864 117.325 324.284 117.325C312.608 117.325 305.702 127.211 303.871 139.161L313.63 141.76L317.022 136.354L315.456 142.248L320.841 143.677C329.039 154.351 319.229 178.975 306.795 192.674C309.755 191.856 312.703 191.164 315.639 190.6L326.308 174.957L319.697 189.196C323.13 188.693 327.508 189.176 332.293 190.147C333.905 188.042 334.755 185.235 333.921 182.733C335.284 185.371 336.225 188.208 336.707 191.139C346.807 193.605 360.583 194.871 368.008 195.807C374.006 193.849 374.023 171.733 366.482 165.803Z" fill="#2F2E41"/>
<path d="M370.003 123.599C373.967 132.475 365.969 136.293 358.642 136.185C352.021 136.087 346.394 131.436 346.056 124.823C345.894 121.648 347 118.538 349.13 116.178C351.261 113.818 354.242 112.4 357.418 112.238C364.03 111.9 367.303 117.554 370.003 123.599Z" fill="#2F2E41"/>
<path d="M186.115 268.084L179.586 257.193L201.295 240.722L210.322 231.192C211.495 229.954 212.972 229.045 214.606 228.557C216.24 228.068 217.973 228.017 219.633 228.409C221.293 228.8 222.821 229.62 224.065 230.787C225.308 231.954 226.224 233.427 226.72 235.059C227.455 237.477 227.221 240.085 226.069 242.335C224.917 244.584 222.937 246.298 220.545 247.114L206.518 251.903L186.115 268.084Z" fill="#A0616A"/>
<path d="M190.834 267.724L180.668 276.196L177.927 278.48L177.607 278.744C176.9 279.095 176.188 279.441 175.471 279.782C173.325 280.804 171.152 281.775 168.952 282.696C163.162 285.117 157.222 287.16 151.168 288.813C150.019 289.129 148.865 289.429 147.705 289.713C146.998 289.886 146.286 290.059 145.574 290.222C145.127 290.329 144.674 290.43 144.222 290.527C143.672 290.649 143.123 290.771 142.574 290.883C141.999 291.005 141.425 291.122 140.85 291.234C139.304 289.763 138.073 287.992 137.232 286.031C136.391 284.069 135.957 281.957 135.958 279.822C135.958 279.685 135.958 279.543 135.963 279.4L137.595 237.532L138.318 218.976C138.429 214.78 140.177 210.793 143.188 207.868C146.199 204.943 150.235 203.312 154.433 203.323C154.921 203.323 155.404 203.349 155.882 203.395C156.228 203.842 156.549 204.305 156.859 204.773C157.703 206.024 158.842 208.002 160.185 210.483C160.739 211.506 161.324 212.614 161.939 213.789C162.31 214.496 165.514 224.494 168.631 234.705L167.258 245.369L164.777 264.592L174.958 257.91L182.128 253.201L182.977 254.619L185.189 258.311L189.461 265.431L190.834 267.724Z" fill="#3F3D56"/>
<path d="M185.261 255.758C185.255 256.623 185.235 257.472 185.189 258.311C185.083 260.626 184.815 262.93 184.386 265.207C183.684 269.03 182.432 272.732 180.668 276.196C180.435 276.659 180.185 277.117 179.931 277.564C179.275 277.91 178.609 278.246 177.943 278.581C177.831 278.637 177.719 278.693 177.607 278.744C174.775 280.153 171.889 281.47 168.952 282.696C163.162 285.117 157.222 287.16 151.168 288.813C150.019 289.128 148.865 289.429 147.705 289.713C145.442 290.273 143.157 290.78 140.85 291.234C131.46 293.079 121.912 294.005 112.342 294C111.706 294 111.075 293.995 110.44 293.99C110.246 293.99 110.053 293.985 109.855 293.98C109.295 293.97 108.716 293.96 108.126 293.944C96.8165 293.632 85.5812 292.012 74.6439 289.118C73.7743 288.889 72.9081 288.652 72.0452 288.406C63.7308 286.042 55.6437 282.941 47.8796 279.141C39.3464 261.581 40.9483 252.204 39.4023 230.906C42.5756 222.978 96.2617 228.577 137.595 237.532C148.814 239.963 159.117 242.643 167.258 245.369C175.67 248.181 181.767 251.039 184.157 253.724C184.715 254.28 185.099 254.987 185.261 255.758Z" fill="#2F2E41"/>
<path opacity="0.2" d="M39.4053 234.552C39.3264 233.234 39.2381 231.872 39.1351 230.454C44.2917 217.578 182.659 240.375 184.993 255.306C184.987 256.675 184.928 258.003 184.83 259.3C179.177 244.564 47.7263 222.896 39.4053 234.552Z" fill="#311A00"/>
</g>
<defs>
<clipPath id="clip0_1_278">
<rect width="447.593" height="293.055" fill="white" transform="translate(0 0.945312)"/>
</clipPath>
</defs>
</svg>
