<svg width="448" height="318" viewBox="0 0 448 318" fill="none" xmlns="http://www.w3.org/2000/svg">
<g clip-path="url(#clip0_1_674)">
<path d="M46.7042 309.971L54.1328 309.97L57.6671 281.315L46.7026 281.316L46.7042 309.971Z" fill="#FFB6B6"/>
<path d="M46.4424 317.721L69.2877 317.72V317.431C69.2875 315.073 68.3506 312.811 66.6831 311.144C65.0155 309.476 62.7539 308.54 60.3957 308.539H60.3951L56.2222 305.374L48.4363 308.54L46.4421 308.54L46.4424 317.721Z" fill="#2F2E41"/>
<path d="M58.7008 275.302L64.5494 279.883L85.0024 259.504L76.3706 252.743L58.7008 275.302Z" fill="#FFB6B6"/>
<path d="M53.7155 281.241L71.7003 295.328L71.8784 295.101C73.3326 293.244 73.9897 290.886 73.7053 288.545C73.4209 286.204 72.2183 284.072 70.3619 282.618L70.3614 282.617L69.0287 277.552L60.9469 275.243L59.377 274.013L53.7155 281.241Z" fill="#2F2E41"/>
<path d="M93.6768 144.738C93.6768 144.738 103.537 154.963 99.1544 178.7L102.833 219.342L103.783 221.224C104.349 222.345 104.546 223.616 104.347 224.856C104.149 226.096 103.563 227.242 102.675 228.13L101.893 230.555L101.163 235.302L73.9571 276.203L63.5495 265.247L80.3477 226.903L75.783 217.043L65.1928 182.717L57.8892 245.527L59.3499 299.574H45.371L36.7088 239.319L27.5793 154.598L32.3281 144.738H93.6768Z" fill="#2F2E41"/>
<path d="M29.8561 162.307L29.7564 162.168C24.4356 154.718 32.4381 136.818 33.6451 134.223C32.2119 133.758 30.9842 132.81 30.1711 131.542C29.358 130.273 29.0099 128.762 29.1859 127.265L29.7062 122.843L30.2486 118.504L26.3632 114.619L26.3523 114.522L24.1163 94.9574L20.8653 81.9627C19.6403 77.0502 19.7447 71.9002 21.1677 67.0414C22.5908 62.1826 25.2811 57.79 28.9627 54.3146L36.4775 53.1213L45.6103 44.3218H60.3379L65.3877 49.1464C74.8145 50.7997 76.434 50.2599 84.5314 59.9768L80.852 90.1871L79.9341 94.3431L79.9368 99.98L82.2704 102.573C83.111 103.508 83.7218 104.625 84.0541 105.837C84.3865 107.049 84.4312 108.322 84.1847 109.554L83.8779 111.089C86.2846 112.12 88.5812 130.45 89.1299 133.01L89.9495 136.835C90.6507 137.76 95.279 143.931 95.279 145.618C95.279 145.872 95.0921 146.117 94.6908 146.388C91.5367 148.524 78.9615 163.675 71.2456 160.587C63.0267 157.301 30.355 162.231 30.0259 162.281L29.8561 162.307Z" fill="#3F3D56"/>
<path d="M27.8774 127.178C27.8774 127.178 31.6595 105.804 27.8493 97.7651L12.734 98.8448L15.0343 129.338L28.2479 163.195C28.0462 164.238 28.1241 165.316 28.4737 166.319C28.8233 167.322 29.4321 168.215 30.2384 168.907C31.0446 169.599 32.0196 170.065 33.0643 170.259C34.109 170.452 35.1862 170.365 36.1867 170.008C37.1871 169.65 38.0751 169.034 38.7605 168.222C39.4459 167.41 39.9043 166.432 40.0892 165.385C40.274 164.339 40.1788 163.263 39.8131 162.265C39.4474 161.268 38.8243 160.385 38.007 159.706L27.8774 127.178Z" fill="#FFB6B6"/>
<path d="M12.734 86.4285L13.6695 76.2413C14.0216 72.4072 15.1282 68.6805 16.9258 65.2756C18.7233 61.8708 21.1763 58.8549 24.1437 56.4015C25.9874 54.8884 28.2176 53.9211 30.5822 53.609C32.9467 53.2969 35.3515 53.6523 37.5247 54.6352C40.4616 55.9873 42.7756 58.4042 43.9986 61.3972C45.2217 64.3901 45.2626 67.7359 44.1132 70.7579C40.6197 79.9201 41.8811 89.6095 35.0691 90.7907L35.8092 94.3117L29.1113 116.17L10.0348 113.96L12.734 86.4285Z" fill="#3F3D56"/>
<path d="M113.346 117.047C113.346 117.047 102.274 98.3767 94.1436 94.7673L83.3887 105.443L105.018 127.06L137.114 144.11C137.642 145.032 138.404 145.799 139.323 146.331C140.242 146.864 141.286 147.144 142.348 147.143C143.411 147.141 144.454 146.859 145.372 146.324C146.29 145.79 147.05 145.021 147.576 144.098C148.101 143.174 148.372 142.128 148.363 141.066C148.353 140.004 148.062 138.963 147.52 138.049C146.978 137.135 146.204 136.381 145.276 135.863C144.348 135.346 143.3 135.083 142.238 135.101L113.346 117.047Z" fill="#FFB6B6"/>
<path d="M75.2918 96.0302L69.3576 87.6971C67.1242 84.5608 65.5329 81.0139 64.6753 77.2604C63.8176 73.5069 63.7105 69.6209 64.3601 65.8259C64.7711 63.4764 65.8311 61.2888 67.4201 59.5101C69.0092 57.7315 71.0641 56.4327 73.3525 55.7606C76.4608 54.8704 79.7911 55.1937 82.6702 56.6651C85.5492 58.1366 87.7621 60.6463 88.8614 63.6869C92.1879 72.9111 104.321 88.0713 99.9275 93.4091L102.785 95.5958L107.103 107.897L91.1995 118.662L75.2918 96.0302Z" fill="#3F3D56"/>
<path d="M51.9804 40.0707C61.0136 40.0707 68.3365 32.7478 68.3365 23.7145C68.3365 14.6813 61.0136 7.3584 51.9804 7.3584C42.9472 7.3584 35.6243 14.6813 35.6243 23.7145C35.6243 32.7478 42.9472 40.0707 51.9804 40.0707Z" fill="#FFB6B6"/>
<path d="M40.1104 35.2435C39.9676 35.1183 39.8328 34.9846 39.6933 34.856C39.6883 34.8692 39.6875 34.8827 39.6822 34.8958L40.1104 35.2435Z" fill="#2F2E41"/>
<path d="M65.3842 6.44274C64.5715 5.13453 63.4459 4.04926 62.1089 3.28488C61.1951 2.84166 60.2348 2.50142 59.2458 2.27043L56.6573 1.56419C55.331 1.15379 53.9665 0.879047 52.5848 0.74418C50.666 0.649525 48.7581 1.08397 47.0695 2.00007C45.3809 2.91616 43.9765 4.27866 43.0098 5.93877C42.2277 7.32589 41.6004 9.05442 40.091 9.56191C38.874 9.97114 37.5461 9.39391 36.267 9.50589C35.5175 9.6145 34.8064 9.90632 34.1966 10.3555C33.5868 10.8046 33.0972 11.3973 32.7712 12.0809C32.1338 13.4565 31.82 14.96 31.8541 16.4758C31.8039 19.9171 32.4755 23.3308 33.8258 26.4966C35.176 29.6625 37.1748 32.5101 39.6933 34.8559C40.1155 33.7431 39.4202 32.5418 38.8705 31.4773C38.3143 30.4002 37.9707 28.8986 38.9021 28.1229C39.9386 27.2597 41.5992 28.0968 42.825 27.5339C43.2171 27.3086 43.5474 26.9897 43.7863 26.6057C44.0252 26.2217 44.1653 25.7845 44.194 25.3332C44.3127 24.4388 44.1888 23.5297 44.245 22.6293C44.3006 21.7367 44.5325 20.864 44.9273 20.0616C45.3221 19.2591 45.8719 18.5429 46.5451 17.9541C47.2183 17.3653 48.0014 16.9158 48.8493 16.6314C49.6971 16.3469 50.593 16.2333 51.485 16.297C54.2751 16.4963 56.9828 18.4029 59.6678 17.6185C60.9281 17.2504 62.0031 16.313 63.3066 16.1553C64.7502 15.9807 66.1082 16.7954 67.334 17.5777C67.7794 15.6863 67.8363 13.7242 67.5011 11.8102C67.1659 9.89625 66.4458 8.07022 65.3842 6.44274Z" fill="#2F2E41"/>
<path d="M122.087 308.532L117.925 301.843L117.094 305.665C116.948 306.335 116.802 307.015 116.667 307.69C115.485 306.68 114.227 305.746 112.997 304.85C109.218 302.108 105.441 299.362 101.666 296.612L102.848 303.468C103.577 307.69 104.338 311.997 106.141 315.857C106.341 316.294 106.556 316.726 106.789 317.147H124.355C124.496 316.756 124.594 316.351 124.646 315.938C124.651 315.911 124.652 315.884 124.652 315.857C124.927 313.239 123.48 310.772 122.087 308.532Z" fill="#F0F0F0"/>
<path d="M426.596 301.308L419.047 289.176L417.539 296.108C417.274 297.323 417.01 298.556 416.765 299.78C414.621 297.949 412.339 296.255 410.107 294.63C403.253 289.656 396.401 284.675 389.553 279.688L391.698 292.123C393.02 299.78 394.401 307.594 397.671 314.595C398.033 315.389 398.425 316.172 398.846 316.936H430.709C430.965 316.226 431.143 315.491 431.238 314.742C431.246 314.694 431.249 314.645 431.247 314.595C431.747 309.846 429.123 305.372 426.596 301.308Z" fill="#F0F0F0"/>
<path d="M447.357 317.804L1.05275 317.97C0.882597 317.97 0.719589 317.902 0.599448 317.781C0.479308 317.661 0.411839 317.498 0.411839 317.327C0.411839 317.157 0.479308 316.994 0.599448 316.874C0.719589 316.753 0.882597 316.685 1.05275 316.685L447.357 316.519C447.527 316.519 447.69 316.587 447.811 316.708C447.931 316.828 447.998 316.991 447.998 317.162C447.998 317.332 447.931 317.495 447.811 317.615C447.69 317.736 447.527 317.804 447.357 317.804Z" fill="#CACACA"/>
<path d="M140.441 129.365V284.309C140.442 286.284 141.227 288.177 142.624 289.573C144.02 290.969 145.913 291.754 147.888 291.756H377.499C379.473 291.754 381.367 290.969 382.763 289.573C384.159 288.177 384.944 286.284 384.946 284.309V129.365C384.941 127.392 384.155 125.502 382.759 124.107C381.363 122.713 379.472 121.929 377.499 121.926H147.888C145.915 121.929 144.023 122.713 142.628 124.107C141.232 125.502 140.445 127.392 140.441 129.365Z" fill="#3F3D56"/>
<path d="M145.827 131.293V282.398C145.829 283.453 146.249 284.464 146.995 285.21C147.741 285.956 148.752 286.376 149.807 286.378H375.588C376.643 286.376 377.654 285.956 378.4 285.21C379.146 284.464 379.566 283.453 379.567 282.398V131.293C379.567 130.237 379.148 129.224 378.402 128.476C377.656 127.728 376.644 127.307 375.588 127.305H149.807C148.751 127.307 147.739 127.728 146.993 128.476C146.246 129.224 145.827 130.237 145.827 131.293Z" fill="white"/>
<path d="M135.639 314.527C136.059 315.055 136.594 315.48 137.203 315.771C137.811 316.062 138.478 316.212 139.152 316.208H385.012C385.684 316.208 386.348 316.057 386.955 315.767C387.562 315.478 388.096 315.056 388.52 314.534C388.943 314.012 389.245 313.402 389.403 312.749C389.562 312.095 389.572 311.414 389.434 310.756L385.618 292.628C385.46 291.889 385.119 291.201 384.627 290.627C384.135 290.053 383.507 289.611 382.801 289.342C382.289 289.141 381.745 289.038 381.195 289.039H142.954C142.404 289.038 141.86 289.141 141.348 289.342C140.642 289.611 140.014 290.053 139.522 290.627C139.03 291.201 138.689 291.889 138.531 292.628L134.715 310.756C134.579 311.414 134.592 312.094 134.751 312.746C134.911 313.398 135.214 314.007 135.639 314.527Z" fill="#2F2E41"/>
<path d="M372.14 296.847H379.186C379.331 296.847 379.449 296.729 379.449 296.584V292.568C379.449 292.422 379.331 292.304 379.186 292.304H372.14C371.995 292.304 371.877 292.422 371.877 292.568V296.584C371.877 296.729 371.995 296.847 372.14 296.847Z" fill="#3F3D56"/>
<path d="M356.996 296.847H364.041C364.187 296.847 364.305 296.729 364.305 296.584V292.568C364.305 292.422 364.187 292.304 364.041 292.304H356.996C356.85 292.304 356.732 292.422 356.732 292.568V296.584C356.732 296.729 356.85 296.847 356.996 296.847Z" fill="#3F3D56"/>
<path d="M341.851 296.847H348.896C349.042 296.847 349.16 296.729 349.16 296.584V292.568C349.16 292.422 349.042 292.304 348.896 292.304H341.851C341.705 292.304 341.587 292.422 341.587 292.568V296.584C341.587 296.729 341.705 296.847 341.851 296.847Z" fill="#3F3D56"/>
<path d="M326.706 296.847H333.752C333.897 296.847 334.015 296.729 334.015 296.584V292.568C334.015 292.422 333.897 292.304 333.752 292.304H326.706C326.561 292.304 326.443 292.422 326.443 292.568V296.584C326.443 296.729 326.561 296.847 326.706 296.847Z" fill="#3F3D56"/>
<path d="M311.561 296.847H318.607C318.752 296.847 318.87 296.729 318.87 296.584V292.568C318.87 292.422 318.752 292.304 318.607 292.304H311.561C311.416 292.304 311.298 292.422 311.298 292.568V296.584C311.298 296.729 311.416 296.847 311.561 296.847Z" fill="#3F3D56"/>
<path d="M296.417 296.847H303.462C303.608 296.847 303.726 296.729 303.726 296.584V292.568C303.726 292.422 303.608 292.304 303.462 292.304H296.417C296.271 292.304 296.153 292.422 296.153 292.568V296.584C296.153 296.729 296.271 296.847 296.417 296.847Z" fill="#3F3D56"/>
<path d="M281.272 296.847H288.317C288.463 296.847 288.581 296.729 288.581 296.584V292.568C288.581 292.422 288.463 292.304 288.317 292.304H281.272C281.126 292.304 281.008 292.422 281.008 292.568V296.584C281.008 296.729 281.126 296.847 281.272 296.847Z" fill="#3F3D56"/>
<path d="M266.127 296.847H273.173C273.318 296.847 273.436 296.729 273.436 296.584V292.568C273.436 292.422 273.318 292.304 273.173 292.304H266.127C265.982 292.304 265.864 292.422 265.864 292.568V296.584C265.864 296.729 265.982 296.847 266.127 296.847Z" fill="#3F3D56"/>
<path d="M250.983 296.847H258.028C258.173 296.847 258.291 296.729 258.291 296.584V292.568C258.291 292.422 258.173 292.304 258.028 292.304H250.983C250.837 292.304 250.719 292.422 250.719 292.568V296.584C250.719 296.729 250.837 296.847 250.983 296.847Z" fill="#3F3D56"/>
<path d="M235.838 296.847H242.883C243.029 296.847 243.147 296.729 243.147 296.584V292.568C243.147 292.422 243.029 292.304 242.883 292.304H235.838C235.692 292.304 235.574 292.422 235.574 292.568V296.584C235.574 296.729 235.692 296.847 235.838 296.847Z" fill="#3F3D56"/>
<path d="M220.693 296.847H227.738C227.884 296.847 228.002 296.729 228.002 296.584V292.568C228.002 292.422 227.884 292.304 227.738 292.304H220.693C220.548 292.304 220.43 292.422 220.43 292.568V296.584C220.43 296.729 220.548 296.847 220.693 296.847Z" fill="#3F3D56"/>
<path d="M205.548 296.847H212.594C212.739 296.847 212.857 296.729 212.857 296.584V292.568C212.857 292.422 212.739 292.304 212.594 292.304H205.548C205.403 292.304 205.285 292.422 205.285 292.568V296.584C205.285 296.729 205.403 296.847 205.548 296.847Z" fill="#3F3D56"/>
<path d="M190.404 296.847H197.449C197.594 296.847 197.712 296.729 197.712 296.584V292.568C197.712 292.422 197.594 292.304 197.449 292.304H190.404C190.258 292.304 190.14 292.422 190.14 292.568V296.584C190.14 296.729 190.258 296.847 190.404 296.847Z" fill="#3F3D56"/>
<path d="M175.259 296.847H182.304C182.45 296.847 182.568 296.729 182.568 296.584V292.568C182.568 292.422 182.45 292.304 182.304 292.304H175.259C175.113 292.304 174.995 292.422 174.995 292.568V296.584C174.995 296.729 175.113 296.847 175.259 296.847Z" fill="#3F3D56"/>
<path d="M160.114 296.847H167.159C167.305 296.847 167.423 296.729 167.423 296.584V292.568C167.423 292.422 167.305 292.304 167.159 292.304H160.114C159.969 292.304 159.851 292.422 159.851 292.568V296.584C159.851 296.729 159.969 296.847 160.114 296.847Z" fill="#3F3D56"/>
<path d="M144.969 296.847H152.015C152.16 296.847 152.278 296.729 152.278 296.584V292.568C152.278 292.422 152.16 292.304 152.015 292.304H144.969C144.824 292.304 144.706 292.422 144.706 292.568V296.584C144.706 296.729 144.824 296.847 144.969 296.847Z" fill="#3F3D56"/>
<path d="M372.319 304.42H379.365C379.51 304.42 379.628 304.302 379.628 304.156V300.14C379.628 299.994 379.51 299.876 379.365 299.876H372.319C372.174 299.876 372.056 299.994 372.056 300.14V304.156C372.056 304.302 372.174 304.42 372.319 304.42Z" fill="#3F3D56"/>
<path d="M357.175 304.42H364.22C364.366 304.42 364.484 304.302 364.484 304.156V300.14C364.484 299.994 364.366 299.876 364.22 299.876H357.175C357.029 299.876 356.911 299.994 356.911 300.14V304.156C356.911 304.302 357.029 304.42 357.175 304.42Z" fill="#3F3D56"/>
<path d="M342.03 304.42H349.075C349.221 304.42 349.339 304.302 349.339 304.156V300.14C349.339 299.994 349.221 299.876 349.075 299.876H342.03C341.884 299.876 341.766 299.994 341.766 300.14V304.156C341.766 304.302 341.884 304.42 342.03 304.42Z" fill="#3F3D56"/>
<path d="M326.885 304.42H333.931C334.076 304.42 334.194 304.302 334.194 304.156V300.14C334.194 299.994 334.076 299.876 333.931 299.876H326.885C326.74 299.876 326.622 299.994 326.622 300.14V304.156C326.622 304.302 326.74 304.42 326.885 304.42Z" fill="#3F3D56"/>
<path d="M311.74 304.42H318.786C318.931 304.42 319.049 304.302 319.049 304.156V300.14C319.049 299.994 318.931 299.876 318.786 299.876H311.74C311.595 299.876 311.477 299.994 311.477 300.14V304.156C311.477 304.302 311.595 304.42 311.74 304.42Z" fill="#3F3D56"/>
<path d="M296.596 304.42H303.641C303.787 304.42 303.905 304.302 303.905 304.156V300.14C303.905 299.994 303.787 299.876 303.641 299.876H296.596C296.45 299.876 296.332 299.994 296.332 300.14V304.156C296.332 304.302 296.45 304.42 296.596 304.42Z" fill="#3F3D56"/>
<path d="M281.451 304.42H288.496C288.642 304.42 288.76 304.302 288.76 304.156V300.14C288.76 299.994 288.642 299.876 288.496 299.876H281.451C281.305 299.876 281.187 299.994 281.187 300.14V304.156C281.187 304.302 281.305 304.42 281.451 304.42Z" fill="#3F3D56"/>
<path d="M266.306 304.42H273.352C273.497 304.42 273.615 304.302 273.615 304.156V300.14C273.615 299.994 273.497 299.876 273.352 299.876H266.306C266.161 299.876 266.043 299.994 266.043 300.14V304.156C266.043 304.302 266.161 304.42 266.306 304.42Z" fill="#3F3D56"/>
<path d="M251.162 304.42H258.207C258.352 304.42 258.47 304.302 258.47 304.156V300.14C258.47 299.994 258.352 299.876 258.207 299.876H251.162C251.016 299.876 250.898 299.994 250.898 300.14V304.156C250.898 304.302 251.016 304.42 251.162 304.42Z" fill="#3F3D56"/>
<path d="M236.017 304.42H243.062C243.208 304.42 243.326 304.302 243.326 304.156V300.14C243.326 299.994 243.208 299.876 243.062 299.876H236.017C235.871 299.876 235.753 299.994 235.753 300.14V304.156C235.753 304.302 235.871 304.42 236.017 304.42Z" fill="#3F3D56"/>
<path d="M220.872 304.42H227.917C228.063 304.42 228.181 304.302 228.181 304.156V300.14C228.181 299.994 228.063 299.876 227.917 299.876H220.872C220.727 299.876 220.609 299.994 220.609 300.14V304.156C220.609 304.302 220.727 304.42 220.872 304.42Z" fill="#3F3D56"/>
<path d="M205.727 304.42H212.773C212.918 304.42 213.036 304.302 213.036 304.156V300.14C213.036 299.994 212.918 299.876 212.773 299.876H205.727C205.582 299.876 205.464 299.994 205.464 300.14V304.156C205.464 304.302 205.582 304.42 205.727 304.42Z" fill="#3F3D56"/>
<path d="M190.583 304.42H197.628C197.773 304.42 197.891 304.302 197.891 304.156V300.14C197.891 299.994 197.773 299.876 197.628 299.876H190.583C190.437 299.876 190.319 299.994 190.319 300.14V304.156C190.319 304.302 190.437 304.42 190.583 304.42Z" fill="#3F3D56"/>
<path d="M175.438 304.42H182.483C182.629 304.42 182.747 304.302 182.747 304.156V300.14C182.747 299.994 182.629 299.876 182.483 299.876H175.438C175.292 299.876 175.174 299.994 175.174 300.14V304.156C175.174 304.302 175.292 304.42 175.438 304.42Z" fill="#3F3D56"/>
<path d="M160.293 304.42H167.338C167.484 304.42 167.602 304.302 167.602 304.156V300.14C167.602 299.994 167.484 299.876 167.338 299.876H160.293C160.148 299.876 160.03 299.994 160.03 300.14V304.156C160.03 304.302 160.148 304.42 160.293 304.42Z" fill="#3F3D56"/>
<path d="M145.148 304.42H152.194C152.339 304.42 152.457 304.302 152.457 304.156V300.14C152.457 299.994 152.339 299.876 152.194 299.876H145.148C145.003 299.876 144.885 299.994 144.885 300.14V304.156C144.885 304.302 145.003 304.42 145.148 304.42Z" fill="#3F3D56"/>
<path d="M229.883 313.507H289.935C290.081 313.507 290.199 313.389 290.199 313.243V309.227C290.199 309.081 290.081 308.963 289.935 308.963H229.883C229.738 308.963 229.62 309.081 229.62 309.227V313.243C229.62 313.389 229.738 313.507 229.883 313.507Z" fill="#3F3D56"/>
<path d="M314.132 218.838C314.107 231.594 309.312 243.879 300.688 253.278C292.064 262.677 280.237 268.51 267.53 269.631C254.824 270.751 242.158 267.078 232.022 259.334C221.887 251.589 215.015 240.333 212.757 227.778C210.5 215.224 213.021 202.279 219.824 191.489C226.627 180.699 237.22 172.844 249.522 169.468C261.823 166.093 274.941 167.441 286.299 173.247C297.656 179.054 306.431 188.899 310.898 200.847C311.009 201.147 311.118 201.447 311.223 201.75V201.753C311.695 203.084 312.11 204.441 312.469 205.822C313.577 210.072 314.136 214.446 314.132 218.838Z" fill="#3F3D56"/>
<path d="M257.07 184.136C254.759 182.886 252.192 182.18 249.567 182.073C246.941 181.965 244.325 182.459 241.92 183.516C239.801 184.438 237.571 186.091 236.864 189.078C239.722 187.391 243.422 190.056 244.157 194.331L243.986 194.379C243.597 197.34 244.464 200.564 246.143 202.4C246.268 201.571 246.576 200.781 247.044 200.086C247.512 199.392 248.13 198.81 248.851 198.384C250.084 197.573 251.449 196.984 252.39 195.59C253.507 193.938 253.79 191.523 254.233 189.32C254.677 187.117 255.518 184.749 257.07 184.136Z" fill="#FFBC13"/>
<path d="M241.072 209.334C240.28 210.523 239.223 211.268 238.274 212.197C237.179 213.193 236.461 214.536 236.24 216C236.12 217.035 236.306 218.086 236.28 219.132C236.254 220.178 235.905 221.355 235.194 221.615C234.071 222.021 233.214 219.935 232.059 219.789C231.142 219.675 230.316 221.118 230.582 222.37C230.848 223.621 232.096 224.176 232.814 223.358C233.462 224.447 233.005 226.422 232.031 226.756C231.928 227.442 231.825 228.125 231.725 228.811C229.262 227.087 226.773 225.336 224.678 222.813C222.349 220.03 220.904 216.615 220.529 213.006C220.258 210.105 220.661 206.788 219.329 204.556C218.263 202.77 216.434 202.376 214.789 202.487C214.489 202.507 214.186 202.542 213.886 202.579C214.856 199.663 216.089 196.842 217.569 194.149C217.904 194.005 218.215 193.812 218.492 193.575C220.023 192.275 220.704 189.643 221.947 187.823C222.027 187.705 222.109 187.591 222.195 187.48C223.467 185.819 225.17 184.965 226.816 184.171C230.459 182.402 234.208 180.61 238.054 180.856L236.96 180.962C235.683 184.539 234.404 188.117 233.125 191.694C232.931 192.243 232.735 192.793 232.537 193.343C231.811 195.378 231.062 197.544 231.173 199.821C231.239 201.17 231.708 202.61 232.599 203.073C233.431 203.502 234.34 202.976 235.143 202.456C235.483 202.239 235.82 202.021 236.16 201.801C237.38 201.016 238.732 200.21 240.02 200.736C241.2 201.216 242.072 202.819 242.238 204.548C242.39 206.228 241.98 207.911 241.072 209.334Z" fill="#FFBC13"/>
<path d="M248.329 233.759C244.765 231.565 241.202 229.371 237.638 227.177L237.698 227.021C235.483 227.865 234.563 231.803 234.929 235.024C235.295 238.245 236.537 241.124 237.164 244.263C238.01 248.557 237.691 253 236.24 257.13C240.925 251.872 245.072 246.157 248.618 240.072C249.114 239.305 249.491 238.468 249.738 237.589C250 236.653 249.906 235.652 249.476 234.78C249.185 234.35 248.79 233.999 248.329 233.759Z" fill="#FFBC13"/>
<path d="M234.264 193.841C233.846 194.74 233.782 195.763 234.084 196.707C234.435 197.467 235.073 198.058 235.858 198.35L237.828 199.326C238.483 199.651 239.189 199.979 239.856 199.712C240.662 199.39 241.22 198.127 241.076 196.955C240.922 195.707 240.136 194.849 239.409 194.118C238.391 193.096 237.373 192.073 236.356 191.051L235.782 191.753C235.162 192.358 234.649 193.064 234.264 193.841Z" fill="#FFBC13"/>
<path d="M303.577 207.176C304.463 207.385 305.348 207.594 306.234 207.802C306.08 210.794 304.597 213.563 302.608 214.566C301.779 214.983 300.856 215.137 300.171 215.917C299.551 216.626 299.236 217.729 298.948 218.784C298.442 220.624 297.936 222.464 297.43 224.304C296.887 226.287 296.19 228.49 294.779 229.205C293.567 229.819 292.181 229.068 291.25 227.807C290.318 226.547 289.749 224.853 289.198 223.201C289.232 225.001 288.395 226.767 287.209 227.393C286.02 228.019 284.574 227.453 283.78 226.056C283.209 225.053 282.971 223.73 282.411 222.713C281.851 221.695 280.677 221.112 280.065 222.067C279.662 222.701 279.714 223.673 279.514 224.479C279.413 225.014 279.148 225.504 278.756 225.881C278.364 226.259 277.863 226.505 277.325 226.585C276.83 226.573 276.342 226.461 275.892 226.255C275.441 226.049 275.037 225.754 274.705 225.387C272.955 223.597 271.816 221.3 271.45 218.824C271.202 217.636 271.233 216.408 271.541 215.235C271.893 214.123 272.742 213.266 273.584 213.477C274.139 212.306 273.044 210.751 272.059 210.888C271.07 211.025 270.295 212.086 269.484 212.9C268.675 213.714 267.544 214.306 266.729 213.497C266.739 213.651 266.716 213.805 266.663 213.95C266.61 214.095 266.528 214.227 266.421 214.338C266.315 214.45 266.186 214.538 266.044 214.597C265.902 214.656 265.749 214.686 265.595 214.683C265.053 214.528 264.55 214.261 264.118 213.9C262.252 212.737 259.883 213.509 258.557 215.709C259.386 212.183 260.6 208.136 263.146 207.308C264.186 206.968 265.321 207.248 266.304 206.659C268.044 205.616 268.395 201.676 266.892 200.05C267.084 201.587 267.047 203.382 266.235 204.433C265.423 205.485 263.72 204.799 263.823 203.244C263.8 203.463 263.708 203.669 263.561 203.832C263.414 203.995 263.219 204.108 263.004 204.154C262.789 204.199 262.565 204.176 262.364 204.086C262.163 203.997 261.996 203.846 261.886 203.656C261.346 202.833 261.392 201.487 261.774 200.504C262.169 199.614 262.735 198.81 263.44 198.138C264.798 196.684 266.175 195.212 267.747 194.298C269.321 193.383 271.138 193.075 272.716 193.983C273.547 194.463 274.279 195.263 275.128 195.686C275.331 195.813 275.557 195.897 275.794 195.934C276.03 195.97 276.272 195.96 276.504 195.902C276.736 195.843 276.954 195.739 277.145 195.595C277.336 195.451 277.497 195.27 277.616 195.063C278.248 193.955 277.951 192.309 278.185 190.923C278.605 188.474 281.054 187.328 282.411 188.946C281.397 188.686 280.348 189.886 280.222 191.34C280.094 192.795 280.828 194.263 281.811 194.703C283.463 195.435 285.08 193.595 286.329 191.892C287.632 190.109 288.937 188.326 290.244 186.545C290.452 186.242 290.687 185.957 290.944 185.694C291.353 185.295 291.899 185.066 292.47 185.055C293.042 185.043 293.596 185.249 294.021 185.631C295.341 186.708 295.962 188.917 297.045 190.437C298.616 192.646 300.968 193.183 303.157 193.612C304.788 193.929 306.421 194.248 308.055 194.569C309.143 196.595 310.093 198.692 310.898 200.847C307.902 202.213 305.361 204.41 303.577 207.176Z" fill="#FFBC13"/>
<path d="M312.469 205.822C312.135 206.809 311.952 207.84 311.926 208.882C310.526 207.173 310.303 203.97 311.223 201.753C311.695 203.084 312.11 204.441 312.469 205.822Z" fill="#FFBC13"/>
<path d="M308.852 241.558C307.628 244.044 306.204 246.426 304.594 248.682C303.565 248.242 302.46 249.027 301.497 249.765C300.491 250.536 299.282 251.288 298.25 250.585C297.196 249.865 296.856 247.85 297.19 246.253C297.575 244.779 298.247 243.396 299.168 242.184C300.025 240.904 300.942 239.575 302.134 239.078C303.328 238.58 304.863 239.283 305.211 240.981L306.057 240.952C305.583 240.301 305.831 238.952 306.469 238.715C307.203 238.438 307.84 239.446 308.275 240.338C308.469 240.741 308.666 241.146 308.852 241.558Z" fill="#FFBC13"/>
<path d="M276.458 229.488C274.639 229.603 273.199 227.364 272.242 225.163C271.286 222.961 270.412 220.443 268.772 219.322C267.835 218.682 266.766 218.594 265.749 218.284C265.173 218.138 264.639 217.857 264.193 217.464C263.746 217.071 263.4 216.577 263.182 216.024L262.029 215.558C260.416 216.364 258.939 217.418 257.651 218.68C256.179 220.243 255.262 222.248 255.042 224.384C254.821 226.692 255.635 229.266 257.155 230.133C258.356 230.819 259.754 230.387 260.971 231.014C262.491 231.798 263.393 234.074 263.735 236.322C264.077 238.57 263.99 240.906 264.234 243.179C264.479 245.453 265.152 247.818 266.546 248.983C268.291 250.441 270.85 249.23 271.633 246.576C272.017 245.274 272.004 243.805 272.291 242.454C272.797 240.074 274.161 238.309 275.243 236.357C276.325 234.405 277.177 231.754 276.458 229.488Z" fill="#FFBC13"/>
<path d="M258.493 206.105C258.662 206.261 258.82 206.429 258.966 206.607C259.117 206.867 259.194 207.163 259.189 207.464C259.184 207.764 259.097 208.058 258.937 208.312C259.156 208.3 259.37 208.242 259.566 208.143C259.761 208.043 259.934 207.904 260.073 207.735C260.405 207.357 260.697 206.946 260.944 206.508C261.06 206.358 261.143 206.185 261.188 206C261.232 205.816 261.236 205.624 261.201 205.438C261.115 205.193 260.912 205.088 260.77 204.904C260.572 204.543 260.437 204.152 260.371 203.746C260.292 203.366 260.109 203.016 259.842 202.734C259.574 202.453 259.234 202.251 258.858 202.152L258.95 202.17C258.795 202.262 258.672 202.4 258.6 202.565C258.527 202.73 258.508 202.914 258.545 203.09C258.6 203.447 258.829 203.743 258.806 204.107C258.774 204.63 258.251 204.875 258.219 205.398C258.214 205.66 258.312 205.914 258.493 206.105Z" fill="#FFBC13"/>
<path d="M255.378 197.218L255.386 197.216C255.442 197.165 255.494 197.11 255.541 197.051L255.378 197.218Z" fill="#FFBC13"/>
<path d="M255.923 199.673C256.141 199.481 256.303 199.233 256.39 198.956C256.477 198.679 256.486 198.383 256.416 198.101C256.284 197.506 255.817 197.107 255.386 197.216C255.261 197.343 255.105 197.436 254.935 197.486C254.764 197.537 254.583 197.543 254.409 197.504C254.143 197.435 253.85 197.259 253.619 197.459C253.486 197.609 253.394 197.79 253.349 197.985C253.264 198.248 253.178 198.511 253.093 198.773C253.052 198.867 253.041 198.971 253.062 199.072C253.079 199.112 253.105 199.147 253.139 199.174C253.173 199.201 253.214 199.219 253.256 199.226C253.77 199.377 254.283 199.529 254.797 199.68C254.973 199.762 255.166 199.803 255.361 199.802C255.555 199.801 255.747 199.756 255.923 199.673Z" fill="#FFBC13"/>
<path d="M294.682 233.562C294.445 233.174 294.208 232.785 293.971 232.397C293.737 231.947 293.419 231.547 293.032 231.219C292.947 231.148 292.849 231.094 292.743 231.061C292.637 231.029 292.526 231.018 292.416 231.029C292.305 231.04 292.198 231.073 292.101 231.126C292.004 231.179 291.918 231.251 291.849 231.337L291.878 231.559C292.513 232.241 292.946 233.085 293.128 233.999C293.182 234.396 293.163 234.807 293.211 235.206C293.216 235.391 293.257 235.573 293.333 235.742C293.408 235.911 293.516 236.063 293.651 236.19C294.024 236.44 294.463 236.072 294.729 235.623C294.967 235.254 295.074 234.816 295.032 234.379C294.973 234.086 294.854 233.808 294.682 233.562Z" fill="#FFBC13"/>
<path d="M298.406 234.068C298.451 233.704 298.421 233.335 298.319 232.983C298.302 232.507 298.428 232.037 298.681 231.633C298.933 231.252 299.123 230.834 299.246 230.395C299.298 230.195 299.288 229.984 299.219 229.789C299.14 229.612 298.95 229.532 298.841 229.671L299.074 229.822C298.759 229.766 298.435 229.781 298.126 229.868C297.95 229.935 297.793 230.044 297.668 230.185C297.543 230.326 297.454 230.495 297.408 230.678C297.37 230.963 297.306 231.244 297.22 231.518C297.08 231.804 296.811 231.899 296.641 232.151C296.526 232.374 296.467 232.622 296.471 232.873C296.476 233.124 296.542 233.37 296.665 233.589C296.878 233.947 297.216 234.213 297.614 234.335C297.9 234.438 298.275 234.443 298.406 234.068Z" fill="#FFBC13"/>
<path d="M305.036 236.068C305.139 236.337 305.277 236.59 305.446 236.822C305.764 237.142 306.195 236.946 306.58 236.868C306.93 236.813 307.288 236.853 307.616 236.985C307.944 237.116 308.231 237.335 308.445 237.616C308.296 236.871 307.97 236.173 307.495 235.58C307.02 234.988 306.41 234.518 305.715 234.21C304.813 233.897 303.862 233.749 302.907 233.771L302.744 233.812C303.16 235.022 304.465 234.995 305.036 236.068Z" fill="#FFBC13"/>
<path d="M276.955 238.542L276.957 238.547L277.005 238.456L276.955 238.542Z" fill="#FFBC13"/>
<path d="M275.949 240.489C275.73 240.887 275.541 241.302 275.385 241.729C275.178 242.42 275.041 243.131 274.976 243.85C274.925 244.258 274.909 244.781 275.165 244.98C275.239 245.029 275.327 245.049 275.415 245.037C275.502 245.025 275.582 244.982 275.64 244.915C275.783 244.765 275.899 244.592 275.985 244.403C276.488 243.536 276.879 242.609 277.148 241.643C277.428 240.619 277.361 239.53 276.957 238.548C276.621 239.195 276.285 239.842 275.949 240.489Z" fill="#FFBC13"/>
<path d="M266.246 188.621C266.406 188.777 266.608 188.883 266.827 188.926C267.046 188.969 267.273 188.946 267.48 188.862C267.908 188.674 268.301 188.415 268.641 188.095C268.923 187.886 269.162 187.625 269.345 187.327C269.446 187.148 269.511 186.951 269.535 186.748C269.56 186.544 269.544 186.338 269.489 186.14C269.41 185.951 269.285 185.785 269.124 185.658C268.963 185.531 268.773 185.447 268.571 185.414C268.001 185.245 267.431 185.076 266.861 184.907L267.273 184.535C266.849 184.308 266.38 184.73 266.115 185.253C265.945 185.595 265.826 185.959 265.763 186.336C265.673 186.729 265.669 187.137 265.753 187.531C265.836 187.926 266.004 188.298 266.246 188.621Z" fill="#FFBC13"/>
<path d="M276.307 185.243C276.468 185.42 276.69 185.529 276.928 185.549C277.166 185.568 277.403 185.496 277.59 185.347C277.751 185.227 277.885 185.073 277.983 184.897C278.081 184.721 278.14 184.526 278.158 184.325C278.198 183.877 277.976 183.379 277.66 183.34L277.732 182.92C277.122 182.81 276.372 182.788 276.045 183.529C275.935 183.812 275.901 184.12 275.947 184.421C275.993 184.722 276.117 185.005 276.307 185.243Z" fill="#FFBC13"/>
<path d="M367.242 154.66H158.153C158.01 154.657 157.873 154.598 157.773 154.495C157.673 154.393 157.617 154.255 157.617 154.112C157.617 153.969 157.673 153.831 157.773 153.728C157.873 153.626 158.01 153.567 158.153 153.564H367.242C367.385 153.567 367.521 153.626 367.622 153.728C367.722 153.831 367.778 153.969 367.778 154.112C367.778 154.255 367.722 154.393 367.622 154.495C367.521 154.598 367.385 154.657 367.242 154.66Z" fill="#CACACA"/>
<path d="M170.221 146.986C173.478 146.986 176.119 144.287 176.119 140.957C176.119 137.627 173.478 134.928 170.221 134.928C166.964 134.928 164.323 137.627 164.323 140.957C164.323 144.287 166.964 146.986 170.221 146.986Z" fill="#3F3D56"/>
<path d="M190.595 146.986C193.853 146.986 196.493 144.287 196.493 140.957C196.493 137.627 193.853 134.928 190.595 134.928C187.338 134.928 184.697 137.627 184.697 140.957C184.697 144.287 187.338 146.986 190.595 146.986Z" fill="#3F3D56"/>
<path d="M210.97 146.986C214.227 146.986 216.867 144.287 216.867 140.957C216.867 137.627 214.227 134.928 210.97 134.928C207.712 134.928 205.072 137.627 205.072 140.957C205.072 144.287 207.712 146.986 210.97 146.986Z" fill="#3F3D56"/>
<path d="M355.032 136.422H340.56C340.273 136.428 339.999 136.546 339.799 136.751C339.598 136.956 339.485 137.231 339.485 137.518C339.485 137.805 339.598 138.081 339.799 138.286C339.999 138.49 340.273 138.608 340.56 138.614H355.032C355.319 138.608 355.593 138.49 355.793 138.286C355.994 138.081 356.107 137.805 356.107 137.518C356.107 137.231 355.994 136.956 355.793 136.751C355.593 136.546 355.319 136.428 355.032 136.422Z" fill="#3F3D56"/>
<path d="M355.032 140.536H340.56C340.273 140.542 339.999 140.66 339.799 140.864C339.598 141.069 339.485 141.345 339.485 141.632C339.485 141.919 339.598 142.194 339.799 142.399C339.999 142.604 340.273 142.722 340.56 142.728H355.032C355.319 142.722 355.593 142.604 355.793 142.399C355.994 142.194 356.107 141.919 356.107 141.632C356.107 141.345 355.994 141.069 355.793 140.864C355.593 140.66 355.319 140.542 355.032 140.536Z" fill="#3F3D56"/>
<path d="M355.032 144.644H340.56C340.273 144.649 339.999 144.767 339.799 144.972C339.598 145.177 339.485 145.453 339.485 145.74C339.485 146.027 339.598 146.302 339.799 146.507C339.999 146.712 340.273 146.83 340.56 146.836H355.032C355.319 146.83 355.593 146.712 355.793 146.507C355.994 146.302 356.107 146.027 356.107 145.74C356.107 145.453 355.994 145.177 355.793 144.972C355.593 144.767 355.319 144.649 355.032 144.644Z" fill="#3F3D56"/>
<g opacity="0.35">
<path d="M372.782 221.372C376.147 219.905 369.322 219.051 361.579 218.77C353.836 218.489 344.469 218.504 339.521 217.706C334.735 216.933 335.088 215.559 334.685 214.315C334.283 213.07 332.443 211.794 324.975 211.517C315.67 211.173 300.324 212.5 293.3 211.703C286.745 210.959 290.641 208.627 281.082 208.538C275.624 208.487 268.592 209.256 262.519 209.442C258.214 209.628 253.9 209.403 249.638 208.77C246.678 208.285 244.616 207.67 241.284 207.242C232.537 206.117 215.424 206.495 200.149 207.937C184.875 209.378 171.782 211.74 164.398 214.08C157.014 216.42 154.974 218.724 156.694 220.677C157.793 221.925 160.603 223.091 167.421 223.592C180.173 224.53 202.877 222.916 216.054 223.769C223.399 224.244 226.657 225.423 233.101 226.068C240.023 226.761 250.158 226.798 260.115 226.781C280.846 226.747 302.108 226.534 323.789 226.144C332.845 225.98 342.333 225.768 351.969 224.991C361.605 224.213 371.434 222.713 373.467 221.307" fill="white"/>
</g>
</g>
<defs>
<clipPath id="clip0_1_674">
<rect width="447.59" height="317.245" fill="white" transform="translate(0.410034 0.725098)"/>
</clipPath>
</defs>
</svg>
