<svg width="416" height="294" viewBox="0 0 416 294" fill="none" xmlns="http://www.w3.org/2000/svg">
<g clip-path="url(#clip0_1_412)">
<path d="M92.2837 29.3551H65.7629C63.2132 29.3574 60.7686 30.3713 58.9657 32.1742C57.1628 33.9771 56.1489 36.4218 56.1466 38.9715V67.7243C55.8075 67.7041 55.4685 67.6737 55.1344 67.6332C48.8514 66.9722 42.878 64.5691 37.8876 60.6948C32.8973 56.8206 29.0885 51.6292 26.8907 45.7062C24.693 39.7831 24.1935 33.3638 25.4488 27.1721C26.7041 20.9804 29.6641 15.2625 33.9952 10.663C38.3262 6.06356 43.8561 2.7655 49.9612 1.14067C56.0664 -0.484157 62.5041 -0.371134 68.5485 1.46701C74.5928 3.30515 80.0035 6.7953 84.1704 11.544C88.3374 16.2926 91.0949 22.1109 92.132 28.3429C92.1876 28.6769 92.2383 29.016 92.2837 29.3551Z" fill="#F2F2F2"/>
<path d="M405.371 28.3428H65.763C62.945 28.3459 60.2434 29.4666 58.2508 31.4592C56.2583 33.4518 55.1375 36.1534 55.1344 38.9714V218.139C55.1375 220.957 56.2583 223.658 58.2508 225.651C60.2434 227.644 62.945 228.764 65.763 228.767H405.371C408.189 228.764 410.891 227.644 412.884 225.651C414.876 223.658 415.997 220.957 416 218.139V38.9714C415.997 36.1534 414.876 33.4518 412.884 31.4592C410.891 29.4666 408.189 28.3459 405.371 28.3428ZM414.988 218.139C414.985 220.689 413.972 223.133 412.169 224.936C410.366 226.739 407.921 227.753 405.371 227.755H65.763C63.2133 227.753 60.7687 226.739 58.9657 224.936C57.1628 223.133 56.1489 220.689 56.1466 218.139V38.9714C56.1489 36.4217 57.1628 33.977 58.9657 32.1741C60.7687 30.3712 63.2133 29.3573 65.763 29.355H405.371C407.921 29.3573 410.366 30.3712 412.169 32.1741C413.972 33.977 414.985 36.4217 414.988 38.9714V218.139Z" fill="#3F3D56"/>
<path d="M388.669 57.3789H82.465C82.3308 57.3789 82.2021 57.3256 82.1071 57.2307C82.0122 57.1358 81.9589 57.0071 81.9589 56.8728C81.9589 56.7386 82.0122 56.6099 82.1071 56.5149C82.2021 56.42 82.3308 56.3667 82.465 56.3667H388.669C388.804 56.3667 388.932 56.42 389.027 56.5149C389.122 56.6099 389.175 56.7386 389.175 56.8728C389.175 57.0071 389.122 57.1358 389.027 57.2307C388.932 57.3256 388.804 57.3789 388.669 57.3789Z" fill="#3F3D56"/>
<path d="M169.012 207.004C168.878 207.004 168.749 206.951 168.654 206.856C168.559 206.761 168.506 206.632 168.506 206.498V39.9837C168.506 39.8494 168.559 39.7207 168.654 39.6258C168.749 39.5309 168.878 39.4775 169.012 39.4775C169.146 39.4775 169.275 39.5309 169.37 39.6258C169.465 39.7207 169.518 39.8494 169.518 39.9837V206.498C169.518 206.632 169.465 206.761 169.37 206.856C169.275 206.951 169.146 207.004 169.012 207.004Z" fill="#3F3D56"/>
<path d="M245.437 207.004C245.302 207.004 245.174 206.951 245.079 206.856C244.984 206.761 244.93 206.632 244.93 206.498V39.9837C244.93 39.8494 244.984 39.7207 245.079 39.6258C245.174 39.5309 245.302 39.4775 245.437 39.4775C245.571 39.4775 245.7 39.5309 245.794 39.6258C245.889 39.7207 245.943 39.8494 245.943 39.9837V206.498C245.943 206.632 245.889 206.761 245.794 206.856C245.7 206.951 245.571 207.004 245.437 207.004Z" fill="#3F3D56"/>
<path d="M321.861 207.004C321.727 207.004 321.598 206.951 321.503 206.856C321.408 206.761 321.355 206.632 321.355 206.498V39.9837C321.355 39.8494 321.408 39.7207 321.503 39.6258C321.598 39.5309 321.727 39.4775 321.861 39.4775C321.995 39.4775 322.124 39.5309 322.219 39.6258C322.314 39.7207 322.367 39.8494 322.367 39.9837V206.498C322.367 206.632 322.314 206.761 322.219 206.856C322.124 206.951 321.995 207.004 321.861 207.004Z" fill="#3F3D56"/>
<path d="M119.875 109.62H101.382C100.778 109.619 100.199 109.379 99.772 108.952C99.345 108.525 99.1048 107.946 99.1041 107.342V85.5183C99.1048 84.9144 99.345 84.3355 99.772 83.9085C100.199 83.4816 100.778 83.2414 101.382 83.2407H119.875C120.479 83.2414 121.058 83.4816 121.485 83.9085C121.912 84.3355 122.152 84.9144 122.153 85.5183V107.342C122.152 107.946 121.912 108.525 121.485 108.952C121.058 109.379 120.479 109.619 119.875 109.62Z" fill="#FFBC13"/>
<path d="M146.194 171.873H127.7C127.096 171.872 126.517 171.632 126.09 171.205C125.663 170.778 125.423 170.199 125.423 169.596V147.772C125.423 147.168 125.663 146.589 126.09 146.162C126.517 145.735 127.096 145.495 127.7 145.494H146.194C146.798 145.495 147.377 145.735 147.804 146.162C148.231 146.589 148.471 147.168 148.471 147.772V169.596C148.471 170.199 148.231 170.778 147.804 171.205C147.377 171.632 146.798 171.872 146.194 171.873Z" fill="#FFBC13"/>
<path d="M205.916 122.779H187.423C186.819 122.778 186.24 122.538 185.813 122.111C185.386 121.684 185.146 121.105 185.145 120.501V98.6775C185.146 98.0736 185.386 97.4947 185.813 97.0677C186.24 96.6407 186.819 96.4006 187.423 96.3999H205.916C206.52 96.4006 207.099 96.6407 207.526 97.0677C207.953 97.4947 208.193 98.0736 208.194 98.6775V120.501C208.193 121.105 207.953 121.684 207.526 122.111C207.099 122.538 206.52 122.778 205.916 122.779Z" fill="#FFBC13"/>
<path d="M283.353 98.9912H264.859C264.256 98.9905 263.677 98.7504 263.25 98.3234C262.823 97.8964 262.583 97.3175 262.582 96.7137V74.8899C262.583 74.286 262.823 73.7071 263.25 73.2801C263.677 72.8532 264.256 72.613 264.859 72.6123H283.353C283.957 72.613 284.536 72.8532 284.963 73.2801C285.39 73.7071 285.63 74.286 285.631 74.8899V96.7137C285.63 97.3175 285.39 97.8964 284.963 98.3234C284.536 98.7504 283.957 98.9905 283.353 98.9912Z" fill="#FFBC13"/>
<path d="M354.716 98.9912H336.223C335.619 98.9905 335.04 98.7504 334.613 98.3234C334.186 97.8964 333.946 97.3175 333.945 96.7137V74.8899C333.946 74.286 334.186 73.7071 334.613 73.2801C335.04 72.8532 335.619 72.613 336.223 72.6123H354.716C355.32 72.613 355.899 72.8532 356.326 73.2801C356.753 73.7071 356.993 74.286 356.994 74.8899V96.7137C356.993 97.3175 356.753 97.8964 356.326 98.3234C355.899 98.7504 355.32 98.9905 354.716 98.9912Z" fill="#FFBC13"/>
<path d="M387.614 105.064H369.121C368.517 105.064 367.938 104.824 367.511 104.397C367.084 103.97 366.844 103.391 366.843 102.787V80.9631C366.844 80.3593 367.084 79.7803 367.511 79.3534C367.938 78.9264 368.517 78.6862 369.121 78.6855H387.614C388.218 78.6862 388.797 78.9264 389.224 79.3534C389.651 79.7803 389.891 80.3593 389.892 80.9631V102.787C389.891 103.391 389.651 103.97 389.224 104.397C388.797 104.824 388.218 105.064 387.614 105.064Z" fill="#E6E6E6"/>
<path d="M372.937 144.036H354.443C353.839 144.035 353.26 143.795 352.833 143.368C352.406 142.941 352.166 142.362 352.166 141.759V119.935C352.166 119.331 352.406 118.752 352.833 118.325C353.26 117.898 353.839 117.658 354.443 117.657H372.937C373.541 117.658 374.12 117.898 374.547 118.325C374.974 118.752 375.214 119.331 375.214 119.935V141.759C375.214 142.362 374.974 142.941 374.547 143.368C374.12 143.795 373.541 144.035 372.937 144.036Z" fill="#E6E6E6"/>
<path d="M310.178 135.938H291.684C291.08 135.937 290.501 135.697 290.074 135.27C289.647 134.843 289.407 134.264 289.406 133.66V111.837C289.407 111.233 289.647 110.654 290.074 110.227C290.501 109.8 291.08 109.56 291.684 109.559H310.178C310.782 109.56 311.36 109.8 311.787 110.227C312.214 110.654 312.455 111.233 312.455 111.837V133.66C312.455 134.264 312.214 134.843 311.787 135.27C311.36 135.697 310.782 135.937 310.178 135.938Z" fill="black"/>
<path d="M274.243 144.036H255.749C255.145 144.035 254.566 143.795 254.139 143.368C253.713 142.941 253.472 142.362 253.472 141.759V119.935C253.472 119.331 253.713 118.752 254.139 118.325C254.566 117.898 255.145 117.658 255.749 117.657H274.243C274.847 117.658 275.426 117.898 275.853 118.325C276.28 118.752 276.52 119.331 276.521 119.935V141.759C276.52 142.362 276.28 142.941 275.853 143.368C275.426 143.795 274.847 144.035 274.243 144.036Z" fill="#E6E6E6"/>
<path d="M196.806 178.453H178.312C177.709 178.452 177.13 178.212 176.703 177.785C176.276 177.358 176.036 176.779 176.035 176.175V154.351C176.036 153.747 176.276 153.169 176.703 152.742C177.13 152.315 177.709 152.074 178.312 152.074H196.806C197.41 152.074 197.989 152.315 198.416 152.742C198.843 153.169 199.083 153.747 199.084 154.351V176.175C199.083 176.779 198.843 177.358 198.416 177.785C197.989 178.212 197.41 178.452 196.806 178.453Z" fill="#E6E6E6"/>
<path d="M103.173 149.604H84.6796C84.0758 149.603 83.4969 149.363 83.0699 148.936C82.6429 148.509 82.4027 147.93 82.4021 147.326V125.502C82.4027 124.898 82.6429 124.319 83.0699 123.892C83.4969 123.465 84.0758 123.225 84.6796 123.225H103.173C103.777 123.225 104.356 123.465 104.783 123.892C105.21 124.319 105.45 124.898 105.451 125.502V147.326C105.45 147.93 105.21 148.509 104.783 148.936C104.356 149.363 103.777 149.603 103.173 149.604Z" fill="black"/>
<path d="M155.304 109.62H136.81C136.206 109.619 135.628 109.379 135.201 108.952C134.774 108.525 134.533 107.946 134.533 107.342V85.5183C134.533 84.9144 134.774 84.3355 135.201 83.9085C135.628 83.4816 136.206 83.2414 136.81 83.2407H155.304C155.908 83.2414 156.487 83.4816 156.914 83.9085C157.341 84.3355 157.581 84.9144 157.582 85.5183V107.342C157.581 107.946 157.341 108.525 156.914 108.952C156.487 109.379 155.908 109.619 155.304 109.62Z" fill="#E6E6E6"/>
<path d="M140.163 49.0939H111.314C110.777 49.0939 110.262 48.8806 109.882 48.5009C109.503 48.1213 109.29 47.6063 109.29 47.0694C109.29 46.5325 109.503 46.0175 109.882 45.6379C110.262 45.2582 110.777 45.0449 111.314 45.0449H140.163C140.7 45.0449 141.215 45.2582 141.595 45.6379C141.974 46.0175 142.188 46.5325 142.188 47.0694C142.188 47.6063 141.974 48.1213 141.595 48.5009C141.215 48.8806 140.7 49.0939 140.163 49.0939Z" fill="#CCCCCC"/>
<path d="M221.649 49.0939H192.8C192.263 49.0939 191.748 48.8806 191.368 48.5009C190.989 48.1213 190.775 47.6063 190.775 47.0694C190.775 46.5325 190.989 46.0175 191.368 45.6379C191.748 45.2582 192.263 45.0449 192.8 45.0449H221.649C222.186 45.0449 222.701 45.2582 223.08 45.6379C223.46 46.0175 223.673 46.5325 223.673 47.0694C223.673 47.6063 223.46 48.1213 223.08 48.5009C222.701 48.8806 222.186 49.0939 221.649 49.0939Z" fill="#CCCCCC"/>
<path d="M298.073 49.0939H269.224C268.687 49.0939 268.172 48.8806 267.793 48.5009C267.413 48.1213 267.2 47.6063 267.2 47.0694C267.2 46.5325 267.413 46.0175 267.793 45.6379C268.172 45.2582 268.687 45.0449 269.224 45.0449H298.073C298.61 45.0449 299.125 45.2582 299.505 45.6379C299.885 46.0175 300.098 46.5325 300.098 47.0694C300.098 47.6063 299.885 48.1213 299.505 48.5009C299.125 48.8806 298.61 49.0939 298.073 49.0939Z" fill="#CCCCCC"/>
<path d="M369.437 49.0939H340.588C340.051 49.0939 339.536 48.8806 339.156 48.5009C338.776 48.1213 338.563 47.6063 338.563 47.0694C338.563 46.5325 338.776 46.0175 339.156 45.6379C339.536 45.2582 340.051 45.0449 340.588 45.0449H369.437C369.974 45.0449 370.489 45.2582 370.868 45.6379C371.248 46.0175 371.461 46.5325 371.461 47.0694C371.461 47.6063 371.248 48.1213 370.868 48.5009C370.489 48.8806 369.974 49.0939 369.437 49.0939Z" fill="#CCCCCC"/>
<path d="M75.5478 197.333C74.8073 197.261 74.0917 197.027 73.4514 196.648C72.8111 196.269 72.2617 195.754 71.8419 195.14C71.4221 194.525 71.1421 193.826 71.0216 193.092C70.9011 192.358 70.9431 191.606 71.1445 190.89L58.1711 178.813L65.0305 177.073L77.7877 187.42C78.9685 187.838 79.9549 188.675 80.56 189.772C81.1651 190.869 81.3468 192.15 81.0707 193.372C80.7946 194.594 80.0799 195.672 79.062 196.402C78.0441 197.132 76.7937 197.463 75.5478 197.333Z" fill="#595448"/>
<path d="M93.4619 286.594H99.667L102.619 262.66H93.4609L93.4619 286.594Z" fill="#595448"/>
<path d="M111.634 292.354L92.1325 292.355L92.1322 284.821L104.099 284.82C106.097 284.82 108.014 285.614 109.427 287.027C110.84 288.44 111.634 290.356 111.634 292.354Z" fill="#2F2E41"/>
<path d="M50.9177 282.113L56.9143 283.709L65.9238 261.341L57.0742 258.985L50.9177 282.113Z" fill="#595448"/>
<path d="M66.9962 292.356L48.1512 287.34L50.0892 280.059L61.6532 283.137C63.5843 283.651 65.2321 284.911 66.2341 286.64C67.2361 288.369 67.5102 290.425 66.9962 292.356Z" fill="#2F2E41"/>
<path d="M101.336 282.062H91.8675C91.2694 282.064 90.6922 281.842 90.2496 281.44C89.8069 281.038 89.5307 280.485 89.4755 279.889L83.7277 220.201C83.6856 219.764 83.4926 219.354 83.1818 219.043C82.8711 218.732 82.4618 218.538 82.024 218.495C81.5862 218.453 81.1472 218.563 80.7821 218.809C80.417 219.054 80.1484 219.418 80.0224 219.84L63.3338 275.614C63.1573 276.207 62.7587 276.709 62.2212 277.015C61.6837 277.321 61.0488 277.408 60.4489 277.257L51.6408 275.055C51.3334 274.978 51.0442 274.841 50.7899 274.652C50.5356 274.463 50.3212 274.225 50.159 273.953C49.9968 273.681 49.8901 273.379 49.845 273.066C49.7999 272.752 49.8172 272.432 49.8961 272.126C50.0399 271.564 64.2753 215.932 64.3996 215.36C67.6251 191.588 71.4839 185.218 73.5569 181.796C73.7286 181.513 73.8862 181.253 74.0282 181.007C74.2059 180.699 75.2998 177.644 75.9938 175.66C76.0839 175.337 76.2399 175.036 76.4521 174.777C76.6642 174.518 76.9278 174.305 77.2262 174.153C85.9369 169.698 96.1286 172.782 99.0447 173.833C99.5282 174.003 99.9434 174.326 100.228 174.752C108.976 187.947 104.683 264.584 103.734 279.813C103.694 280.422 103.424 280.994 102.979 281.411C102.534 281.829 101.946 282.062 101.336 282.062Z" fill="#2F2E41"/>
<path d="M76.9017 130.876C83.767 130.876 89.3326 125.31 89.3326 118.445C89.3326 111.58 83.767 106.014 76.9017 106.014C70.0363 106.014 64.4708 111.58 64.4708 118.445C64.4708 125.31 70.0363 130.876 76.9017 130.876Z" fill="#595448"/>
<path d="M75.5845 178.073L75.4952 177.987C75.3276 177.825 58.765 161.599 60.9085 146.595C61.8252 140.177 67.0175 136.077 75.924 134.736C79.196 134.25 82.5335 134.961 85.323 136.739C88.1125 138.517 90.1665 141.242 91.1075 144.414L99.914 174.52L75.5845 178.073Z" fill="#CCCCCC"/>
<path d="M67.1075 189.614L55.3055 177.887C54.4985 177.08 53.9127 176.08 53.6042 174.982C53.2958 173.883 53.2752 172.724 53.5443 171.615L59.2577 148.375C59.4289 147.678 59.7411 147.024 60.1752 146.453C60.6092 145.883 61.1558 145.407 61.7811 145.056C62.4064 144.705 63.0971 144.486 63.8105 144.412C64.5239 144.339 65.2447 144.413 65.9284 144.629C67.2316 145.049 68.32 145.96 68.9633 147.169C69.6066 148.377 69.7541 149.789 69.3746 151.104L63.3596 171.55L73.0864 181.995L67.1075 189.614Z" fill="#CCCCCC"/>
<path d="M130.409 149.591C130.097 150.266 129.641 150.865 129.072 151.345C128.504 151.825 127.837 152.175 127.119 152.369C126.4 152.564 125.648 152.598 124.915 152.47C124.182 152.343 123.486 152.056 122.876 151.63L107.121 159.796L107.817 152.859L121.785 144.215C122.568 143.238 123.683 142.581 124.917 142.371C126.152 142.16 127.421 142.41 128.485 143.072C129.548 143.735 130.331 144.765 130.685 145.966C131.04 147.167 130.942 148.457 130.409 149.591Z" fill="#595448"/>
<path d="M121.156 154.755L105.797 161.392C104.774 161.83 103.656 161.998 102.55 161.879C101.445 161.761 100.388 161.359 99.4817 160.714L79.9509 146.72C79.368 146.303 78.877 145.77 78.5084 145.155C78.1397 144.54 77.9011 143.856 77.8075 143.145C77.7139 142.434 77.7672 141.711 77.964 141.021C78.1609 140.332 78.4972 139.69 78.9521 139.136C79.8262 138.082 81.0763 137.41 82.4376 137.261C83.7988 137.113 85.1642 137.501 86.2446 138.342L102.991 151.523L116.303 146.373L121.156 154.755Z" fill="#CCCCCC"/>
<path d="M78.9625 122.429C80.496 120.507 83.3611 120.404 85.4676 119.136C88.2269 117.476 89.3676 113.766 88.4785 110.671C87.5893 107.576 84.9669 105.164 81.9604 104.01C78.9539 102.857 75.6089 102.842 72.4372 103.4C67.715 104.23 63.0658 106.434 60.1858 110.267C57.3057 114.101 56.5728 119.715 59.1829 123.737C60.3825 125.585 62.2344 127.111 62.7134 129.262C63.3421 132.086 61.3613 134.81 59.2392 136.776C56.8216 139.016 54.0479 140.892 51.9298 143.418C49.8117 145.943 48.3993 149.393 49.3658 152.544C50.1756 155.184 52.5321 157.129 55.1161 158.104C57.7001 159.078 60.5144 159.218 63.2754 159.272C65.9564 159.325 68.8041 159.26 71.0626 157.814C73.4804 156.266 74.7714 153.331 74.8668 150.462C74.9622 147.592 74.0034 144.782 72.7185 142.215C71.9526 140.684 71.0621 139.202 70.5532 137.568C70.0443 135.935 69.9561 134.081 70.7711 132.576C71.6278 130.995 73.361 130.041 75.1258 129.694C75.2175 129.676 75.3145 129.66 75.416 129.646C75.9182 129.581 76.4019 129.415 76.8379 129.157C77.274 128.9 77.6532 128.557 77.9529 128.148C78.2525 127.74 78.4662 127.276 78.5812 126.782C78.6961 126.289 78.7098 125.778 78.6214 125.279C78.4204 124.159 78.4377 123.086 78.9625 122.429Z" fill="#2F2E41"/>
<path d="M244.704 287.123H238.499L235.547 263.19L244.705 263.19L244.704 287.123Z" fill="#A0616A"/>
<path d="M234.067 285.351H246.034V292.885H226.532C226.532 291.896 226.727 290.916 227.106 290.002C227.484 289.088 228.039 288.257 228.739 287.557C229.439 286.858 230.269 286.303 231.184 285.924C232.098 285.545 233.077 285.351 234.067 285.351Z" fill="#2F2E41"/>
<path d="M289.726 280.095L284.082 282.673L271.453 262.13L279.783 258.325L289.726 280.095Z" fill="#A0616A"/>
<path d="M279.314 282.901L290.199 277.93L293.33 284.783L275.591 292.885C275.18 291.985 274.95 291.013 274.915 290.024C274.879 289.035 275.039 288.049 275.385 287.122C275.731 286.195 276.256 285.345 276.93 284.621C277.604 283.897 278.414 283.312 279.314 282.901Z" fill="#2F2E41"/>
<path d="M271.656 206.426C272.251 205.978 272.74 205.406 273.089 204.749C273.439 204.092 273.64 203.367 273.679 202.624C273.717 201.881 273.593 201.138 273.313 200.448C273.034 199.759 272.607 199.139 272.062 198.632L279.356 182.082L270.09 183.652L264.584 199.128C263.793 200.1 263.386 201.328 263.441 202.579C263.495 203.831 264.007 205.019 264.879 205.918C265.75 206.818 266.922 207.366 268.171 207.46C269.42 207.553 270.66 207.185 271.656 206.426Z" fill="#A0616A"/>
<path d="M244.309 280.813H238.381C237.806 280.811 237.253 280.592 236.832 280.201C236.411 279.809 236.153 279.273 236.109 278.7L232.877 192.377C232.853 192.046 232.901 191.714 233.019 191.404C233.136 191.094 233.32 190.813 233.558 190.581C233.795 190.35 234.08 190.173 234.393 190.063C234.706 189.953 235.039 189.913 235.369 189.945L269.652 193.586C270.207 193.64 270.724 193.896 271.103 194.306C271.482 194.716 271.697 195.251 271.708 195.809L272.426 233.888C272.43 234.094 272.47 234.299 272.544 234.492L286.607 270.959C286.716 271.241 286.767 271.541 286.759 271.843C286.75 272.145 286.682 272.442 286.557 272.717C286.433 272.992 286.255 273.24 286.034 273.446C285.813 273.651 285.553 273.811 285.269 273.915L279.263 276.129C278.741 276.321 278.167 276.315 277.649 276.114C277.131 275.912 276.704 275.528 276.45 275.033L259.175 241.442C259.08 241.26 259.012 241.065 258.97 240.864L256.019 226.645C255.933 226.233 255.704 225.865 255.371 225.606C255.039 225.348 254.625 225.217 254.204 225.236C253.784 225.255 253.384 225.423 253.076 225.71C252.768 225.997 252.573 226.385 252.525 226.803L246.571 278.794C246.508 279.35 246.242 279.863 245.825 280.235C245.408 280.607 244.868 280.813 244.309 280.813Z" fill="#2F2E41"/>
<path d="M247.26 124.88C254.126 124.88 259.691 119.315 259.691 112.449C259.691 105.584 254.126 100.019 247.26 100.019C240.395 100.019 234.829 105.584 234.829 112.449C234.829 119.315 240.395 124.88 247.26 124.88Z" fill="#A0616A"/>
<path d="M255.785 200.27C247.355 200.177 239.126 197.684 232.062 193.084L231.941 193L231.953 192.854L236.708 137.476C236.872 135.597 237.711 133.841 239.069 132.533C240.427 131.224 242.214 130.452 244.097 130.359C250.26 130.076 258.537 130.433 262.968 133.733C269.665 138.721 272.892 146.231 271.823 154.338C269.606 171.151 272.118 193.831 272.411 196.361L272.433 196.544L272.266 196.62C267.103 199.022 261.479 200.268 255.785 200.27Z" fill="#FFBC13"/>
<path d="M272.354 196.455C272.004 196.455 271.657 196.381 271.337 196.24C271.016 196.099 270.728 195.892 270.491 195.634L267.772 192.668C267.478 192.345 267.272 191.953 267.174 191.528C267.076 191.103 267.088 190.66 267.211 190.241L273.411 169.255L263.977 149.444C263.536 148.516 263.428 147.466 263.671 146.468C263.885 145.592 264.36 144.802 265.032 144.202C265.705 143.601 266.543 143.219 267.437 143.104C268.331 142.99 269.239 143.15 270.041 143.562C270.843 143.974 271.5 144.62 271.928 145.413L284.73 166.186C285.25 167.028 285.555 167.986 285.619 168.974C285.682 169.962 285.502 170.951 285.094 171.853L274.663 194.965C274.491 195.347 274.227 195.681 273.894 195.935C273.562 196.19 273.171 196.357 272.757 196.423C272.624 196.444 272.489 196.455 272.354 196.455Z" fill="#FFBC13"/>
<path d="M184.733 156.368C185.33 156.812 186.017 157.12 186.746 157.27C187.475 157.419 188.228 157.408 188.951 157.235C189.675 157.062 190.352 156.733 190.935 156.27C191.518 155.808 191.992 155.223 192.324 154.557L210.26 156.883L206.138 148.437L189.738 147.523C188.582 147.039 187.29 146.995 186.104 147.401C184.919 147.806 183.924 148.632 183.307 149.723C182.69 150.813 182.494 152.092 182.757 153.316C183.02 154.541 183.723 155.627 184.733 156.368Z" fill="#A0616A"/>
<path d="M224.267 160.981C223.955 160.981 223.643 160.959 223.333 160.916L195.117 157.003C194.655 156.94 194.217 156.762 193.842 156.488C193.466 156.213 193.165 155.849 192.965 155.428C192.901 155.293 192.847 155.152 192.804 155.009C192.695 154.635 192.664 154.243 192.715 153.857C192.765 153.47 192.894 153.099 193.095 152.766L195.43 148.894C195.681 148.481 196.035 148.138 196.456 147.9C196.878 147.662 197.353 147.536 197.837 147.535H197.841L222.437 147.563L240.806 131.105C241.66 130.341 242.752 129.895 243.897 129.84C244.902 129.794 245.898 130.053 246.753 130.584C247.608 131.115 248.282 131.892 248.686 132.814C249.09 133.736 249.205 134.758 249.016 135.747C248.828 136.735 248.344 137.643 247.628 138.351L229.299 158.737C228.665 159.443 227.889 160.008 227.022 160.394C226.155 160.781 225.216 160.981 224.267 160.981Z" fill="#FFBC13"/>
<path d="M248.673 123.508C249.809 120.879 250.771 117.378 248.592 115.519C247.328 114.441 245.508 114.439 243.852 114.305C239.187 113.927 234.384 111.78 232.104 107.693C229.824 103.605 231.097 97.5276 235.399 95.6835C238.299 94.4404 241.623 95.2872 244.658 96.1479L253.772 98.7322C256.479 99.5 259.322 100.347 261.272 102.377C264.381 105.615 264.148 111.088 261.679 114.837C259.21 118.585 255.491 122.495 251.234 123.918L248.673 123.508Z" fill="#2F2E41"/>
<path d="M374.401 293.05H0.733468C0.654182 293.05 0.575633 293.035 0.502316 293.005C0.428999 292.974 0.362363 292.93 0.306218 292.874C0.250073 292.818 0.205525 292.752 0.175131 292.678C0.144736 292.605 0.129087 292.527 0.129087 292.447C0.129087 292.368 0.144736 292.29 0.175131 292.216C0.205525 292.143 0.250073 292.077 0.306218 292.021C0.362363 291.965 0.428999 291.92 0.502316 291.89C0.575633 291.86 0.654182 291.844 0.733468 291.845H374.401C374.48 291.844 374.559 291.86 374.632 291.89C374.705 291.92 374.772 291.965 374.828 292.021C374.884 292.077 374.929 292.143 374.959 292.216C374.99 292.29 375.005 292.368 375.005 292.447C375.005 292.527 374.99 292.605 374.959 292.678C374.929 292.752 374.884 292.818 374.828 292.874C374.772 292.93 374.705 292.974 374.632 293.005C374.559 293.035 374.48 293.05 374.401 293.05Z" fill="#3F3D56"/>
</g>
<defs>
<clipPath id="clip0_1_412">
<rect width="415.869" height="293.05" fill="white" transform="translate(0.130859)"/>
</clipPath>
</defs>
</svg>
