<svg width="448" height="295" viewBox="0 0 448 295" fill="none" xmlns="http://www.w3.org/2000/svg">
<g clip-path="url(#clip0_1_756)">
<path d="M221.495 50.7901C228.994 50.7901 235.073 44.7109 235.073 37.2118C235.073 29.7127 228.994 23.6335 221.495 23.6335C213.996 23.6335 207.917 29.7127 207.917 37.2118C207.917 44.7109 213.996 50.7901 221.495 50.7901Z" fill="#FD6584"/>
<path d="M251.884 30.7823C251.501 29.5267 250.76 28.4105 249.75 27.5711C248.741 26.7317 247.508 26.2057 246.204 26.058C246.174 26.0555 246.143 26.0555 246.112 26.058C246.076 26.0466 246.038 26.0381 246.001 26.0326C241.454 25.4427 236.399 26.8768 232.997 29.9992C231.734 31.14 230.724 32.5328 230.033 34.0878C229.402 33.2264 228.571 32.5316 227.611 32.0638C226.651 31.5959 225.592 31.369 224.525 31.4027C223.149 31.4937 221.834 32.0069 220.76 32.8724C219.687 33.7378 218.906 34.9134 218.524 36.2389C218.482 36.4008 218.494 36.572 218.557 36.7268C218.62 36.8817 218.732 37.012 218.875 37.0983C219.284 37.4481 219.771 37.6957 220.294 37.8204C221.418 38.0595 222.552 38.2781 223.686 38.4765C225.903 38.8629 228.132 39.1765 230.373 39.4172C231.853 39.5749 233.336 39.7003 234.823 39.7936C237.895 39.9868 240.981 40.0326 244.058 39.936C245.584 39.8851 247.048 39.8342 248.442 39.163C249.457 38.6636 250.325 37.9082 250.959 36.9712C251.556 36.0699 251.948 35.0487 252.108 33.9794C252.268 32.9102 252.192 31.8189 251.884 30.7823Z" fill="#E6E6E6"/>
<path d="M223.95 50.5644C223.925 49.9954 223.829 49.4318 223.666 48.8862C223.281 47.6307 222.538 46.5148 221.528 45.6756C220.518 44.8364 219.285 44.3103 217.98 44.1619C217.951 44.1593 217.923 44.1593 217.894 44.1619C217.855 44.151 217.816 44.1425 217.777 44.1365C215.261 43.8282 212.707 44.0907 210.306 44.9044C206.614 46.1401 203.375 48.6319 201.814 52.1917C201.183 51.3297 200.351 50.6347 199.39 50.1668C198.429 49.6989 197.369 49.4723 196.301 49.5066C194.925 49.5976 193.611 50.1108 192.537 50.9762C191.463 51.8417 190.682 53.0173 190.301 54.3428C190.261 54.5047 190.274 54.675 190.337 54.8294C190.4 54.9837 190.51 55.1142 190.652 55.2022C191.061 55.551 191.547 55.7984 192.07 55.9243C193.199 56.1633 194.328 56.382 195.467 56.5803C197.685 56.9668 199.912 57.2804 202.15 57.5211C206.695 58.0091 211.27 58.1824 215.839 58.0398C217.36 57.9889 218.829 57.9381 220.223 57.2669C221.237 56.7673 222.103 56.0118 222.735 55.0751C223.626 53.7466 224.054 52.1608 223.95 50.5644Z" fill="#E6E6E6"/>
<path d="M400.793 215.324C400.989 224.582 399.711 233.812 397.009 242.669C396.914 242.991 396.8 243.313 396.687 243.635H340.974C341.771 239.713 343.035 235.901 344.74 232.28C349.377 222.439 356.946 214.018 364.421 205.654C374.716 194.129 384.765 182.699 386.354 167.711C390.435 173.932 393.692 180.655 396.043 187.714C393.164 188.78 390.522 190.4 388.266 192.483C387.641 193.069 386.979 193.921 387.301 194.735C387.603 195.416 388.436 195.643 389.174 195.794C390.953 196.135 392.732 196.476 394.511 196.797C395.911 197.081 397.33 197.346 398.75 197.611C399.997 203.436 400.682 209.368 400.793 215.324Z" fill="#F2F2F2"/>
<path d="M447.593 209.193C438.661 214.624 432.983 223.026 428.347 232.432C424.312 233.351 420.588 235.308 417.541 238.109C416.898 238.696 416.235 239.547 416.576 240.361C416.86 241.042 417.712 241.269 418.45 241.421C420.209 241.761 422.007 242.102 423.767 242.424C423.597 242.821 423.427 243.237 423.256 243.635H364.213C366.893 240.02 369.861 236.628 373.088 233.491C373.789 232.791 374.508 232.129 375.246 231.448C382.772 224.646 391.415 219.191 400.793 215.324C415.568 209.148 431.725 207.031 447.593 209.193Z" fill="#F2F2F2"/>
<path d="M374.054 243.635H321.482C321.195 239.425 321.221 235.199 321.558 230.993C323.659 205.01 337.795 180.258 359.122 165.27C356.397 174.978 357.798 184.629 360.636 194.318C360.239 194.451 359.842 194.564 359.482 194.716C356.603 195.782 353.961 197.402 351.704 199.485C351.08 200.071 350.417 200.923 350.739 201.737C351.023 202.418 351.875 202.645 352.613 202.796C354.391 203.137 356.17 203.478 357.93 203.799C359.35 204.083 360.769 204.348 362.188 204.632C362.85 204.746 363.513 204.878 364.175 205.01C364.27 205.238 364.327 205.446 364.421 205.654C367.752 214.832 371.385 224.086 373.088 233.491C373.51 235.852 373.801 238.233 373.959 240.626C374.016 241.629 374.054 242.632 374.054 243.635Z" fill="#F2F2F2"/>
<path d="M87.5355 215.324C87.7306 224.582 86.4531 233.812 83.7507 242.669C83.656 242.991 83.5424 243.313 83.4289 243.635H27.7162C28.5127 239.713 29.777 235.901 31.4822 232.28C36.1186 222.439 43.6882 214.018 51.1633 205.654C61.458 194.129 71.5067 182.699 73.0964 167.711C77.177 173.932 80.4339 180.655 82.7855 187.714C79.9064 188.78 77.2641 190.4 75.0077 192.483C74.3832 193.069 73.7208 193.921 74.0426 194.735C74.3453 195.416 75.178 195.643 75.9161 195.794C77.6949 196.135 79.4738 196.476 81.2527 196.797C82.653 197.081 84.0723 197.346 85.4917 197.611C86.7391 203.436 87.4236 209.368 87.5355 215.324Z" fill="#F2F2F2"/>
<path d="M134.335 209.193C125.403 214.624 119.725 223.026 115.089 232.432C111.054 233.351 107.33 235.308 104.283 238.109C103.64 238.696 102.978 239.547 103.318 240.361C103.602 241.042 104.454 241.269 105.192 241.421C106.952 241.761 108.749 242.102 110.509 242.424C110.339 242.821 110.169 243.237 109.998 243.635H50.9551C53.6354 240.02 56.6036 236.628 59.8306 233.491C60.5307 232.791 61.2499 232.129 61.9879 231.448C69.5145 224.646 78.1568 219.191 87.5355 215.324C102.31 209.148 118.467 207.031 134.335 209.193Z" fill="#F2F2F2"/>
<path d="M60.7957 243.635H8.22443C7.93734 239.425 7.96267 235.199 8.3002 230.993C10.4008 205.01 24.537 180.258 45.8645 165.27C43.1395 174.978 44.5398 184.629 47.3785 194.318C46.9811 194.451 46.5837 194.564 46.2241 194.716C43.345 195.782 40.7027 197.402 38.4463 199.485C37.8218 200.071 37.1595 200.923 37.4812 201.737C37.765 202.418 38.6166 202.645 39.3546 202.796C41.1335 203.137 42.9124 203.478 44.6723 203.799C46.0916 204.083 47.5109 204.348 48.9302 204.632C49.5925 204.746 50.255 204.878 50.9172 205.01C51.0118 205.238 51.0687 205.446 51.1633 205.654C54.4939 214.832 58.1273 224.086 59.8305 233.491C60.2521 235.852 60.5428 238.233 60.7011 240.626C60.7578 241.629 60.7957 242.632 60.7957 243.635Z" fill="#F2F2F2"/>
<path d="M256.51 221.563L303.484 225.733L303.987 225.779V25.3445C303.82 25.2275 303.652 25.1106 303.484 24.9936C293.694 18.146 283.104 12.5206 271.95 8.24243L269.549 41.3481L269.331 44.379L266.956 77.21L266.223 87.3096L256.597 220.393L256.51 221.563Z" fill="#E6E6E6"/>
<path d="M140.346 21.6121C140.01 21.8257 139.674 22.0392 139.339 22.263V225.779L140.346 225.687L186.811 221.563L186.724 220.394L177.098 87.3098L176.365 77.2103L173.99 44.3792L173.772 41.3483L171.254 6.63062C160.399 10.3935 150.025 15.4219 140.346 21.6121Z" fill="#E6E6E6"/>
<path d="M139.339 22.263C138.662 22.7003 137.986 23.1478 137.32 23.6004V228.556C137.32 233.676 140.356 237.969 144.414 239.062C145.077 239.241 145.761 239.332 146.448 239.331H297.381C298.067 239.332 298.749 239.242 299.411 239.062C300.919 238.643 302.286 237.824 303.367 236.692C305.428 234.489 306.555 231.572 306.51 228.556V27.1653C305.676 26.5499 304.837 25.9397 303.987 25.3447C303.82 25.2277 303.652 25.1108 303.484 24.9938V228.556C303.485 229.215 303.406 229.873 303.25 230.513C302.533 233.539 300.168 235.756 297.381 235.756H146.448C143.082 235.756 140.346 232.527 140.346 228.556V21.6121C140.01 21.8257 139.674 22.0392 139.339 22.263Z" fill="#E6E6E6"/>
<path d="M304.997 41.3503H138.832V44.3807H304.997V41.3503Z" fill="#E6E6E6"/>
<path d="M254.105 2.69446C253.098 2.44527 252.091 2.21135 251.074 1.99268V84.2788H254.105V2.69446Z" fill="#E6E6E6"/>
<path d="M192.755 0.970459C191.743 1.15862 190.731 1.35186 189.724 1.56036V84.2788H192.755V0.970459Z" fill="#E6E6E6"/>
<path d="M106.253 234.027C106.253 235.766 106.586 237.489 107.235 239.102C107.484 239.728 107.782 240.333 108.125 240.913C108.568 241.668 109.082 242.38 109.661 243.038C110.938 244.494 112.512 245.661 114.276 246.46C116.041 247.259 117.955 247.672 119.892 247.671H318.887C322.505 247.671 325.974 246.234 328.532 243.676C331.089 241.119 332.526 237.65 332.526 234.032C332.526 230.415 331.089 226.946 328.532 224.388C325.974 221.83 322.505 220.393 318.887 220.393H119.892C116.277 220.397 112.811 221.834 110.254 224.39C107.697 226.946 106.258 230.412 106.253 234.027Z" fill="#E6E6E6"/>
<path d="M138.832 87.3108L303.987 87.3108V77.2096L138.832 77.2096V87.3108Z" fill="#E6E6E6"/>
<path d="M228.48 79.7349H214.338C214.338 78.2614 214.924 76.8483 215.965 75.8064C217.007 74.7645 218.42 74.1792 219.894 74.1792H222.924C223.654 74.1792 224.376 74.3229 225.05 74.6021C225.724 74.8813 226.337 75.2905 226.853 75.8064C227.369 76.3223 227.778 76.9348 228.057 77.6088C228.336 78.2828 228.48 79.0053 228.48 79.7349Z" fill="#E6E6E6"/>
<path d="M0 241.818C4.41778 247.053 9.1961 251.972 14.3 256.54H424.475C429.579 251.972 434.357 247.053 438.775 241.818H0Z" fill="#3F3D56"/>
<path d="M201.731 192.587V244.742H238.269V192.587C238.27 192.212 238.15 191.846 237.928 191.544C237.705 191.242 237.392 191.019 237.033 190.909C236.865 190.853 236.688 190.825 236.51 190.827H203.496C203.264 190.827 203.035 190.872 202.821 190.96C202.607 191.048 202.412 191.178 202.249 191.341C202.085 191.505 201.955 191.699 201.866 191.913C201.777 192.126 201.731 192.355 201.731 192.587ZM215.99 210.508C216 209.479 216.415 208.497 217.146 207.773C217.876 207.05 218.863 206.644 219.891 206.644C220.919 206.644 221.905 207.05 222.636 207.773C223.366 208.497 223.782 209.479 223.791 210.508V216.559C223.786 217.59 223.373 218.577 222.642 219.304C221.911 220.032 220.922 220.44 219.891 220.44C218.86 220.44 217.871 220.032 217.14 219.304C216.409 218.577 215.996 217.59 215.99 216.559V210.508Z" fill="#2F2E41"/>
<path d="M201.619 243.074V248.104C201.62 248.364 201.723 248.614 201.907 248.799C202.091 248.983 202.34 249.088 202.601 249.09H237.4C237.66 249.089 237.91 248.984 238.094 248.799C238.278 248.615 238.381 248.364 238.381 248.104V243.074H201.619Z" fill="#3F3D56"/>
<path d="M144.251 114.008V209.236C144.252 210.45 144.735 211.613 145.593 212.471C146.451 213.329 147.614 213.812 148.828 213.813H289.947C291.16 213.812 292.324 213.329 293.182 212.471C294.04 211.613 294.523 210.45 294.523 209.236V114.008C294.521 112.795 294.037 111.633 293.179 110.776C292.322 109.92 291.159 109.438 289.947 109.436H148.828C147.616 109.438 146.453 109.92 145.595 110.776C144.737 111.633 144.254 112.795 144.251 114.008Z" fill="#3F3D56"/>
<path d="M147.562 115.193V208.061C147.563 208.71 147.821 209.331 148.279 209.79C148.738 210.248 149.359 210.506 150.008 210.507H288.772C289.42 210.506 290.042 210.248 290.5 209.79C290.959 209.331 291.217 208.71 291.218 208.061V115.193C291.218 114.543 290.96 113.921 290.502 113.461C290.043 113.002 289.421 112.743 288.772 112.741H150.008C149.359 112.743 148.737 113.002 148.278 113.461C147.819 113.921 147.562 114.543 147.562 115.193Z" fill="#FFBC13"/>
<path d="M175.857 250.275C175.998 250.452 176.177 250.595 176.382 250.693C176.586 250.79 176.81 250.841 177.036 250.839H259.592C259.818 250.839 260.041 250.789 260.245 250.691C260.448 250.594 260.628 250.453 260.77 250.277C260.912 250.102 261.014 249.897 261.067 249.678C261.12 249.458 261.123 249.23 261.077 249.009L259.796 242.922C259.742 242.673 259.628 242.442 259.463 242.25C259.298 242.057 259.087 241.908 258.85 241.818C258.678 241.751 258.495 241.716 258.311 241.716H178.313C178.128 241.716 177.946 241.751 177.774 241.818C177.537 241.908 177.326 242.057 177.161 242.25C176.995 242.442 176.881 242.673 176.828 242.922L175.546 249.009C175.501 249.23 175.505 249.458 175.559 249.677C175.612 249.896 175.714 250.1 175.857 250.275Z" fill="#2F2E41"/>
<path d="M255.43 244.338H257.476C257.613 244.338 257.724 244.227 257.724 244.09V243.061C257.724 242.924 257.613 242.813 257.476 242.813H255.43C255.293 242.813 255.182 242.924 255.182 243.061V244.09C255.182 244.227 255.293 244.338 255.43 244.338Z" fill="#3F3D56"/>
<path d="M250.345 244.338H252.391C252.528 244.338 252.639 244.227 252.639 244.09V243.061C252.639 242.924 252.528 242.813 252.391 242.813H250.345C250.207 242.813 250.096 242.924 250.096 243.061V244.09C250.096 244.227 250.207 244.338 250.345 244.338Z" fill="#3F3D56"/>
<path d="M245.259 244.338H247.305C247.442 244.338 247.554 244.227 247.554 244.09V243.061C247.554 242.924 247.442 242.813 247.305 242.813H245.259C245.122 242.813 245.011 242.924 245.011 243.061V244.09C245.011 244.227 245.122 244.338 245.259 244.338Z" fill="#3F3D56"/>
<path d="M240.174 244.338H242.22C242.357 244.338 242.468 244.227 242.468 244.09V243.061C242.468 242.924 242.357 242.813 242.22 242.813H240.174C240.037 242.813 239.926 242.924 239.926 243.061V244.09C239.926 244.227 240.037 244.338 240.174 244.338Z" fill="#3F3D56"/>
<path d="M235.088 244.338H237.135C237.272 244.338 237.383 244.227 237.383 244.09V243.061C237.383 242.924 237.272 242.813 237.135 242.813H235.088C234.951 242.813 234.84 242.924 234.84 243.061V244.09C234.84 244.227 234.951 244.338 235.088 244.338Z" fill="#3F3D56"/>
<path d="M230.003 244.338H232.049C232.186 244.338 232.298 244.227 232.298 244.09V243.061C232.298 242.924 232.186 242.813 232.049 242.813H230.003C229.866 242.813 229.755 242.924 229.755 243.061V244.09C229.755 244.227 229.866 244.338 230.003 244.338Z" fill="#3F3D56"/>
<path d="M224.918 244.338H226.964C227.101 244.338 227.212 244.227 227.212 244.09V243.061C227.212 242.924 227.101 242.813 226.964 242.813H224.918C224.781 242.813 224.669 242.924 224.669 243.061V244.09C224.669 244.227 224.781 244.338 224.918 244.338Z" fill="#3F3D56"/>
<path d="M219.832 244.338H221.879C222.016 244.338 222.127 244.227 222.127 244.09V243.061C222.127 242.924 222.016 242.813 221.879 242.813H219.832C219.695 242.813 219.584 242.924 219.584 243.061V244.09C219.584 244.227 219.695 244.338 219.832 244.338Z" fill="#3F3D56"/>
<path d="M214.747 244.338H216.793C216.93 244.338 217.042 244.227 217.042 244.09V243.061C217.042 242.924 216.93 242.813 216.793 242.813H214.747C214.61 242.813 214.499 242.924 214.499 243.061V244.09C214.499 244.227 214.61 244.338 214.747 244.338Z" fill="#3F3D56"/>
<path d="M209.662 244.338H211.708C211.845 244.338 211.956 244.227 211.956 244.09V243.061C211.956 242.924 211.845 242.813 211.708 242.813H209.662C209.525 242.813 209.413 242.924 209.413 243.061V244.09C209.413 244.227 209.525 244.338 209.662 244.338Z" fill="#3F3D56"/>
<path d="M204.576 244.338H206.622C206.76 244.338 206.871 244.227 206.871 244.09V243.061C206.871 242.924 206.76 242.813 206.622 242.813H204.576C204.439 242.813 204.328 242.924 204.328 243.061V244.09C204.328 244.227 204.439 244.338 204.576 244.338Z" fill="#3F3D56"/>
<path d="M199.491 244.338H201.537C201.674 244.338 201.785 244.227 201.785 244.09V243.061C201.785 242.924 201.674 242.813 201.537 242.813H199.491C199.354 242.813 199.243 242.924 199.243 243.061V244.09C199.243 244.227 199.354 244.338 199.491 244.338Z" fill="#3F3D56"/>
<path d="M194.406 244.338H196.452C196.589 244.338 196.7 244.227 196.7 244.09V243.061C196.7 242.924 196.589 242.813 196.452 242.813H194.406C194.269 242.813 194.157 242.924 194.157 243.061V244.09C194.157 244.227 194.269 244.338 194.406 244.338Z" fill="#3F3D56"/>
<path d="M189.32 244.338H191.366C191.504 244.338 191.615 244.227 191.615 244.09V243.061C191.615 242.924 191.504 242.813 191.366 242.813H189.32C189.183 242.813 189.072 242.924 189.072 243.061V244.09C189.072 244.227 189.183 244.338 189.32 244.338Z" fill="#3F3D56"/>
<path d="M184.235 244.338H186.281C186.418 244.338 186.529 244.227 186.529 244.09V243.061C186.529 242.924 186.418 242.813 186.281 242.813H184.235C184.098 242.813 183.987 242.924 183.987 243.061V244.09C183.987 244.227 184.098 244.338 184.235 244.338Z" fill="#3F3D56"/>
<path d="M179.15 244.338H181.196C181.333 244.338 181.444 244.227 181.444 244.09V243.061C181.444 242.924 181.333 242.813 181.196 242.813H179.15C179.012 242.813 178.901 242.924 178.901 243.061V244.09C178.901 244.227 179.012 244.338 179.15 244.338Z" fill="#3F3D56"/>
<path d="M255.49 246.881H257.536C257.673 246.881 257.784 246.77 257.784 246.633V245.604C257.784 245.466 257.673 245.355 257.536 245.355H255.49C255.353 245.355 255.242 245.466 255.242 245.604V246.633C255.242 246.77 255.353 246.881 255.49 246.881Z" fill="#3F3D56"/>
<path d="M250.405 246.881H252.451C252.588 246.881 252.699 246.77 252.699 246.633V245.604C252.699 245.466 252.588 245.355 252.451 245.355H250.405C250.268 245.355 250.156 245.466 250.156 245.604V246.633C250.156 246.77 250.268 246.881 250.405 246.881Z" fill="#3F3D56"/>
<path d="M245.319 246.881H247.365C247.503 246.881 247.614 246.77 247.614 246.633V245.604C247.614 245.466 247.503 245.355 247.365 245.355H245.319C245.182 245.355 245.071 245.466 245.071 245.604V246.633C245.071 246.77 245.182 246.881 245.319 246.881Z" fill="#3F3D56"/>
<path d="M240.234 246.881H242.28C242.417 246.881 242.528 246.77 242.528 246.633V245.604C242.528 245.466 242.417 245.355 242.28 245.355H240.234C240.097 245.355 239.986 245.466 239.986 245.604V246.633C239.986 246.77 240.097 246.881 240.234 246.881Z" fill="#3F3D56"/>
<path d="M235.149 246.881H237.195C237.332 246.881 237.443 246.77 237.443 246.633V245.604C237.443 245.466 237.332 245.355 237.195 245.355H235.149C235.011 245.355 234.9 245.466 234.9 245.604V246.633C234.9 246.77 235.011 246.881 235.149 246.881Z" fill="#3F3D56"/>
<path d="M230.063 246.881H232.109C232.246 246.881 232.358 246.77 232.358 246.633V245.604C232.358 245.466 232.246 245.355 232.109 245.355H230.063C229.926 245.355 229.815 245.466 229.815 245.604V246.633C229.815 246.77 229.926 246.881 230.063 246.881Z" fill="#3F3D56"/>
<path d="M224.978 246.881H227.024C227.161 246.881 227.272 246.77 227.272 246.633V245.604C227.272 245.466 227.161 245.355 227.024 245.355H224.978C224.841 245.355 224.73 245.466 224.73 245.604V246.633C224.73 246.77 224.841 246.881 224.978 246.881Z" fill="#3F3D56"/>
<path d="M219.893 246.881H221.939C222.076 246.881 222.187 246.77 222.187 246.633V245.604C222.187 245.466 222.076 245.355 221.939 245.355H219.893C219.755 245.355 219.644 245.466 219.644 245.604V246.633C219.644 246.77 219.755 246.881 219.893 246.881Z" fill="#3F3D56"/>
<path d="M214.807 246.881H216.853C216.99 246.881 217.102 246.77 217.102 246.633V245.604C217.102 245.466 216.99 245.355 216.853 245.355H214.807C214.67 245.355 214.559 245.466 214.559 245.604V246.633C214.559 246.77 214.67 246.881 214.807 246.881Z" fill="#3F3D56"/>
<path d="M209.722 246.881H211.768C211.905 246.881 212.016 246.77 212.016 246.633V245.604C212.016 245.466 211.905 245.355 211.768 245.355H209.722C209.585 245.355 209.474 245.466 209.474 245.604V246.633C209.474 246.77 209.585 246.881 209.722 246.881Z" fill="#3F3D56"/>
<path d="M204.636 246.881H206.683C206.82 246.881 206.931 246.77 206.931 246.633V245.604C206.931 245.466 206.82 245.355 206.683 245.355H204.636C204.499 245.355 204.388 245.466 204.388 245.604V246.633C204.388 246.77 204.499 246.881 204.636 246.881Z" fill="#3F3D56"/>
<path d="M199.551 246.881H201.597C201.734 246.881 201.846 246.77 201.846 246.633V245.604C201.846 245.466 201.734 245.355 201.597 245.355H199.551C199.414 245.355 199.303 245.466 199.303 245.604V246.633C199.303 246.77 199.414 246.881 199.551 246.881Z" fill="#3F3D56"/>
<path d="M194.466 246.881H196.512C196.649 246.881 196.76 246.77 196.76 246.633V245.604C196.76 245.466 196.649 245.355 196.512 245.355H194.466C194.329 245.355 194.217 245.466 194.217 245.604V246.633C194.217 246.77 194.329 246.881 194.466 246.881Z" fill="#3F3D56"/>
<path d="M189.38 246.881H191.427C191.564 246.881 191.675 246.77 191.675 246.633V245.604C191.675 245.466 191.564 245.355 191.427 245.355H189.38C189.243 245.355 189.132 245.466 189.132 245.604V246.633C189.132 246.77 189.243 246.881 189.38 246.881Z" fill="#3F3D56"/>
<path d="M184.295 246.881H186.341C186.478 246.881 186.589 246.77 186.589 246.633V245.604C186.589 245.466 186.478 245.355 186.341 245.355H184.295C184.158 245.355 184.047 245.466 184.047 245.604V246.633C184.047 246.77 184.158 246.881 184.295 246.881Z" fill="#3F3D56"/>
<path d="M179.21 246.881H181.256C181.393 246.881 181.504 246.77 181.504 246.633V245.604C181.504 245.466 181.393 245.355 181.256 245.355H179.21C179.073 245.355 178.961 245.466 178.961 245.604V246.633C178.961 246.77 179.073 246.881 179.21 246.881Z" fill="#3F3D56"/>
<path d="M213.282 249.932H233.126C233.264 249.932 233.375 249.821 233.375 249.684V248.655C233.375 248.518 233.264 248.407 233.126 248.407H213.282C213.144 248.407 213.033 248.518 213.033 248.655V249.684C213.033 249.821 213.144 249.932 213.282 249.932Z" fill="#3F3D56"/>
<path d="M156.981 125.535H286.822C286.957 125.532 287.085 125.476 287.18 125.379C287.274 125.283 287.327 125.153 287.327 125.018C287.327 124.883 287.274 124.754 287.18 124.657C287.085 124.561 286.957 124.505 286.822 124.502H156.981C156.846 124.505 156.717 124.561 156.623 124.657C156.529 124.754 156.476 124.883 156.476 125.018C156.476 125.153 156.529 125.283 156.623 125.379C156.717 125.476 156.846 125.532 156.981 125.535Z" fill="#3F3D56"/>
<path d="M277.983 121.866C279.655 121.866 281.009 120.481 281.009 118.772C281.009 117.064 279.655 115.679 277.983 115.679C276.312 115.679 274.957 117.064 274.957 118.772C274.957 120.481 276.312 121.866 277.983 121.866Z" fill="#3F3D56"/>
<path d="M267.53 121.866C269.201 121.866 270.556 120.481 270.556 118.772C270.556 117.064 269.201 115.679 267.53 115.679C265.859 115.679 264.504 117.064 264.504 118.772C264.504 120.481 265.859 121.866 267.53 121.866Z" fill="#3F3D56"/>
<path d="M257.076 121.866C258.748 121.866 260.102 120.481 260.102 118.772C260.102 117.064 258.748 115.679 257.076 115.679C255.405 115.679 254.05 117.064 254.05 118.772C254.05 120.481 255.405 121.866 257.076 121.866Z" fill="#3F3D56"/>
<path d="M162.721 117.008C162.721 117.081 162.735 117.154 162.763 117.221C162.79 117.289 162.831 117.351 162.882 117.403C162.934 117.455 162.995 117.496 163.063 117.524C163.13 117.552 163.202 117.567 163.276 117.567H170.7C170.847 117.564 170.986 117.503 171.089 117.398C171.192 117.293 171.249 117.152 171.249 117.006C171.249 116.859 171.192 116.718 171.089 116.613C170.986 116.508 170.847 116.447 170.7 116.444H163.276C163.127 116.445 162.986 116.506 162.882 116.612C162.778 116.717 162.72 116.86 162.721 117.008Z" fill="#3F3D56"/>
<path d="M162.721 119.118C162.721 119.192 162.735 119.264 162.763 119.332C162.79 119.399 162.831 119.461 162.882 119.513C162.934 119.565 162.995 119.606 163.063 119.634C163.13 119.663 163.202 119.677 163.276 119.678H170.7C170.847 119.675 170.987 119.614 171.09 119.509C171.192 119.404 171.25 119.263 171.25 119.116C171.25 118.969 171.192 118.828 171.09 118.723C170.987 118.618 170.847 118.557 170.7 118.554H163.276C163.127 118.556 162.986 118.616 162.882 118.722C162.778 118.828 162.72 118.97 162.721 119.118Z" fill="#3F3D56"/>
<path d="M162.721 121.224C162.72 121.372 162.778 121.515 162.882 121.62C162.986 121.726 163.127 121.787 163.276 121.788H170.7C170.847 121.785 170.986 121.724 171.089 121.619C171.192 121.514 171.249 121.373 171.249 121.226C171.249 121.08 171.192 120.939 171.089 120.834C170.986 120.729 170.847 120.668 170.7 120.665H163.276C163.202 120.665 163.13 120.68 163.063 120.708C162.995 120.736 162.934 120.777 162.882 120.829C162.831 120.881 162.79 120.943 162.763 121.011C162.735 121.078 162.721 121.151 162.721 121.224Z" fill="#3F3D56"/>
<path d="M165.016 137.534H162.348C161.539 137.534 160.883 138.19 160.883 138.999C160.883 139.808 161.539 140.463 162.348 140.463H165.016C165.825 140.463 166.48 139.808 166.48 138.999C166.48 138.19 165.825 137.534 165.016 137.534Z" fill="#E6E6E6"/>
<path d="M195.528 137.534H192.86C192.051 137.534 191.396 138.19 191.396 138.999C191.396 139.808 192.051 140.463 192.86 140.463H195.528C196.337 140.463 196.992 139.808 196.992 138.999C196.992 138.19 196.337 137.534 195.528 137.534Z" fill="#E6E6E6"/>
<path d="M204.173 137.534H201.505C200.696 137.534 200.041 138.19 200.041 138.999C200.041 139.808 200.696 140.463 201.505 140.463H204.173C204.982 140.463 205.638 139.808 205.638 138.999C205.638 138.19 204.982 137.534 204.173 137.534Z" fill="#E6E6E6"/>
<path d="M187.228 137.29H170.647C169.838 137.29 169.183 137.946 169.183 138.755C169.183 139.563 169.838 140.219 170.647 140.219H187.228C188.037 140.219 188.693 139.563 188.693 138.755C188.693 137.946 188.037 137.29 187.228 137.29Z" fill="#E6E6E6"/>
<path d="M227.911 137.29H211.33C210.521 137.29 209.866 137.946 209.866 138.755C209.866 139.563 210.521 140.219 211.33 140.219H227.911C228.72 140.219 229.376 139.563 229.376 138.755C229.376 137.946 228.72 137.29 227.911 137.29Z" fill="#E6E6E6"/>
<path d="M173.152 144.145H170.485C169.676 144.145 169.02 144.801 169.02 145.61C169.02 146.419 169.676 147.074 170.485 147.074H173.152C173.961 147.074 174.617 146.419 174.617 145.61C174.617 144.801 173.961 144.145 173.152 144.145Z" fill="#E6E6E6"/>
<path d="M203.665 144.145H200.997C200.188 144.145 199.532 144.801 199.532 145.61C199.532 146.419 200.188 147.074 200.997 147.074H203.665C204.473 147.074 205.129 146.419 205.129 145.61C205.129 144.801 204.473 144.145 203.665 144.145Z" fill="#E6E6E6"/>
<path d="M212.31 144.145H209.642C208.833 144.145 208.177 144.801 208.177 145.61C208.177 146.419 208.833 147.074 209.642 147.074H212.31C213.118 147.074 213.774 146.419 213.774 145.61C213.774 144.801 213.118 144.145 212.31 144.145Z" fill="#E6E6E6"/>
<path d="M195.365 143.901H178.784C177.975 143.901 177.319 144.557 177.319 145.366C177.319 146.175 177.975 146.83 178.784 146.83H195.365C196.174 146.83 196.83 146.175 196.83 145.366C196.83 144.557 196.174 143.901 195.365 143.901Z" fill="#E6E6E6"/>
<path d="M236.048 143.901H219.467C218.658 143.901 218.002 144.557 218.002 145.366C218.002 146.175 218.658 146.83 219.467 146.83H236.048C236.857 146.83 237.513 146.175 237.513 145.366C237.513 144.557 236.857 143.901 236.048 143.901Z" fill="#E6E6E6"/>
<path d="M181.289 150.756H178.621C177.812 150.756 177.156 151.412 177.156 152.221C177.156 153.03 177.812 153.685 178.621 153.685H181.289C182.098 153.685 182.753 153.03 182.753 152.221C182.753 151.412 182.098 150.756 181.289 150.756Z" fill="#E6E6E6"/>
<path d="M211.801 150.756H209.133C208.324 150.756 207.669 151.412 207.669 152.221C207.669 153.03 208.324 153.685 209.133 153.685H211.801C212.61 153.685 213.266 153.03 213.266 152.221C213.266 151.412 212.61 150.756 211.801 150.756Z" fill="#E6E6E6"/>
<path d="M220.446 150.756H217.778C216.969 150.756 216.314 151.412 216.314 152.221C216.314 153.03 216.969 153.685 217.778 153.685H220.446C221.255 153.685 221.911 153.03 221.911 152.221C221.911 151.412 221.255 150.756 220.446 150.756Z" fill="#E6E6E6"/>
<path d="M203.502 150.512H186.92C186.112 150.512 185.456 151.168 185.456 151.977C185.456 152.786 186.112 153.441 186.92 153.441H203.502C204.311 153.441 204.966 152.786 204.966 151.977C204.966 151.168 204.311 150.512 203.502 150.512Z" fill="#E6E6E6"/>
<path d="M244.185 150.512H227.603C226.794 150.512 226.139 151.168 226.139 151.977C226.139 152.786 226.794 153.441 227.603 153.441H244.185C244.993 153.441 245.649 152.786 245.649 151.977C245.649 151.168 244.993 150.512 244.185 150.512Z" fill="#E6E6E6"/>
<path d="M189.426 157.367H186.758C185.949 157.367 185.293 158.023 185.293 158.832C185.293 159.641 185.949 160.296 186.758 160.296H189.426C190.234 160.296 190.89 159.641 190.89 158.832C190.89 158.023 190.234 157.367 189.426 157.367Z" fill="#E6E6E6"/>
<path d="M219.938 157.367H217.27C216.461 157.367 215.805 158.023 215.805 158.832C215.805 159.641 216.461 160.296 217.27 160.296H219.938C220.747 160.296 221.402 159.641 221.402 158.832C221.402 158.023 220.747 157.367 219.938 157.367Z" fill="#E6E6E6"/>
<path d="M228.583 157.367H225.915C225.106 157.367 224.45 158.023 224.45 158.832C224.45 159.641 225.106 160.296 225.915 160.296H228.583C229.392 160.296 230.047 159.641 230.047 158.832C230.047 158.023 229.392 157.367 228.583 157.367Z" fill="#E6E6E6"/>
<path d="M211.638 157.123H195.057C194.248 157.123 193.592 157.779 193.592 158.588C193.592 159.396 194.248 160.052 195.057 160.052H211.638C212.447 160.052 213.103 159.396 213.103 158.588C213.103 157.779 212.447 157.123 211.638 157.123Z" fill="#E6E6E6"/>
<path d="M195.528 183.655H192.86C192.051 183.655 191.396 184.311 191.396 185.12C191.396 185.929 192.051 186.584 192.86 186.584H195.528C196.337 186.584 196.992 185.929 196.992 185.12C196.992 184.311 196.337 183.655 195.528 183.655Z" fill="#E6E6E6"/>
<path d="M204.173 183.655H201.505C200.696 183.655 200.041 184.311 200.041 185.12C200.041 185.929 200.696 186.584 201.505 186.584H204.173C204.982 186.584 205.638 185.929 205.638 185.12C205.638 184.311 204.982 183.655 204.173 183.655Z" fill="#E6E6E6"/>
<path d="M227.911 183.899H211.33C210.521 183.899 209.866 184.555 209.866 185.364C209.866 186.173 210.521 186.829 211.33 186.829H227.911C228.72 186.829 229.376 186.173 229.376 185.364C229.376 184.555 228.72 183.899 227.911 183.899Z" fill="#E6E6E6"/>
<path d="M165.016 183.655H162.348C161.539 183.655 160.883 184.311 160.883 185.12C160.883 185.929 161.539 186.584 162.348 186.584H165.016C165.825 186.584 166.48 185.929 166.48 185.12C166.48 184.311 165.825 183.655 165.016 183.655Z" fill="#E6E6E6"/>
<path d="M187.228 183.899H170.647C169.838 183.899 169.183 184.555 169.183 185.364C169.183 186.173 169.838 186.829 170.647 186.829H187.228C188.037 186.829 188.693 186.173 188.693 185.364C188.693 184.555 188.037 183.899 187.228 183.899Z" fill="#E6E6E6"/>
<path d="M173.152 177.044H170.485C169.676 177.044 169.02 177.7 169.02 178.509C169.02 179.318 169.676 179.973 170.485 179.973H173.152C173.961 179.973 174.617 179.318 174.617 178.509C174.617 177.7 173.961 177.044 173.152 177.044Z" fill="#E6E6E6"/>
<path d="M203.665 177.044H200.997C200.188 177.044 199.532 177.7 199.532 178.509C199.532 179.318 200.188 179.973 200.997 179.973H203.665C204.473 179.973 205.129 179.318 205.129 178.509C205.129 177.7 204.473 177.044 203.665 177.044Z" fill="#E6E6E6"/>
<path d="M212.31 177.044H209.642C208.833 177.044 208.177 177.7 208.177 178.509C208.177 179.318 208.833 179.973 209.642 179.973H212.31C213.118 179.973 213.774 179.318 213.774 178.509C213.774 177.7 213.118 177.044 212.31 177.044Z" fill="#E6E6E6"/>
<path d="M195.365 177.288H178.784C177.975 177.288 177.319 177.944 177.319 178.753C177.319 179.562 177.975 180.217 178.784 180.217H195.365C196.174 180.217 196.83 179.562 196.83 178.753C196.83 177.944 196.174 177.288 195.365 177.288Z" fill="#E6E6E6"/>
<path d="M181.289 170.433H178.621C177.812 170.433 177.156 171.089 177.156 171.898C177.156 172.707 177.812 173.362 178.621 173.362H181.289C182.098 173.362 182.753 172.707 182.753 171.898C182.753 171.089 182.098 170.433 181.289 170.433Z" fill="#E6E6E6"/>
<path d="M211.801 170.433H209.133C208.324 170.433 207.669 171.089 207.669 171.898C207.669 172.707 208.324 173.362 209.133 173.362H211.801C212.61 173.362 213.266 172.707 213.266 171.898C213.266 171.089 212.61 170.433 211.801 170.433Z" fill="#E6E6E6"/>
<path d="M220.446 170.433H217.778C216.969 170.433 216.314 171.089 216.314 171.898C216.314 172.707 216.969 173.362 217.778 173.362H220.446C221.255 173.362 221.911 172.707 221.911 171.898C221.911 171.089 221.255 170.433 220.446 170.433Z" fill="#E6E6E6"/>
<path d="M203.502 170.677H186.92C186.112 170.677 185.456 171.333 185.456 172.142C185.456 172.951 186.112 173.607 186.92 173.607H203.502C204.311 173.607 204.966 172.951 204.966 172.142C204.966 171.333 204.311 170.677 203.502 170.677Z" fill="#E6E6E6"/>
<path d="M189.426 163.822H186.758C185.949 163.822 185.293 164.478 185.293 165.287C185.293 166.096 185.949 166.751 186.758 166.751H189.426C190.234 166.751 190.89 166.096 190.89 165.287C190.89 164.478 190.234 163.822 189.426 163.822Z" fill="#E6E6E6"/>
<path d="M219.938 163.822H217.27C216.461 163.822 215.805 164.478 215.805 165.287C215.805 166.096 216.461 166.751 217.27 166.751H219.938C220.747 166.751 221.402 166.096 221.402 165.287C221.402 164.478 220.747 163.822 219.938 163.822Z" fill="#E6E6E6"/>
<path d="M228.583 163.822H225.915C225.106 163.822 224.45 164.478 224.45 165.287C224.45 166.096 225.106 166.751 225.915 166.751H228.583C229.392 166.751 230.047 166.096 230.047 165.287C230.047 164.478 229.392 163.822 228.583 163.822Z" fill="#E6E6E6"/>
<path d="M211.638 164.066H195.057C194.248 164.066 193.592 164.722 193.592 165.531C193.592 166.34 194.248 166.996 195.057 166.996H211.638C212.447 166.996 213.103 166.34 213.103 165.531C213.103 164.722 212.447 164.066 211.638 164.066Z" fill="#E6E6E6"/>
<path d="M177.943 278.607C177.831 278.663 177.719 278.718 177.607 278.769C176.9 279.12 176.188 279.466 175.471 279.807C173.325 280.829 171.152 281.8 168.952 282.721C163.162 285.142 157.222 287.186 151.168 288.838C150.151 282.497 149.165 267.541 148.219 256.541C148.041 254.471 147.863 252.544 147.685 250.841C147.516 248.604 147.195 246.382 146.724 244.189C146.678 244.017 146.611 243.851 146.525 243.696C146.622 244.575 146.724 247.199 146.82 250.841C146.871 252.544 146.917 254.471 146.968 256.541C147.207 267.129 147.456 281.536 147.705 289.738C146.998 289.911 146.286 290.084 145.574 290.247C145.127 290.354 144.674 290.455 144.222 290.552C143.672 290.674 143.123 290.796 142.574 290.908C141.999 291.03 141.425 291.147 140.85 291.259C131.46 293.104 121.912 294.03 112.342 294.025C111.706 294.025 111.075 294.02 110.44 294.015C110.246 294.015 110.053 294.01 109.855 294.005C109.295 293.995 108.716 293.985 108.126 293.969C96.8165 293.657 85.5812 292.037 74.6438 289.143L75.0863 256.541L75.1625 250.841L75.1931 248.679C74.9412 249.375 74.7904 250.102 74.7455 250.841C74.5676 252.229 74.3845 254.197 74.2014 256.541C73.5047 265.573 72.7877 280.142 72.0452 288.431C63.2526 285.929 56.8248 283.646 48.7899 279.629C48.4797 279.476 48.1644 279.319 47.8542 279.161C47.9101 278.769 47.9712 278.378 48.0271 277.976C48.9374 271.65 47.8644 263.417 48.8713 256.541C49.6392 251.237 50.4325 246.142 51.2309 241.819C52.1971 236.617 53.1785 232.528 54.1499 230.54C55.2686 228.246 56.3874 225.988 57.4706 223.827C57.9385 222.896 58.3979 221.983 58.8487 221.086C59.0928 220.603 59.3369 220.125 59.5759 219.657C60.6642 217.526 61.6914 215.558 62.6322 213.814C63.2933 212.588 63.9036 211.48 64.463 210.509C65.119 209.364 65.6987 208.418 66.1767 207.701C69.7075 202.349 74.961 198.364 81.0667 196.407L81.2192 196.366L81.3667 196.427L81.5345 196.503L91.2272 192.959L95.5548 182.539L117.783 181.171L121.373 183.902L123.209 185.3L125.167 186.79L128.767 189.531L129.789 189.847L131.31 190.315L141.709 193.508L141.816 193.462L141.969 193.503C147.525 195.282 152.388 198.748 155.882 203.42C156.228 203.867 156.549 204.33 156.859 204.798C157.703 206.049 158.842 208.027 160.185 210.509C160.739 211.531 161.324 212.639 161.939 213.814C162.31 214.521 165.514 224.519 168.631 234.73C171.545 244.291 174.383 254.039 174.754 256.541C174.82 257.004 174.891 257.472 174.958 257.935C175.38 260.828 175.797 263.742 176.198 266.585C176.793 270.801 177.373 274.869 177.927 278.505C177.933 278.54 177.938 278.571 177.943 278.607Z" fill="#3F3D56"/>
<path opacity="0.2" d="M154.386 241.796L150.065 225.12L146.25 239.509L154.386 241.796Z" fill="#311A00"/>
<path d="M8.04977 241.602C8.27381 242.255 8.69882 242.819 9.26375 243.215C9.82868 243.611 10.5045 243.817 11.1941 243.805L24.6661 243.458C25.3608 243.445 26.0324 243.207 26.5807 242.78C27.1289 242.353 27.5242 241.76 27.7076 241.09L29.614 220.704C30.2904 221.01 31.0268 221.162 31.7692 221.147C33.0718 221.114 34.3081 220.565 35.2061 219.621C36.1041 218.677 36.5902 217.415 36.5575 216.112C36.5248 214.809 35.9759 213.573 35.0317 212.675C34.0875 211.777 32.8252 211.291 31.5226 211.324C31.2259 211.323 30.9299 211.354 30.6397 211.416C30.3241 211.074 29.9405 210.803 29.5136 210.618C29.0867 210.434 28.626 210.341 28.1611 210.346L7.43797 210.881C7.26606 210.888 7.09503 210.909 6.92679 210.945C6.47234 211.029 6.0413 211.21 5.6627 211.476C5.2841 211.741 4.96671 212.084 4.7319 212.483C4.4971 212.881 4.35033 213.325 4.30146 213.784C4.25259 214.244 4.30277 214.709 4.44861 215.148L8.04977 241.602ZM30.005 219.32L31.3616 214.462C31.5159 213.901 31.5195 213.309 31.3719 212.746C31.4378 212.746 31.4958 212.715 31.5617 212.714C32.4918 212.695 33.3917 213.046 34.0639 213.689C34.7361 214.332 35.1258 215.215 35.1476 216.146C35.1694 217.076 34.8214 217.977 34.1801 218.65C33.5387 219.324 32.6563 219.717 31.7262 219.741C31.1249 219.76 30.5298 219.614 30.005 219.32Z" fill="#2F2E41"/>
<path d="M6.92682 210.945C7.36832 213.469 12.3321 215.244 18.3006 214.935C23.7891 214.682 28.2768 212.755 29.099 210.471C28.7947 210.381 28.4783 210.339 28.1611 210.346L7.43799 210.881C7.26609 210.887 7.09506 210.909 6.92682 210.945Z" fill="#3F3D56"/>
<path d="M19.3945 230.4C19.4218 230.393 19.4477 230.382 19.4713 230.366L22.3969 228.451C22.4323 228.428 22.4614 228.397 22.4815 228.36C22.5016 228.323 22.5121 228.281 22.5122 228.239C22.5122 228.197 22.5017 228.155 22.4816 228.118C22.4615 228.081 22.4324 228.049 22.3971 228.026L19.3562 226.034C19.3282 226.016 19.297 226.003 19.2641 225.997C19.2312 225.99 19.1975 225.991 19.1647 225.997C19.1319 226.004 19.1008 226.017 19.0731 226.036C19.0454 226.055 19.0217 226.079 19.0034 226.107C18.985 226.135 18.9724 226.166 18.9662 226.199C18.96 226.232 18.9603 226.266 18.9672 226.299C18.9741 226.331 18.9874 226.362 19.0063 226.39C19.0253 226.418 19.0495 226.441 19.0775 226.459L21.7936 228.238L19.1929 229.941C19.1426 229.974 19.1055 230.024 19.0884 230.081C19.0712 230.139 19.0751 230.201 19.0993 230.256C19.1234 230.311 19.1664 230.356 19.2204 230.382C19.2745 230.409 19.3362 230.415 19.3945 230.4Z" fill="#FFBC13"/>
<path d="M14.7736 230.613C14.8227 230.601 14.8669 230.574 14.9007 230.536C14.9345 230.498 14.9562 230.451 14.9631 230.401C14.9699 230.351 14.9617 230.3 14.9394 230.254C14.917 230.209 14.8816 230.171 14.8377 230.146L12.1409 228.6L14.7474 226.664C14.7742 226.644 14.7968 226.619 14.8139 226.59C14.8311 226.562 14.8424 226.53 14.8473 226.497C14.8521 226.464 14.8504 226.43 14.8423 226.398C14.8342 226.366 14.8197 226.335 14.7998 226.308C14.7799 226.282 14.7549 226.259 14.7263 226.242C14.6977 226.225 14.666 226.213 14.6329 226.209C14.5999 226.204 14.5663 226.205 14.5339 226.213C14.5016 226.222 14.4711 226.236 14.4443 226.256L11.526 228.424C11.4921 228.449 11.465 228.482 11.4472 228.52C11.4293 228.558 11.4212 228.601 11.4237 228.643C11.4262 228.685 11.4391 228.726 11.4614 228.762C11.4836 228.797 11.5144 228.827 11.5511 228.848L14.5846 230.587C14.6418 230.62 14.7096 230.629 14.7736 230.613Z" fill="#FFBC13"/>
<path d="M19.1035 232.078C19.1281 232.072 19.1516 232.062 19.1732 232.049C19.2017 232.032 19.2266 232.009 19.2463 231.982C19.2661 231.955 19.2803 231.924 19.2882 231.892C19.2961 231.859 19.2976 231.826 19.2924 231.793C19.2873 231.76 19.2757 231.728 19.2584 231.699L15.111 224.881C15.0757 224.824 15.0192 224.783 14.9538 224.767C14.8884 224.751 14.8194 224.762 14.762 224.797C14.7045 224.832 14.6633 224.888 14.6473 224.954C14.6313 225.019 14.6418 225.088 14.6765 225.146L18.8238 231.964C18.8522 232.011 18.8946 232.047 18.9449 232.067C18.9952 232.088 19.0508 232.092 19.1035 232.078Z" fill="#FFBC13"/>
<path d="M399.276 279.16C398.966 279.317 398.651 279.475 398.341 279.627C390.306 283.645 383.878 285.928 375.085 288.43C374.343 280.141 373.626 265.572 372.929 256.54C372.746 254.196 372.563 252.228 372.385 250.839C372.34 250.101 372.189 249.373 371.937 248.678L371.968 250.839L372.044 256.54L372.487 289.142C361.549 292.036 350.314 293.655 339.005 293.968C338.415 293.983 337.835 293.994 337.276 294.004C337.077 294.009 336.884 294.014 336.691 294.014C336.055 294.019 335.424 294.024 334.789 294.024C322.871 294.033 310.996 292.593 299.425 289.737C299.674 281.534 299.924 267.128 300.163 256.54C300.213 254.47 300.259 252.543 300.31 250.839C300.407 247.198 300.508 244.574 300.605 243.694C300.519 243.85 300.453 244.016 300.407 244.188C299.936 246.38 299.615 248.603 299.446 250.839C299.268 252.543 299.09 254.47 298.912 256.54C297.966 267.54 296.979 282.496 295.962 288.837C289.908 287.184 283.968 285.141 278.179 282.719C275.127 281.448 272.13 280.077 269.188 278.605C269.747 274.944 270.332 270.84 270.932 266.584C271.4 263.283 271.883 259.891 272.376 256.54C273.139 251.363 299.054 195.46 305.162 193.502L305.314 193.461L305.421 193.507L315.82 190.313L317.341 189.846L318.363 189.53L321.964 186.789L323.921 185.299L325.757 183.901L329.347 181.17L351.576 182.538L355.903 192.958L365.596 196.502L365.764 196.426L365.911 196.365L366.064 196.406C372.169 198.363 377.423 202.348 380.954 207.7C381.432 208.417 382.011 209.363 382.667 210.507C383.227 211.479 383.837 212.587 384.498 213.813C385.439 215.557 386.466 217.525 387.554 219.656C387.793 220.124 388.038 220.602 388.282 221.085C388.734 221.98 389.194 222.894 389.66 223.826C390.743 225.987 391.862 228.245 392.981 230.539C393.952 232.527 394.933 236.616 395.9 241.818C396.698 246.14 397.491 251.236 398.259 256.54C399.266 263.415 398.193 271.649 399.103 277.975C399.159 278.376 399.22 278.768 399.276 279.16Z" fill="#3F3D56"/>
<path d="M334.085 177.43C348.362 177.43 359.937 165.855 359.937 151.577C359.937 137.3 348.362 125.725 334.085 125.725C319.807 125.725 308.232 137.3 308.232 151.577C308.232 165.855 319.807 177.43 334.085 177.43Z" fill="#FFB6B6"/>
<path opacity="0.2" d="M292.743 241.796L297.064 225.12L300.88 239.509L292.743 241.796Z" fill="#311A00"/>
<path d="M407.728 230.93C406.182 252.228 407.784 261.605 399.251 279.165C391.487 282.965 383.4 286.066 375.085 288.43C374.221 288.675 373.355 288.912 372.487 289.142C361.549 292.036 350.314 293.656 339.005 293.968C338.415 293.984 337.835 293.994 337.276 294.004C337.077 294.009 336.884 294.014 336.691 294.014C336.055 294.019 335.425 294.024 334.789 294.024C322.871 294.033 310.996 292.594 299.425 289.737C298.266 289.453 297.112 289.153 295.962 288.837C289.908 287.185 283.968 285.141 278.179 282.72C275.128 281.448 272.131 280.077 269.188 278.606C268.522 278.27 267.855 277.934 267.199 277.588C263.828 271.659 261.911 264.448 261.87 255.782C264.204 240.852 402.572 218.054 407.728 230.93Z" fill="#2F2E41"/>
<path opacity="0.2" d="M407.724 234.578C407.803 233.259 407.891 231.897 407.994 230.479C402.838 217.603 264.47 240.4 262.136 255.331C262.143 256.7 262.201 258.028 262.299 259.325C267.952 244.589 399.403 222.921 407.724 234.578Z" fill="#311A00"/>
<path d="M258.429 231.935L269.786 226.256L260.322 200.702L257.827 187.814C257.503 186.14 256.746 184.58 255.63 183.291C254.514 182.001 253.079 181.027 251.469 180.465C249.859 179.904 248.129 179.775 246.453 180.091C244.778 180.407 243.214 181.158 241.919 182.268C240.001 183.912 238.796 186.238 238.559 188.754C238.323 191.27 239.073 193.78 240.652 195.753L249.911 207.327L258.429 231.935Z" fill="#FFB6B6"/>
<path d="M269.786 221.524L254.643 229.095L266.135 265.104C266.96 267.69 268.44 270.019 270.43 271.865C272.42 273.71 274.853 275.011 277.494 275.639C280.75 276.415 284.168 276.133 287.252 274.835C290.337 273.536 292.928 271.29 294.65 268.42L325.124 216.186C327.284 212.587 327.951 208.286 326.982 204.201C326.013 200.117 323.486 196.574 319.939 194.328C318.032 193.12 315.892 192.327 313.658 192.001C311.424 191.675 309.147 191.823 306.974 192.436C304.801 193.048 302.782 194.111 301.047 195.555C299.312 197 297.901 198.794 296.905 200.82L278.305 240.453L269.786 221.524Z" fill="#3F3D56"/>
<path d="M106.542 175.646C122.252 175.646 134.987 162.911 134.987 147.201C134.987 131.491 122.252 118.756 106.542 118.756C90.8324 118.756 78.0972 131.491 78.0972 147.201C78.0972 162.911 90.8324 175.646 106.542 175.646Z" fill="#A0616A"/>
<path d="M78.4387 127.599C80.7515 124.482 84.0757 122.265 86.6184 119.333C88.0135 117.724 89.172 115.9 90.7404 114.46C93.6545 111.783 97.7299 110.687 101.684 110.55C106.018 110.439 110.317 111.349 114.234 113.208C118.15 115.067 121.574 117.821 124.228 121.249C126.295 120.037 128.362 118.825 130.429 117.613C131.246 119.763 132.062 121.912 132.879 124.061C133.549 123.479 134.404 123.152 135.292 123.14C136.18 123.127 137.043 123.43 137.729 123.993C138.416 124.557 138.88 125.345 139.041 126.218C139.202 127.091 139.048 127.993 138.607 128.764C139.099 127.244 141.353 126.922 142.595 127.926C143.838 128.93 144.17 130.717 143.968 132.301C143.713 134.04 142.945 135.663 141.761 136.961C140.577 138.259 139.031 139.174 137.324 139.587C134.626 140.188 131.487 139.556 129.328 141.281C127.597 142.664 127.075 145.183 125.309 146.52C123.132 148.168 120.056 147.406 117.35 147.77C112.617 148.407 108.869 153.248 109.438 157.99C109.009 156.494 108.559 154.954 107.587 153.739C106.615 152.523 104.978 151.701 103.487 152.148C101.023 152.887 100.62 156.246 101.217 158.748C102.801 165.385 108.804 176.112 108.804 176.112C101.009 179.186 91.7229 176.279 85.7087 170.444C79.6947 164.61 76.5624 156.348 75.198 148.081C74.041 141.071 74.2049 133.305 78.4387 127.599Z" fill="#2F2E41"/>
<path d="M366.482 165.829C371.894 153.422 368.828 142.004 362.231 135.947V135.942C359.637 130.13 356.189 125.644 352.243 124.592C350.336 123.366 348.485 121.927 346.431 121.195C345.474 120.836 344.454 120.676 343.433 120.722C342.412 120.768 341.412 121.021 340.491 121.464L339.443 121.184C338.553 118.911 337.511 118.866 336.352 120.361C331.887 118.281 327.864 117.35 324.284 117.35C312.608 117.35 305.702 127.236 303.871 139.187L313.63 141.785L317.022 136.38L315.456 142.273L320.841 143.702C329.039 154.377 319.229 179 306.795 192.7C309.755 191.881 312.703 191.189 315.639 190.625L326.308 174.982L319.697 189.221C323.13 188.718 327.508 189.201 332.293 190.172C333.905 188.067 334.755 185.26 333.921 182.758C335.284 185.397 336.225 188.233 336.707 191.164C346.807 193.63 360.583 194.897 368.008 195.832C374.006 193.874 374.023 171.758 366.482 165.829Z" fill="#2F2E41"/>
<path d="M370.003 123.624C373.967 132.5 365.969 136.318 358.642 136.21C352.021 136.112 346.394 131.461 346.056 124.848C345.894 121.673 347 118.563 349.13 116.203C351.261 113.842 354.242 112.425 357.418 112.263C364.03 111.925 367.303 117.579 370.003 123.624Z" fill="#2F2E41"/>
<path d="M186.115 268.109L179.586 257.218L201.295 240.748L210.322 231.217C211.495 229.979 212.972 229.07 214.606 228.582C216.24 228.094 217.973 228.043 219.633 228.434C221.293 228.825 222.821 229.646 224.065 230.812C225.308 231.979 226.224 233.452 226.72 235.084C227.455 237.502 227.221 240.111 226.069 242.36C224.917 244.609 222.937 246.323 220.545 247.14L206.518 251.928L186.115 268.109Z" fill="#A0616A"/>
<path d="M190.834 267.749L180.668 276.222L177.927 278.505L177.607 278.769C176.9 279.12 176.188 279.466 175.471 279.807C173.325 280.829 171.152 281.8 168.952 282.721C163.162 285.142 157.222 287.186 151.168 288.838C150.019 289.154 148.865 289.454 147.705 289.738C146.998 289.911 146.286 290.084 145.574 290.247C145.127 290.354 144.674 290.456 144.222 290.552C143.672 290.674 143.123 290.796 142.574 290.908C141.999 291.03 141.425 291.147 140.85 291.259C139.304 289.788 138.073 288.017 137.232 286.056C136.391 284.094 135.957 281.982 135.958 279.847C135.958 279.71 135.958 279.568 135.963 279.425L137.595 237.558L138.318 219.001C138.429 214.805 140.177 210.818 143.188 207.893C146.199 204.969 150.235 203.337 154.433 203.348C154.921 203.348 155.404 203.374 155.882 203.42C156.228 203.867 156.549 204.33 156.859 204.798C157.703 206.049 158.842 208.027 160.185 210.509C160.739 211.531 161.324 212.639 161.939 213.814C162.31 214.521 165.514 224.519 168.631 234.73L167.258 245.394L164.777 264.617L174.958 257.935L182.128 253.226L182.977 254.644L185.189 258.336L189.461 265.456L190.834 267.749Z" fill="#3F3D56"/>
<path d="M185.261 255.784C185.255 256.648 185.235 257.497 185.189 258.336C185.083 260.651 184.815 262.955 184.386 265.232C183.684 269.056 182.432 272.757 180.668 276.222C180.435 276.684 180.185 277.142 179.931 277.59C179.275 277.935 178.609 278.271 177.943 278.607C177.831 278.663 177.719 278.718 177.607 278.769C174.775 280.178 171.889 281.495 168.952 282.721C163.162 285.142 157.222 287.186 151.168 288.838C150.019 289.154 148.865 289.454 147.705 289.738C145.442 290.298 143.157 290.805 140.85 291.259C131.46 293.104 121.912 294.03 112.342 294.025C111.706 294.025 111.075 294.02 110.44 294.015C110.246 294.015 110.053 294.01 109.855 294.005C109.295 293.995 108.716 293.985 108.126 293.969C96.8165 293.657 85.5812 292.037 74.6439 289.143C73.7743 288.915 72.9081 288.677 72.0452 288.431C63.7308 286.067 55.6437 282.966 47.8796 279.166C39.3464 261.606 40.9483 252.229 39.4023 230.931C42.5756 223.003 96.2617 228.602 137.595 237.558C148.814 239.988 159.117 242.668 167.258 245.394C175.67 248.206 181.767 251.064 184.157 253.749C184.715 254.305 185.099 255.012 185.261 255.784Z" fill="#2F2E41"/>
<path opacity="0.2" d="M39.4053 234.578C39.3264 233.259 39.2381 231.897 39.1351 230.479C44.2917 217.603 182.659 240.4 184.993 255.331C184.987 256.7 184.928 258.028 184.83 259.325C179.177 244.589 47.7263 222.921 39.4053 234.578Z" fill="#311A00"/>
</g>
<defs>
<clipPath id="clip0_1_756">
<rect width="447.593" height="293.055" fill="white" transform="translate(0 0.970459)"/>
</clipPath>
</defs>
</svg>
