<svg width="118" height="29" viewBox="0 0 118 29" fill="none" xmlns="http://www.w3.org/2000/svg">
<mask id="mask0_1_41" style="mask-type:luminance" maskUnits="userSpaceOnUse" x="0" y="0" width="118" height="29">
<path d="M0.788635 0.230957H117.644V28.7145H0.788635V0.230957Z" fill="white"/>
</mask>
<g mask="url(#mask0_1_41)">
<path d="M47.0744 23.0543H50.7261L44.0617 4.06527H39.7709L33.1065 23.0543H36.7582L38.3102 18.3983H45.4311L47.0744 23.0543ZM39.2231 15.5682L41.7794 7.8996H41.9619L44.5182 15.5682H39.2231ZM54.3778 14.7466V23.1456H51V8.81253H54.1953V11.2775H54.3778C54.743 10.4558 55.1995 9.81676 55.9298 9.36029C56.6602 8.90383 57.5731 8.62994 58.5773 8.62994C59.5816 8.62994 60.4032 8.81253 61.1335 9.269C61.8639 9.72546 62.4117 10.2732 62.8681 11.0949C63.2333 11.9165 63.5072 12.8294 63.5072 14.0163V23.0543H60.1293V14.4727C60.1293 13.5598 59.8554 12.7381 59.399 12.1904C58.9425 11.6426 58.2122 11.3687 57.3905 11.3687C56.8428 11.3687 56.295 11.46 55.8385 11.7339C55.3821 12.0078 55.0169 12.373 54.743 12.8294C54.4691 13.4685 54.3778 14.0163 54.3778 14.7466ZM70.9019 28.7145C69.7151 28.7145 68.6196 28.5319 67.798 28.258C66.9763 27.8928 66.246 27.5277 65.6982 26.9799C65.1505 26.4321 64.7853 25.7931 64.6027 25.154L67.6154 24.4237C67.7067 24.6976 67.9805 24.9715 68.2544 25.2453C68.5283 25.5192 68.8935 25.7931 69.3499 25.9757C69.8064 26.1583 70.3542 26.2496 70.9932 26.2496C71.9062 26.2496 72.7278 25.9757 73.3669 25.5192C74.0059 25.0627 74.2798 24.3324 74.2798 23.2369V20.4981H74.0972C73.9146 20.8633 73.6407 21.2284 73.3669 21.5936C73.0017 21.9588 72.6365 22.2327 72.0887 22.5065C71.541 22.7804 70.9019 22.8717 70.0803 22.8717C68.9848 22.8717 67.9805 22.5978 67.0676 22.0501C66.1547 21.5023 65.5156 20.772 64.9679 19.7677C64.4201 18.7635 64.1462 17.4854 64.1462 15.9334C64.1462 14.3814 64.4201 13.012 64.9679 11.9165C65.5156 10.821 66.1547 9.99934 67.0676 9.45158C67.9805 8.90382 68.9848 8.62994 70.0803 8.62994C70.9019 8.62994 71.6323 8.72124 72.18 9.08641C72.7278 9.36029 73.1843 9.72546 73.4581 10.0906C73.8233 10.4558 74.0059 10.821 74.1885 11.1862H74.3711V8.81253H77.6576V23.3282C77.6576 24.515 77.3838 25.5192 76.7447 26.3409C76.1969 27.1625 75.3753 27.7103 74.3711 28.1667C73.3669 28.5319 72.18 28.7145 70.9019 28.7145ZM70.9019 20.2242C71.6323 20.2242 72.18 20.0416 72.7278 19.6764C73.1843 19.3113 73.6407 18.8548 73.8233 18.2157C74.0972 17.5767 74.1885 16.7551 74.1885 15.8421C74.1885 14.9292 74.0972 14.1988 73.8233 13.4685C73.5494 12.8294 73.1843 12.2817 72.7278 11.9165C72.2713 11.5513 71.6323 11.3687 70.9019 11.3687C70.1716 11.3687 69.5325 11.5513 68.9848 11.9165C68.5283 12.2817 68.0718 12.8294 67.8893 13.4685C67.6154 14.1075 67.5241 14.9292 67.5241 15.7508C67.5241 16.5725 67.6154 17.3941 67.8893 18.0332C68.1631 18.6722 68.5283 19.22 68.9848 19.5851C69.5325 20.0416 70.1716 20.2242 70.9019 20.2242ZM87.7912 17.0289V8.81253H91.1691V23.0543H87.8825V20.4981H87.6999C87.3347 21.3197 86.8783 21.9588 86.1479 22.4152C85.4176 22.963 84.5046 23.1456 83.4091 23.1456C82.4962 23.1456 81.6746 22.963 80.9442 22.5065C80.2139 22.0501 79.6661 21.5023 79.3009 20.6807C78.9358 19.859 78.6619 18.9461 78.6619 17.7593V8.72124H82.0397V17.3028C82.0397 18.2157 82.3136 18.9461 82.7701 19.4939C83.2265 20.0416 83.9569 20.3155 84.6872 20.3155C85.1437 20.3155 85.6915 20.2242 86.1479 19.9503C86.6044 19.6764 86.9696 19.3113 87.3347 18.8548C87.6086 18.3983 87.7912 17.7593 87.7912 17.0289ZM95.6424 4.06527V23.0543H92.2646V4.06527H95.6424ZM100.937 23.3282C100.025 23.3282 99.2029 23.1456 98.4725 22.8717C97.7422 22.5065 97.1944 22.0501 96.738 21.411C96.2815 20.772 96.0989 19.9503 96.0989 19.0374C96.0989 18.2157 96.2815 17.5767 96.5554 17.0289C96.8292 16.4812 97.2857 16.116 97.7422 15.7508C98.2899 15.4769 98.8377 15.2031 99.4768 15.0205C100.116 14.8379 100.755 14.7466 101.485 14.6553C102.307 14.564 103.037 14.4727 103.494 14.3814C104.041 14.2901 104.407 14.1988 104.589 14.0163C104.863 13.8337 104.954 13.6511 104.954 13.2859V13.1946C104.954 12.4643 104.772 11.9165 104.315 11.5513C103.859 11.1862 103.311 11.0036 102.489 11.0036C101.668 11.0036 101.029 11.1862 100.572 11.5513C100.116 11.9165 99.7506 12.373 99.568 12.8294L96.4641 12.373C96.738 11.5513 97.1031 10.821 97.6509 10.1819C98.1986 9.63417 98.929 9.17771 99.7506 8.90383C100.572 8.62995 101.485 8.44736 102.489 8.44736C103.22 8.44736 103.859 8.53865 104.589 8.72124C105.32 8.90382 105.867 9.1777 106.415 9.54288C106.963 9.90805 107.419 10.3645 107.784 11.0036C108.15 11.6426 108.332 12.4643 108.332 13.3772V22.963H105.137V21.0458H105.046C104.863 21.411 104.589 21.7762 104.224 22.1414C103.859 22.5065 103.402 22.7804 102.855 22.963C102.307 23.2369 101.668 23.3282 100.937 23.3282ZM101.85 20.8633C102.489 20.8633 103.128 20.772 103.585 20.4981C104.041 20.2242 104.498 19.859 104.772 19.4026C105.046 18.9461 105.137 18.4896 105.137 17.9419V16.2986C105.046 16.3899 104.863 16.4812 104.589 16.5725C104.315 16.6638 104.041 16.6638 103.768 16.7551C103.494 16.8463 103.128 16.8463 102.855 16.9376C102.581 16.9376 102.307 17.0289 102.033 17.0289C101.577 17.1202 101.12 17.2115 100.664 17.3941C100.298 17.5767 99.9332 17.7593 99.7506 18.0332C99.4768 18.307 99.3855 18.6722 99.3855 19.1287C99.3855 19.7677 99.568 20.2242 100.025 20.4981C100.572 20.6807 101.12 20.8633 101.85 20.8633ZM109.519 23.0543V8.81253H112.806V11.1862H112.988C113.262 10.3645 113.719 9.72546 114.358 9.269C115.316 8.5843 115.727 8.62994 116.549 8.62994H117.188C117.462 8.62994 117.644 8.62994 117.735 8.72124V11.7339C117.553 11.6426 117.37 11.6426 117.096 11.6426C116.822 11.6426 116.549 11.5513 116.183 11.5513C115.544 11.5513 114.997 11.6426 114.54 11.9165C114.084 12.1904 113.719 12.5556 113.353 13.012C113.079 13.4685 112.897 14.0162 112.897 14.6553V23.0543H109.519ZM27.1724 4.88692L26.2595 19.859L17.1301 0.230957L27.1724 4.88692ZM20.8732 24.3324L13.9349 28.258L6.99658 24.3324L8.54857 20.8633H19.5038L20.8732 24.3324ZM14.0262 7.71701L17.6779 16.4812H10.4657C10.3744 16.4812 14.0262 7.71701 14.0262 7.71701ZM1.70157 19.859L0.788635 4.88692L10.8309 0.230957L1.70157 19.859Z" fill="url(#paint0_linear_1_41)"/>
<path d="M47.0744 23.0543H50.7261L44.0617 4.06527H39.7709L33.1065 23.0543H36.7582L38.3102 18.3983H45.4311L47.0744 23.0543ZM39.2231 15.5682L41.7794 7.8996H41.9619L44.5182 15.5682H39.2231ZM54.3778 14.7466V23.1456H51V8.81253H54.1953V11.2775H54.3778C54.743 10.4558 55.1995 9.81676 55.9298 9.36029C56.6602 8.90383 57.5731 8.62994 58.5773 8.62994C59.5816 8.62994 60.4032 8.81253 61.1335 9.269C61.8639 9.72546 62.4117 10.2732 62.8681 11.0949C63.2333 11.9165 63.5072 12.8294 63.5072 14.0163V23.0543H60.1293V14.4727C60.1293 13.5598 59.8554 12.7381 59.399 12.1904C58.9425 11.6426 58.2122 11.3687 57.3905 11.3687C56.8428 11.3687 56.295 11.46 55.8385 11.7339C55.3821 12.0078 55.0169 12.373 54.743 12.8294C54.4691 13.4685 54.3778 14.0163 54.3778 14.7466ZM70.9019 28.7145C69.7151 28.7145 68.6196 28.5319 67.798 28.258C66.9763 27.8928 66.246 27.5277 65.6982 26.9799C65.1505 26.4321 64.7853 25.7931 64.6027 25.154L67.6154 24.4237C67.7067 24.6976 67.9805 24.9715 68.2544 25.2453C68.5283 25.5192 68.8935 25.7931 69.3499 25.9757C69.8064 26.1583 70.3542 26.2496 70.9932 26.2496C71.9062 26.2496 72.7278 25.9757 73.3669 25.5192C74.0059 25.0627 74.2798 24.3324 74.2798 23.2369V20.4981H74.0972C73.9146 20.8633 73.6407 21.2284 73.3669 21.5936C73.0017 21.9588 72.6365 22.2327 72.0887 22.5065C71.541 22.7804 70.9019 22.8717 70.0803 22.8717C68.9848 22.8717 67.9805 22.5978 67.0676 22.0501C66.1547 21.5023 65.5156 20.772 64.9679 19.7677C64.4201 18.7635 64.1462 17.4854 64.1462 15.9334C64.1462 14.3814 64.4201 13.012 64.9679 11.9165C65.5156 10.821 66.1547 9.99934 67.0676 9.45158C67.9805 8.90382 68.9848 8.62994 70.0803 8.62994C70.9019 8.62994 71.6323 8.72124 72.18 9.08641C72.7278 9.36029 73.1843 9.72546 73.4581 10.0906C73.8233 10.4558 74.0059 10.821 74.1885 11.1862H74.3711V8.81253H77.6576V23.3282C77.6576 24.515 77.3838 25.5192 76.7447 26.3409C76.1969 27.1625 75.3753 27.7103 74.3711 28.1667C73.3669 28.5319 72.18 28.7145 70.9019 28.7145ZM70.9019 20.2242C71.6323 20.2242 72.18 20.0416 72.7278 19.6764C73.1843 19.3113 73.6407 18.8548 73.8233 18.2157C74.0972 17.5767 74.1885 16.7551 74.1885 15.8421C74.1885 14.9292 74.0972 14.1988 73.8233 13.4685C73.5494 12.8294 73.1843 12.2817 72.7278 11.9165C72.2713 11.5513 71.6323 11.3687 70.9019 11.3687C70.1716 11.3687 69.5325 11.5513 68.9848 11.9165C68.5283 12.2817 68.0718 12.8294 67.8893 13.4685C67.6154 14.1075 67.5241 14.9292 67.5241 15.7508C67.5241 16.5725 67.6154 17.3941 67.8893 18.0332C68.1631 18.6722 68.5283 19.22 68.9848 19.5851C69.5325 20.0416 70.1716 20.2242 70.9019 20.2242ZM87.7912 17.0289V8.81253H91.1691V23.0543H87.8825V20.4981H87.6999C87.3347 21.3197 86.8783 21.9588 86.1479 22.4152C85.4176 22.963 84.5046 23.1456 83.4091 23.1456C82.4962 23.1456 81.6746 22.963 80.9442 22.5065C80.2139 22.0501 79.6661 21.5023 79.3009 20.6807C78.9358 19.859 78.6619 18.9461 78.6619 17.7593V8.72124H82.0397V17.3028C82.0397 18.2157 82.3136 18.9461 82.7701 19.4939C83.2265 20.0416 83.9569 20.3155 84.6872 20.3155C85.1437 20.3155 85.6915 20.2242 86.1479 19.9503C86.6044 19.6764 86.9696 19.3113 87.3347 18.8548C87.6086 18.3983 87.7912 17.7593 87.7912 17.0289ZM95.6424 4.06527V23.0543H92.2646V4.06527H95.6424ZM100.937 23.3282C100.025 23.3282 99.2029 23.1456 98.4725 22.8717C97.7422 22.5065 97.1944 22.0501 96.738 21.411C96.2815 20.772 96.0989 19.9503 96.0989 19.0374C96.0989 18.2157 96.2815 17.5767 96.5554 17.0289C96.8292 16.4812 97.2857 16.116 97.7422 15.7508C98.2899 15.4769 98.8377 15.2031 99.4768 15.0205C100.116 14.8379 100.755 14.7466 101.485 14.6553C102.307 14.564 103.037 14.4727 103.494 14.3814C104.041 14.2901 104.407 14.1988 104.589 14.0163C104.863 13.8337 104.954 13.6511 104.954 13.2859V13.1946C104.954 12.4643 104.772 11.9165 104.315 11.5513C103.859 11.1862 103.311 11.0036 102.489 11.0036C101.668 11.0036 101.029 11.1862 100.572 11.5513C100.116 11.9165 99.7506 12.373 99.568 12.8294L96.4641 12.373C96.738 11.5513 97.1031 10.821 97.6509 10.1819C98.1986 9.63417 98.929 9.17771 99.7506 8.90383C100.572 8.62995 101.485 8.44736 102.489 8.44736C103.22 8.44736 103.859 8.53865 104.589 8.72124C105.32 8.90382 105.867 9.1777 106.415 9.54288C106.963 9.90805 107.419 10.3645 107.784 11.0036C108.15 11.6426 108.332 12.4643 108.332 13.3772V22.963H105.137V21.0458H105.046C104.863 21.411 104.589 21.7762 104.224 22.1414C103.859 22.5065 103.402 22.7804 102.855 22.963C102.307 23.2369 101.668 23.3282 100.937 23.3282ZM101.85 20.8633C102.489 20.8633 103.128 20.772 103.585 20.4981C104.041 20.2242 104.498 19.859 104.772 19.4026C105.046 18.9461 105.137 18.4896 105.137 17.9419V16.2986C105.046 16.3899 104.863 16.4812 104.589 16.5725C104.315 16.6638 104.041 16.6638 103.768 16.7551C103.494 16.8463 103.128 16.8463 102.855 16.9376C102.581 16.9376 102.307 17.0289 102.033 17.0289C101.577 17.1202 101.12 17.2115 100.664 17.3941C100.298 17.5767 99.9332 17.7593 99.7506 18.0332C99.4768 18.307 99.3855 18.6722 99.3855 19.1287C99.3855 19.7677 99.568 20.2242 100.025 20.4981C100.572 20.6807 101.12 20.8633 101.85 20.8633ZM109.519 23.0543V8.81253H112.806V11.1862H112.988C113.262 10.3645 113.719 9.72546 114.358 9.269C115.316 8.5843 115.727 8.62994 116.549 8.62994H117.188C117.462 8.62994 117.644 8.62994 117.735 8.72124V11.7339C117.553 11.6426 117.37 11.6426 117.096 11.6426C116.822 11.6426 116.549 11.5513 116.183 11.5513C115.544 11.5513 114.997 11.6426 114.54 11.9165C114.084 12.1904 113.719 12.5556 113.353 13.012C113.079 13.4685 112.897 14.0162 112.897 14.6553V23.0543H109.519ZM27.1724 4.88692L26.2595 19.859L17.1301 0.230957L27.1724 4.88692ZM20.8732 24.3324L13.9349 28.258L6.99658 24.3324L8.54857 20.8633H19.5038L20.8732 24.3324ZM14.0262 7.71701L17.6779 16.4812H10.4657C10.3744 16.4812 14.0262 7.71701 14.0262 7.71701ZM1.70157 19.859L0.788635 4.88692L10.8309 0.230957L1.70157 19.859Z" fill="url(#paint1_radial_1_41)"/>
</g>
<defs>
<linearGradient id="paint0_linear_1_41" x1="0.788635" y1="14.4727" x2="117.644" y2="14.4727" gradientUnits="userSpaceOnUse">
<stop stop-color="#F0070C"/>
<stop offset="0.526" stop-color="#CC26D5"/>
<stop offset="1" stop-color="#7702FF"/>
</linearGradient>
<radialGradient id="paint1_radial_1_41" cx="0" cy="0" r="1" gradientUnits="userSpaceOnUse" gradientTransform="translate(37.042 -7.19973) rotate(118.122) scale(24.4239 24.4239)">
<stop stop-color="#FF41F8"/>
<stop offset="0.707" stop-color="#FF41F8" stop-opacity="0.5"/>
<stop offset="1" stop-color="#FF41F8" stop-opacity="0"/>
</radialGradient>
</defs>
</svg>
