<svg width="33" height="33" viewBox="0 0 33 33" fill="none" xmlns="http://www.w3.org/2000/svg">
<g clip-path="url(#clip0_1_101)">
<path d="M18.6648 20.4437C18.7164 20.7022 18.7423 21.1544 18.7423 21.8004V26.8627H17.3469V21.8547C17.3469 21.2861 17.2926 20.8613 17.1841 20.5794C17.0756 20.2977 16.8831 20.0729 16.6066 19.9049C16.3301 19.7372 16.0058 19.653 15.6336 19.653C15.0393 19.653 14.5263 19.8417 14.0948 20.2189C13.6632 20.5962 13.4474 21.312 13.4474 22.3664V26.8627H12.052V18.6297H13.3079V19.8003C13.9126 18.8958 14.786 18.4436 15.9282 18.4436C16.4243 18.4436 16.8804 18.5327 17.2965 18.711C17.7126 18.8894 18.024 19.1232 18.2307 19.4127C18.4374 19.7021 18.5821 20.0458 18.6648 20.4437ZM32.1664 26.9134C31.7737 26.9961 31.4222 27.0374 31.1121 27.0374C30.6056 27.0374 30.2128 26.9574 29.9338 26.7971C29.6547 26.6369 29.4583 26.4262 29.3446 26.1653C29.2309 25.9045 29.174 25.3552 29.174 24.5179V19.5465H26.1443C26.1513 19.554 26.159 19.5602 26.166 19.5677C26.8638 20.3171 27.2126 21.3714 27.2126 22.7307C27.2126 22.8134 27.21 22.9375 27.2049 23.1028H21.0649C21.1166 24.0073 21.3724 24.6999 21.8324 25.1805C22.2924 25.6611 22.8661 25.9014 23.5534 25.9014C24.0651 25.9014 24.5018 25.7671 24.8636 25.4983C25.2254 25.2295 25.5123 24.8006 25.7242 24.2114L27.1661 24.3897C26.9387 25.2322 26.5175 25.8859 25.9024 26.3511C25.2874 26.8163 24.5018 27.0489 23.5457 27.0489C22.3414 27.0489 21.3866 26.678 20.6812 25.9364C19.9757 25.195 19.6229 24.1545 19.6229 22.816C19.6229 21.4309 19.9796 20.3559 20.6928 19.5909C21.406 18.826 22.3311 18.4436 23.4681 18.4436C23.6056 18.4436 23.7403 18.4495 23.8715 18.4612H29.1739V16.675H30.5616V18.4612H31.9648V19.5465H30.5616V24.5954C30.5616 24.9933 30.5862 25.2492 30.6353 25.3629C30.6844 25.4765 30.7644 25.567 30.8756 25.6342C30.9867 25.7014 31.1456 25.735 31.3524 25.735C31.5074 25.735 31.7116 25.7169 31.9649 25.6807L32.1664 26.9134ZM25.7397 21.9555C25.6776 21.2629 25.5019 20.7435 25.2125 20.3972C24.768 19.8597 24.1918 19.591 23.4837 19.591C22.8428 19.591 22.304 19.8055 21.8673 20.2344C21.4306 20.6634 21.1889 21.2371 21.1424 21.9555H25.7397ZM10.0653 25.1864C9.81307 25.1864 9.59907 25.2761 9.42282 25.4585C9.24657 25.6397 9.15926 25.8589 9.15926 26.1178C9.15926 26.37 9.24657 26.5884 9.42282 26.7724C9.59907 26.9564 9.81307 27.0489 10.0653 27.0489C10.3239 27.0489 10.5441 26.9564 10.7253 26.7724C10.9069 26.5884 10.9971 26.37 10.9971 26.1178C10.9971 25.865 10.9069 25.6459 10.7253 25.4622C10.5441 25.2774 10.3239 25.1864 10.0653 25.1864ZM19.0131 17.1724C18.2896 17.4903 17.3774 17.6492 16.2766 17.6492C14.3436 17.6492 13.005 17.2771 12.2608 16.5329C12.2576 16.5297 12.2548 16.5264 12.2516 16.5234L12.6019 17.4554H8.92438L8.35557 15.5793H4.36876L3.81469 17.4554H0.228943L4.50057 6.09036H8.33132L11.1846 13.6837L14.3384 13.4862C14.4108 14.0289 14.5581 14.4424 14.7803 14.7266C15.1421 15.1867 15.6589 15.4165 16.3308 15.4165C16.8321 15.4165 17.2185 15.2991 17.4898 15.0638C17.7612 14.8286 17.8969 14.556 17.8969 14.2459C17.8969 13.9513 17.7677 13.6877 17.5093 13.4552C17.2508 13.2225 16.6513 13.003 15.7107 12.7962C14.1706 12.45 13.0723 11.99 12.4159 11.4163C11.7544 10.8425 11.4236 10.1113 11.4236 9.2223C11.4236 8.6383 11.5929 8.08655 11.9314 7.56717C12.2699 7.04773 12.7791 6.63961 13.4587 6.3423C14.1383 6.04511 15.0699 5.89648 16.2534 5.89648C17.7058 5.89648 18.8131 6.16667 19.5754 6.70661C20.3377 7.24673 20.7912 8.10598 20.9359 9.2843L17.6256 9.47817C17.5378 8.96648 17.353 8.59436 17.0713 8.3618C16.7897 8.12923 16.4008 8.01298 15.9046 8.01298C15.4963 8.01298 15.1888 8.09955 14.9821 8.27267C14.7753 8.44586 14.672 8.65642 14.672 8.90442C14.672 9.08542 14.7573 9.2483 14.9278 9.3928C15.0932 9.5428 15.486 9.68236 16.1062 9.81142C17.6412 10.1422 18.7407 10.477 19.4048 10.8154C20.0689 11.1539 20.5522 11.5739 20.8545 12.0751C21.0094 12.3319 21.124 12.6046 21.1996 12.8925V6.09036H27.0371C28.3085 6.09036 29.2608 6.39267 29.8939 6.99736C30.527 7.60211 30.8436 8.46255 30.8436 9.57898C30.8436 10.7263 30.4985 11.623 29.8086 12.269C29.1186 12.9152 28.0655 13.2381 26.6494 13.2381H24.7268V17.4555H21.1994V14.6512C21.1011 15.0441 20.9359 15.4182 20.7033 15.7732C20.3001 16.3882 19.7367 16.8546 19.0131 17.1724ZM24.7267 10.9356H25.5873C26.2643 10.9356 26.7398 10.8181 27.0137 10.5828C27.2876 10.3477 27.4245 10.0467 27.4245 9.67967C27.4245 9.32305 27.3057 9.02073 27.0679 8.77261C26.8302 8.52455 26.3831 8.40048 25.7268 8.40048H24.7267V10.9356ZM7.62713 13.1218L6.37276 9.0363L5.13132 13.1218H7.62713Z" fill="black"/>
</g>
<defs>
<clipPath id="clip0_1_101">
<rect width="32" height="32" fill="white" transform="translate(0.197693 0.472656)"/>
</clipPath>
</defs>
</svg>
