<svg width="39" height="39" viewBox="0 0 39 39" fill="none" xmlns="http://www.w3.org/2000/svg">
<g clip-path="url(#clip0_1_126)">
<path d="M29.4092 0.956055H9.23338C4.31743 0.956055 0.332275 4.94121 0.332275 9.85716V30.033C0.332275 34.9489 4.31743 38.9341 9.23338 38.9341H29.4092C34.3251 38.9341 38.3103 34.9489 38.3103 30.033V9.85716C38.3103 4.94121 34.3251 0.956055 29.4092 0.956055Z" fill="#F4F2ED"/>
<path d="M12.9043 17.5662C12.9043 17.9273 12.9433 18.22 13.0115 18.4348C13.0982 18.6765 13.2026 18.9113 13.324 19.1375C13.3728 19.2156 13.3922 19.2936 13.3922 19.362C13.3922 19.4596 13.3336 19.5572 13.2068 19.6547L12.5918 20.0647C12.504 20.1232 12.4162 20.1526 12.3382 20.1526C12.2405 20.1526 12.1429 20.1038 12.0453 20.0159C11.9139 19.8746 11.7962 19.721 11.694 19.5572C11.5849 19.3697 11.484 19.1776 11.3914 18.9813C10.6301 19.8794 9.67367 20.3283 8.52197 20.3282C7.70217 20.3282 7.04824 20.094 6.56995 19.6255C6.09182 19.157 5.84778 18.5324 5.84778 17.7516C5.84778 16.9219 6.14062 16.2485 6.73596 15.741C7.33129 15.2335 8.12186 14.9797 9.12709 14.9797C9.45895 14.9797 9.80061 15.0091 10.1617 15.0579C10.5228 15.1067 10.8937 15.1847 11.2841 15.2725V14.56C11.2841 13.8183 11.1279 13.3009 10.8254 12.9985C10.513 12.6958 9.98605 12.5495 9.2345 12.5495C8.89284 12.5495 8.54155 12.5886 8.18046 12.6764C7.81937 12.7642 7.46793 12.8716 7.12627 13.0083C7.01529 13.0579 6.90122 13.1002 6.78477 13.1351C6.71653 13.1547 6.66757 13.1645 6.62855 13.1645C6.49207 13.1645 6.42353 13.0668 6.42353 12.8618V12.3835C6.42353 12.2275 6.44311 12.1103 6.49192 12.042C6.54073 11.9738 6.62855 11.9054 6.76518 11.837C7.10679 11.6614 7.51673 11.515 7.99502 11.3979C8.47316 11.2709 8.98067 11.2125 9.51755 11.2125C10.679 11.2125 11.528 11.4759 12.0747 12.0029C12.6114 12.53 12.8847 13.3303 12.8847 14.4039V17.5662H12.9043ZM8.9418 19.0497C9.26372 19.0497 9.59559 18.9911 9.94703 18.8739C10.2983 18.7569 10.6106 18.5421 10.8742 18.2494C11.0303 18.0639 11.1475 17.8589 11.2059 17.6247C11.2644 17.3904 11.3036 17.1074 11.3036 16.7756V16.3656C11.0076 16.2936 10.7079 16.2382 10.4057 16.1997C10.1014 16.1613 9.79495 16.1417 9.48818 16.1411C8.83425 16.1411 8.35611 16.2681 8.03404 16.5316C7.71197 16.7951 7.55575 17.166 7.55575 17.654C7.55575 18.1127 7.67295 18.4542 7.91684 18.6885C8.15123 18.9325 8.49289 19.0497 8.9418 19.0497ZM16.7788 20.1038C16.6031 20.1038 16.4859 20.0744 16.4079 20.0061C16.3299 19.9475 16.2615 19.8109 16.203 19.6255L13.9095 12.0811C13.8508 11.8858 13.8215 11.759 13.8215 11.6906C13.8215 11.5345 13.8996 11.4466 14.0558 11.4466H15.0122C15.1976 11.4466 15.3246 11.4759 15.3929 11.5442C15.4709 11.6028 15.5295 11.7394 15.5881 11.9248L17.2277 18.386L18.7504 11.9248C18.7992 11.7296 18.8576 11.6029 18.9358 11.5442C19.0138 11.4857 19.1505 11.4467 19.3261 11.4467H20.1069C20.2923 11.4467 20.4193 11.4759 20.4974 11.5442C20.5754 11.6028 20.6438 11.7394 20.6828 11.9248L22.2249 18.464L23.9133 11.9248C23.9719 11.7296 24.0403 11.6029 24.1085 11.5442C24.1866 11.4857 24.3136 11.4467 24.4892 11.4467H25.3968C25.553 11.4467 25.6409 11.5247 25.6409 11.6906C25.6409 11.7395 25.6311 11.7882 25.6213 11.8468C25.6116 11.9054 25.5921 11.9833 25.553 12.0908L23.2009 19.6353C23.1423 19.8305 23.0739 19.9574 22.9959 20.0159C22.9179 20.0744 22.7909 20.1136 22.625 20.1136H21.7856C21.6002 20.1136 21.4734 20.0842 21.3953 20.0159C21.3171 19.9475 21.2489 19.8207 21.2099 19.6255L19.697 13.3303L18.194 19.6157C18.1452 19.8109 18.0866 19.9378 18.0086 20.0061C17.9304 20.0744 17.7938 20.1038 17.6181 20.1038H16.7788ZM29.3204 20.3672C28.8129 20.3672 28.3054 20.3086 27.8173 20.1916C27.3294 20.0744 26.9487 19.9475 26.6949 19.8011C26.5388 19.7133 26.4314 19.6157 26.3924 19.5279C26.3544 19.4417 26.3345 19.3487 26.3338 19.2546V18.7569C26.3338 18.5519 26.4118 18.4542 26.5583 18.4542C26.6169 18.4542 26.6755 18.464 26.7339 18.4836C26.7925 18.503 26.8803 18.5421 26.978 18.5812C27.3227 18.7328 27.6826 18.8473 28.0516 18.9227C28.4339 19.0004 28.8229 19.0396 29.213 19.0399C29.8279 19.0399 30.3061 18.9325 30.6379 18.7179C30.9698 18.503 31.1454 18.1908 31.1454 17.7907C31.1454 17.5174 31.0576 17.2928 30.882 17.1074C30.7063 16.9219 30.3745 16.7561 29.8962 16.5998L28.4811 16.1607C27.7685 15.9363 27.2414 15.6044 26.9194 15.1653C26.5973 14.7358 26.4314 14.2574 26.4314 13.75C26.4314 13.3402 26.5192 12.979 26.6949 12.6666C26.8705 12.3543 27.1048 12.0811 27.3976 11.8664C27.6905 11.6418 28.0223 11.4759 28.4127 11.3587C28.8031 11.2415 29.213 11.1929 29.6425 11.1929C29.8572 11.1929 30.0816 11.2027 30.2964 11.2319C30.5209 11.2611 30.7258 11.3001 30.9308 11.3393C31.126 11.3881 31.3115 11.4369 31.4871 11.4955C31.6628 11.554 31.7994 11.6125 31.897 11.6712C32.0336 11.7492 32.1312 11.8272 32.1898 11.915C32.2484 11.9932 32.2777 12.1006 32.2777 12.2373V12.696C32.2777 12.9008 32.1996 13.0083 32.0532 13.0083C31.975 13.0083 31.8482 12.9692 31.6823 12.8911C31.126 12.6374 30.5014 12.5105 29.8084 12.5105C29.252 12.5105 28.8129 12.5984 28.5103 12.7838C28.2076 12.9692 28.0516 13.2523 28.0516 13.6524C28.0516 13.9257 28.1492 14.1599 28.3444 14.3453C28.5396 14.5308 28.9007 14.7162 29.418 14.8821L30.8039 15.3212C31.5065 15.5458 32.0142 15.8581 32.3167 16.2583C32.6192 16.6586 32.7656 17.1171 32.7656 17.6247C32.7656 18.0443 32.6778 18.425 32.5119 18.7569C32.3363 19.0887 32.102 19.3814 31.7994 19.6157C31.4969 19.8597 31.1357 20.0354 30.7161 20.1624C30.2768 20.299 29.8181 20.3672 29.3204 20.3672Z" fill="#252F3E"/>
<path fill-rule="evenodd" clip-rule="evenodd" d="M31.1652 25.1102C27.9542 27.4819 23.289 28.7409 19.2775 28.7409C13.6559 28.7409 8.59027 26.6619 4.76443 23.207C4.46179 22.9337 4.7352 22.5628 5.09629 22.7775C9.23456 25.1784 14.339 26.6327 19.6192 26.6327C23.1815 26.6327 27.0954 25.8909 30.6968 24.3684C31.2335 24.1244 31.6922 24.7197 31.1652 25.1102Z" fill="#FF9900"/>
<path fill-rule="evenodd" clip-rule="evenodd" d="M32.5023 23.5878C32.0924 23.0607 29.789 23.334 28.7446 23.4608C28.4324 23.5 28.3836 23.2266 28.6666 23.0217C30.5014 21.7334 33.5173 22.1043 33.8687 22.5336C34.22 22.9729 33.7711 25.9887 32.0533 27.4332C31.7897 27.6577 31.536 27.5405 31.6531 27.2478C32.0435 26.2816 32.9121 24.105 32.5023 23.5878Z" fill="#FF9900"/>
</g>
<defs>
<clipPath id="clip0_1_126">
<rect width="37.978" height="37.978" fill="white" transform="translate(0.332275 0.956055)"/>
</clipPath>
</defs>
</svg>
