<svg width="50" height="51" viewBox="0 0 50 51" fill="none" xmlns="http://www.w3.org/2000/svg">
<path d="M13.5416 37.4033V31.1533M23.9583 37.4033V18.6533M34.375 37.4033V29.07M44.7916 12.4033C44.7916 14.0609 44.1332 15.6506 42.9611 16.8227C41.789 17.9948 40.1992 18.6533 38.5416 18.6533C36.884 18.6533 35.2943 17.9948 34.1222 16.8227C32.9501 15.6506 32.2916 14.0609 32.2916 12.4033C32.2916 10.7457 32.9501 9.15601 34.1222 7.9839C35.2943 6.8118 36.884 6.15332 38.5416 6.15332C40.1992 6.15332 41.789 6.8118 42.9611 7.9839C44.1332 9.15601 44.7916 10.7457 44.7916 12.4033Z" stroke="#FFBC13" stroke-width="3.125" stroke-linecap="round" stroke-linejoin="round"/>
<path d="M44.7833 23.8617C44.7833 23.8617 44.7916 24.57 44.7916 25.945C44.7916 35.2742 44.7916 39.9408 41.8937 42.8387C38.9958 45.7367 34.3312 45.7367 25 45.7367C15.6708 45.7367 11.0041 45.7367 8.10623 42.8387C5.20831 39.9408 5.20831 35.2762 5.20831 25.945C5.20831 16.6158 5.20831 11.9512 8.10623 9.05124C11.0041 6.15332 15.6687 6.15332 25 6.15332H27.0833" stroke="#FFBC13" stroke-width="3.125" stroke-linecap="round" stroke-linejoin="round"/>
</svg>
