<svg width="110" height="39" viewBox="0 0 110 39" fill="none" xmlns="http://www.w3.org/2000/svg">
<path d="M75.8349 12.2946C77.7437 12.2946 79.508 12.4968 81.6481 12.9305L80.123 16.1431C78.9373 15.9117 80.0281 16.1121 79.1321 16.0254V16.4883L79.1897 18.3677L79.2183 20.7971C79.2473 21.4042 79.2473 22.0116 79.2764 22.6189V23.8336C79.2764 27.6511 78.9583 29.444 78.004 30.9188C76.6159 33.088 74.2154 34.1579 70.803 34.1579C69.0677 34.1579 67.5642 33.8977 66.0022 33.2903V29.1838H66.0026C67.5645 29.9934 69.1259 30.3692 70.7742 30.3692C73.695 30.3692 74.9386 29.1838 74.9386 26.3494V26.2627C74.0711 26.6963 73.2033 26.87 72.0468 26.87C68.1427 26.87 65.6552 24.2962 65.6552 20.2186C65.6552 15.1573 69.3283 12.2945 75.8348 12.2945M35.4376 12.5836V22.9078C35.4376 26.465 35.1773 28.1711 34.3966 29.6462C33.6734 31.0633 32.7189 31.9596 30.7527 32.9431L26.617 30.9765C28.5836 30.0511 29.5378 29.2417 30.1451 27.9975C30.7814 26.7251 30.9841 25.2502 30.9841 21.3751V12.5838L35.4376 12.5836ZM88.5619 12.2076C93.0155 12.2076 95.734 15.013 95.734 19.5533C95.734 24.2096 92.9001 27.1304 88.3884 27.1304C83.9345 27.1304 81.1871 24.3251 81.1871 19.8138C81.1875 15.1284 84.0217 12.2076 88.5619 12.2076ZM44.0274 12.2658C46.3121 12.2658 47.8158 12.8729 48.481 14.0587C48.8568 14.7239 48.9725 15.5914 48.9725 17.4425V26.494C46.9768 26.7832 44.461 26.9858 42.6103 26.9858C38.8798 26.9858 37.202 25.6839 37.202 22.7923C37.202 19.6688 39.4288 18.2229 44.8949 17.7601V16.7768C44.8949 15.9672 44.4901 15.6782 43.3621 15.6782C41.7138 15.6782 39.8629 16.1407 38.1276 17.0375V13.5959C40.0945 12.6708 41.974 12.2658 44.0274 12.2658ZM28.3525 5.70605V26.3208C26.068 26.7545 24.3904 26.9281 22.5688 26.9281C17.1316 26.9281 14.2975 24.4699 14.2975 19.7559C14.2975 15.2155 17.3053 12.266 21.9613 12.266C22.6842 12.266 23.2338 12.3236 23.8989 12.4971V5.70605H28.3525ZM58.1401 12.2658C60.4248 12.2658 62.0733 12.7863 63.0569 13.7985C63.9822 14.7527 64.2712 15.7937 64.2712 18.0208V26.7544H59.8175V18.1943C59.8175 16.4881 59.2392 15.8516 57.6486 15.8516C57.0414 15.8516 56.492 15.9095 55.5952 16.1697V26.7544H51.1417V13.2777C53.7733 12.5838 55.9421 12.2658 58.1401 12.2658ZM45.0974 20.6813C42.1474 20.9705 41.1931 21.4333 41.1931 22.59C41.1931 23.4575 41.7428 23.8624 42.9573 23.8624C43.6225 23.8624 44.2298 23.8047 45.0974 23.6601V20.6813ZM88.5043 15.7938C86.7399 15.7938 85.7274 17.211 85.7274 19.6689C85.7277 22.1273 86.7399 23.5443 88.4747 23.5443C90.1814 23.5443 91.1936 22.1271 91.1936 19.6689C91.1936 17.2398 90.2102 15.7938 88.5043 15.7938ZM22.3952 15.8516C20.1395 15.8516 18.8379 17.2398 18.8379 19.6689C18.8379 22.0404 20.0818 23.3418 22.3663 23.3418C22.8578 23.3418 23.2627 23.3129 23.8989 23.2264V16.0828C23.3784 15.9095 22.9446 15.8516 22.3952 15.8516ZM71.8154 16.5164C70.7458 17.124 70.1959 18.2231 70.1959 19.7845C70.1959 22.0116 71.2951 23.2839 73.2616 23.2839C73.8688 23.2839 74.3606 23.1681 74.9388 22.9948V21.4623C74.9388 20.9417 74.9102 20.363 74.9102 19.7559L74.8814 17.7027L74.8523 16.2277V15.8805H74.3894C73.5221 15.8516 72.5099 16.0828 71.8156 16.5166M35.4376 5.72991V10.2993H30.9841V5.72975L35.4376 5.72991Z" fill="#092E20"/>
</svg>
