<svg width="39" height="39" viewBox="0 0 39 39" fill="none" xmlns="http://www.w3.org/2000/svg">
<g clip-path="url(#clip0_1_59)">
<path d="M29.6772 0.483398H9.50132C4.58538 0.483398 0.60022 4.46856 0.60022 9.3845V29.5603C0.60022 34.4763 4.58538 38.4614 9.50132 38.4614H29.6772C34.5931 38.4614 38.5783 34.4763 38.5783 29.5603V9.3845C38.5783 4.46856 34.5931 0.483398 29.6772 0.483398Z" fill="#242938"/>
<path d="M34.4243 27.6231C33.9924 27.7867 33.5156 27.7864 33.0839 27.6223C32.6522 27.4581 32.2957 27.1415 32.0817 26.7323C30.7371 24.7196 29.2524 22.7977 27.8254 20.8345L27.2067 20.0097C25.5074 22.2863 23.8082 24.4721 22.2575 26.7406C22.0555 27.1317 21.7183 27.436 21.3085 27.5969C20.8988 27.7577 20.4446 27.7642 20.0305 27.6149L26.4066 19.0611L20.4758 11.332C20.9027 11.1779 21.3698 11.1758 21.7981 11.326C22.2264 11.4763 22.5897 11.7698 22.8267 12.1569C24.2042 14.1697 25.7303 16.0916 27.2479 18.129C28.774 16.108 30.2835 14.1778 31.694 12.1816C31.8971 11.7968 32.2345 11.5001 32.6422 11.348C33.0498 11.1959 33.4991 11.1991 33.9046 11.3568L31.6032 14.4088C30.5722 15.7698 29.5576 17.1391 28.4853 18.4671C28.3989 18.5445 28.3298 18.6392 28.2824 18.7451C28.2351 18.851 28.2106 18.9657 28.2106 19.0817C28.2106 19.1977 28.2351 19.3124 28.2824 19.4183C28.3298 19.5241 28.3989 19.6189 28.4853 19.6962C30.4568 22.3111 32.4116 24.9341 34.4243 27.6231ZM4.75394 18.9539C4.92721 18.129 5.03432 17.2299 5.27361 16.3886C6.70061 11.3157 12.5158 9.20391 16.5164 12.3467C18.8591 14.1863 19.4448 16.7928 19.3293 19.7293H6.13153C5.91701 24.9755 9.7031 28.1429 14.545 26.5262C15.3305 26.2453 16.0336 25.7731 16.5909 25.1524C17.1482 24.5317 17.5422 23.782 17.7372 22.9709C17.993 22.1461 18.4054 22.0059 19.189 22.2451C19.0599 23.2492 18.7049 24.2111 18.1506 25.0583C17.5962 25.9055 16.8571 26.6161 15.9886 27.1365C14.5537 27.9213 12.9074 28.2323 11.2851 28.0249C9.6628 27.8174 8.14765 27.1023 6.95637 25.9817C5.77779 24.6565 5.06515 22.9821 4.92721 21.214C4.92721 20.9336 4.81995 20.6531 4.76224 20.3892C4.75679 19.9108 4.75402 19.4323 4.75394 18.9539ZM6.148 18.5992H18.0838C18.0095 14.7966 15.6091 12.0993 12.4087 12.0747C8.84533 12.0251 6.2965 14.6646 6.13969 18.5827L6.148 18.5992Z" fill="white"/>
</g>
<defs>
<clipPath id="clip0_1_59">
<rect width="37.978" height="37.978" fill="white" transform="translate(0.60022 0.483398)"/>
</clipPath>
</defs>
</svg>
