<svg width="33" height="33" viewBox="0 0 33 33" fill="none" xmlns="http://www.w3.org/2000/svg">
<g clip-path="url(#clip0_1_139)">
<path d="M11.9344 33.1953C14.9094 33.1953 17.3094 30.7953 17.3094 27.8203V22.4453H11.9344C8.95939 22.4453 6.55939 24.8453 6.55939 27.8203C6.55939 30.7953 8.95939 33.1953 11.9344 33.1953Z" fill="#0ACF83"/>
<path d="M6.55939 17.0703C6.55939 14.0953 8.95939 11.6953 11.9344 11.6953H17.3094V22.4453H11.9344C8.95939 22.4453 6.55939 20.0453 6.55939 17.0703Z" fill="#A259FF"/>
<path d="M6.55939 6.32031C6.55939 3.34531 8.95939 0.945312 11.9344 0.945312H17.3094V11.6953H11.9344C8.95939 11.6953 6.55939 9.29531 6.55939 6.32031Z" fill="#F24E1E"/>
<path d="M17.3094 0.945312H22.6844C25.6594 0.945312 28.0594 3.34531 28.0594 6.32031C28.0594 9.29531 25.6594 11.6953 22.6844 11.6953H17.3094V0.945312Z" fill="#FF7262"/>
<path d="M28.0594 17.0703C28.0594 20.0453 25.6594 22.4453 22.6844 22.4453C19.7094 22.4453 17.3094 20.0453 17.3094 17.0703C17.3094 14.0953 19.7094 11.6953 22.6844 11.6953C25.6594 11.6953 28.0594 14.0953 28.0594 17.0703Z" fill="#1ABCFE"/>
</g>
<defs>
<clipPath id="clip0_1_139">
<rect width="32" height="32" fill="white" transform="translate(0.559387 0.945312)"/>
</clipPath>
</defs>
</svg>
