<svg width="32" height="33" viewBox="0 0 32 33" fill="none" xmlns="http://www.w3.org/2000/svg">
<path d="M22.406 11.0597C23.2013 11.0597 23.846 10.415 23.846 9.61969C23.846 8.8244 23.2013 8.17969 22.406 8.17969C21.6107 8.17969 20.966 8.8244 20.966 9.61969C20.966 10.415 21.6107 11.0597 22.406 11.0597Z" fill="black"/>
<path d="M16 9.86353C14.7813 9.86353 13.5899 10.2249 12.5766 10.902C11.5632 11.5791 10.7734 12.5415 10.307 13.6674C9.84065 14.7934 9.71862 16.0324 9.95639 17.2277C10.1941 18.423 10.781 19.5209 11.6428 20.3827C12.5046 21.2445 13.6025 21.8314 14.7978 22.0691C15.9932 22.3069 17.2321 22.1849 18.3581 21.7185C19.484 21.2521 20.4464 20.4623 21.1235 19.4489C21.8006 18.4356 22.162 17.2443 22.162 16.0255C22.162 14.3913 21.5128 12.8239 20.3572 11.6683C19.2016 10.5127 17.6343 9.86353 16 9.86353ZM16 20.0255C15.2089 20.0255 14.4355 19.7909 13.7777 19.3514C13.1199 18.9119 12.6072 18.2872 12.3045 17.5563C12.0017 16.8254 11.9225 16.0211 12.0768 15.2452C12.2312 14.4692 12.6121 13.7565 13.1716 13.1971C13.731 12.6377 14.4437 12.2567 15.2196 12.1024C15.9955 11.948 16.7998 12.0273 17.5307 12.33C18.2616 12.6328 18.8863 13.1454 19.3259 13.8032C19.7654 14.461 20 15.2344 20 16.0255C20 17.0864 19.5786 18.1038 18.8284 18.854C18.0783 19.6041 17.0609 20.0255 16 20.0255Z" fill="black"/>
<path d="M16 6.18751C19.204 6.18751 19.584 6.19951 20.849 6.25751C21.6099 6.26655 22.3635 6.40624 23.077 6.67051C23.5947 6.8702 24.0648 7.17606 24.4572 7.56839C24.8495 7.96073 25.1553 8.43085 25.355 8.94851C25.6193 9.66204 25.759 10.4157 25.768 11.1765C25.826 12.4415 25.838 12.8215 25.838 16.0265C25.838 19.2315 25.826 19.6095 25.768 20.8745C25.759 21.6354 25.6193 22.389 25.355 23.1025C25.1553 23.6202 24.8495 24.0903 24.4572 24.4826C24.0648 24.875 23.5947 25.1808 23.077 25.3805C22.3635 25.6448 21.6099 25.7845 20.849 25.7935C19.584 25.8515 19.204 25.8635 16 25.8635C12.796 25.8635 12.416 25.8515 11.151 25.7935C10.3902 25.7845 9.63656 25.6448 8.92303 25.3805C8.40537 25.1808 7.93524 24.875 7.54291 24.4826C7.15058 24.0903 6.84472 23.6202 6.64503 23.1025C6.38076 22.389 6.24106 21.6354 6.23203 20.8745C6.17403 19.6095 6.16203 19.2295 6.16203 16.0255C6.16203 12.8215 6.17403 12.4415 6.23203 11.1765C6.24106 10.4157 6.38076 9.66204 6.64503 8.94851C6.84472 8.43085 7.15058 7.96073 7.54291 7.56839C7.93524 7.17606 8.40537 6.8702 8.92303 6.67051C9.63656 6.40624 10.3902 6.26655 11.151 6.25751C12.416 6.19951 12.796 6.18751 16 6.18751ZM16 4.02551C12.741 4.02551 12.332 4.03951 11.052 4.09751C10.0568 4.11761 9.07219 4.30628 8.14003 4.65551C7.34275 4.96381 6.61869 5.43529 6.01425 6.03973C5.40981 6.64417 4.93833 7.36824 4.63003 8.16551C4.28069 9.09799 4.09201 10.083 4.07203 11.0785C4.01403 12.3585 4.00003 12.7655 4.00003 16.0255C4.00003 19.2855 4.01403 19.6935 4.07203 20.9735C4.09213 21.9687 4.2808 22.9534 4.63003 23.8855C4.93833 24.6828 5.40981 25.4069 6.01425 26.0113C6.61869 26.6157 7.34275 27.0872 8.14003 27.3955C9.0725 27.7449 10.0575 27.9335 11.053 27.9535C12.333 28.0115 12.741 28.0255 16 28.0255C19.259 28.0255 19.668 28.0115 20.948 27.9535C21.9436 27.9335 22.9286 27.7449 23.861 27.3955C24.6583 27.0872 25.3824 26.6157 25.9868 26.0113C26.5913 25.4069 27.0627 24.6828 27.371 23.8855C27.72 22.953 27.9084 21.968 27.928 20.9725C27.986 19.6925 28 19.2855 28 16.0255C28 12.7655 27.986 12.3575 27.928 11.0775C27.9079 10.0823 27.7193 9.09767 27.37 8.16551C27.0617 7.36824 26.5903 6.64417 25.9858 6.03973C25.3814 5.43529 24.6573 4.96381 23.86 4.65551C22.9275 4.30651 21.9425 4.11818 20.947 4.09851C19.667 4.03851 19.26 4.02551 16 4.02551Z" fill="black"/>
</svg>
