<svg width="32" height="33" viewBox="0 0 32 33" fill="none" xmlns="http://www.w3.org/2000/svg">
<path d="M6.88 9.80529C8.48 9.80529 9.76 8.50529 9.76 6.92529C9.76 5.34529 8.46 4.04529 6.88 4.04529C5.3 4.04529 4 5.34529 4 6.92529C4 8.50529 5.3 9.80529 6.88 9.80529ZM12.5 11.9853V28.0253H17.46V20.1053C17.46 18.0053 17.86 15.9853 20.44 15.9853C23.02 15.9853 23.02 18.3853 23.02 20.2253V28.0253H28V19.2253C28 14.9053 27.08 11.5853 22.04 11.5853C19.62 11.5853 18 12.9053 17.34 14.1653H17.28V11.9653H12.52L12.5 11.9853ZM4.4 11.9853H9.38V28.0253H4.4V11.9853Z" fill="black"/>
</svg>
