<svg width="39" height="39" viewBox="0 0 39 39" fill="none" xmlns="http://www.w3.org/2000/svg">
<g clip-path="url(#clip0_1_80)">
<path d="M16.5459 20.6055C16.5459 20.6055 15.5716 21.1725 17.2405 21.3641C19.2623 21.595 20.2957 21.5617 22.5233 21.1407C22.5233 21.1407 23.1105 21.5077 23.9282 21.8258C18.9329 23.9659 12.6226 21.7018 16.5459 20.6055ZM15.935 17.812C15.935 17.812 14.842 18.6217 16.5121 18.7944C18.6721 19.0172 20.3773 19.0356 23.3301 18.4671C23.3301 18.4671 23.7374 18.8813 24.3792 19.1071C18.3407 20.8737 11.6147 19.2463 15.935 17.812Z" fill="#0074BD"/>
<path d="M21.0808 13.0729C22.3124 14.4906 20.758 15.7652 20.758 15.7652C20.758 15.7652 23.8832 14.152 22.448 12.1312C21.1072 10.2474 20.0797 9.31191 25.6438 6.08496C25.6438 6.08496 16.9095 8.26573 21.0808 13.0729Z" fill="#EA2D2E"/>
<path d="M27.6875 22.671C27.6875 22.671 28.4091 23.2659 26.8929 23.7258C24.0102 24.599 14.8931 24.8625 12.3607 23.7605C11.451 23.3644 13.1579 22.8149 13.6947 22.6995C14.2546 22.5782 14.5744 22.6004 14.5744 22.6004C13.562 21.8874 8.03061 24.0006 11.7649 24.6067C21.949 26.2573 30.3288 23.8632 27.6875 22.671ZM17.0151 14.917C17.0151 14.917 12.3779 16.0186 15.3731 16.4192C16.6383 16.5883 19.1585 16.5495 21.5078 16.3524C23.4271 16.1913 25.3533 15.8469 25.3533 15.8469C25.3533 15.8469 24.6771 16.137 24.1873 16.4711C19.4774 17.7099 10.3808 17.1328 12.9998 15.8664C15.2141 14.795 17.0151 14.917 17.0151 14.917ZM25.334 19.5663C30.1214 17.0794 27.9077 14.6891 26.3627 15.011C25.985 15.09 25.8153 15.1582 25.8153 15.1582C25.8153 15.1582 25.9562 14.9375 26.2242 14.8428C29.2808 13.7687 31.631 18.0119 25.2385 19.6924C25.2385 19.6924 25.3118 19.626 25.334 19.5663Z" fill="#0074BD"/>
<path d="M22.4483 0.873047C22.4483 0.873047 25.0993 3.52528 19.9334 7.60287C15.7908 10.8746 18.9887 12.7397 19.9316 14.8715C17.5135 12.6896 15.7398 10.7687 16.9296 8.98136C18.6769 6.35791 23.5176 5.08534 22.4483 0.873047Z" fill="#EA2D2E"/>
<path d="M17.4859 26.3081C22.0801 26.6019 29.1371 26.1446 29.3042 23.9707C29.3042 23.9707 28.9832 24.7946 25.5067 25.4486C21.5849 26.1868 16.7471 26.101 13.8786 25.6275C13.8786 25.6275 14.4661 26.1141 17.4859 26.3081Z" fill="#0074BD"/>
<path d="M29.0921 30.2079H28.952V30.1296H29.3288V30.2079H29.1894V30.5986H29.0918L29.0921 30.2079ZM29.8442 30.2275H29.8424L29.7036 30.5986H29.6395L29.5015 30.2275H29.5V30.5986H29.4075V30.1296H29.5431L29.6709 30.4616L29.7991 30.1296H29.9338V30.5986H29.8442V30.2275ZM16.7329 34.6157C16.2997 34.9913 15.8416 35.2026 15.4301 35.2026C14.8444 35.2026 14.5266 34.8507 14.5266 34.2873C14.5266 33.6775 14.8666 33.231 16.2291 33.231H16.7326L16.7329 34.6157ZM17.9289 35.9651V31.7884C17.9289 30.7206 17.3198 30.0162 15.8529 30.0162C14.9966 30.0162 14.2459 30.2281 13.6356 30.4975L13.8113 31.2372C14.2919 31.0606 14.9135 30.8968 15.5235 30.8968C16.3691 30.8968 16.7326 31.2372 16.7326 31.9415V32.4694H16.3101C14.2566 32.4694 13.33 33.266 13.33 34.4641C13.33 35.4963 13.9406 36.0829 15.0904 36.0829C15.8291 36.0829 16.3813 35.7779 16.8967 35.3314L16.9904 35.9654L17.9289 35.9651ZM21.9202 35.9651H20.4286L18.6333 30.1233H19.9361L21.0505 33.7131L21.2983 34.7917C21.8608 33.2316 22.2596 31.6478 22.459 30.1236H23.7262C23.3871 32.0466 22.7759 34.1582 21.9202 35.9651ZM27.643 34.6157C27.2083 34.9913 26.7499 35.2026 26.3399 35.2026C25.7536 35.2026 25.4361 34.8507 25.4361 34.2873C25.4361 33.6775 25.777 33.231 27.138 33.231H27.6427L27.643 34.6157ZM28.8396 35.9651V31.7884C28.8396 30.7206 28.2287 30.0162 26.763 30.0162C25.9058 30.0162 25.1554 30.2281 24.5451 30.4975L24.721 31.2372C25.2017 31.0606 25.8242 30.8968 26.4342 30.8968C27.2786 30.8968 27.643 31.2372 27.643 31.9415V32.4694H27.2205C25.1664 32.4694 24.2401 33.266 24.2401 34.4641C24.2401 35.4963 24.8501 36.0829 25.9995 36.0829C26.7386 36.0829 27.2899 35.7779 27.8068 35.3314L27.9011 35.9654L28.8396 35.9651ZM12.0186 36.9579C11.6783 37.4561 11.127 37.8504 10.5241 38.0726L9.93394 37.3768C10.3929 37.1413 10.7861 36.7612 10.9691 36.4069C11.127 36.0915 11.1926 35.6859 11.1926 34.7154V28.0449H12.4636V34.6237C12.4636 35.9218 12.3604 36.4467 12.0186 36.9579Z" fill="#EA2D2E"/>
</g>
<defs>
<clipPath id="clip0_1_80">
<rect width="37.978" height="37.978" fill="white" transform="translate(0.944946 0.483398)"/>
</clipPath>
</defs>
</svg>
