<svg width="93" height="21" viewBox="0 0 93 21" fill="none" xmlns="http://www.w3.org/2000/svg">
<g clip-path="url(#clip0_1_94)">
<path d="M19.5157 20.0687H0.608566V1.16895H19.5157L10.0622 10.6152L19.5157 20.0687Z" fill="url(#paint0_linear_1_94)"/>
<path d="M49.0306 5.90921C50.3356 5.90921 51.5803 6.26489 52.6471 6.85878C53.714 7.44888 54.5461 8.33782 55.1324 9.40847C55.7265 10.5358 56.082 11.7804 56.082 13.1423C56.082 14.5043 55.7869 15.7487 55.1931 16.876C54.5992 17.9429 53.7707 18.8318 52.7038 19.4257C51.6369 20.0802 50.3925 20.3753 49.0306 20.3753C47.6686 20.3753 46.4242 20.0196 45.3573 19.4257C44.23 18.8318 43.4017 17.9429 42.8076 16.876C42.2137 15.8092 41.9187 14.5041 41.9187 13.1423C41.9187 11.7806 42.2137 10.5358 42.8075 9.40847C43.4015 8.3416 44.2905 7.51329 45.3573 6.85878C46.4242 6.20426 47.6686 5.90921 49.0306 5.90921ZM42.3953 1.10865L33.8004 10.2936L42.5126 20.0689H38.6614L30.4222 10.9406V20.0689H27.3997V1.16928H30.4222V9.88128L38.601 1.10883L42.3953 1.10865ZM48.9777 8.62532C48.1492 8.62532 47.438 8.80325 46.8439 9.21939C46.2502 9.57489 45.7772 10.1083 45.4216 10.8195C45.0661 11.474 44.8883 12.3025 44.8883 13.1915C44.8883 14.0804 45.0054 14.852 45.3611 15.5634C45.7168 16.214 46.1896 16.7474 46.7835 17.1635C47.4342 17.5797 48.149 17.7574 48.9172 17.7574C49.6851 17.7574 50.3961 17.5797 50.9902 17.1637C51.584 16.808 52.057 16.2746 52.4125 15.5634C52.7682 14.8522 52.946 14.0804 52.946 13.1915C52.946 12.3025 52.8287 11.5309 52.4732 10.8195C52.1175 10.1688 51.6447 9.63552 51.0506 9.21939C50.4605 8.80325 49.7493 8.62532 48.9777 8.62532ZM62.1916 2.76922H59.2862V5.14135C59.2862 5.49685 59.2257 5.79191 58.9911 5.96984C58.8134 6.14759 58.5183 6.26489 58.1627 6.26489H56.7403V8.75396H59.2295V16.2215C59.2295 16.9933 59.4073 17.7045 59.7023 18.2946C59.9956 18.885 60.4739 19.3632 61.0643 19.6565C61.658 20.0121 62.3087 20.1294 63.1372 20.1294H65.3881V17.5232H63.7275C63.3113 17.5232 62.9557 17.4059 62.6606 17.0502C62.3917 16.7141 62.2449 16.2966 62.2445 15.8662V8.75432H65.4449V6.26471H62.2443V2.76904L62.1916 2.76922ZM67.7033 0.397461H70.6654V20.0689H67.7033V0.397461ZM74.0434 0.457911H77.0661V3.54104H74.0436L74.0434 0.457911ZM74.0434 6.26489H77.0056V20.1256H74.0436L74.0434 6.26489ZM92.1223 8.51558C91.7061 7.68727 91.116 7.03275 90.3444 6.6204C89.5726 6.14759 88.6836 5.90921 87.6774 5.90921C86.6105 5.90921 85.6609 6.20426 84.8326 6.68102C84.1819 7.09716 83.6485 7.68727 83.2323 8.3416V6.20804H80.3876V20.0689H83.3496V12.3025C83.3496 11.5307 83.4669 10.88 83.7658 10.2861C84.0608 9.69219 84.4769 9.27984 84.9498 8.92415C85.4832 8.6291 86.0771 8.45135 86.7884 8.45135C87.439 8.45135 87.9156 8.56865 88.3886 8.86748C88.8614 9.16631 89.1604 9.51822 89.3948 9.9948C89.6332 10.4678 89.7503 11.0617 89.7503 11.7122V20.0083H92.7124V11.3567C92.7768 10.2936 92.5422 9.34784 92.1223 8.51558Z" fill="black"/>
</g>
<defs>
<linearGradient id="paint0_linear_1_94" x1="1891.16" y1="1.71695" x2="1.53547" y2="1891.32" gradientUnits="userSpaceOnUse">
<stop offset="0.00344" stop-color="#E44857"/>
<stop offset="0.4689" stop-color="#C711E1"/>
<stop offset="1" stop-color="#7F52FF"/>
</linearGradient>
<clipPath id="clip0_1_94">
<rect width="92.1191" height="20.15" fill="white" transform="translate(0.606079 0.397461)"/>
</clipPath>
</defs>
</svg>
