<svg width="53" height="30" viewBox="0 0 53 30" fill="none" xmlns="http://www.w3.org/2000/svg">
<path d="M40.5814 24.8742C47.0123 18.4474 48.0821 9.09107 42.9678 3.98088C37.8535 -1.12931 28.4971 -0.0595434 22.0662 6.36728C15.6353 12.7941 17.495 25.08 19.6798 27.2606C21.4449 29.0258 34.1504 31.3011 40.5814 24.8742Z" fill="#F89939"/>
<path d="M14.1912 15.588C10.4593 11.8603 5.02822 11.239 2.06168 14.2014C-0.904855 17.1679 -0.283568 22.595 3.44826 26.3227C7.1801 30.0545 14.3105 28.9724 15.5777 27.7093C16.6023 26.6848 17.9271 19.3157 14.1912 15.588Z" fill="#3499CD"/>
<path d="M51.1311 23.8651C50.8924 23.8651 50.7731 23.7211 50.7731 23.429C50.7731 23.2109 50.9171 22.7337 51.201 22.0054C51.6166 20.9397 51.8264 20.1744 51.8264 19.7095C51.8264 19.4297 51.7441 19.1952 51.5795 19.01C51.415 18.8249 51.2092 18.7303 50.9624 18.7303C50.6003 18.7303 50.1847 18.899 49.7157 19.2405C49.2466 19.582 48.6171 20.195 47.823 21.0837C47.9382 20.5077 48.1851 19.7177 48.5554 18.7138L46.782 19.0553C46.3788 19.9276 46.0867 20.7134 45.9057 21.4129C45.8151 21.7544 45.7493 22.1082 45.7041 22.4662C45.1486 23.0052 44.7865 23.3303 44.6302 23.4496C44.4697 23.5689 44.301 23.6265 44.1282 23.6265C43.9677 23.6265 43.8402 23.5648 43.7456 23.4455C43.6509 23.3261 43.6057 23.1616 43.6057 22.96C43.6057 22.7419 43.6468 22.4909 43.7291 22.207C43.8525 21.7811 43.9924 21.3882 44.2763 20.6023L44.9511 18.7426L44.2887 18.7714C43.688 19.9152 42.9844 20.5324 42.1779 20.6188C42.396 20.051 42.5071 19.6149 42.5071 19.3104C42.5071 18.9236 42.3178 18.7303 41.9393 18.7303C41.4908 18.7303 41.1411 18.9401 40.8901 19.3639C40.635 19.7877 40.5075 20.1868 40.5075 20.5612C40.5075 21.1228 40.7173 21.1989 41.1329 21.3841C40.8613 21.7832 40.5568 22.1576 40.2277 22.5115C39.8368 22.8982 39.5323 23.1945 39.3102 23.3879C39.0839 23.5895 38.874 23.6882 38.6848 23.6882C38.3885 23.6882 38.2404 23.4784 38.2404 23.0628C38.2404 22.6472 38.405 21.9313 38.7341 20.8616L39.376 18.7303H38.9687L37.4833 19.5532C37.2406 18.9977 36.8168 18.7179 36.2119 18.7179C35.7306 18.7179 35.1792 18.9236 34.5538 19.331C33.9284 19.7383 33.4141 20.2691 33.015 20.9315C32.7064 21.4417 32.5171 21.9766 32.4472 22.5279C31.8876 23.0875 31.468 23.4496 31.1882 23.6183C30.896 23.7911 30.5916 23.8775 30.2706 23.8775C29.4519 23.8775 28.9458 23.4043 28.7524 22.458C30.8878 21.8326 31.9535 21.0179 31.9535 20.014C31.9535 19.6354 31.8177 19.331 31.5461 19.0964C31.2746 18.8619 30.9125 18.7467 30.464 18.7467C29.5959 18.7467 28.8059 19.1623 28.0941 19.9934C27.4481 20.7464 27.0984 21.5816 27.0367 22.4991C26.4483 23.0793 26.0039 23.4619 25.7159 23.6471C25.4197 23.8363 25.1399 23.931 24.8807 23.931C24.6215 23.931 24.4157 23.8075 24.2635 23.5607C24.1072 23.3138 24.029 22.9805 24.029 22.5567C24.029 22.3675 24.0495 22.0218 24.0866 21.5158C25.0576 20.4625 25.7694 19.475 26.2261 18.5492C26.6828 17.6235 26.9091 16.6648 26.9091 15.6773C26.9091 15.3276 26.8639 15.0519 26.7733 14.8462C26.6828 14.6405 26.5676 14.5376 26.4277 14.5376C26.3989 14.5376 26.3537 14.5458 26.2961 14.5664L24.4487 15.2494C23.8191 16.4508 23.2801 17.7634 22.8399 19.1911C22.3996 20.6147 22.1775 21.8367 22.1775 22.853C22.1775 23.5319 22.3338 24.0709 22.6547 24.4741C22.9716 24.8773 23.3912 25.0789 23.9097 25.0789C24.3622 25.0789 24.8354 24.9349 25.3333 24.6469C25.8311 24.3589 26.4071 23.9104 27.0696 23.3056C27.732 22.7007 27.0696 23.2973 27.0696 23.2973C27.1477 23.754 27.337 24.1367 27.6333 24.4494C28.0406 24.8691 28.5714 25.083 29.2297 25.083C29.8222 25.083 30.3612 24.939 30.8508 24.651C31.3239 24.3753 31.8547 23.9433 32.4472 23.3714C32.4966 23.7993 32.6365 24.1696 32.871 24.4864C33.1713 24.8855 33.5334 25.0871 33.9572 25.0871C34.381 25.0871 34.8171 24.9226 35.2286 24.5934C35.64 24.2642 36.0844 23.7499 36.5699 23.0587C36.5246 24.4124 36.8867 25.0871 37.652 25.0871C37.9565 25.0871 38.2774 24.976 38.6107 24.7539C38.944 24.5317 39.4994 24.0503 40.2771 23.3138C40.9518 22.6472 41.4456 22.0218 41.7624 21.4376C42.1903 21.3635 42.5812 21.236 42.9391 21.0508C42.2067 22.1988 41.8406 23.1163 41.8406 23.7993C41.8406 24.1696 41.9434 24.4782 42.145 24.7251C42.3466 24.9719 42.5976 25.0995 42.8939 25.0995C43.5398 25.0995 44.4574 24.5193 45.6423 23.3714C45.6423 23.4619 45.6341 23.5483 45.6341 23.6388C45.6341 23.9598 45.6629 24.4453 45.7123 25.0995L47.321 24.7209C47.321 24.2848 47.3293 23.9392 47.3416 23.68C47.3663 23.3344 47.4157 22.9558 47.4856 22.5444C47.5309 22.3016 47.642 22.0712 47.8189 21.8532L48.2262 21.38C48.3744 21.2072 48.5184 21.0508 48.6459 20.9151C48.7981 20.7546 48.9339 20.6188 49.0532 20.5077C49.189 20.3884 49.3083 20.2896 49.4112 20.2238C49.5223 20.158 49.6128 20.121 49.6786 20.121C49.798 20.121 49.8597 20.1991 49.8597 20.3555C49.8597 20.5118 49.7445 20.8739 49.5182 21.4458C49.0903 22.5115 48.8763 23.3056 48.8763 23.824C48.8763 24.2066 48.9751 24.5111 49.1767 24.7415C49.3742 24.9678 49.6375 25.083 49.9625 25.083C50.7607 25.083 51.7235 24.4905 52.8427 23.3097V22.4744C52.0486 23.4084 51.4767 23.8775 51.1228 23.8775L51.1311 23.8651ZM24.28 20.4542C24.6091 18.8455 24.9465 17.5988 25.288 16.7059C25.6295 15.8131 25.8928 15.3646 26.0698 15.3646C26.152 15.3646 26.222 15.4181 26.2755 15.5292C26.329 15.6362 26.3537 15.7843 26.3537 15.9612C26.3537 16.5743 26.1644 17.3025 25.7776 18.1542C25.395 19.0018 24.893 19.7712 24.28 20.4542ZM29.1309 20.051C29.4231 19.5614 29.7275 19.3186 30.0485 19.3186C30.3858 19.3186 30.5587 19.5532 30.5587 20.0181C30.5587 20.9603 29.9374 21.6022 28.6948 21.9519C28.6948 21.1701 28.8388 20.5365 29.1309 20.051ZM36.323 22.458C35.8951 23.285 35.4343 23.6964 34.9529 23.6964C34.7554 23.6964 34.5908 23.6142 34.4633 23.4537C34.3357 23.2932 34.2699 23.0793 34.2699 22.8159C34.2699 22.1247 34.488 21.3635 34.92 20.5406C35.352 19.7177 35.8128 19.3063 36.2984 19.3063C36.5 19.3063 36.6645 19.3803 36.7839 19.5367C36.9032 19.6889 36.9649 19.9029 36.9649 20.1744C36.9649 20.8739 36.7509 21.6351 36.323 22.4621V22.458Z" fill="#010101"/>
<path d="M31.2333 15.3077C31.295 15.3941 31.3238 15.5052 31.3238 15.6369C31.3238 15.7685 31.2868 15.8879 31.2127 15.9989C31.1387 16.11 31.0317 16.2006 30.8877 16.2623C30.7478 16.324 30.5873 16.3569 30.4104 16.3569C30.1142 16.3569 29.892 16.2952 29.7356 16.1718C29.5793 16.0483 29.4805 15.8673 29.4394 15.6245L29.822 15.5628C29.8426 15.715 29.9043 15.8344 29.999 15.9125C30.0977 15.9948 30.2335 16.036 30.4104 16.036C30.5873 16.036 30.719 15.9989 30.8054 15.929C30.8918 15.8591 30.933 15.7726 30.933 15.6739C30.933 15.5875 30.8959 15.5175 30.8177 15.4682C30.7643 15.4353 30.6326 15.39 30.4228 15.3365C30.1389 15.2666 29.9455 15.2048 29.8344 15.1514C29.7233 15.0979 29.641 15.0279 29.5875 14.9333C29.534 14.8387 29.5011 14.7399 29.5011 14.6288C29.5011 14.526 29.5258 14.4354 29.5711 14.349C29.6163 14.2626 29.6821 14.1927 29.7603 14.1351C29.822 14.0898 29.9002 14.0528 30.0031 14.024C30.1059 13.9952 30.217 13.9787 30.3363 13.9787C30.5133 13.9787 30.6696 14.0034 30.8054 14.0569C30.9412 14.1063 31.0399 14.1762 31.1058 14.2667C31.1716 14.3531 31.2127 14.4725 31.2374 14.6206L30.8589 14.67C30.8424 14.5548 30.7931 14.4601 30.7108 14.3943C30.6285 14.3285 30.5133 14.2955 30.361 14.2955C30.1841 14.2955 30.0566 14.3243 29.9825 14.382C29.9084 14.4396 29.8673 14.5095 29.8673 14.5877C29.8673 14.637 29.8838 14.6823 29.9126 14.7235C29.9455 14.7646 29.9948 14.7975 30.0607 14.8263C30.0977 14.8387 30.2129 14.8716 30.4022 14.9251C30.6737 14.9991 30.863 15.0567 30.9741 15.102C31.0811 15.1472 31.1675 15.2172 31.2292 15.3036L31.2333 15.3077ZM33.0725 15.9002C32.9696 15.9948 32.8462 16.0401 32.6939 16.0401C32.5047 16.0401 32.3524 15.9701 32.2372 15.8344C32.122 15.6986 32.0603 15.4723 32.0603 15.1678C32.0603 14.8633 32.122 14.6453 32.2414 14.5095C32.3607 14.3737 32.5211 14.2997 32.7145 14.2997C32.8421 14.2997 32.9532 14.3367 33.0437 14.4149C33.1342 14.493 33.1959 14.6082 33.2329 14.7605L33.6074 14.7029C33.5621 14.4725 33.4634 14.2955 33.307 14.1721C33.1507 14.0487 32.949 13.987 32.7022 13.987C32.5047 13.987 32.3278 14.0322 32.1591 14.1269C31.9945 14.2174 31.8669 14.3573 31.7888 14.5424C31.7065 14.7276 31.6653 14.9415 31.6653 15.1884C31.6653 15.5669 31.76 15.8591 31.9492 16.0607C32.1385 16.2623 32.3895 16.3651 32.6981 16.3651C32.9449 16.3651 33.1548 16.2911 33.3276 16.143C33.4963 15.9948 33.6032 15.7891 33.6444 15.5299L33.2659 15.4805C33.2371 15.6739 33.1753 15.8138 33.0725 15.9084V15.9002ZM33.9735 16.3034H34.3603V14.0322H33.9735V16.3034ZM33.9735 13.6084H34.3603V13.1641H33.9735V13.6084ZM36.7426 14.0281H36.2447L35.3313 14.9539V13.1641H34.9446V16.2993H35.3313V15.3982L35.6029 15.139L36.3558 16.2993H36.8331L35.8744 14.8716L36.7426 14.0281ZM37.1376 13.6084H37.5243V13.1641H37.1376V13.6084ZM37.1376 16.3034H37.5243V14.0322H37.1376V16.3034ZM38.9521 15.9578C38.8821 15.966 38.8245 15.9743 38.7834 15.9743C38.7258 15.9743 38.6805 15.966 38.6517 15.9455C38.6229 15.9249 38.5982 15.9002 38.5859 15.8714C38.5735 15.8385 38.5653 15.7685 38.5653 15.6616V14.3326H38.9521V14.0322H38.5653V13.2381L38.1827 13.4685V14.0322H37.8988V14.3326H38.1827V15.641C38.1827 15.8714 38.1991 16.0236 38.2279 16.0936C38.2608 16.1676 38.3143 16.2252 38.3884 16.2664C38.4666 16.3116 38.5735 16.3322 38.7134 16.3322C38.7998 16.3322 38.8945 16.3199 39.0056 16.2993L38.948 15.9578H38.9521Z" fill="white"/>
</svg>
