<svg width="50" height="51" viewBox="0 0 50 51" fill="none" xmlns="http://www.w3.org/2000/svg">
<path d="M12.5 10.3203C12.5 8.66271 13.1585 7.073 14.3306 5.9009C15.5027 4.72879 17.0924 4.07031 18.75 4.07031H31.25C32.9076 4.07031 34.4973 4.72879 35.6694 5.9009C36.8415 7.073 37.5 8.66271 37.5 10.3203V16.8359C36.5844 17.1572 35.7916 17.7556 35.2316 18.548C34.6716 19.3404 34.3722 20.2875 34.375 21.2578V10.3203C34.375 9.49151 34.0458 8.69665 33.4597 8.1106C32.8737 7.52455 32.0788 7.19531 31.25 7.19531H18.75C17.9212 7.19531 17.1263 7.52455 16.5403 8.1106C15.9542 8.69665 15.625 9.49151 15.625 10.3203V21.2391C15.6239 20.272 15.3227 19.329 14.763 18.5403C14.2033 17.7517 13.4126 17.1562 12.5 16.8359V10.3203ZM34.375 33.7578V41.5703C34.375 42.3991 34.0458 43.194 33.4597 43.78C32.8737 44.3661 32.0788 44.6953 31.25 44.6953H18.75C17.9212 44.6953 17.1263 44.3661 16.5403 43.78C15.9542 43.194 15.625 42.3991 15.625 41.5703V33.7766C15.6239 34.7437 15.3227 35.6866 14.763 36.4753C14.2033 37.264 13.4126 37.8595 12.5 38.1797V41.5703C12.5 43.2279 13.1585 44.8176 14.3306 45.9897C15.5027 47.1618 17.0924 47.8203 18.75 47.8203H31.25C32.9076 47.8203 34.4973 47.1618 35.6694 45.9897C36.8415 44.8176 37.5 43.2279 37.5 41.5703V38.1797C36.5844 37.8584 35.7916 37.26 35.2316 36.4676C34.6716 35.6752 34.3722 34.7281 34.375 33.7578ZM3.58437 26.4016L9.83438 20.1516C10.1278 19.8586 10.5255 19.6942 10.9402 19.6944C11.3548 19.6947 11.7523 19.8597 12.0453 20.1531C12.3383 20.4465 12.5027 20.8443 12.5024 21.2589C12.5021 21.6735 12.3371 22.0711 12.0438 22.3641L8.45937 25.9453H17.1875C17.6019 25.9453 17.9993 26.1099 18.2924 26.403C18.5854 26.696 18.75 27.0934 18.75 27.5078C18.75 27.9222 18.5854 28.3196 18.2924 28.6127C17.9993 28.9057 17.6019 29.0703 17.1875 29.0703H8.45937L12.0438 32.6516C12.3371 32.945 12.502 33.3429 12.502 33.7578C12.502 34.1727 12.3371 34.5707 12.0438 34.8641C11.7504 35.1575 11.3524 35.3223 10.9375 35.3223C10.5226 35.3223 10.1246 35.1575 9.83125 34.8641L3.58125 28.6141C3.29068 28.3228 3.12674 27.9286 3.125 27.5172V27.4984C3.12752 27.0911 3.28899 26.7009 3.575 26.4109L3.58437 26.4016ZM40.1688 34.8641L46.4188 28.6141L46.425 28.6047C46.711 28.3147 46.8725 27.9245 46.875 27.5172V27.4984C46.8724 27.0881 46.7086 26.6952 46.4188 26.4047L40.1688 20.1547C39.8758 19.8613 39.4782 19.6963 39.0636 19.696C38.649 19.6957 38.2512 19.8601 37.9578 20.1531C37.6644 20.4461 37.4994 20.8436 37.4991 21.2583C37.4988 21.6729 37.6633 22.0707 37.9562 22.3641L41.5406 25.9453H32.8125C32.3981 25.9453 32.0007 26.1099 31.7076 26.403C31.4146 26.696 31.25 27.0934 31.25 27.5078C31.25 27.9222 31.4146 28.3196 31.7076 28.6127C32.0007 28.9057 32.3981 29.0703 32.8125 29.0703H41.5406L37.9562 32.6516C37.6629 32.945 37.498 33.3429 37.498 33.7578C37.498 34.1727 37.6629 34.5707 37.9562 34.8641C38.2496 35.1575 38.6476 35.3223 39.0625 35.3223C39.4774 35.3223 39.8754 35.1575 40.1688 34.8641Z" fill="#FFBC13"/>
</svg>
