<svg width="109" height="29" viewBox="0 0 109 29" fill="none" xmlns="http://www.w3.org/2000/svg">
<g clip-path="url(#clip0_1_105)">
<path d="M8.57719 3.14424C7.48005 1.84244 6.53503 0.520384 6.34218 0.245676C6.33759 0.24087 6.33207 0.237044 6.32596 0.23443C6.31985 0.231816 6.31328 0.230469 6.30663 0.230469C6.29998 0.230469 6.29341 0.231816 6.2873 0.23443C6.28119 0.237044 6.27567 0.24087 6.27108 0.245676C6.07802 0.520384 5.13321 1.84244 4.03607 3.14424C-5.38143 15.155 5.51932 23.2604 5.51932 23.2604L5.61068 23.3216C5.69191 24.5723 5.8951 26.3725 5.8951 26.3725H6.70783C6.70783 26.3725 6.91101 24.5824 6.99224 23.3216L7.08381 23.2502C7.09394 23.2604 17.9945 15.155 8.57719 3.14424ZM6.30146 23.0774C6.30146 23.0774 5.81386 22.6603 5.68179 22.447V22.4265L6.27108 9.34796C6.27108 9.30723 6.33205 9.30723 6.33205 9.34796L6.92114 22.4265V22.447C6.78906 22.6603 6.30146 23.0774 6.30146 23.0774Z" fill="#01EC64"/>
<path d="M26.7004 20.4094L22.1579 9.31498L22.1479 9.28439H18.6139V10.03H19.184C19.3572 10.03 19.5201 10.1018 19.6424 10.2241C19.7646 10.3467 19.8258 10.5102 19.8258 10.6841L19.7239 21.8496C19.7239 22.1971 19.4388 22.483 19.0924 22.4934L18.512 22.5035V23.239H21.9545V22.5035L21.5979 22.4934C21.2517 22.483 20.9664 22.1971 20.9664 21.8498V11.3272L25.9162 23.2388C25.9875 23.4124 26.1504 23.5249 26.334 23.5249C26.5171 23.5249 26.68 23.4124 26.7513 23.2388L31.5893 11.5928L31.6606 21.8496C31.6606 22.207 31.3753 22.4931 31.0188 22.5033H30.6521V23.2388H34.6853V22.5033H34.1353C33.7893 22.5033 33.5038 22.207 33.4939 21.8598L33.4631 10.6938C33.4629 10.5242 33.5287 10.3612 33.6466 10.2392C33.7644 10.1172 33.925 10.0458 34.0946 10.0402L34.6853 10.0298V9.28418H31.2428L26.7004 20.4094ZM58.3726 22.3092C58.2604 22.1967 58.199 22.0433 58.199 21.8589V16.374C58.199 15.3303 57.8928 14.5114 57.2801 13.9283C56.6776 13.3449 55.8404 13.0482 54.7989 13.0482C53.3384 13.0482 52.1848 13.6417 51.3779 14.8083C51.3678 14.8288 51.3372 14.8391 51.3066 14.8391C51.276 14.8391 51.2556 14.8184 51.2556 14.7878L50.8777 13.3244H50.2445L48.6209 14.2557V14.7674H49.0395C49.2337 14.7674 49.397 14.8184 49.5094 14.921C49.6217 15.0233 49.6828 15.1767 49.6828 15.3915V21.8488C49.6828 22.033 49.6217 22.1866 49.5094 22.2992C49.397 22.4117 49.2438 22.4731 49.06 22.4731H48.6515V23.22H52.3888V22.4731H51.9805C51.7965 22.4731 51.6434 22.4117 51.5311 22.2992C51.4189 22.1866 51.3575 22.033 51.3575 21.8488V17.5712C51.3575 17.029 51.4801 16.4865 51.7048 15.9542C51.9396 15.4324 52.2867 14.9923 52.7462 14.6545C53.2057 14.3167 53.7573 14.1532 54.3902 14.1532C55.1051 14.1532 55.6462 14.3783 55.9832 14.8285C56.3201 15.2788 56.4938 15.8622 56.4938 16.558V21.8384C56.4938 22.0226 56.4326 22.176 56.3201 22.2887C56.2077 22.4014 56.0547 22.4626 55.8707 22.4626H55.4625V23.2097H59.1997V22.4628H58.7915C58.6383 22.4832 58.4952 22.4218 58.3726 22.3092ZM92.5176 10.1197C91.4846 9.56965 90.3301 9.28418 89.0842 9.28418H84.223V10.0279H84.6988C84.8811 10.0279 85.0431 10.0992 85.2052 10.2621C85.3571 10.4151 85.4381 10.5883 85.4381 10.7717V21.7325C85.4381 21.9161 85.3573 22.0891 85.2052 22.2421C85.0533 22.3948 84.8811 22.4763 84.6988 22.4763H84.2228V23.22H89.0842C90.3301 23.22 91.4846 22.9347 92.5176 22.3845C93.5506 21.8342 94.3912 21.0194 94.9989 19.9805C95.6067 18.9416 95.9207 17.6885 95.9207 16.2622C95.9207 14.8361 95.6067 13.5932 94.9991 12.5442C94.3813 11.4848 93.5504 10.6799 92.5176 10.1197ZM93.9663 16.242C93.9663 17.5459 93.7333 18.646 93.2774 19.5323C92.8217 20.4185 92.214 21.0806 91.4646 21.5087C90.7151 21.9363 89.8845 22.1503 88.9933 22.1503H88.0109C87.8286 22.1503 87.6666 22.079 87.5045 21.9161C87.3526 21.7631 87.2716 21.5901 87.2716 21.4068V11.067C87.2716 10.8835 87.3425 10.7208 87.5045 10.5577C87.6564 10.405 87.8286 10.3235 88.0109 10.3235H88.9933C89.8845 10.3235 90.7149 10.5372 91.4646 10.9651C92.2142 11.393 92.8217 12.0551 93.2774 12.9415C93.7331 13.8377 93.9663 14.9482 93.9663 16.242ZM107.412 16.9857C106.963 16.466 106.095 16.028 105.074 15.7936C106.483 15.0908 107.208 14.1027 107.208 12.8292C107.208 12.1368 107.025 11.5152 106.656 10.9856C106.289 10.456 105.768 10.0279 105.105 9.73253C104.441 9.43715 103.665 9.28439 102.787 9.28439H97.2841V10.0279H97.7229C97.9067 10.0279 98.0702 10.0992 98.2335 10.2621C98.3867 10.4151 98.4684 10.5883 98.4684 10.7717V21.7325C98.4684 21.9161 98.3867 22.0891 98.2335 22.2421C98.0804 22.3948 97.9067 22.4763 97.7229 22.4763H97.2431V23.22H103.216C104.125 23.22 104.972 23.0672 105.738 22.7615C106.504 22.456 107.116 22.0077 107.555 21.4169C108.004 20.8261 108.229 20.1026 108.229 19.2673C108.219 18.3711 107.953 17.6069 107.412 16.9857ZM100.561 21.9262C100.408 21.7735 100.327 21.6002 100.327 21.4169V16.4964H103.165C104.165 16.4964 104.931 16.751 105.462 17.2602C105.993 17.7697 106.258 18.4319 106.258 19.2469C106.258 19.7357 106.135 20.2147 105.911 20.6527C105.676 21.1008 105.328 21.4574 104.86 21.7325C104.4 22.0075 103.828 22.1503 103.165 22.1503H101.071C100.888 22.1503 100.724 22.0788 100.561 21.926M100.336 15.4472V11.0772C100.336 10.8938 100.408 10.7309 100.571 10.5678C100.724 10.4151 100.898 10.3336 101.082 10.3336H102.429C103.399 10.3336 104.114 10.5782 104.564 11.0468C105.012 11.5255 105.237 12.1368 105.237 12.8904C105.237 13.6647 105.022 14.2861 104.604 14.7547C104.185 15.213 103.552 15.4474 102.715 15.4474L100.336 15.4472ZM44.145 13.6976C43.3648 13.2715 42.4934 13.0478 41.5511 13.0478C40.6337 13.0478 39.774 13.2501 39.0184 13.6639L38.9574 13.6976C38.1772 14.1241 37.5592 14.7433 37.1033 15.525C36.6475 16.3067 36.4144 17.2205 36.4144 18.2356C36.4144 19.2509 36.6473 20.1647 37.1033 20.9464C37.5592 21.7281 38.1772 22.3474 38.9574 22.7736C39.7377 23.1998 40.6091 23.4234 41.5511 23.4234C42.4687 23.4234 43.3285 23.2213 44.0838 22.8077L44.145 22.7738C44.925 22.3474 45.5432 21.7281 45.9992 20.9464C46.4549 20.1647 46.6881 19.2509 46.6881 18.2356C46.6881 17.2205 46.4549 16.3067 45.9992 15.525C45.5435 14.7433 44.9253 14.1238 44.145 13.6976ZM44.8947 18.2358C44.8947 19.4847 44.5908 20.4997 43.9828 21.2308C43.385 21.9617 42.5645 22.3372 41.5511 22.3372C40.5561 22.3372 39.7467 21.975 39.1518 21.2696L39.1197 21.2308C38.5116 20.4997 38.2076 19.4847 38.2076 18.2358C38.2076 17.01 38.5009 16.009 39.0868 15.2811L39.1197 15.241C39.7172 14.5102 40.5382 14.1344 41.5511 14.1344C42.5645 14.1344 43.385 14.51 43.9828 15.241C44.5908 15.9721 44.8947 16.9872 44.8947 18.2358ZM80.052 13.6979C79.2717 13.2717 78.4006 13.048 77.4583 13.048C76.5409 13.048 75.6809 13.2504 74.9256 13.6641L74.8644 13.6979C74.0844 14.1243 73.4664 14.7435 73.0104 15.5252C72.5545 16.3069 72.3213 17.2207 72.3213 18.2358C72.3213 19.2511 72.5545 20.1649 73.0104 20.9466C73.4664 21.7283 74.0844 22.3476 74.8646 22.7738C75.6446 23.2002 76.516 23.4236 77.4583 23.4236C78.3757 23.4236 79.2357 23.2215 79.991 22.8079L80.0522 22.774C80.8322 22.3476 81.4502 21.7283 81.9061 20.9466C82.3621 20.1649 82.595 19.2511 82.595 18.2358C82.595 17.2207 82.3621 16.3069 81.9061 15.5252C81.4502 14.7435 80.8221 14.1241 80.052 13.6979ZM80.8018 18.236C80.8018 19.4849 80.4978 20.4999 79.8899 21.231C79.292 21.9619 78.4715 22.3374 77.4583 22.3374C76.4631 22.3374 75.6537 21.9752 75.0589 21.2698L75.0266 21.231C74.4188 20.4999 74.1147 19.4849 74.1147 18.236C74.1147 17 74.4078 16.0088 74.9937 15.2813L75.0266 15.2412C75.6244 14.5104 76.4451 14.1346 77.4583 14.1346C78.4715 14.1346 79.292 14.5102 79.8899 15.2412C80.4879 15.9723 80.8018 16.9874 80.8018 18.236ZM65.5714 13.0484C64.755 13.0484 64.0101 13.2218 63.3366 13.5685C62.6631 13.9152 62.1325 14.3844 61.755 14.9862C61.3795 15.57 61.1811 16.2501 61.1836 16.9443C61.1836 17.5767 61.3265 18.158 61.6225 18.6783C61.908 19.1779 62.2958 19.5961 62.7857 19.9427L61.3265 21.9214C61.1429 22.1661 61.1225 22.4925 61.255 22.7577C61.3978 23.0331 61.6632 23.1962 61.9694 23.1962H62.3878C61.9966 23.4601 61.6803 23.7709 61.4571 24.1372L61.4284 24.1855C61.1632 24.6239 61.0305 25.083 61.0305 25.5521C61.0305 26.4135 61.4046 27.1275 62.1428 27.6647L62.1835 27.6938C62.9389 28.2344 63.9999 28.5097 65.3365 28.5097C66.2651 28.5097 67.153 28.3567 67.9591 28.0609C68.752 27.7738 69.4004 27.3516 69.8859 26.8043L69.9281 26.7558C70.4281 26.1844 70.6834 25.4909 70.6834 24.6955C70.6834 23.8591 70.3773 23.2675 69.6631 22.6965C69.0508 22.2172 68.0916 21.9623 66.8977 21.9623H62.8163C62.8103 21.9618 62.8046 21.9594 62.8 21.9555L62.7958 21.952L62.7939 21.9477C62.7918 21.9412 62.7884 21.9288 62.7958 21.9214L63.8571 20.4936C64.1084 20.6107 64.3719 20.6995 64.6428 20.7586C64.8876 20.8097 65.1631 20.8301 65.4693 20.8301C66.3263 20.8301 67.1019 20.6567 67.7754 20.31C68.4488 19.9632 68.9896 19.4942 69.3774 18.8922C69.765 18.3008 69.9589 17.6379 69.9589 16.9342C69.9589 16.1795 69.5918 14.8026 68.5917 14.0989C68.5917 14.0926 68.5953 14.0903 68.5982 14.0892L68.6018 14.0886L70.7957 14.3334V13.3238H67.2855C66.7346 13.1503 66.163 13.0484 65.5714 13.0484ZM66.7957 19.433C66.4079 19.6368 65.9898 19.749 65.5714 19.749C64.8878 19.749 64.2856 19.5043 63.7754 19.0249C63.2653 18.5455 63.0102 17.8419 63.0102 16.9443C63.0102 16.0468 63.2653 15.3429 63.7754 14.8638C64.2856 14.3846 64.8876 14.1397 65.5714 14.1397C65.982 14.1397 66.374 14.2333 66.7472 14.4296L66.7957 14.4557C67.1835 14.6598 67.4998 14.976 67.7549 15.3942C67.9996 15.8124 68.1326 16.3325 68.1326 16.9443C68.1326 17.5666 68.01 18.0866 67.7549 18.4945C67.5102 18.9127 67.1835 19.2289 66.7957 19.433ZM64.0305 23.1858H66.7957C67.561 23.1858 68.0509 23.3388 68.3773 23.6652C68.7037 23.9916 68.867 24.43 68.867 24.94C68.867 25.6846 68.5712 26.2966 67.9794 26.7553C67.3876 27.2145 66.5917 27.4489 65.6121 27.4489C64.7548 27.4489 64.0406 27.2552 63.5201 26.8881C62.9996 26.5209 62.7346 25.9597 62.7346 25.2459C62.7346 24.7971 62.857 24.379 63.102 24.0118C63.3467 23.6447 63.6427 23.3795 64.0303 23.1858" fill="black"/>
</g>
<defs>
<clipPath id="clip0_1_105">
<rect width="108.036" height="28.4835" fill="white" transform="translate(0.197754 0.230957)"/>
</clipPath>
</defs>
</svg>
