<svg width="49" height="39" viewBox="0 0 49 39" fill="none" xmlns="http://www.w3.org/2000/svg">
<g clip-path="url(#clip0_1_98)">
<path d="M24.1869 34.0104C24.0312 34.0104 23.8754 33.9659 23.7345 33.8917L22.3103 33.0461C22.0952 32.9275 22.199 32.883 22.2732 32.8607C22.5551 32.7643 22.6144 32.742 22.9185 32.564C22.9482 32.5492 22.9927 32.5566 23.0224 32.5714L24.1202 33.2242C24.1573 33.2464 24.2166 33.2464 24.2537 33.2242L28.5411 30.7467C28.5782 30.7244 28.6078 30.6799 28.6078 30.628V25.6805C28.6078 25.6286 28.5856 25.584 28.5411 25.5618L24.2537 23.0917C24.2166 23.0695 24.1647 23.0695 24.1202 23.0917L19.8328 25.5618C19.7883 25.584 19.7661 25.636 19.7661 25.6805V30.628C19.7661 30.6725 19.7957 30.717 19.8328 30.7393L21.0048 31.4143C21.6427 31.7332 22.0358 31.3549 22.0358 30.9841V26.0959C22.0358 26.0291 22.0878 25.9698 22.1619 25.9698H22.7034C22.7702 25.9698 22.8295 26.0217 22.8295 26.0959V30.9841C22.8295 31.8371 22.3696 32.3192 21.5611 32.3192C21.3163 32.3192 21.1161 32.3192 20.5746 32.0522L19.4471 31.4069C19.1727 31.2437 18.9946 30.947 18.9946 30.628V25.6805C18.9946 25.3615 19.1652 25.0574 19.4471 24.9016L23.7345 22.4242C24.0089 22.2684 24.365 22.2684 24.632 22.4242L28.9194 24.9016C29.1938 25.0648 29.3718 25.3615 29.3718 25.6805V30.628C29.3718 30.947 29.2012 31.2511 28.9194 31.4069L24.632 33.8843C24.5059 33.9659 24.3501 34.0104 24.1869 34.0104ZM27.651 29.1297C27.651 28.2025 27.0279 27.9577 25.7076 27.7797C24.3724 27.6016 24.2389 27.5126 24.2389 27.2011C24.2389 26.9415 24.3501 26.6003 25.3367 26.6003C26.2194 26.6003 26.5457 26.7931 26.6793 27.3865C26.6941 27.4459 26.7386 27.483 26.7979 27.483H27.3543C27.3913 27.483 27.421 27.4681 27.4433 27.4459C27.4655 27.4162 27.4804 27.3865 27.4729 27.3494C27.3839 26.3258 26.7089 25.8511 25.3367 25.8511C24.1128 25.8511 23.3858 26.3703 23.3858 27.2308C23.3858 28.1728 24.1128 28.425 25.2847 28.5437C26.6867 28.6846 26.7979 28.8849 26.7979 29.1593C26.7979 29.6415 26.4122 29.8417 25.5073 29.8417C24.3724 29.8417 24.1202 29.5599 24.0386 28.9961C24.0312 28.9368 23.9793 28.8923 23.9125 28.8923H23.3562C23.2894 28.8923 23.2301 28.9442 23.2301 29.0184C23.2301 29.7379 23.6232 30.5983 25.4999 30.5983C26.8721 30.5983 27.651 30.0643 27.651 29.1297ZM31.6935 25.4134C31.6935 25.8659 31.3227 26.2368 30.8702 26.2368C30.4177 26.2368 30.0468 25.8659 30.0468 25.4134C30.0468 24.9461 30.4326 24.5901 30.8702 24.5901C31.3152 24.5827 31.6935 24.9461 31.6935 25.4134ZM31.56 25.4134C31.56 25.0277 31.2485 24.7236 30.8628 24.7236C30.4845 24.7236 30.1729 25.0277 30.1729 25.4134C30.1729 25.7992 30.4845 26.1107 30.8628 26.1107C31.2485 26.1033 31.56 25.7917 31.56 25.4134ZM31.2262 25.8733H31.0334C31.026 25.8288 30.9963 25.5915 30.9963 25.584C30.9815 25.5321 30.9666 25.5025 30.8999 25.5025H30.7367V25.8733H30.5587V24.9461H30.8776C30.9889 24.9461 31.204 24.9461 31.204 25.1909C31.204 25.3615 31.0927 25.3986 31.026 25.4209C31.1521 25.4283 31.1595 25.5099 31.1817 25.6286C31.1891 25.7027 31.204 25.8288 31.2262 25.8733ZM31.0185 25.2206C31.0185 25.0945 30.9295 25.0945 30.885 25.0945H30.7367V25.3541H30.8776C30.9963 25.3541 31.0185 25.2725 31.0185 25.2206ZM10.9095 14.6505C10.9095 14.4503 10.8056 14.2722 10.635 14.1758L6.08804 11.5574C6.01386 11.5129 5.92485 11.4906 5.83584 11.4832H5.79134C5.70232 11.4832 5.62073 11.5129 5.53914 11.5574L0.999575 14.1758C0.828971 14.2722 0.725124 14.4577 0.725124 14.6505L0.732542 21.6972C0.732542 21.7937 0.784465 21.8827 0.866058 21.9346C0.947652 21.9865 1.0515 21.9865 1.14051 21.9346L3.84051 20.3843C4.01111 20.2805 4.11496 20.1025 4.11496 19.9096V16.6162C4.11496 16.4233 4.21881 16.2379 4.38941 16.1415L5.53914 15.4813C5.62815 15.4294 5.71716 15.4071 5.81359 15.4071C5.91002 15.4071 6.00644 15.4294 6.08804 15.4813L7.23776 16.1415C7.40837 16.2379 7.51221 16.4233 7.51221 16.6162V19.9096C7.51221 20.1025 7.61606 20.2879 7.78666 20.3843L10.4867 21.9346C10.5683 21.9865 10.6795 21.9865 10.7611 21.9346C10.8427 21.8901 10.8946 21.7937 10.8946 21.6972L10.9095 14.6505ZM35.7732 6.95849V20.0431C35.7732 20.236 35.6694 20.4214 35.4988 20.5178L30.9518 23.1437C30.7812 23.2401 30.5735 23.2401 30.4029 23.1437L25.8559 20.5178C25.6853 20.4214 25.5815 20.236 25.5815 20.0431V14.7915C25.5815 14.5986 25.6853 14.4132 25.8559 14.3167L30.4029 11.6909C30.5735 11.5945 30.7812 11.5945 30.9518 11.6909L32.0867 12.3437C32.2128 12.4178 32.376 12.3214 32.376 12.1805V5.20794C32.376 5.00025 32.5985 4.86673 32.7839 4.97058L35.4913 6.48377C35.6619 6.57278 35.7732 6.75822 35.7732 6.95849ZM32.3611 16.5198C32.3611 16.4678 32.3315 16.4233 32.2944 16.4011L30.7367 15.4961C30.6922 15.4739 30.6402 15.4739 30.5957 15.4961L29.038 16.4011C28.9935 16.4233 28.9713 16.4678 28.9713 16.5198V18.3222C28.9713 18.3742 29.001 18.4187 29.038 18.4409L30.5957 19.3384C30.6402 19.3607 30.6922 19.3607 30.7293 19.3384L32.2869 18.4409C32.3315 18.4187 32.3537 18.3742 32.3537 18.3222V16.5198H32.3611ZM47.9232 16.4678C48.0938 16.3714 48.1977 16.186 48.1977 15.9931V14.7247C48.1977 14.5318 48.0938 14.3464 47.9232 14.25L43.4059 11.6242C43.2353 11.5277 43.0276 11.5277 42.857 11.6242L38.31 14.25C38.1394 14.3464 38.0356 14.5318 38.0356 14.7247V19.9764C38.0356 20.1766 38.1394 20.3547 38.31 20.4511L42.8273 23.025C42.9905 23.1214 43.1982 23.1214 43.3688 23.025L46.0985 21.5044C46.2839 21.4005 46.2839 21.1335 46.0985 21.0297L41.5218 18.4038C41.4328 18.3519 41.3809 18.2629 41.3809 18.1665V16.5198C41.3809 16.4233 41.4328 16.3343 41.5218 16.2824L42.946 15.459C43.0276 15.4071 43.1389 15.4071 43.2205 15.459L44.6446 16.2824C44.7262 16.3343 44.7856 16.4233 44.7856 16.5198V17.8104C44.7856 18.0181 45.0155 18.1516 45.201 18.0478L47.9232 16.4678ZM42.1894 16.7275C42.1598 16.7497 42.1375 16.7794 42.1375 16.8165V17.8253C42.1375 17.8623 42.1598 17.8994 42.1894 17.9143L43.0647 18.4187C43.0944 18.4409 43.1389 18.4409 43.1685 18.4187L44.0438 17.9143C44.0735 17.892 44.0957 17.8623 44.0957 17.8253V16.8165C44.0957 16.7794 44.0735 16.7423 44.0438 16.7275L43.1685 16.2231C43.1389 16.2008 43.0944 16.2008 43.0647 16.2231L42.1894 16.7275ZM23.3339 19.9541V14.7321C23.3339 14.5393 23.2152 14.3538 23.0446 14.2574L18.5125 11.6464C18.3567 11.5574 18.1416 11.5426 17.9636 11.6464L13.4314 14.2574C13.2608 14.3538 13.1422 14.5318 13.1422 14.7321V19.9541C13.1422 20.1618 13.2831 20.3398 13.4389 20.4288L17.9784 23.0398C18.1565 23.1437 18.3641 23.1362 18.5273 23.0398L23.0521 20.4288C23.1856 20.3547 23.282 20.2286 23.3191 20.0802C23.3265 20.0431 23.3339 19.9986 23.3339 19.9541ZM17.8227 10.6895L17.7633 10.7266H17.8449L17.8227 10.6895ZM23.4749 20.3472L23.4452 20.2953V20.3621L23.4749 20.3472Z" fill="black"/>
</g>
<defs>
<clipPath id="clip0_1_98">
<rect width="47.4725" height="37.978" fill="white" transform="translate(0.725159 0.483398)"/>
</clipPath>
</defs>
</svg>
