<svg width="39" height="39" viewBox="0 0 39 39" fill="none" xmlns="http://www.w3.org/2000/svg">
<path d="M25.7463 23.0549C25.9339 21.4937 25.8778 21.2646 27.0406 21.5174L27.3358 21.5435C28.23 21.5842 29.3999 21.3996 30.0868 21.0804C31.5662 20.3941 32.4432 19.2476 30.9846 19.5488C27.6571 20.2351 27.4283 19.1088 27.4283 19.1088C30.9422 13.8954 32.4112 7.27773 31.1434 5.65773C27.6856 1.23922 21.6999 3.32861 21.5996 3.3829L21.5676 3.38914C20.9101 3.25236 20.1745 3.17106 19.3479 3.15771C17.8422 3.13308 16.6996 3.55262 15.8329 4.20982C15.8329 4.20982 5.15483 -0.189404 5.65151 9.74215C5.75714 11.855 8.67996 25.7291 12.1659 21.5385C13.44 20.0063 14.6713 18.7106 14.6713 18.7106C15.2828 19.1168 16.0148 19.3239 16.7826 19.2494L16.842 19.199C16.8236 19.3892 16.8316 19.5752 16.866 19.7953C15.9679 20.7991 16.232 20.9753 14.4363 21.3447C12.6199 21.7192 13.6871 22.3856 14.3835 22.5597C15.2285 22.7713 17.1823 23.0707 18.5029 21.2219L18.4504 21.4329C18.8029 21.7147 18.7789 23.4584 18.8287 24.7043C18.8785 25.9502 18.9622 27.1126 19.2162 27.7986C19.4702 28.484 19.7698 30.2497 22.1295 29.7441C24.1014 29.321 25.609 28.7128 25.7463 23.0549Z" fill="black"/>
<path d="M21.3611 30.9747C20.3172 30.9747 19.6378 30.5712 19.2248 30.1813C18.6017 29.5936 18.3546 28.8361 18.2071 28.3836L18.1433 28.1946C17.846 27.392 17.7454 26.2367 17.6858 24.749C17.677 24.5164 17.6696 24.2838 17.6635 24.0512C17.6585 23.8728 17.6523 23.6491 17.6434 23.4144C17.2673 23.5936 16.8682 23.7198 16.4574 23.7895C15.7216 23.9153 14.9306 23.8743 14.1058 23.6681C13.5239 23.5227 12.9192 23.2213 12.5748 22.7554C11.5704 23.6352 10.6124 23.5156 10.0905 23.3417C9.16981 23.0346 8.34586 22.1721 7.57117 20.704C7.0196 19.6588 6.48583 18.2963 5.9847 16.6552C5.11239 13.7971 4.55815 10.7867 4.50889 9.79871C4.35401 6.70499 5.18656 4.49277 6.9834 3.22377C9.8184 1.22131 14.1132 2.39863 15.6789 2.93329C16.7307 2.29924 17.9682 1.99037 19.3669 2.01292C20.1182 2.02508 20.8332 2.09125 21.4975 2.20934C22.1903 1.99156 23.5593 1.67883 25.1262 1.69812C28.0131 1.73253 30.4055 2.85763 32.0442 4.95177C33.2135 6.44596 32.6355 9.5833 32.1866 11.3208C31.5555 13.7642 30.4491 16.3636 29.0902 18.6262C29.4593 18.6289 29.9936 18.5844 30.7538 18.4277C32.2533 18.118 32.6916 18.922 32.8105 19.2819C33.2873 20.726 31.2149 21.817 30.5684 22.1169C29.74 22.5018 28.3897 22.7359 27.2835 22.6851L27.2352 22.6819L26.9447 22.6564L26.9159 22.8985L26.8883 23.1355C26.8142 26.0029 26.4044 27.8187 25.5615 29.0189C24.6782 30.2766 23.4501 30.6294 22.3687 30.8611C22.0378 30.9348 21.7 30.9729 21.3611 30.9747ZM19.1649 20.5385C19.8387 21.0776 19.8977 22.092 19.9502 23.988C19.9568 24.2244 19.963 24.4484 19.9713 24.6576C19.9968 25.2908 20.0564 26.7737 20.2885 27.4003C20.3214 27.4888 20.3508 27.579 20.3816 27.6739C20.6404 28.4667 20.7703 28.864 21.8892 28.6242C22.8288 28.4231 23.3116 28.2424 23.6896 27.7042C24.2391 26.9215 24.5465 25.348 24.6028 23.026L25.7457 23.0539L24.6105 22.9177L24.6438 22.6344C24.7527 21.7004 24.831 21.0251 25.4556 20.5788C25.9564 20.2207 26.5275 20.2554 26.9824 20.3373C26.4827 19.9602 26.3445 19.5169 26.3077 19.3354L26.2124 18.866L26.4801 18.4684C28.0229 16.179 29.2955 13.3654 29.9714 10.7488C30.6657 8.06003 30.4538 6.632 30.2423 6.362C27.4396 2.78049 22.5787 4.25896 22.0714 4.42719L21.9853 4.47348L21.5551 4.55389L21.3346 4.50819C20.7273 4.38209 20.0526 4.31237 19.3289 4.3005C18.1923 4.28151 17.2754 4.55003 16.5236 5.12059L16.002 5.5161L15.3964 5.26657C14.1034 4.73784 10.3044 3.67475 8.29987 5.09448C7.18723 5.88252 6.68046 7.42686 6.79321 9.68448C6.8303 10.4298 7.33707 13.2512 8.17199 15.9879C9.32647 19.7697 10.3756 21.0257 10.8135 21.1719C10.8898 21.1978 11.0883 21.0435 11.2856 20.8067C12.5691 19.263 13.7898 17.9762 13.8411 17.9219L14.503 17.2255L15.3033 17.7572C15.6258 17.9717 15.9815 18.0931 16.3471 18.1159L18.2558 16.4882L17.9792 19.3098C17.973 19.3733 17.97 19.4594 17.995 19.6196L18.078 20.1545L17.7181 20.5575L17.6766 20.6041L18.7251 21.0883L19.1649 20.5385Z" fill="black"/>
<path d="M30.9855 19.5489C27.6577 20.2352 27.4289 19.1086 27.4289 19.1086C30.9425 13.8952 32.4112 7.27728 31.1437 5.65758C27.6856 1.23907 21.6999 3.32875 21.5999 3.38305L21.5676 3.38869C20.9101 3.2525 20.1745 3.1712 19.3476 3.15785C17.8419 3.13322 16.6995 3.55247 15.8329 4.20966C15.8329 4.20966 5.15452 -0.18926 5.6512 9.74229C5.75683 11.8551 8.67965 25.7293 12.1656 21.5386C13.4397 20.0064 14.6707 18.7107 14.6707 18.7107C15.2822 19.1169 16.0142 19.324 16.7817 19.2496L16.8414 19.1991C16.823 19.3893 16.8313 19.5753 16.8651 19.7955C15.9673 20.7992 16.2308 20.9755 14.4357 21.3449C12.619 21.7193 13.6862 22.3857 14.3832 22.5599C15.2279 22.7714 17.182 23.0708 18.5023 21.222L18.4495 21.433C18.8014 21.7149 19.0485 23.2663 19.007 24.6727C18.9655 26.0791 18.9379 27.0445 19.2153 27.7988C19.4927 28.553 19.7689 30.2498 22.1289 29.7443C24.1008 29.3215 25.1227 28.2263 25.2651 26.3998C25.366 25.1011 25.5941 25.2931 25.6087 24.1318L25.792 23.582C26.003 21.8214 25.8255 21.2535 27.0405 21.5179L27.3358 21.5437C28.23 21.5846 29.4002 21.3998 30.0871 21.0805C31.5665 20.3939 32.4438 19.2478 30.9855 19.5489Z" fill="#336791"/>
<path d="M21.4803 30.2702C19.5129 30.2705 18.8898 28.7125 18.6346 28.0755C18.2617 27.1421 18.181 23.5187 18.2641 20.5472C18.2696 20.448 18.3136 20.3549 18.3868 20.2876C18.4599 20.2204 18.5564 20.1843 18.6557 20.1871C18.755 20.1899 18.8494 20.2313 18.9186 20.3025C18.9879 20.3738 19.0266 20.4692 19.0266 20.5686C18.9307 23.9958 19.0669 27.1014 19.3429 27.7921C19.774 28.8698 20.4276 29.8124 22.2764 29.4166C24.0314 29.0401 24.6886 28.3746 24.9811 26.678C25.206 25.3758 25.6499 21.6714 25.7045 20.9404C25.712 20.8395 25.7593 20.7458 25.8359 20.6798C25.9125 20.6138 26.0122 20.581 26.113 20.5885C26.2139 20.596 26.3076 20.6433 26.3736 20.7199C26.4396 20.7965 26.4725 20.8962 26.4649 20.997C26.408 21.7578 25.9659 25.4553 25.7324 26.8077C25.3867 28.8119 24.4933 29.721 22.436 30.1622C22.1221 30.2315 21.8018 30.2677 21.4803 30.2702ZM10.8135 22.6612C10.6416 22.6613 10.4708 22.6331 10.308 22.5779C9.03005 22.1515 7.81298 20.0704 6.69025 16.3919C5.83575 13.5916 5.29426 10.6691 5.24679 9.71934C5.10586 6.90363 5.8313 4.91126 7.40234 3.79803C10.5106 1.5956 15.7397 3.693 15.9607 3.7832C16.0535 3.82202 16.1272 3.89591 16.1657 3.98879C16.2043 4.08167 16.2045 4.18602 16.1665 4.2791C16.1285 4.37219 16.0552 4.44648 15.9626 4.48581C15.8701 4.52513 15.7658 4.5263 15.6724 4.48905V4.48935C15.6219 4.46858 10.6076 2.4599 7.84176 4.4214C6.49828 5.37412 5.88144 7.14366 6.00813 9.68166C6.04819 10.4816 6.55406 13.3344 7.41955 16.1697C8.42181 19.4533 9.56264 21.5258 10.5492 21.8545C10.7038 21.9064 11.1749 22.0634 11.849 21.2534C13.1165 19.7283 14.2811 18.5113 14.2927 18.4991C14.3636 18.4304 14.4584 18.3918 14.5571 18.3916C14.6558 18.3913 14.7509 18.4293 14.8222 18.4976C14.8935 18.5659 14.9355 18.6592 14.9395 18.7578C14.9434 18.8565 14.909 18.9528 14.8434 19.0266C14.8318 19.0385 13.685 20.2375 12.4353 21.7409C11.8434 22.4524 11.2758 22.6612 10.8135 22.6612ZM27.4052 19.4482C27.336 19.4483 27.268 19.4296 27.2086 19.394C27.1493 19.3583 27.1007 19.3072 27.0682 19.2461C27.0357 19.1849 27.0205 19.1161 27.0242 19.0469C27.0279 18.9778 27.0504 18.911 27.0892 18.8537C30.641 13.583 31.8878 7.21487 30.8199 5.85062C29.4759 4.13331 27.5779 3.23607 25.179 3.18474C23.4027 3.14617 21.9907 3.59983 21.7601 3.67905L21.7023 3.70249C21.4702 3.77548 21.2922 3.6482 21.2252 3.49955C21.1869 3.41438 21.1812 3.31818 21.2089 3.22906C21.2367 3.13994 21.2961 3.06403 21.3759 3.01562L21.4785 2.97349L21.4735 2.97498L21.4788 2.9732C21.8708 2.82989 23.3042 2.39967 25.0799 2.42014C27.7345 2.44803 29.9272 3.47195 31.4208 5.38035C32.1275 6.28352 32.129 8.3643 31.4252 11.0889C30.7078 13.8667 29.3578 16.8524 27.7218 19.28C27.6869 19.332 27.6398 19.3745 27.5846 19.4038C27.5294 19.4332 27.4677 19.4484 27.4052 19.4482ZM27.5865 21.888C26.98 21.888 26.4365 21.8029 26.111 21.6077C25.7763 21.4074 25.7125 21.1347 25.7042 20.9902C25.6128 19.3868 26.4976 19.1076 26.9489 18.9803C26.886 18.8854 26.7964 18.7735 26.7041 18.6581C26.4409 18.3294 26.0807 17.879 25.803 17.2055C25.7597 17.1004 25.6232 16.8557 25.4653 16.5726C24.6099 15.0389 22.8303 11.8473 23.9735 10.2128C24.5028 9.45646 25.5561 9.15887 27.1085 9.32502C26.6519 7.93378 24.477 3.58144 19.3174 3.49688C17.7653 3.47077 16.4924 3.94816 15.5362 4.91364C13.3949 7.07631 13.4726 10.9892 13.4735 11.0281C13.4748 11.0781 13.4662 11.128 13.4483 11.1747C13.4303 11.2214 13.4034 11.2642 13.3689 11.3005C13.3344 11.3368 13.2931 11.366 13.2474 11.3863C13.2017 11.4067 13.1524 11.4178 13.1023 11.4192C13.0523 11.4205 13.0024 11.4119 12.9557 11.3939C12.909 11.376 12.8662 11.349 12.8299 11.3146C12.7936 11.2801 12.7644 11.2388 12.7441 11.1931C12.7237 11.1473 12.7126 11.098 12.7113 11.048C12.7065 10.8744 12.6264 6.76833 14.9944 4.3769C16.1026 3.25773 17.5612 2.70527 19.3298 2.73405C22.6315 2.78835 24.7562 4.4665 25.9576 5.86516C27.2666 7.38903 27.9087 9.07015 27.9615 9.63092C28.001 10.0481 27.7016 10.1318 27.6411 10.1439L27.5037 10.1472C25.9801 9.9033 25.0028 10.0724 24.5987 10.6501C23.729 11.8927 25.4125 14.9117 26.1314 16.2011C26.3151 16.5299 26.4474 16.7675 26.508 16.9144C26.7441 17.487 27.0521 17.8719 27.2996 18.181C27.517 18.4531 27.7057 18.6887 27.7734 18.9658C27.8046 19.0207 28.249 19.6776 30.8852 19.1334C31.546 18.9973 31.9421 19.1139 32.0631 19.48C32.3014 20.2007 30.9647 21.0409 30.2248 21.3848C29.5607 21.6931 28.5024 21.888 27.5865 21.888ZM26.4646 20.9273C26.548 21.0119 26.9664 21.1573 27.833 21.1202C28.6033 21.0869 29.4159 20.9193 29.9037 20.6932C30.5274 20.4036 30.9434 20.0799 31.1591 19.8589L31.0392 19.8808C29.3536 20.2289 28.1615 20.1826 27.496 19.7429C27.4513 19.7133 27.4082 19.6813 27.3669 19.647C27.2948 19.6755 27.2281 19.6942 27.1806 19.7076C26.8029 19.8135 26.4124 19.923 26.4646 20.9273ZM15.5765 23.0573C15.1579 23.0573 14.7173 23.0007 14.2672 22.8876C13.801 22.771 13.0148 22.42 13.0269 21.8435C13.0403 21.1964 13.9811 21.0024 14.3357 20.9294C15.6151 20.6659 15.6985 20.5603 16.0984 20.0526C16.215 19.9046 16.3601 19.7203 16.5577 19.4993C16.8515 19.1708 17.1725 19.0041 17.5119 19.0041C17.7481 19.0041 17.9421 19.0845 18.07 19.1373C18.4783 19.3064 18.8189 19.7153 18.9589 20.2048C19.0853 20.6463 19.0251 21.0712 18.7892 21.4011C18.0154 22.485 16.9046 23.0573 15.5765 23.0573ZM13.8506 21.8765C13.9657 21.9652 14.196 22.0839 14.452 22.1482C14.8419 22.2456 15.2199 22.2951 15.5765 22.2951C16.663 22.2951 17.5351 21.845 18.1688 20.9582C18.3008 20.773 18.2614 20.5383 18.2261 20.4146C18.1519 20.1559 17.9679 19.9206 17.7784 19.8417C17.6754 19.7989 17.5902 19.7663 17.5119 19.7663C17.4698 19.7663 17.3419 19.7663 17.1262 20.0075C16.944 20.2111 16.8132 20.3772 16.6972 20.5241C16.1993 21.1564 15.9711 21.3709 14.4894 21.6762C14.128 21.751 13.9426 21.8263 13.8506 21.8765ZM16.7826 20.1176C16.6916 20.1175 16.6036 20.0848 16.5346 20.0255C16.4655 19.9662 16.42 19.8842 16.4061 19.7942C16.3963 19.7309 16.39 19.6671 16.3871 19.6031C15.4157 19.5847 14.4787 19.1682 13.7675 18.4258C12.8682 17.4873 12.4588 16.1872 12.6445 14.8588C12.8463 13.4163 12.7709 12.1428 12.7302 11.4586C12.7201 11.3179 12.7139 11.1769 12.7115 11.0358C12.7121 10.9154 12.7145 10.5952 13.7841 10.0531C14.1645 9.86027 14.9273 9.52381 15.7605 9.43747C17.1413 9.29505 18.0513 9.90982 18.3237 11.169C19.0589 14.5693 18.3818 16.0732 17.8875 17.1713C17.7953 17.3755 17.7083 17.5689 17.6389 17.7558L17.5775 17.9211C17.3164 18.6213 17.0906 19.2263 17.16 19.6785C17.1753 19.7784 17.1503 19.8804 17.0905 19.9619C17.0307 20.0435 16.941 20.098 16.8411 20.1135L16.7826 20.1176ZM13.4765 11.1411L13.4916 11.4135C13.5337 12.1241 13.612 13.4468 13.3996 14.9648C13.2465 16.0602 13.5812 17.1298 14.3179 17.8986C14.9 18.5062 15.6667 18.8415 16.4545 18.8415H16.4708C16.5592 18.4697 16.7055 18.0775 16.863 17.6547L16.9241 17.4906C17.0028 17.2793 17.0947 17.0749 17.1921 16.8586C17.668 15.8012 18.2602 14.485 17.5781 11.3301C17.4428 10.7056 17.1152 10.3439 16.5767 10.2246C15.4706 9.98014 13.8224 10.8121 13.4765 11.1411ZM15.7777 10.9794C15.7587 11.1141 16.0248 11.474 16.3714 11.5221C16.7176 11.5705 17.014 11.2892 17.0327 11.1545C17.0514 11.0198 16.7856 10.8711 16.4387 10.8228C16.0925 10.7744 15.7961 10.8444 15.7777 10.9794ZM16.4512 11.655L16.3539 11.6482C16.1388 11.6182 15.9213 11.4826 15.7726 11.2853C15.7204 11.2162 15.635 11.0815 15.6519 10.9616C15.6762 10.7857 15.8904 10.6807 16.2254 10.6807C16.3008 10.6807 16.3779 10.6861 16.4568 10.697C16.6396 10.7225 16.8096 10.7753 16.9351 10.8453C17.1526 10.967 17.1686 11.1023 17.1588 11.1726C17.1318 11.3663 16.8227 11.655 16.4512 11.655ZM15.9041 11.002C15.9151 11.0851 16.1207 11.3595 16.3889 11.3966L16.4509 11.4011C16.6984 11.4011 16.8835 11.2061 16.9052 11.1423C16.8823 11.099 16.7233 10.9907 16.4212 10.9492C16.3562 10.9401 16.2907 10.9353 16.2251 10.9349C16.0317 10.9346 15.9281 10.9783 15.9041 11.002ZM26.3246 10.7044C26.3433 10.8394 26.0777 11.1993 25.7309 11.2474C25.3843 11.2954 25.0879 11.0145 25.0689 10.8795C25.0506 10.7447 25.3164 10.5961 25.6629 10.548C26.0095 10.4994 26.3056 10.57 26.3246 10.7044ZM25.6511 11.3162C25.3173 11.3162 25.0298 11.0566 25.006 10.8884C24.9787 10.6863 25.3114 10.5326 25.6543 10.4851C25.7301 10.4745 25.8042 10.4691 25.8766 10.4691C26.1724 10.4691 26.3682 10.556 26.3878 10.6958C26.4006 10.7866 26.3311 10.9263 26.2113 11.0521C26.1323 11.1352 25.9662 11.2791 25.7401 11.3103L25.6511 11.3162ZM25.8763 10.5961C25.8098 10.5961 25.7416 10.6009 25.6716 10.6106C25.3268 10.6584 25.1218 10.797 25.1316 10.8711C25.1431 10.9524 25.363 11.1892 25.6508 11.1892L25.7217 11.1842C25.9098 11.1578 26.051 11.0352 26.1184 10.9643C26.224 10.853 26.2661 10.7486 26.2611 10.7127C26.2549 10.6661 26.1279 10.5961 25.8763 10.5961ZM26.8239 18.4448C26.7549 18.4448 26.6871 18.426 26.6279 18.3904C26.5687 18.3549 26.5203 18.3039 26.4878 18.243C26.4553 18.1821 26.4399 18.1134 26.4434 18.0445C26.4468 17.9755 26.4689 17.9088 26.5074 17.8514C27.3191 16.6388 27.1705 15.4018 27.0269 14.2061C26.9655 13.6964 26.9023 13.1697 26.9189 12.6638C26.9355 12.1437 27.0014 11.7147 27.0655 11.2993C27.1411 10.8076 27.2126 10.3427 27.183 9.79144C27.1808 9.69236 27.2172 9.59632 27.2846 9.52365C27.352 9.45097 27.445 9.40736 27.5439 9.40204C27.6429 9.39672 27.74 9.43011 27.8148 9.49514C27.8896 9.56018 27.9361 9.65175 27.9446 9.75049C27.9784 10.3807 27.8974 10.9065 27.8191 11.4153C27.7586 11.8078 27.696 12.2137 27.6808 12.6882C27.6663 13.1359 27.7236 13.6115 27.7841 14.1147C27.9372 15.3867 28.1102 16.8284 27.1411 18.2754C27.0675 18.3852 26.9468 18.4448 26.8239 18.4448Z" fill="white"/>
<path d="M1.07455 31.098C1.50052 31.0286 1.93156 30.995 2.36314 30.9977C3.02627 30.9977 3.51257 31.152 3.82114 31.4297C4.10657 31.6766 4.27628 32.0546 4.27628 32.5177C4.27628 32.9883 4.13713 33.3586 3.87484 33.6286C3.51998 34.0066 2.94141 34.1994 2.2857 34.1994C2.08513 34.1994 1.89998 34.1917 1.74599 34.1531V36.2363H1.07455V31.098ZM1.74599 33.6051C1.89257 33.6437 2.07771 33.6591 2.30142 33.6591C3.11113 33.6591 3.60514 33.2657 3.60514 32.5483C3.60514 31.8617 3.11914 31.53 2.37857 31.53C2.08542 31.53 1.86171 31.5531 1.74599 31.584V33.6051ZM8.34171 34.338C8.34171 35.7189 7.38484 36.3209 6.48227 36.3209C5.4717 36.3209 4.69256 35.5803 4.69256 34.3997C4.69256 33.15 5.51027 32.4171 6.54398 32.4171C7.61657 32.4168 8.34171 33.1963 8.34171 34.338ZM5.37942 34.3766C5.37942 35.1943 5.85 35.8114 6.51342 35.8114C7.16143 35.8114 7.64713 35.202 7.64713 34.3611C7.64713 33.7286 7.33114 32.9263 6.52856 32.9263C5.72597 32.9263 5.37942 33.6669 5.37942 34.3766ZM9.10513 35.5414C9.3057 35.6726 9.66056 35.8114 9.99999 35.8114C10.4937 35.8114 10.7251 35.5646 10.7251 35.256C10.7251 34.932 10.5326 34.7546 10.0308 34.5694C9.3597 34.3303 9.04341 33.96 9.04341 33.5126C9.04341 32.9108 9.52942 32.4171 10.3317 32.4171C10.7097 32.4171 11.0417 32.5251 11.25 32.6486L11.0803 33.1423C10.8507 33.0008 10.5862 32.9261 10.3166 32.9263C9.91543 32.9263 9.69171 33.1577 9.69171 33.4354C9.69171 33.744 9.91572 33.8829 10.4017 34.068C11.0497 34.3149 11.3814 34.6389 11.3814 35.1943C11.3814 35.85 10.8723 36.3129 9.98515 36.3129C9.57629 36.3129 9.19829 36.2126 8.93601 36.0583L9.10513 35.5414ZM13.0706 31.4294V32.5017H14.0423V33.0186H13.0706V35.032C13.0706 35.4948 13.2014 35.7571 13.5797 35.7571C13.7123 35.7594 13.8447 35.7438 13.9731 35.7108L14.004 36.22C13.8732 36.274 13.6646 36.3126 13.4026 36.3126C13.0863 36.3126 12.8314 36.2123 12.6694 36.0271C12.4769 35.8266 12.4071 35.4948 12.4071 35.0551V33.0186H11.8286V32.5017H12.4071V31.6068L13.0706 31.4294ZM17.9769 32.502C17.9611 32.772 17.946 33.0729 17.946 33.528V35.6957C17.946 36.552 17.7763 37.0766 17.4137 37.4009C17.0511 37.7403 16.5266 37.8483 16.056 37.8483C15.6086 37.8483 15.1149 37.7403 14.8137 37.5397L14.9834 37.0229C15.2303 37.1771 15.616 37.316 16.0788 37.316C16.7731 37.316 17.2823 36.9534 17.2823 36.0123V35.5957H17.2668C17.0586 35.9429 16.6574 36.2206 16.0788 36.2206C15.1531 36.2206 14.4897 35.4337 14.4897 34.3997C14.4897 33.1346 15.3151 32.4171 16.1714 32.4171C16.8197 32.4171 17.1746 32.7566 17.3366 33.0651H17.352L17.3829 32.502H17.9769ZM17.2749 33.9754C17.2749 33.8597 17.2671 33.7594 17.2363 33.6669C17.1129 33.2734 16.7811 32.9494 16.2874 32.9494C15.6391 32.9494 15.1766 33.4971 15.1766 34.3611C15.1766 35.094 15.5469 35.7034 16.2797 35.7034C16.6963 35.7034 17.0743 35.4411 17.2209 35.0091C17.2594 34.8934 17.2752 34.7623 17.2752 34.6466L17.2749 33.9754ZM19.0257 33.6669C19.0257 33.2271 19.018 32.8491 18.9948 32.502H19.5891L19.612 33.2349H19.6428C19.8126 32.7334 20.2214 32.4171 20.6766 32.4171C20.7537 32.4171 20.8074 32.4249 20.8691 32.4403V33.0806C20.7932 33.064 20.7157 33.0562 20.638 33.0574C20.1597 33.0574 19.82 33.42 19.7277 33.9291C19.7086 34.0335 19.6983 34.1393 19.6968 34.2454V36.2357H19.0257V33.6669ZM21.8494 34.4923C21.8649 35.4103 22.4508 35.7883 23.1297 35.7883C23.616 35.7883 23.9088 35.7034 24.1634 35.5954L24.2791 36.0814C24.04 36.1894 23.6311 36.3129 23.0371 36.3129C21.8877 36.3129 21.2011 35.5569 21.2011 34.4306C21.2011 33.3043 21.8646 32.4168 22.9523 32.4168C24.1711 32.4168 24.4951 33.4891 24.4951 34.1757C24.4951 34.3146 24.4797 34.4226 24.472 34.492L21.8494 34.4923ZM23.8397 34.0063C23.8471 33.5743 23.662 32.9031 22.8986 32.9031C22.212 32.9031 21.9111 33.5357 21.8568 34.0063H23.8397Z" fill="black"/>
<path d="M25.2666 35.4177C25.6302 35.6364 26.0457 35.7536 26.47 35.7572C27.1566 35.7572 27.5577 35.3946 27.5577 34.87C27.5577 34.384 27.28 34.1063 26.578 33.8363C25.7294 33.5355 25.2049 33.0957 25.2049 32.3629C25.2049 31.5529 25.876 30.9512 26.8866 30.9512C27.4189 30.9512 27.8046 31.0746 28.036 31.2057L27.8509 31.7535C27.5473 31.5905 27.2079 31.5057 26.8634 31.5066C26.1537 31.5066 25.8837 31.9309 25.8837 32.2857C25.8837 32.7717 26.1997 33.0109 26.9174 33.2886C27.7969 33.6283 28.2443 34.0523 28.2443 34.816C28.2443 35.6183 27.6503 36.3126 26.4237 36.3126C25.9223 36.3126 25.3746 36.166 25.0966 35.9809L25.2666 35.4177ZM33.4514 36.9992C32.7808 36.8231 32.1169 36.6224 31.4611 36.3975C31.3531 36.3589 31.2451 36.3203 31.1449 36.3203C29.9106 36.274 28.8537 35.3637 28.8537 33.6897C28.8537 32.0235 29.872 30.9512 31.276 30.9512C32.6877 30.9512 33.606 32.0466 33.606 33.5817C33.606 34.9163 32.9889 35.7726 32.1249 36.0735V36.1043C32.6417 36.2355 33.2049 36.3589 33.6446 36.436L33.4514 36.9992ZM32.896 33.6126C32.896 32.5712 32.3563 31.4986 31.2529 31.4986C30.1189 31.4986 29.5634 32.5477 29.5711 33.6743C29.5634 34.7775 30.1729 35.7726 31.222 35.7726C32.2946 35.7726 32.896 34.8006 32.896 33.6126ZM34.4771 31.036H35.1486V35.6723H37.3703V36.2355H34.4771V31.036Z" fill="#336791"/>
</svg>
