<svg width="30" height="39" viewBox="0 0 30 39" fill="none" xmlns="http://www.w3.org/2000/svg">
<g clip-path="url(#clip0_1_179)">
<mask id="mask0_1_179" style="mask-type:luminance" maskUnits="userSpaceOnUse" x="0" y="0" width="30" height="39">
<path d="M16.6385 2.53536C16.6385 1.6632 17.3456 0.956055 18.2178 0.956055H27.6939C28.566 0.956055 29.2732 1.6632 29.2732 2.53536V37.2808C29.2732 38.153 28.566 38.86 27.6939 38.86H2.42449C1.55233 38.86 0.845184 38.153 0.845184 37.2807V21.4875C0.845184 20.6152 1.55233 19.9082 2.42449 19.9082H8.74195V12.0114C8.74195 11.1392 9.44899 10.432 10.3213 10.432H16.6385V2.53536Z" fill="white"/>
</mask>
<g mask="url(#mask0_1_179)">
<path d="M29.2746 0.956055V38.86H16.64V0.956055H29.2746Z" fill="url(#paint0_linear_1_179)"/>
</g>
<mask id="mask1_1_179" style="mask-type:luminance" maskUnits="userSpaceOnUse" x="0" y="0" width="30" height="39">
<path d="M16.6385 2.53536C16.6385 1.6632 17.3456 0.956055 18.2178 0.956055H27.6939C28.566 0.956055 29.2732 1.6632 29.2732 2.53536V37.2808C29.2732 38.153 28.566 38.86 27.6939 38.86H2.42449C1.55233 38.86 0.845184 38.153 0.845184 37.2807V21.4875C0.845184 20.6152 1.55233 19.9082 2.42449 19.9082H8.74195V12.0114C8.74195 11.1392 9.44899 10.432 10.3213 10.432H16.6385V2.53536Z" fill="white"/>
</mask>
<g mask="url(#mask1_1_179)">
<path d="M21.378 12.1692V39.0178H8.74319V10.5898H19.7986C20.6707 10.5898 21.3779 11.2969 21.3779 12.1692" fill="black" fill-opacity="0.2"/>
</g>
<mask id="mask2_1_179" style="mask-type:luminance" maskUnits="userSpaceOnUse" x="0" y="0" width="30" height="39">
<path d="M16.6385 2.53536C16.6385 1.6632 17.3456 0.956055 18.2178 0.956055H27.6939C28.566 0.956055 29.2732 1.6632 29.2732 2.53536V37.2808C29.2732 38.153 28.566 38.86 27.6939 38.86H2.42449C1.55233 38.86 0.845184 38.153 0.845184 37.2807V21.4875C0.845184 20.6152 1.55233 19.9082 2.42449 19.9082H8.74195V12.0114C8.74195 11.1392 9.44899 10.432 10.3213 10.432H16.6385V2.53536Z" fill="white"/>
</mask>
<g mask="url(#mask2_1_179)">
<path d="M21.378 12.8016V39.6502H8.74319V11.2222H19.7986C20.6707 11.2222 21.3779 11.9293 21.3779 12.8016" fill="black" fill-opacity="0.18"/>
</g>
<mask id="mask3_1_179" style="mask-type:luminance" maskUnits="userSpaceOnUse" x="0" y="0" width="30" height="39">
<path d="M16.6385 2.53536C16.6385 1.6632 17.3456 0.956055 18.2178 0.956055H27.6939C28.566 0.956055 29.2732 1.6632 29.2732 2.53536V37.2808C29.2732 38.153 28.566 38.86 27.6939 38.86H2.42449C1.55233 38.86 0.845184 38.153 0.845184 37.2807V21.4875C0.845184 20.6152 1.55233 19.9082 2.42449 19.9082H8.74195V12.0114C8.74195 11.1392 9.44899 10.432 10.3213 10.432H16.6385V2.53536Z" fill="white"/>
</mask>
<g mask="url(#mask3_1_179)">
<path d="M21.378 12.0115V38.8601H8.74319V10.4321H19.7986C20.6707 10.4321 21.3779 11.1393 21.3779 12.0115" fill="url(#paint1_linear_1_179)"/>
</g>
<mask id="mask4_1_179" style="mask-type:luminance" maskUnits="userSpaceOnUse" x="0" y="0" width="30" height="39">
<path d="M16.6385 2.53536C16.6385 1.6632 17.3456 0.956055 18.2178 0.956055H27.6939C28.566 0.956055 29.2732 1.6632 29.2732 2.53536V37.2808C29.2732 38.153 28.566 38.86 27.6939 38.86H2.42449C1.55233 38.86 0.845184 38.153 0.845184 37.2807V21.4875C0.845184 20.6152 1.55233 19.9082 2.42449 19.9082H8.74195V12.0114C8.74195 11.1392 9.44899 10.432 10.3213 10.432H16.6385V2.53536Z" fill="white"/>
</mask>
<g mask="url(#mask4_1_179)">
<path d="M0.846649 19.9077V38.8596H13.4813V21.4871C13.4813 20.6149 12.7742 19.9078 11.902 19.9078L0.846649 19.9077Z" fill="url(#paint2_linear_1_179)"/>
</g>
</g>
<defs>
<linearGradient id="paint0_linear_1_179" x1="554.789" y1="0.956045" x2="1951.29" y2="2961.14" gradientUnits="userSpaceOnUse">
<stop stop-color="#E6AD10"/>
<stop offset="1" stop-color="#C87E0E"/>
</linearGradient>
<linearGradient id="paint1_linear_1_179" x1="515.677" y1="10.4321" x2="1680.7" y2="2269.94" gradientUnits="userSpaceOnUse">
<stop stop-color="#F6D751"/>
<stop offset="1" stop-color="#E6AD10"/>
</linearGradient>
<linearGradient id="paint2_linear_1_179" x1="351.763" y1="19.9077" x2="1061.06" y2="1700.91" gradientUnits="userSpaceOnUse">
<stop stop-color="#F9E589"/>
<stop offset="1" stop-color="#F6D751"/>
</linearGradient>
<clipPath id="clip0_1_179">
<rect width="28.4361" height="37.978" fill="white" transform="translate(0.842651 0.956055)"/>
</clipPath>
</defs>
</svg>
