<svg width="151" height="41" viewBox="0 0 151 41" fill="none" xmlns="http://www.w3.org/2000/svg">
<g clip-path="url(#clip0_1_158)">
<path d="M48.4052 10.9473C49.3267 10.9249 50.2431 11.0896 51.0991 11.4314C51.955 11.7733 52.7328 12.2853 53.3852 12.9363C54.0411 13.5642 54.5603 14.3208 54.9103 15.1586C55.2603 15.9964 55.4336 16.8975 55.4192 17.8053C55.4378 18.7152 55.2679 19.6191 54.9203 20.4601C54.5727 21.3011 54.0548 22.0611 53.3992 22.6923C52.7469 23.3437 51.9692 23.8559 51.1132 24.1979C50.2573 24.54 49.3407 24.7048 48.4192 24.6823H44.8172V31.0413H40.7752V10.9473H48.4052ZM48.4052 20.9323C48.8057 20.9402 49.2033 20.8628 49.5716 20.7052C49.9398 20.5476 50.2704 20.3135 50.5412 20.0183C51.0879 19.4091 51.3904 18.6194 51.3904 17.8008C51.3904 16.9823 51.0879 16.1925 50.5412 15.5833C50.2664 15.296 49.9344 15.0695 49.5667 14.9182C49.199 14.767 48.8037 14.6945 48.4062 14.7053H44.8032V20.9283L48.4052 20.9323ZM61.6962 18.7793C62.0067 17.8913 62.6245 17.1436 63.4382 16.6713C64.2623 16.202 65.197 15.962 66.1452 15.9763V20.3333C65.069 20.1724 63.9711 20.4115 63.0592 21.0053C62.1452 21.6153 61.6872 22.6213 61.6872 24.0233V31.0183H57.9112V15.9763H61.6872L61.6962 18.7793ZM80.2822 28.8553C79.2288 29.917 77.883 30.6409 76.4165 30.9348C74.95 31.2286 73.4293 31.0791 72.0481 30.5053C70.6669 29.9315 69.4879 28.9593 68.6614 27.7128C67.8348 26.4663 67.3982 25.0019 67.4072 23.5063C67.4126 22.2693 67.7225 21.0526 68.3096 19.9636C68.8966 18.8747 69.7428 17.9471 70.7733 17.2627C71.8038 16.5782 72.9869 16.158 74.2183 16.0392C75.4496 15.9203 76.6913 16.1065 77.8337 16.5812C78.9761 17.056 79.984 17.8047 80.7684 18.7612C81.5529 19.7178 82.0898 20.8527 82.3317 22.0659C82.5736 23.2791 82.5131 24.5332 82.1554 25.7175C81.7978 26.9018 81.1541 27.9798 80.2812 28.8563L80.2822 28.8553ZM72.1752 26.3323C72.5314 26.6964 72.9591 26.9829 73.4313 27.1739C73.9035 27.365 74.41 27.4563 74.9192 27.4423C75.4278 27.4532 75.9333 27.3603 76.4049 27.1695C76.8765 26.9787 77.3043 26.6938 77.6622 26.3323C78.3766 25.5649 78.7737 24.5553 78.7737 23.5068C78.7737 22.4584 78.3766 21.4488 77.6622 20.6813C77.3043 20.3198 76.8765 20.0348 76.4049 19.8438C75.9334 19.6528 75.4279 19.5598 74.9192 19.5703C74.4101 19.5565 73.9035 19.648 73.4314 19.839C72.9592 20.03 72.5316 20.3164 72.1752 20.6803C71.4694 21.4523 71.078 22.4604 71.078 23.5063C71.078 24.5523 71.4694 25.5604 72.1752 26.3323ZM93.3992 19.6023H90.0892V26.0023C90.0711 26.2039 90.0954 26.407 90.1607 26.5986C90.226 26.7901 90.3307 26.9658 90.4682 27.1143C90.7822 27.3693 91.1742 27.5083 91.5782 27.5073C92.1882 27.5413 92.7982 27.5413 93.4082 27.5073V30.9313C90.8112 31.2363 88.9822 30.9923 87.9212 30.2003C86.8612 29.4073 86.3292 28.0113 86.3262 26.0123V19.6113H83.7662V15.9753H86.3122V13.4563L90.0882 12.3183V15.9753H93.3982V19.6013L93.3992 19.6023ZM107.54 28.8553C106.486 29.9164 105.141 30.6399 103.674 30.9338C102.208 31.2276 100.687 31.0784 99.3062 30.5053C97.925 29.9315 96.746 28.9594 95.9194 27.7129C95.0928 26.4664 94.6562 25.002 94.6652 23.5063C94.6708 22.2694 94.9808 21.0528 95.5679 19.964C96.155 18.8753 97.0011 17.9478 98.0316 17.2634C99.062 16.5791 100.245 16.159 101.476 16.0402C102.708 15.9214 103.949 16.1075 105.091 16.5822C106.234 17.0568 107.242 17.8054 108.026 18.7618C108.811 19.7182 109.348 20.8531 109.59 22.0661C109.832 23.2792 109.771 24.5332 109.414 25.7174C109.056 26.9017 108.413 27.9787 107.54 28.8553ZM99.4342 26.3323C99.7903 26.6963 100.218 26.9828 100.69 27.1738C101.162 27.3648 101.668 27.4563 102.177 27.4423C102.686 27.4529 103.191 27.3599 103.663 27.1691C104.134 26.9783 104.562 26.6936 104.92 26.3323C105.634 25.5648 106.031 24.5552 106.031 23.5068C106.031 22.4584 105.634 21.4489 104.92 20.6813C104.562 20.32 104.134 20.0352 103.663 19.8442C103.191 19.6532 102.686 19.5601 102.177 19.5703C101.668 19.5567 101.162 19.6482 100.69 19.8392C100.218 20.0302 99.7904 20.3165 99.4342 20.6803C98.7284 21.4523 98.337 22.4604 98.337 23.5063C98.337 24.5523 98.7284 25.5604 99.4342 26.3323ZM119.884 10.9473C120.805 10.9251 121.722 11.0898 122.577 11.4317C123.433 11.7736 124.211 12.2854 124.863 12.9363C125.516 13.5656 126.032 14.3228 126.379 15.1606C126.726 15.9984 126.896 16.8987 126.879 17.8053C126.898 18.7154 126.729 19.6195 126.381 20.4606C126.033 21.3018 125.515 22.0617 124.858 22.6923C124.209 23.3474 123.433 23.8636 122.578 24.2095C121.723 24.5554 120.806 24.7237 119.884 24.7043H116.281V31.0413H112.24V10.9473H119.884ZM119.884 20.9323C120.285 20.9399 120.682 20.8624 121.05 20.7048C121.418 20.5472 121.748 20.3132 122.019 20.0183C122.566 19.4092 122.869 18.6195 122.869 17.8008C122.869 16.9822 122.566 16.1924 122.019 15.5833C121.743 15.2989 121.41 15.0755 121.043 14.9274C120.675 14.7792 120.28 14.7097 119.884 14.7233H116.281V20.9283L119.884 20.9323ZM131.255 15.9763C130.596 15.9658 129.968 15.6995 129.502 15.2337C129.036 14.7679 128.769 14.1391 128.758 13.4803C128.754 13.151 128.816 12.8242 128.941 12.5194C129.066 12.2146 129.251 11.9381 129.485 11.7063C129.711 11.4637 129.985 11.2709 130.29 11.1402C130.595 11.0096 130.924 10.9439 131.255 10.9473C131.589 10.9436 131.919 11.0092 132.226 11.1398C132.533 11.2705 132.81 11.4634 133.038 11.7063C133.274 11.9363 133.462 12.2116 133.589 12.5158C133.716 12.82 133.78 13.1467 133.778 13.4763C133.781 13.8031 133.717 14.1269 133.589 14.4279C133.462 14.7289 133.274 15.0006 133.038 15.2263C132.808 15.4664 132.531 15.6568 132.224 15.7858C131.918 15.9148 131.588 15.9796 131.255 15.9763ZM129.403 31.0643V18.4823H133.179V31.0413L129.403 31.0643ZM150.26 27.6583C150.137 27.8503 150.036 27.9873 150.036 27.9873C148.598 30.0233 146.479 31.0413 143.681 31.0413C141.27 31.0413 139.336 30.3283 137.879 28.9013C137.161 28.2025 136.596 27.3621 136.22 26.4334C135.844 25.5047 135.665 24.5079 135.694 23.5063C135.668 22.5097 135.846 21.5183 136.218 20.593C136.589 19.6677 137.145 18.8279 137.852 18.1253C138.581 17.4088 139.448 16.8486 140.401 16.4791C141.354 16.1095 142.372 15.9385 143.393 15.9763C144.378 15.9454 145.359 16.122 146.271 16.4946C147.183 16.8673 148.007 17.4276 148.688 18.1393C149.374 18.8511 149.912 19.6921 150.269 20.6135C150.627 21.5349 150.798 22.5183 150.772 23.5063C150.769 24.0144 150.72 24.5211 150.626 25.0203H139.653C140.159 26.8093 141.531 27.7033 143.768 27.7033C144.318 27.734 144.869 27.6503 145.385 27.4576C145.901 27.2648 146.372 26.9671 146.767 26.5833L150.26 27.6583ZM139.571 22.1713H147.005C146.856 21.3063 146.382 20.531 145.679 20.0043C145.012 19.5302 144.212 19.2805 143.393 19.2913C142.497 19.2557 141.616 19.5212 140.888 20.0453C140.211 20.5717 139.744 21.3224 139.571 22.1623V22.1713Z" fill="#101010"/>
<path fill-rule="evenodd" clip-rule="evenodd" d="M15.9192 30.9343L15.9992 35.8393C15.2672 35.8397 14.5638 35.5549 14.0382 35.0453L13.6552 34.5893L4.3502 23.5243L1.1852 19.7573C1.17689 19.7529 1.17023 19.7459 1.1662 19.7373L1.1162 19.6793L1.1062 19.6663C1.04431 19.5847 0.994775 19.4944 0.959202 19.3983C0.911867 19.2805 0.885797 19.1552 0.882202 19.0283V18.9523C0.882202 18.9283 0.884202 18.9033 0.889202 18.8793C0.911084 18.633 1.01536 18.4011 1.1852 18.2213C1.3882 18.0013 1.6832 17.8613 2.0072 17.8613H5.1322L15.9182 30.9363L15.9202 30.9343H15.9192Z" fill="#FCD1CA"/>
<path fill-rule="evenodd" clip-rule="evenodd" d="M15.9172 25.0524V31.1314L1.16321 13.5254C1.0746 13.4261 1.00479 13.3116 0.95721 13.1874C0.910491 13.0684 0.884776 12.9422 0.88121 12.8144V12.7394C0.88921 12.4574 1.00221 12.2044 1.18421 12.0114C1.38621 11.7884 1.68121 11.6514 2.00621 11.6514H4.80421L15.9172 25.0524Z" fill="#FF9D8D"/>
<path fill-rule="evenodd" clip-rule="evenodd" d="M2.0002 5.76811C1.6782 5.76811 1.3822 5.90411 1.1822 6.12611C1.0022 6.31511 0.890202 6.57111 0.882202 6.85011V6.92411C0.885202 7.05711 0.911202 7.18111 0.958202 7.29411C0.959202 7.30511 0.964202 7.31411 0.968202 7.32411C1.01704 7.44172 1.08684 7.54947 1.1742 7.64211L1.1902 7.66011L15.9172 25.0521V35.8391C16.6451 35.8407 17.3448 35.5579 17.8672 35.0511C17.8702 35.0511 17.8702 35.0511 17.8702 35.0491L30.6702 19.8531C30.6862 19.8371 30.7002 19.8191 30.7142 19.8011C30.7822 19.7171 30.8362 19.6221 30.8762 19.5181C30.9262 19.3941 30.9522 19.2581 30.9522 19.1131V6.88511C30.9535 6.60169 30.8453 6.32872 30.6502 6.12311C30.546 6.01 30.4193 5.91991 30.2783 5.85861C30.1373 5.7973 29.985 5.76614 29.8312 5.76711H2.0012L2.0002 5.76811Z" fill="#FF6661"/>
</g>
<defs>
<clipPath id="clip0_1_158">
<rect width="150" height="40" fill="white" transform="translate(0.775208 0.945312)"/>
</clipPath>
</defs>
</svg>
