<svg width="50" height="51" viewBox="0 0 50 51" fill="none" xmlns="http://www.w3.org/2000/svg">
<path d="M11.4584 46.7785C9.44446 46.7785 7.72571 46.0667 6.3021 44.6431C4.87849 43.2195 4.16669 41.5007 4.16669 39.4868C4.16669 37.4729 4.87849 35.7542 6.3021 34.3306C7.72571 32.907 9.44446 32.1951 11.4584 32.1951C12.0834 32.1951 12.691 32.2729 13.2813 32.4285C13.8715 32.584 14.4271 32.8014 14.9479 33.0806L22.9167 25.1118V19.3827C21.3889 18.9313 20.1389 18.0722 19.1667 16.8056C18.1945 15.5389 17.7084 14.0715 17.7084 12.4035C17.7084 10.3896 18.4202 8.67084 19.8438 7.24723C21.2674 5.82362 22.9861 5.11182 25 5.11182C27.0139 5.11182 28.7327 5.82362 30.1563 7.24723C31.5799 8.67084 32.2917 10.3896 32.2917 12.4035C32.2917 14.0701 31.8056 15.5375 30.8334 16.8056C29.8611 18.0736 28.6111 18.9326 27.0834 19.3827V25.1118L35.1042 33.0806C35.625 32.8028 36.1722 32.5861 36.7459 32.4306C37.3195 32.275 37.9181 32.1965 38.5417 32.1951C40.5556 32.1951 42.2743 32.907 43.6979 34.3306C45.1215 35.7542 45.8334 37.4729 45.8334 39.4868C45.8334 41.5007 45.1215 43.2195 43.6979 44.6431C42.2743 46.0667 40.5556 46.7785 38.5417 46.7785C36.5278 46.7785 34.809 46.0667 33.3854 44.6431C31.9618 43.2195 31.25 41.5007 31.25 39.4868C31.25 38.8618 31.3278 38.2542 31.4834 37.6639C31.6389 37.0736 31.8563 36.5181 32.1354 35.9972L25 28.8618L17.8646 35.9972C18.1424 36.5181 18.3597 37.0736 18.5167 37.6639C18.6736 38.2542 18.7514 38.8618 18.75 39.4868C18.75 41.5007 18.0382 43.2195 16.6146 44.6431C15.191 46.0667 13.4722 46.7785 11.4584 46.7785ZM38.5417 42.6118C39.4097 42.6118 40.1479 42.3083 40.7563 41.7014C41.3646 41.0945 41.6681 40.3563 41.6667 39.4868C41.6653 38.6174 41.3618 37.8799 40.7563 37.2743C40.1507 36.6688 39.4125 36.3646 38.5417 36.3618C37.6709 36.359 36.9334 36.6632 36.3292 37.2743C35.725 37.8854 35.4209 38.6229 35.4167 39.4868C35.4125 40.3507 35.7167 41.0889 36.3292 41.7014C36.9417 42.3139 37.6792 42.6174 38.5417 42.6118ZM25 15.5285C25.8681 15.5285 26.6063 15.225 27.2146 14.6181C27.8229 14.0111 28.1264 13.2729 28.125 12.4035C28.1236 11.534 27.8202 10.7965 27.2146 10.191C26.609 9.58543 25.8709 9.28126 25 9.27848C24.1292 9.27571 23.3917 9.57987 22.7875 10.191C22.1834 10.8021 21.8792 11.5396 21.875 12.4035C21.8709 13.2674 22.175 14.0056 22.7875 14.6181C23.4 15.2306 24.1375 15.534 25 15.5285ZM11.4584 42.6118C12.3264 42.6118 13.0646 42.3083 13.6729 41.7014C14.2813 41.0945 14.5847 40.3563 14.5834 39.4868C14.582 38.6174 14.2785 37.8799 13.6729 37.2743C13.0674 36.6688 12.3292 36.3646 11.4584 36.3618C10.5875 36.359 9.85002 36.6632 9.24585 37.2743C8.64169 37.8854 8.33752 38.6229 8.33335 39.4868C8.32919 40.3507 8.63335 41.0889 9.24585 41.7014C9.85835 42.3139 10.5959 42.6174 11.4584 42.6118Z" fill="#FFBC13"/>
</svg>
