<svg width="39" height="39" viewBox="0 0 39 39" fill="none" xmlns="http://www.w3.org/2000/svg">
<g clip-path="url(#clip0_1_117)">
<path fill-rule="evenodd" clip-rule="evenodd" d="M16.1006 7.78449C17.215 7.78449 18.3294 7.8017 19.4424 7.77262C19.7376 7.76491 20.2672 8.0091 20.2435 7.39551C20.2254 6.89616 19.7622 7.07685 19.4815 7.0724C18.2244 7.05253 16.9631 7.00476 15.711 7.08338C14.82 7.13887 14.5575 6.80062 14.6693 5.9835C14.7079 5.70164 14.6708 5.40968 14.6767 5.12247C14.7159 3.20992 15.1782 2.55895 17.0332 2.0872C19.0768 1.56796 21.1683 1.58517 23.2064 2.0326C25.0385 2.43493 25.7995 3.86029 25.707 5.17884C25.5942 6.78787 25.6815 8.41083 25.68 10.0279C25.6773 12.0612 24.6267 13.1403 22.5768 13.1685C20.8885 13.1916 19.1982 13.21 17.5108 13.1631C15.4998 13.1068 14.0246 14.7772 14.0145 16.6702C14.0145 16.8138 14.0391 16.9621 14.0106 17.1007C13.8658 17.7959 14.4444 18.9195 13.7074 19.126C12.5859 19.4411 11.2727 19.4411 10.2834 18.4403C9.94817 18.1021 9.66571 17.7232 9.51676 17.2852C8.7219 14.9517 8.59639 12.5884 9.34468 10.2183C9.81109 8.73899 11.0798 7.81891 12.6514 7.7925C13.8009 7.77322 14.9506 7.78865 16.1 7.78865L16.1006 7.78449ZM18.1485 4.48515C18.1004 3.92053 17.7969 3.5084 17.1705 3.4912C16.4854 3.47339 16.1315 3.88759 16.1306 4.5617C16.13 5.18656 16.4703 5.58681 17.0922 5.60491C17.7755 5.62479 18.1063 5.20139 18.1485 4.48515Z" fill="#386F9F"/>
<path fill-rule="evenodd" clip-rule="evenodd" d="M24.7021 19.224C23.444 19.224 22.1854 19.213 20.9274 19.2329C20.644 19.2364 20.1687 19.0572 20.1539 19.5417C20.1373 20.0912 20.6473 19.9482 20.9713 19.9515C22.2293 19.9672 23.4885 19.9805 24.7463 19.9455C25.3925 19.9277 25.6563 20.0515 25.7046 20.8134C25.9233 24.2626 24.4264 24.5608 21.6656 25.1883C20.0818 25.5482 18.3838 25.3574 16.8219 24.6578C15.5304 24.0801 14.7379 23.2475 14.8379 21.6887C14.937 20.15 14.9536 18.5914 14.8352 17.0542C14.6928 15.1989 15.847 13.8343 18.0915 13.8337C19.6017 13.8334 21.122 13.7183 22.6192 13.856C24.7599 14.0524 26.4384 12.1968 26.512 10.0392C26.5149 9.9677 26.4965 9.89085 26.5149 9.82439C26.7036 9.16126 26.0325 8.17561 26.9303 7.84063C28.2871 7.33475 29.8172 7.86644 30.5103 8.89601C31.3841 10.1923 31.5022 11.7177 31.6434 13.2071C31.7962 14.8126 31.3458 16.324 30.6714 17.7722C30.2133 18.7543 29.4431 19.229 28.3699 19.2305C27.1475 19.2314 25.9254 19.2305 24.7027 19.2305L24.7021 19.224ZM24.3745 22.4283C24.2401 21.8154 23.9636 21.397 23.2515 21.3795C22.5109 21.3617 22.3198 21.9156 22.3237 22.4102C22.3278 22.936 22.4744 23.5828 23.2761 23.5223C23.9425 23.4713 24.2674 23.0585 24.3745 22.4283Z" fill="#FFCF46"/>
<path fill-rule="evenodd" clip-rule="evenodd" d="M4.9134 35.0317C4.9134 35.7978 4.94811 36.5152 4.89708 37.2264C4.87512 37.5332 5.21336 38.1106 4.56981 38.11C4.00252 38.11 3.85683 37.6584 3.87493 37.1128C3.90965 36.0714 3.88502 35.0278 3.88502 33.9855V31.6125C3.88502 30.1824 4.26866 29.6982 5.63646 29.4021C6.90813 29.1255 7.90743 29.5537 8.42132 30.6669C8.93521 31.7804 8.97497 32.9278 8.46078 34.0606C7.95401 35.1768 7.02058 35.5934 5.82487 35.2625C5.55249 35.1884 5.27745 35.124 4.9134 35.0317ZM4.9134 32.2285C4.9134 32.6231 4.9668 33.0254 4.90242 33.4093C4.75347 34.2968 5.32018 34.5154 5.98835 34.6733C6.64911 34.8294 7.10218 34.5484 7.36713 33.9662C7.81248 32.9901 7.88725 31.9834 7.54901 30.9511C7.24875 30.0337 6.55535 29.9263 5.74594 30.0403C4.94663 30.1539 4.83833 30.6975 4.90805 31.3695C4.93772 31.6528 4.9134 31.9421 4.9134 32.2285ZM13.5139 34.9842C12.9665 35.1267 12.4912 35.2786 12.0046 35.3699C10.9394 35.569 10.1508 34.9842 9.87339 33.9179C9.52921 32.5981 9.82057 31.2835 9.82947 29.9667C9.83333 29.3665 10.3888 29.6006 10.773 29.2789C10.773 30.6883 10.7783 31.9047 10.7712 33.1203C10.7674 33.731 10.9252 34.233 11.5026 34.5549C12.1399 34.9104 12.6627 34.5718 13.2175 34.3437C13.6151 34.1802 13.5656 33.8464 13.5662 33.5289C13.5691 32.3801 13.5659 31.2324 13.5697 30.0836C13.5703 29.8002 13.5409 29.454 13.9593 29.4679C14.3322 29.4801 14.4945 29.7017 14.4883 30.1082C14.4613 32.0092 14.515 33.9128 14.4379 35.8111C14.3794 37.2466 13.3668 38.1234 11.91 38.1877C11.6919 38.1969 11.4634 38.2171 11.3818 37.9465C11.2575 37.5299 11.5949 37.6086 11.8165 37.5377C13.419 37.0279 13.6285 36.7235 13.5139 34.9842ZM20.2859 30.0515C20.7099 29.8513 20.9535 29.6679 21.2214 29.6184C22.7248 29.3403 23.8769 29.4463 23.8739 31.4713C23.8718 32.5142 23.8745 33.5574 23.8718 34.6C23.8713 34.892 23.8899 35.1762 23.4547 35.2014C22.9957 35.2287 22.8948 34.9661 22.8969 34.6062C22.9022 33.6013 22.9295 32.5964 22.9286 31.5917C22.928 30.8114 22.7687 30.1207 21.7762 30.123C20.9057 30.1245 20.2892 30.7743 20.2847 31.6709C20.2797 32.6416 20.28 33.6122 20.2856 34.5828C20.2865 34.9276 20.2939 35.2299 19.7954 35.2014C19.3465 35.1747 19.4017 34.8721 19.4017 34.5935C19.3988 32.0418 19.4112 29.4875 19.3896 26.9341C19.3857 26.4866 19.5622 26.2089 19.9592 26.1899C20.5194 26.1641 20.2628 26.654 20.2711 26.8997C20.3076 27.8998 20.2859 28.9024 20.2859 30.0515ZM25.0302 32.3394C24.9735 30.3471 25.9185 29.2834 27.6293 29.3451C28.488 29.3765 29.1321 29.7575 29.5478 30.4993C30.2821 31.8113 30.1827 33.1239 29.3882 34.3526C28.8422 35.1964 28.0026 35.5943 26.9789 35.3771C25.9695 35.1634 25.1791 34.2546 25.0361 33.1954C24.9981 32.915 25.0302 32.6246 25.0302 32.3394ZM28.9823 32.386C28.9372 32.0383 28.9452 31.5535 28.8004 31.1209C28.6025 30.5275 28.2417 30.0498 27.5056 30.0171C26.7629 29.9851 26.3923 30.4192 26.1446 31.02C25.7556 31.9632 25.7808 32.9103 26.2022 33.8366C26.4727 34.4333 26.8905 34.87 27.6145 34.7489C28.3274 34.63 28.7482 34.1627 28.8939 33.4693C28.96 33.1551 28.9493 32.8257 28.9823 32.386ZM31.0613 32.6516C31.0613 32.2919 31.0544 31.9329 31.0625 31.5751C31.0791 30.8853 30.8592 30.121 31.7894 29.7685C32.8545 29.3662 33.9102 29.0647 34.9825 29.6875C35.3836 29.9207 35.5314 30.3444 35.5356 30.7942C35.5465 32.0495 35.5299 33.3055 35.5468 34.5608C35.5528 34.9988 35.4376 35.2177 34.9454 35.2059C34.406 35.1931 34.5196 34.8252 34.5232 34.5315C34.536 33.5286 34.6057 32.5266 34.5867 31.5253C34.5618 30.2643 33.8699 29.7501 32.6911 30.0596C32.2021 30.1883 31.8965 30.4257 31.9205 31.031C31.9683 32.2124 31.9315 33.3981 31.936 34.5816C31.9371 34.9246 31.9422 35.2284 31.4473 35.1996C30.9939 35.1735 31.0681 34.8599 31.0645 34.5878C31.0562 33.9422 31.0622 33.2963 31.0613 32.6516ZM18.1345 29.8554C18.0603 29.9432 17.998 30.0809 17.9327 30.0821C16.7566 30.0984 17.083 30.9764 17.0527 31.6276C17.0239 32.2344 17.0527 32.8441 17.0441 33.4527C17.0352 34.0573 17.0877 34.6193 17.8236 34.7798C18.0345 34.8255 18.1306 34.9471 18.0867 35.1578C18.0384 35.3904 17.8529 35.3812 17.6693 35.3788C16.8237 35.364 16.1967 34.7662 16.1718 33.8909C16.1463 32.9966 16.181 32.1003 16.1599 31.2069C16.149 30.7826 16.3694 30.2411 15.6852 30.0729C15.6101 30.0548 15.5834 29.8421 15.5345 29.7207C16.4471 29.4344 16.0686 28.6472 16.1938 28.05C16.2531 27.7672 16.5216 27.6898 16.7753 27.6657C17.0319 27.6414 17.034 27.8491 17.0423 28.0227C17.0762 28.711 16.7198 29.6323 17.987 29.5822C18.0295 29.5807 18.079 29.7492 18.1345 29.8554Z" fill="#386F9F"/>
</g>
<defs>
<clipPath id="clip0_1_117">
<rect width="37.978" height="37.978" fill="white" transform="translate(0.721252 0.956055)"/>
</clipPath>
</defs>
</svg>
