<svg width="39" height="39" viewBox="0 0 39 39" fill="none" xmlns="http://www.w3.org/2000/svg">
<path d="M19.6112 17.3366C21.1352 17.3366 22.3706 16.1012 22.3706 14.5772C22.3706 13.0533 21.1352 11.8179 19.6112 11.8179C18.0873 11.8179 16.8519 13.0533 16.8519 14.5772C16.8519 16.1012 18.0873 17.3366 19.6112 17.3366Z" fill="#61DAFB"/>
<path d="M19.6111 24.724C21.777 26.8306 23.9133 28.0768 25.6342 28.0768C26.1979 28.0768 26.732 27.9581 27.177 27.6911C28.7199 26.801 29.2836 24.5757 28.7496 21.401C28.6606 20.8372 28.5419 20.2735 28.3935 19.6801C28.9869 19.5021 29.521 19.324 30.0551 19.146C33.0518 17.9889 34.7133 16.3867 34.7133 14.6361C34.7133 12.8559 33.0518 11.2537 30.0551 10.1262C29.521 9.91854 28.9869 9.74051 28.3935 9.59216C28.5419 8.99875 28.6606 8.43502 28.7496 7.87128C29.254 4.63722 28.6902 2.38227 27.1474 1.49216C26.7023 1.22513 26.1683 1.10645 25.6045 1.10645C23.9133 1.10645 21.7474 2.3526 19.5814 4.45919C17.4452 2.3526 15.3089 1.10645 13.588 1.10645C13.0243 1.10645 12.4902 1.22513 12.0452 1.49216C10.5023 2.38227 9.93858 4.60755 10.4726 7.78227C10.5617 8.34601 10.6803 8.90974 10.8287 9.50315C10.2353 9.68117 9.70122 9.85919 9.16715 10.0372C6.17045 11.1944 4.50891 12.7966 4.50891 14.5471C4.50891 16.3273 6.17045 17.9295 9.16715 19.057C9.70122 19.2647 10.2353 19.4427 10.8287 19.5911C10.6803 20.1845 10.5617 20.7482 10.4726 21.3119C9.96825 24.4867 10.532 26.7416 12.0452 27.6021C12.4902 27.8691 13.0243 27.9878 13.588 27.9878C15.3089 28.0471 17.4452 26.801 19.6111 24.724ZM17.9496 20.7185C18.4836 20.7482 19.0474 20.7482 19.6111 20.7482C20.1748 20.7482 20.7386 20.7482 21.2727 20.7185C20.7386 21.4306 20.1748 22.0834 19.6111 22.7065C19.0474 22.0834 18.4836 21.4306 17.9496 20.7185ZM14.2705 17.6625C14.5672 18.1669 14.8342 18.6416 15.1606 19.1163C14.2408 18.9977 13.3803 18.8493 12.5496 18.6713C12.8166 17.8702 13.1133 17.0394 13.4694 16.2086C13.7067 16.6834 13.9737 17.1878 14.2705 17.6625ZM12.5496 10.5119C13.3803 10.3339 14.2408 10.1856 15.1606 10.0669C14.8639 10.5416 14.5672 11.0163 14.2705 11.5207C13.9737 12.0251 13.7067 12.4999 13.4694 13.0043C13.0836 12.1438 12.7869 11.313 12.5496 10.5119ZM14.1814 14.5768C14.5672 13.7757 14.9825 12.9746 15.4573 12.1735C15.9023 11.4021 16.4067 10.6306 16.9111 9.85919C17.8012 9.79985 18.6913 9.77018 19.6111 9.77018C20.5606 9.77018 21.4507 9.79985 22.3111 9.85919C22.8452 10.6306 23.3199 11.4021 23.765 12.1735C24.2397 12.9746 24.6551 13.7757 25.0408 14.5768C24.6551 15.3779 24.2397 16.179 23.765 16.9801C23.3199 17.7515 22.8155 18.5229 22.3111 19.2944C21.421 19.3537 20.5309 19.3834 19.6111 19.3834C18.6617 19.3834 17.7716 19.3537 16.9111 19.2944C16.377 18.5229 15.9023 17.7515 15.4573 16.9801C14.9825 16.179 14.5672 15.3779 14.1814 14.5768ZM25.7825 12.9746L24.9814 11.4911C24.6847 10.9867 24.4177 10.5119 24.0913 10.0372C25.0111 10.1559 25.8716 10.3042 26.7023 10.4823C26.4353 11.313 26.1386 12.1438 25.7825 12.9746ZM25.7825 16.179C26.1386 17.0097 26.4353 17.8405 26.7023 18.6416C25.8716 18.8196 25.0111 18.968 24.0913 19.0867C24.388 18.6119 24.6847 18.1372 24.9814 17.6328C25.2485 17.1878 25.5155 16.6834 25.7825 16.179ZM26.465 26.4746C26.2276 26.6229 25.9309 26.6823 25.6045 26.6823C24.1507 26.6823 22.3408 25.4955 20.5606 23.7152C21.421 22.7955 22.2518 21.757 23.0825 20.5999C24.477 20.4812 25.8122 20.2735 27.0584 19.9768C27.2067 20.5108 27.2957 21.0449 27.3847 21.579C27.8001 24.101 27.4738 25.9108 26.465 26.4746ZM28.0078 10.8383C31.3309 11.7878 33.3188 13.2416 33.3188 14.5768C33.3188 15.7339 31.954 16.8911 29.5507 17.8108C29.076 17.9889 28.5419 18.1669 28.0078 18.3152C27.6221 17.0988 27.1474 15.8526 26.554 14.5768C27.1474 13.301 27.6518 12.0548 28.0078 10.8383ZM25.6342 2.47128C25.9606 2.47128 26.2276 2.53062 26.4946 2.67897C27.4738 3.24271 27.8298 5.02293 27.4144 7.57458C27.3254 8.07897 27.2067 8.61304 27.088 9.17678C25.8419 8.90974 24.5067 8.70205 23.1122 8.5537C22.3111 7.39656 21.4507 6.3581 20.5902 5.43831C22.3705 3.68776 24.1803 2.47128 25.6342 2.47128ZM21.2727 8.43502C20.7386 8.40535 20.1748 8.40535 19.6111 8.40535C19.0474 8.40535 18.4836 8.40535 17.9496 8.43502C18.4836 7.72293 19.0474 7.07018 19.6111 6.44711C20.1748 7.07018 20.7386 7.7526 21.2727 8.43502ZM12.7573 2.67897C12.9946 2.53062 13.2913 2.47128 13.6177 2.47128C15.0716 2.47128 16.8814 3.65809 18.6617 5.43831C17.8012 6.3581 16.9705 7.39656 16.1397 8.5537C14.7452 8.67238 13.41 8.88007 12.1639 9.17678C12.0155 8.64271 11.9265 8.10864 11.8375 7.57458C11.4221 5.0526 11.7485 3.27238 12.7573 2.67897ZM11.2144 18.3152C7.89133 17.3658 5.90342 15.9119 5.90342 14.5768C5.90342 13.4196 7.26825 12.2625 9.67155 11.3427C10.1463 11.1647 10.6803 10.9867 11.2144 10.8383C11.6001 12.0548 12.0748 13.301 12.6683 14.5768C12.0748 15.8526 11.5705 17.1284 11.2144 18.3152ZM11.8375 21.579C11.9265 21.0746 12.0452 20.5405 12.1639 19.9768C13.41 20.2438 14.7452 20.4515 16.1397 20.5999C16.9408 21.757 17.8012 22.7955 18.6617 23.7152C16.8814 25.4658 15.0716 26.6823 13.6177 26.6823C13.2913 26.6823 13.0243 26.6229 12.7573 26.4746C11.7485 25.9108 11.4221 24.101 11.8375 21.579ZM10.5913 33.8032C11.2441 33.0021 11.2737 32.1119 10.9177 31.2218C10.5617 30.3317 9.8199 29.9163 8.90012 29.8867C7.80232 29.857 6.67485 29.8867 5.57704 29.8867H5.36935V37.5713H6.25946V34.6636H7.65397C7.83199 34.6636 7.98034 34.7229 8.06935 34.8713L9.84957 37.6306C9.87924 37.69 9.96825 37.779 10.0276 37.779H11.1847C10.4726 36.6812 9.79023 35.6427 9.07814 34.5746C9.70122 34.4856 10.2353 34.2779 10.5913 33.8032ZM6.25946 33.7438V30.8065H6.58583C7.26825 30.8065 7.98034 30.7768 8.66276 30.8361C9.46386 30.8658 10.0276 31.4889 10.0276 32.29C10.0276 33.0911 9.37485 33.7141 8.57375 33.7438C7.86166 33.7735 7.14957 33.7438 6.25946 33.7438ZM17.7419 34.1295C17.2672 32.0526 15.3683 31.5185 13.9144 32.1713C12.7869 32.6757 12.2825 33.6548 12.2529 34.8713C12.2232 35.7911 12.4902 36.6218 13.2023 37.2449C14.0034 37.957 14.9825 38.046 15.9913 37.868C16.5551 37.7493 17.0595 37.4823 17.4452 37.0669C17.2968 36.8592 17.1485 36.6515 17.0001 36.4735C16.1694 37.1856 15.2496 37.4229 14.2408 36.9482C13.588 36.6218 13.2617 35.8207 13.2023 35.2273H17.8012V34.8416C17.8309 34.5746 17.8012 34.3372 17.7419 34.1295ZM13.2617 34.6043C13.1726 33.7141 14.0628 32.7647 15.0419 32.7647C16.1694 32.735 16.8814 33.4174 16.9111 34.6043H13.2617ZM22.3705 32.0229C21.9254 31.9339 21.4507 31.9043 21.0056 31.9339C20.2935 31.9933 19.6705 32.3196 19.1661 32.8537C19.3144 33.0614 19.4331 33.2691 19.6111 33.5065C19.6705 33.4471 19.7298 33.3878 19.7891 33.3581C20.2639 32.913 20.8276 32.6757 21.51 32.735C22.0441 32.7647 22.5485 32.9427 22.6968 33.4768C22.8155 33.8922 22.7858 34.3372 22.8155 34.7823C22.7265 34.7823 22.6968 34.7526 22.6672 34.7229C21.9551 34.1295 21.154 34.0108 20.2935 34.2185C19.4924 34.4262 18.988 35.0493 18.9287 35.8504C18.8694 36.7702 19.2847 37.4526 20.0858 37.779C20.5902 37.9867 21.154 37.9867 21.688 37.868C22.1034 37.779 22.2814 37.5416 22.8748 37.2152V37.601H23.7056C23.7056 36.4141 23.7353 34.9603 23.7056 33.5955C23.7056 32.735 23.2012 32.201 22.3705 32.0229ZM22.7858 35.7614C22.7562 35.8504 22.7858 35.9394 22.7858 36.0284C22.7858 36.6515 22.6375 36.8592 22.0441 37.0966C21.6287 37.2449 21.1836 37.3043 20.7386 37.1559C20.2342 37.0076 19.8781 36.5625 19.8781 36.0581C19.8485 35.5537 20.1748 35.0493 20.6792 34.901C21.3617 34.6636 21.9847 34.8119 22.5485 35.2273C22.7265 35.3757 22.8452 35.524 22.7858 35.7614ZM27.4144 32.824C28.1858 32.5867 28.8979 32.735 29.432 33.3878L29.521 33.4471C29.7287 33.2691 29.9067 33.0911 30.1441 32.8834C30.0551 32.7944 30.0254 32.735 29.9661 32.646C29.1056 31.7262 27.4144 31.6076 26.3759 32.3493C24.9221 33.4174 24.9518 35.4944 25.6639 36.5922C26.3463 37.6306 27.3254 37.9867 28.4825 37.8383C29.165 37.7493 29.7287 37.4229 30.1738 36.8592C29.9661 36.6812 29.7584 36.5032 29.5507 36.2955C29.4913 36.3548 29.4617 36.3845 29.432 36.4438C28.6309 37.3339 27.2957 37.2449 26.5836 36.2955C26.1683 35.7317 26.0792 35.079 26.1979 34.4262C26.2573 33.6845 26.643 33.0911 27.4144 32.824ZM33.5858 36.8592C33.5265 36.8889 33.4968 36.9185 33.4968 36.9185C33.2595 37.0966 33.0221 37.1262 32.7551 37.0372C32.488 36.9185 32.4584 36.6812 32.4287 36.4438V33.0614C32.4287 33.0021 32.4287 33.1207 32.4584 32.824H33.5858V31.9339H32.399V30.4504H31.5089V32.0526H30.7375C30.6781 32.0526 30.5891 32.1119 30.5891 32.1713C30.5595 32.379 30.5891 32.5273 30.5891 32.824H31.5386V36.6218C31.5386 37.0966 31.6573 37.5119 32.0727 37.7493C32.5177 38.0163 33.3781 37.957 33.7639 37.6306C33.8232 37.601 33.8529 37.4823 33.8529 37.4526C33.7639 37.2746 33.6749 37.0669 33.5858 36.8592Z" fill="#61DAFB"/>
</svg>
