<svg width="39" height="95" viewBox="0 0 39 95" fill="none" xmlns="http://www.w3.org/2000/svg">
<path d="M31.9103 54.9095C31.9103 54.9095 34.7586 54.5931 34.7586 51.1117C34.7586 47.6304 31.4355 47.1557 31.4355 47.1557H25.4223V58.5491H28.4289V55.859L31.1191 58.5491H35.3916L31.9103 54.9095ZM30.6443 52.6942H28.2707V50.1623H30.6443C30.6443 50.1623 31.2773 50.4788 31.2773 51.4282C31.4355 52.3777 30.6443 52.6942 30.6443 52.6942ZM34.2839 41.459V41.7755C21.4663 38.1359 16.4026 49.3711 17.352 58.0744H7.38279C8.49048 49.5293 19.2509 32.5974 34.2839 41.459ZM33.018 39.4018C31.9103 38.9271 30.8026 38.4524 29.6949 38.1359L29.8531 36.0788L33.1762 37.3447L33.018 39.4018ZM29.8531 42.2502C30.9608 42.2502 32.0685 42.4084 33.1762 42.7249L33.018 44.6238L30.1696 44.3073L29.8531 42.2502ZM22.574 37.6612L21.941 35.7623L25.2641 35.4458L25.8971 37.5029C25.5806 37.5029 22.8905 37.6612 22.574 37.6612ZM24.6311 43.5161C25.2641 43.1996 26.3718 42.7249 27.796 42.4084L28.4289 44.3073L25.5806 45.415L24.6311 43.5161ZM19.2509 38.7689C18.3015 39.2436 17.352 39.7183 16.4026 40.3513L15.1366 38.2942L17.985 36.7117L19.2509 38.7689ZM23.207 44.4656L24.4729 46.3645L22.7322 48.4216L20.9916 46.8392C21.4663 45.8898 22.2575 45.0986 23.207 44.4656ZM18.9344 52.2194C19.0927 50.9535 19.4092 49.8458 19.8839 48.5799L21.7828 50.1623L21.3081 53.1689L18.9344 52.2194ZM13.0795 43.1997C12.2883 43.9909 11.4971 44.9403 10.8641 45.7315L8.80696 43.9909L11.1806 41.459L13.0795 43.1997ZM8.174 50.1623C7.54103 51.4282 7.0663 52.6942 6.59158 53.8019L3.74323 52.6942L5.1674 49.0546L8.174 50.1623ZM18.7762 54.2766L21.6245 55.226L22.0993 58.3909L18.9344 57.5997C18.9344 57.2832 18.7762 56.1755 18.7762 54.2766Z" fill="black"/>
</svg>
