<svg width="36" height="33" viewBox="0 0 36 33" fill="none" xmlns="http://www.w3.org/2000/svg">
<g clip-path="url(#clip0_1_146)">
<path d="M18.2194 0.945312L8.26835 1.99745L0.564209 12.3394L18.2194 32.8987L35.8746 12.3394L28.1706 1.99745L18.2194 0.945312Z" fill="#FDB300"/>
<path d="M0.564209 12.3394L18.2194 32.8985L7.71538 12.3394H0.564209ZM28.7232 12.3394L18.2194 32.8985L35.8744 12.3394H28.7232Z" fill="#EB6C00"/>
<path d="M7.71539 12.3394L18.2194 32.8985L28.7234 12.3394H7.71539Z" fill="#FDAD00"/>
<path d="M8.26836 1.99745L7.71539 12.3394L18.2194 0.945312L8.26836 1.99745ZM28.7233 12.3395L28.1704 1.99745L18.2194 0.94545L28.7233 12.3395Z" fill="#FDD231"/>
<path d="M28.7234 12.3396H35.8744L28.1704 1.99756L28.7234 12.3396ZM0.564209 12.3396H7.71538L8.26835 1.99756L0.564209 12.3396Z" fill="#FDAD00"/>
<path d="M18.2194 0.945312L7.71539 12.3394H28.7234L18.2194 0.945312Z" fill="#FEEEB7"/>
</g>
<defs>
<clipPath id="clip0_1_146">
<rect width="35.32" height="32" fill="white" transform="translate(0.559387 0.945312)"/>
</clipPath>
</defs>
</svg>
