<svg width="94" height="25" viewBox="0 0 94 25" fill="none" xmlns="http://www.w3.org/2000/svg">
<g clip-path="url(#clip0_1_67)">
<path d="M31.3175 17.1639C31.0312 17.0093 30.8109 16.6782 30.8109 16.237C30.8109 15.6423 31.2735 15.16 31.8925 15.16C32.1118 15.16 32.311 15.2246 32.4642 15.3129C33.5901 16.063 34.7588 16.4381 35.8156 16.4381C36.9618 16.4381 37.6231 15.9525 37.6231 15.1799V15.1362C37.6231 14.2322 36.3893 13.9241 35.0213 13.5055C33.3027 13.0201 31.3846 12.3154 31.3846 10.0883V10.0437C31.3846 7.83867 33.2144 6.49433 35.5294 6.49433C36.7643 6.49433 38.0644 6.84757 39.1889 7.44193C39.5647 7.64099 39.8279 7.99387 39.8279 8.45563C39.8279 9.07362 39.3437 9.53761 38.7264 9.53761C38.5048 9.53761 38.3726 9.49336 38.1982 9.40466C37.2486 8.91902 36.2789 8.60987 35.4635 8.60987C34.4266 8.60987 33.8312 9.09607 33.8312 9.7579V9.80078C33.8312 10.6609 35.0878 11.0127 36.4551 11.4545C38.1527 11.984 40.0708 12.7552 40.0708 14.8495V14.8941C40.0708 17.3411 38.1738 18.5522 35.7493 18.5522C34.2731 18.5522 32.6636 18.0908 31.3175 17.1639Z" fill="#5FB832"/>
<path d="M50.4053 12.5351V12.4905C50.4053 10.2428 48.8838 8.76549 47.0768 8.76549C45.2691 8.76549 43.6818 10.2646 43.6818 12.4905V12.5351C43.6818 14.7618 45.2691 16.2623 47.0768 16.2623C48.9066 16.2623 50.4053 14.8283 50.4053 12.5351ZM41.0797 7.83851C41.0797 7.09032 41.6523 6.49418 42.4034 6.49418C43.1524 6.49418 43.7477 7.09032 43.7477 7.83851V8.63335C44.6076 7.42136 45.8198 6.45094 47.7163 6.45094C50.4495 6.45094 53.1175 8.61048 53.1175 12.4905V12.5351C53.1175 16.3937 50.4718 18.5757 47.7163 18.5757C45.7764 18.5757 44.5636 17.6046 43.7477 16.5267V20.647C43.7477 21.3993 43.1524 21.9727 42.4034 21.9727C41.6763 21.9727 41.0797 21.3993 41.0797 20.647V7.83851Z" fill="#5FB832"/>
<path d="M54.128 7.84C54.128 7.09185 54.6995 6.49566 55.4494 6.49566C56.2008 6.49566 56.7952 7.09185 56.7952 7.84V8.4814C56.9283 7.48238 58.5581 6.49566 59.7271 6.49566C60.5644 6.49566 61.0501 7.04638 61.0501 7.81759C61.0501 8.5225 60.5868 8.98629 59.9913 9.09624C58.0953 9.42707 56.7952 11.0861 56.7952 13.3814V17.2275C56.7952 17.9559 56.2008 18.5508 55.4494 18.5508C54.7224 18.5508 54.128 17.9773 54.128 17.2275V7.84Z" fill="#5FB832"/>
<path d="M62.0591 7.84538C62.0591 7.09601 62.6342 6.49983 63.3825 6.49983C64.1319 6.49983 64.7273 7.09601 64.7273 7.84538V17.2297C64.7273 17.9783 64.1319 18.5508 63.3825 18.5508C62.6545 18.5508 62.0591 17.9783 62.0591 17.2297V7.84538Z" fill="#5FB832"/>
<path d="M66.0721 7.85059C66.0721 7.10123 66.6457 6.50646 67.394 6.50646C68.1444 6.50646 68.7393 7.10123 68.7393 7.85059V8.39796C69.4902 7.31735 70.5688 6.4997 72.3764 6.4997C75 6.4997 76.5221 8.26419 76.5221 10.9535V17.2282C76.5221 17.9773 75.948 18.5513 75.1986 18.5513C74.4493 18.5513 73.8543 17.9773 73.8543 17.2282V11.7695C73.8543 9.96258 72.9505 8.92561 71.3629 8.92561C69.82 8.92561 68.7393 10.0058 68.7393 11.815V17.2282C68.7393 17.9773 68.1444 18.5513 67.394 18.5513C66.667 18.5513 66.0721 17.9773 66.0721 17.2282V7.85059Z" fill="#5FB832"/>
<path d="M83.5732 16.2378C81.7417 16.2378 80.244 14.8043 80.244 12.5112V12.4679C80.244 10.2196 81.7641 8.74235 83.5732 8.74235C85.3813 8.74235 86.9685 10.2419 86.9685 12.4679V12.5112C86.9685 14.7384 85.3813 16.2378 83.5732 16.2378ZM88.2447 6.47104C87.4963 6.47104 86.9009 7.06758 86.9009 7.81598V8.60939C86.0403 7.3974 84.8291 6.42755 82.9341 6.42755C80.1988 6.42755 77.532 8.58714 77.532 12.4679V12.5112C77.532 16.3698 80.1769 18.5512 82.9341 18.5512C84.8626 18.5512 86.0723 17.5917 86.8887 16.519C86.7551 18.6153 85.4718 19.7221 83.2206 19.7221C81.8768 19.7221 80.7078 19.3902 79.648 18.7939C79.516 18.7294 79.3641 18.6857 79.1649 18.6857C78.5476 18.6857 78.0391 19.1934 78.0391 19.7867C78.0391 20.2942 78.3261 20.6689 78.7905 20.8453C80.1993 21.529 81.6533 21.8818 83.2856 21.8818C85.3813 21.8818 87.0132 21.3752 88.0714 20.3164C89.0392 19.3456 89.5686 17.8923 89.5686 15.9292V7.81598C89.5686 7.06758 88.9955 6.47104 88.2447 6.47104Z" fill="#5FB832"/>
<path d="M64.738 3.28738C64.738 4.02917 64.1354 4.63232 63.3927 4.63232C62.6494 4.63232 62.0484 4.02917 62.0484 3.28738C62.0484 2.54355 62.6494 1.94304 63.3927 1.94304C64.1354 1.94304 64.738 2.54355 64.738 3.28738Z" fill="#5FB832"/>
<path d="M22.3676 17.754C19.4102 21.6943 13.0929 20.3642 9.04259 20.5556C9.04259 20.5556 8.32559 20.5954 7.6034 20.7143C7.6034 20.7143 7.87648 20.5978 8.22474 20.4778C11.0694 19.494 12.4138 19.2963 14.1423 18.4085C17.39 16.7449 20.6222 13.121 21.2799 9.35657C20.0437 12.9771 16.284 16.0933 12.8606 17.3587C10.5175 18.2233 6.2801 19.0648 6.27949 19.0651C6.28147 19.0681 6.11062 18.9764 6.10823 18.9745C3.22648 17.5724 3.14333 11.331 8.37715 9.31908C10.6719 8.43635 12.8668 8.92118 15.3475 8.33073C17.9933 7.70167 21.0576 5.71847 22.3031 3.12566C23.6995 7.26724 25.3768 13.7468 22.3676 17.754ZM22.419 1.84229C22.067 2.67874 21.6373 3.43247 21.142 4.10665C18.9617 1.86907 15.9187 0.474943 12.5551 0.474943C5.93854 0.474943 0.556274 5.85782 0.556274 12.4731C0.556274 15.9411 2.03655 19.0687 4.39657 21.2611L4.65932 21.4939C4.22054 21.136 4.15307 20.4917 4.5087 20.0525C4.86651 19.6131 5.51149 19.545 5.95048 19.9009C6.39065 20.2575 6.45771 20.9034 6.10132 21.3434C5.74625 21.7836 5.10009 21.8501 4.66052 21.4948L4.83932 21.6532C6.92689 23.4109 9.6179 24.4727 12.5551 24.4727C18.8794 24.4727 24.0726 19.551 24.5171 13.339C24.8463 10.2974 23.9479 6.43532 22.419 1.84229Z" fill="#5FB832"/>
<path d="M92.6926 7.31131H92.2735V7.8662H92.6926C92.8282 7.8662 92.9766 7.75666 92.9766 7.59531C92.9766 7.42085 92.8282 7.31131 92.6926 7.31131ZM92.9512 8.68501L92.5442 8.06586H92.2735V8.68501H92.0545V7.11765H92.6926C92.9573 7.11765 93.2027 7.30517 93.2027 7.59531C93.2027 7.94337 92.8923 8.05966 92.8023 8.05966L93.222 8.68501H92.9512ZM92.5768 6.73717C91.9315 6.73717 91.4154 7.25314 91.4154 7.89856C91.4154 8.53677 91.9315 9.05949 92.5768 9.05949C93.2149 9.05949 93.7376 8.53677 93.7376 7.89856C93.7376 7.25314 93.2149 6.73717 92.5768 6.73717ZM92.5768 9.26611C91.8218 9.26611 91.2091 8.65306 91.2091 7.89856C91.2091 7.13685 91.8218 6.5306 92.5768 6.5306C93.3378 6.5306 93.9444 7.13685 93.9444 7.89856C93.9444 8.65306 93.3378 9.26611 92.5768 9.26611Z" fill="#5FB832"/>
</g>
<defs>
<clipPath id="clip0_1_67">
<rect width="93.3886" height="24" fill="white" transform="translate(0.556274 0.472656)"/>
</clipPath>
</defs>
</svg>
