<svg width="67" height="20" viewBox="0 0 67 20" fill="none" xmlns="http://www.w3.org/2000/svg">
<path d="M19.4226 5.36221C19.4227 4.96308 19.3822 4.56497 19.3017 4.17403C19.1525 3.37148 18.7553 2.63595 18.166 2.07104C17.8669 1.77571 17.518 1.53545 17.1355 1.36128C16.764 1.17593 16.3671 1.04659 15.9577 0.977481C15.5529 0.898619 15.1059 0.898619 14.7011 0.861816H4.70062C4.38897 0.866856 4.07803 0.893205 3.76998 0.940679C3.46282 0.976357 3.16204 1.0542 2.87614 1.17201C2.79727 1.20881 2.67108 1.25087 2.59222 1.28767C2.32048 1.43125 2.06185 1.59838 1.81931 1.78713C1.74044 1.86599 1.65632 1.9028 1.57745 1.9764C1.27536 2.2487 1.0243 2.57274 0.836089 2.93326C0.636135 3.29102 0.499188 3.68049 0.431234 4.08465C0.370667 4.47662 0.330303 4.87146 0.310303 5.26758V14.4314C0.310236 14.8305 0.350754 15.2286 0.431234 15.6195C0.580434 16.4221 0.977649 17.1576 1.56693 17.7225C1.86299 18.0088 2.2063 18.2418 2.5817 18.4113C2.95319 18.5966 3.35008 18.726 3.75946 18.7951C4.16432 18.8739 4.61124 18.8739 5.01609 18.9107H14.7221C15.1436 18.9101 15.5642 18.8714 15.9787 18.7951C16.3806 18.7256 16.7703 18.5981 17.1355 18.4165C17.5157 18.2358 17.8695 18.0041 18.187 17.7278C18.4854 17.4546 18.7328 17.1306 18.9179 16.7709C19.1178 16.4132 19.2548 16.0237 19.3227 15.6195C19.3835 15.2258 19.4239 14.8292 19.4437 14.4314V5.36221H19.4226Z" fill="#F05138"/>
<path d="M13.0869 14.8265C11.3834 15.757 9.04363 15.8517 6.69337 14.9001C4.85989 14.1624 3.29013 12.8913 2.18738 11.2514C2.70124 11.6352 3.26118 11.9531 3.85412 12.1977C6.28325 13.2492 8.71765 13.2019 10.4265 12.1977C8.17102 10.4813 6.13966 8.48899 4.37991 6.26729C4.07548 5.94478 3.80422 5.59251 3.5702 5.2158C5.41825 6.76724 7.38354 8.17343 9.44849 9.42178C7.9441 7.89643 6.56062 6.25641 5.31055 4.51655C7.39552 6.51627 9.68675 8.28919 12.1458 9.80557L12.4087 9.95278C12.4803 9.7813 12.5417 9.60574 12.5927 9.42703C13.1605 7.47125 12.5138 5.24734 11.0942 3.40723C14.3804 5.28414 16.3258 8.81191 15.5161 11.7666C15.5161 11.8455 15.474 11.9243 15.4477 12.0032L15.474 12.0347C17.0987 13.9537 16.6518 15.9831 16.4467 15.5993C15.5581 13.9958 13.9124 14.49 13.0869 14.8265Z" fill="#FEFEFE"/>
<path d="M62.5319 8.68128H57.8261V8.10821C57.8261 7.65081 57.8682 7.18815 57.905 6.73075C57.9352 6.32895 58.046 5.93735 58.231 5.57937C58.3951 5.27155 58.6315 5.00815 58.9198 4.81178C59.2899 4.6029 59.7094 4.49757 60.1343 4.50684C60.3939 4.50763 60.6528 4.53404 60.9072 4.58571C61.1123 4.66457 61.27 4.70137 61.433 4.77498L61.759 4.00738C61.5508 3.9111 61.3344 3.83368 61.1123 3.77605C60.8214 3.69492 60.5204 3.65597 60.2185 3.66039C59.6568 3.64281 59.0993 3.76189 58.5938 4.00738C58.1608 4.23847 57.7867 4.56583 57.5001 4.96424C57.2334 5.40265 57.0415 5.88237 56.9323 6.38376C56.8146 6.96325 56.76 7.55377 56.7693 8.14502V8.71808H55.2288V9.48567H56.7693V18.7651H57.8209V9.44887H62.5267V15.8104C62.5227 16.2358 62.5632 16.6605 62.6476 17.0775C62.6946 17.4328 62.8184 17.7737 63.0104 18.0764C63.184 18.3614 63.4384 18.5883 63.7412 18.7283C64.1242 18.8937 64.5389 18.9727 64.9558 18.9596C65.4397 18.978 65.9224 18.8994 66.3754 18.7283L66.265 17.9817C66.1045 18.03 65.9412 18.0686 65.776 18.0974C65.5481 18.1312 65.3175 18.1435 65.0872 18.1342C64.8624 18.1547 64.636 18.1171 64.4298 18.025C64.2236 17.933 64.0444 17.7895 63.9095 17.6085C63.6732 17.1324 63.5611 16.6043 63.5835 16.0733V9.48567H66.5595V8.72334H63.5993V6.49943L62.5477 6.80436L62.5319 8.68128ZM25.811 17.2299C26.26 17.5244 26.7536 17.7445 27.2727 17.8819C27.8391 18.0526 28.4267 18.1429 29.0183 18.15C29.9532 18.2078 30.8771 17.9217 31.6157 17.3456C31.9142 17.0837 32.1522 16.7599 32.3129 16.3967C32.4736 16.0335 32.5533 15.6397 32.5463 15.2426C32.5729 14.5254 32.3268 13.8247 31.8575 13.2816C31.2098 12.6625 30.4346 12.1924 29.5861 11.9041C28.5777 11.5944 27.6411 11.0868 26.831 10.411C26.4976 10.1138 26.2338 9.74676 26.0585 9.33602C25.8831 8.92528 25.8004 8.48094 25.8162 8.03461C25.8182 7.54311 25.9296 7.05822 26.1422 6.61509C26.3602 6.18748 26.6646 5.80975 27.0361 5.50576C27.427 5.17112 27.8837 4.92217 28.3768 4.77498C28.9246 4.58646 29.5012 4.4957 30.0804 4.50684C30.6798 4.502 31.2778 4.5655 31.8628 4.69611C32.2421 4.79428 32.6091 4.93539 32.9564 5.11671L32.5516 5.95791C32.2487 5.7728 31.9212 5.63121 31.5789 5.53731C31.0693 5.37444 30.5364 5.29629 30.0015 5.30598C29.4921 5.29169 28.9844 5.37007 28.503 5.53731C28.1284 5.672 27.785 5.88126 27.4935 6.15243C27.2674 6.39769 27.0891 6.68297 26.9677 6.99363C26.8549 7.27418 26.7994 7.57453 26.8047 7.87688C26.7895 8.22333 26.8467 8.56914 26.9725 8.89229C27.0983 9.21543 27.2901 9.50883 27.5356 9.7538C28.2226 10.3232 29.0062 10.7648 29.849 11.0577C30.3968 11.2658 30.9247 11.5227 31.4264 11.8252C31.8499 12.082 32.2448 12.3834 32.6042 12.7243C32.9031 13.0241 33.1375 13.3819 33.2929 13.7758C33.4572 14.2162 33.5392 14.6831 33.5348 15.1532C33.5392 15.6648 33.4428 16.1721 33.2509 16.6463C33.059 17.1186 32.7624 17.541 32.3833 17.8819C31.9539 18.2525 31.4578 18.538 30.9216 18.7231C30.2659 18.933 29.5806 19.0359 28.8921 19.028C28.5666 19.0205 28.2418 18.9942 27.9194 18.9491C27.5919 18.9041 27.2672 18.8409 26.9467 18.7599C26.6412 18.6819 26.3423 18.5799 26.0529 18.4549C25.8117 18.3637 25.5809 18.2474 25.3641 18.1079L25.811 17.2299ZM35.538 8.72334L37.2837 14.433C37.4466 15.006 37.6096 15.5843 37.7726 16.0838C37.9356 16.5833 38.0566 17.1353 38.1775 17.5769H38.2564C38.3773 17.1195 38.5403 16.6201 38.7033 16.0838C38.8663 15.5475 39.0661 15.0323 39.2711 14.433L41.3217 8.72334H42.2944L44.2819 14.3541C44.4869 14.9692 44.6867 15.5423 44.8497 16.0785C45.0127 16.6148 45.1757 17.13 45.2966 17.5717H45.3755C45.4964 17.0722 45.6174 16.5727 45.7804 16.0785C45.9434 15.5843 46.1064 15.027 46.3062 14.3909L48.1569 8.72334H49.2085L45.7225 18.7651H44.8918L42.8991 13.1659C42.6958 12.5525 42.4924 11.9777 42.2891 11.4414C42.1261 10.9157 41.9632 10.3321 41.8422 9.7538H41.8002C41.654 10.3371 41.4785 10.9126 41.2744 11.4783C41.0711 12.0145 40.8678 12.5893 40.6645 13.2027L38.6034 18.7651H37.7095L34.4865 8.72334H35.538ZM51.4746 8.72334H52.5262V18.7651H51.4746V8.72334ZM51.0698 5.65823C51.0683 5.54095 51.0905 5.42458 51.1351 5.31607C51.1796 5.20756 51.2456 5.10914 51.329 5.0267C51.4124 4.94425 51.5116 4.87947 51.6207 4.83622C51.7297 4.79297 51.8463 4.77214 51.9636 4.77498C52.1996 4.77961 52.4253 4.87222 52.5965 5.03465C52.7677 5.19708 52.872 5.4176 52.889 5.65297C52.89 5.7701 52.865 5.88599 52.816 5.99234C52.7669 6.09869 52.6949 6.19286 52.6051 6.2681C52.4261 6.42347 52.1953 6.50602 51.9584 6.49943C51.723 6.49687 51.4952 6.41542 51.3116 6.2681C51.151 6.10307 51.0589 5.88324 51.054 5.65297L51.0698 5.65823Z" fill="#221F20"/>
</svg>
