<svg width="119" height="24" viewBox="0 0 119 24" fill="none" xmlns="http://www.w3.org/2000/svg">
<path d="M6.52123 21.3126V7.66284L0.516357 11.1304L0.52647 5.96122L10.5101 0.258789V23.6311L6.52123 21.3126ZM11.4082 23.6311L15.398 21.3126V14.7433L18.406 16.4771L18.3848 11.9863L15.398 10.2737V7.66284L21.4029 11.1304L21.3928 5.96122L11.4092 0.258789L11.4082 23.6311Z" fill="#FF6F00"/>
<path d="M32.8628 7.48512H29.0817V18.7934H26.8965V7.48604H23.1246V5.6309H32.8628V7.48512ZM40.6833 14.6722H34.2758C34.3003 15.5419 34.5669 16.2121 35.0756 16.6827C35.5891 17.1546 36.2924 17.3906 37.1854 17.3906C38.1892 17.3906 39.1104 17.0903 39.9488 16.4897V18.2069C39.092 18.7456 37.96 19.0147 36.5529 19.0141C35.1703 19.0141 34.0839 18.5891 33.294 17.739C32.5107 16.8822 32.1191 15.6798 32.1191 14.1317C32.1191 12.67 32.5509 11.4795 33.4144 10.5602C34.2822 9.6366 35.359 9.17449 36.6448 9.17388C37.9288 9.17388 38.9228 9.58726 39.627 10.414C40.3312 11.2408 40.6833 12.3881 40.6833 13.8559V14.6722ZM38.6268 13.1692C38.6207 12.4037 38.4402 11.8101 38.0854 11.3885C37.7299 10.9595 37.2402 10.745 36.6163 10.745C36.0047 10.745 35.4847 10.9687 35.0563 11.4161C34.6334 11.8616 34.3732 12.446 34.2758 13.1692H38.6268ZM51.0824 18.7934H48.9515V13.4983C48.9515 11.7418 48.331 10.8636 47.0899 10.8636C46.4409 10.8636 45.9056 11.1084 45.4839 11.5981C45.061 12.0822 44.8496 12.6942 44.8496 13.4339V18.7934H42.7122V9.39451H44.8505V10.9555H44.8873C45.5915 9.76836 46.6073 9.17449 47.9348 9.17388C48.9564 9.17388 49.7369 9.50759 50.2762 10.175C50.8143 10.8357 51.0834 11.7933 51.0834 13.0478L51.0824 18.7934ZM53.093 18.4993V16.5265C53.8878 17.132 54.7658 17.4347 55.7267 17.4347C57.0113 17.4347 57.6539 17.0554 57.6545 16.2966C57.661 16.1028 57.6028 15.9123 57.4891 15.7552C57.3671 15.5931 57.2147 15.4563 57.0404 15.3525C56.832 15.2242 56.61 15.1193 56.3785 15.0399C56.0968 14.937 55.8155 14.8328 55.5346 14.7274C55.1757 14.5874 54.826 14.425 54.4875 14.2411C54.2032 14.0868 53.943 13.8917 53.7153 13.6619C53.5167 13.4458 53.3613 13.1937 53.2575 12.9191C53.1487 12.6101 53.0957 12.2842 53.1012 11.9566C53.1012 11.5031 53.2085 11.105 53.423 10.7624C53.6363 10.4131 53.9237 10.1226 54.2853 9.89094C54.6619 9.64447 55.0779 9.46414 55.5153 9.35774C55.975 9.23517 56.449 9.17388 56.9375 9.17388C57.8077 9.17388 58.5852 9.30565 59.2697 9.56918V11.4335C58.6085 10.98 57.8497 10.7535 56.9936 10.7542C56.7463 10.7514 56.4996 10.7789 56.259 10.836C56.0642 10.8821 55.8782 10.9597 55.7084 11.0658C55.5626 11.1559 55.4399 11.2786 55.3498 11.4243C55.2648 11.5584 55.2201 11.7142 55.2211 11.8729C55.2156 12.0532 55.2601 12.2314 55.3498 12.3878C55.4356 12.5287 55.5613 12.654 55.7267 12.7638C55.8984 12.8679 56.1 12.9657 56.3317 13.057C56.5707 13.1428 56.8434 13.2378 57.1498 13.342C57.5531 13.5075 57.9141 13.6757 58.2328 13.8467C58.557 14.0183 58.8318 14.2144 59.0574 14.435C59.2841 14.6489 59.4588 14.8993 59.5814 15.1861C59.704 15.468 59.7652 15.8048 59.7652 16.1964C59.7652 16.6738 59.6549 17.0897 59.4343 17.4439C59.2119 17.8015 58.9107 18.1034 58.5536 18.3264C58.161 18.5689 57.7297 18.7424 57.2785 18.8394C56.7822 18.9575 56.2737 19.0161 55.7635 19.0141C54.7357 19.0141 53.8456 18.8425 53.093 18.4993ZM65.9512 19.0141C64.5012 19.0141 63.3419 18.5768 62.4735 17.7022C61.61 16.8209 61.1785 15.6546 61.1791 14.2034C61.1791 12.6259 61.6287 11.3934 62.5277 10.5059C63.4336 9.6179 64.6513 9.17388 66.181 9.17388C67.6495 9.17388 68.7937 9.60565 69.6137 10.4692C70.4337 11.3321 70.8437 12.5281 70.8437 14.0572C70.8437 15.5575 70.4 16.76 69.5126 17.6645C68.6319 18.5648 67.4448 19.0147 65.9512 19.0141ZM66.0523 10.8718C65.2207 10.8718 64.5628 11.1629 64.0786 11.7452C63.5957 12.3262 63.3542 13.1275 63.3542 14.1491C63.3542 15.1352 63.599 15.9127 64.0887 16.4814C64.5784 17.044 65.2329 17.3253 66.0523 17.3253C66.8914 17.3253 67.534 17.0468 67.9801 16.4897C68.433 15.9326 68.6595 15.1405 68.6595 14.1133C68.6595 13.0788 68.433 12.2802 67.9801 11.7176C67.534 11.1537 66.8914 10.8718 66.0523 10.8718ZM78.4629 11.4234C78.2061 11.2212 77.8353 11.12 77.3506 11.12C76.7211 11.12 76.1953 11.4047 75.773 11.9741C75.3502 12.5428 75.1387 13.3169 75.1387 14.2962V18.7934H73.0096V9.39451H75.1406V11.3315H75.1755C75.3845 10.6708 75.7029 10.1566 76.1306 9.78889C76.5658 9.41627 77.0493 9.22996 77.5813 9.22996C77.9668 9.22996 78.2604 9.28818 78.462 9.40463L78.4629 11.4234ZM87.3103 7.48512H82.392V11.4418H86.9242V13.2868H82.3902V18.7934H80.2068V5.63181H87.3103V7.48512ZM91.551 18.7934H89.4118V4.87891H91.551V18.7934ZM98.4899 19.0141C97.0392 19.0141 95.88 18.5768 95.0122 17.7022C94.148 16.8209 93.7163 15.6546 93.7169 14.2034C93.7163 12.6259 94.1661 11.3934 95.0664 10.5059C95.9722 9.6179 97.1897 9.17388 98.7188 9.17388C100.188 9.17388 101.332 9.60565 102.151 10.4692C102.973 11.3321 103.383 12.5281 103.382 14.0572C103.382 15.5575 102.939 16.76 102.051 17.6645C101.171 18.5648 99.9828 19.0147 98.4899 19.0141ZM98.591 10.8718C97.7587 10.8718 97.1008 11.1629 96.6173 11.7452C96.1343 12.3262 95.8926 13.1275 95.892 14.1491C95.892 15.1352 96.1368 15.9127 96.6265 16.4814C97.1168 17.044 97.7716 17.3253 98.591 17.3253C99.4288 17.3253 100.071 17.0468 100.519 16.4897C100.971 15.9326 101.197 15.1405 101.197 14.1133C101.197 13.0788 100.971 12.2802 100.519 11.7176C100.072 11.1537 99.4294 10.8718 98.591 10.8718ZM118.187 9.39451L115.415 18.7934H113.184L111.477 12.4227C111.406 12.153 111.363 11.8767 111.348 11.5981H111.311C111.287 11.8724 111.232 12.1432 111.147 12.4052L109.292 18.7944H107.107L104.345 9.39451H106.548L108.255 16.1698C108.31 16.3708 108.347 16.6395 108.365 16.976H108.429C108.448 16.7186 108.497 16.4437 108.576 16.1514L110.477 9.39451H112.477L114.166 16.1964C114.221 16.4109 114.261 16.6806 114.285 17.0054H114.35C114.37 16.732 114.416 16.4611 114.488 16.1964L116.159 9.39451H118.187Z" fill="#425066"/>
</svg>
