<svg width="39" height="39" viewBox="0 0 39 39" fill="none" xmlns="http://www.w3.org/2000/svg">
<g clip-path="url(#clip0_1_48)">
<path d="M3.60071 26.3794C3.41162 26.3788 3.22659 26.4342 3.06894 26.5387C2.90815 26.645 2.76097 26.8285 2.76097 27.0634C2.76097 27.0946 2.74283 27.1642 2.80331 27.2852L2.78769 27.2469L6.01859 37.7294C6.07655 37.926 6.21516 38.0762 6.37142 38.1629C6.52767 38.2496 6.69803 38.2813 6.86437 38.2813C7.2172 38.2813 7.60531 38.113 7.72376 37.7329V37.7319L10.9516 27.2101V27.1717C10.9516 27.2252 10.9673 27.1944 10.9673 27.0795C10.9673 26.8401 10.8145 26.6642 10.6512 26.5538C10.4878 26.4416 10.2945 26.3808 10.0963 26.3794C9.84929 26.3794 9.56602 26.5291 9.47126 26.8144L9.46925 26.8174L6.86336 35.5141L4.24739 26.833C4.20858 26.6778 4.10424 26.5482 3.98277 26.4757C3.8613 26.4031 3.72873 26.3794 3.60071 26.3794ZM29.3345 26.9197C28.8204 26.9197 28.3869 27.3139 28.3869 27.8068C28.3869 28.2998 28.8133 28.7076 29.3345 28.7076C29.8456 28.7076 30.2518 28.2922 30.2518 27.8068C30.2518 27.3215 29.8385 26.9197 29.3345 26.9197ZM21.7593 30.2756C20.0012 30.2756 18.5531 31.6829 18.5531 33.374V35.1069C18.5531 36.0539 18.9301 36.866 19.5712 37.4259C20.2114 37.9864 21.1055 38.2964 22.1302 38.2964C22.8873 38.2964 23.5048 38.1266 23.9458 37.8967C24.1672 37.7811 24.3435 37.6528 24.4745 37.5116C24.6056 37.3705 24.7013 37.2168 24.7013 37.0242C24.7013 36.8478 24.6338 36.6946 24.5234 36.557C24.413 36.4194 24.2402 36.2929 24.0164 36.2929C23.8551 36.2929 23.7311 36.3609 23.6237 36.4269C23.5163 36.4925 23.4155 36.5656 23.2941 36.6356C23.0511 36.7752 22.7295 36.9113 22.161 36.9113C21.5279 36.9113 21.0007 36.7309 20.6368 36.4274C20.2739 36.125 20.0622 35.7041 20.0622 35.1527V34.8322H23.3057C23.6519 34.8322 24.0365 34.8322 24.3692 34.6205C24.7019 34.4078 24.9035 33.9854 24.9035 33.3437C24.9035 31.5645 23.4196 30.2756 21.7593 30.2756ZM33.95 30.2756C33.0155 30.2756 32.328 30.5781 31.8864 31.0327C31.4449 31.4873 31.2544 32.0791 31.2544 32.6315C31.2544 33.3362 31.5392 33.8412 31.9464 34.1643C32.3542 34.4884 32.8613 34.6512 33.3436 34.7964C33.826 34.9415 34.2877 35.0711 34.5977 35.2621C34.9077 35.4536 35.074 35.6598 35.074 36.0958C35.074 36.3302 35.0034 36.5167 34.8134 36.6689C34.6229 36.8216 34.2842 36.9416 33.7332 36.9416C33.0815 36.9416 32.7171 36.7808 32.4515 36.617C32.3189 36.5348 32.2121 36.4496 32.1022 36.3735C31.9923 36.2974 31.8673 36.2152 31.6924 36.2152C31.4822 36.2152 31.327 36.3448 31.2327 36.4789C31.1373 36.6104 31.0853 36.7685 31.084 36.931C31.084 37.1351 31.1838 37.3146 31.3244 37.4703C31.4656 37.6261 31.6556 37.7647 31.8895 37.8856C32.3567 38.1276 33.0004 38.2964 33.7645 38.2964C34.5947 38.2964 35.2771 38.0938 35.7605 37.7007C36.2434 37.3075 36.5065 36.7233 36.5065 36.0499C36.5065 35.2888 36.2298 34.7419 35.8225 34.38C35.4147 34.0186 34.9001 33.8321 34.4107 33.6819C33.9213 33.5322 33.45 33.4153 33.135 33.251C32.8199 33.0867 32.6712 32.9349 32.6712 32.5856C32.6712 32.3966 32.7468 32.1587 32.9389 31.9707C33.1309 31.7837 33.4444 31.6315 33.9656 31.6315C34.3819 31.6315 34.6914 31.7273 34.9394 31.8281C35.0634 31.879 35.1713 31.9319 35.2731 31.9763C35.3754 32.0201 35.4697 32.0635 35.6047 32.0635C35.8492 32.0635 36.0171 31.9022 36.1169 31.7525C36.2167 31.6028 36.2741 31.4551 36.2741 31.2857C36.2741 31.074 36.1426 30.9238 35.9969 30.8119C35.8512 30.7 35.6678 30.6093 35.4561 30.5317C35.0327 30.3764 34.4923 30.2756 33.95 30.2756ZM11.8443 30.3694C11.4355 30.3694 11.0822 30.6259 11.0822 31.0075V35.1371C11.0822 36.8125 12.5066 38.2964 14.2728 38.2964C16.0097 38.2964 17.4633 36.8297 17.4633 35.1371V30.9924C17.4633 30.8018 17.3585 30.636 17.2204 30.5307C17.0823 30.4258 16.9069 30.3694 16.7163 30.3694C16.5258 30.3694 16.3494 30.4248 16.2083 30.5282C16.0671 30.631 15.9542 30.7953 15.9542 30.9924V35.1371C15.9542 36.0151 15.1891 36.8649 14.2728 36.8649C13.3418 36.8649 12.5918 36 12.5918 35.1371V31.0075C12.5918 30.8094 12.4834 30.6572 12.3498 30.5488C12.2163 30.4405 12.0399 30.3694 11.8443 30.3694ZM29.335 30.3694C29.1435 30.3694 28.967 30.4188 28.8259 30.5251C28.6848 30.631 28.589 30.8064 28.589 30.9924V38.6014C28.589 39.1724 28.5487 39.6513 28.4232 39.9416C28.2982 40.2314 28.15 40.36 27.7276 40.36C27.3541 40.36 27.0421 40.6861 27.0421 41.0767C27.0421 41.2385 27.0945 41.4169 27.2271 41.5555C27.3597 41.6942 27.5658 41.7763 27.8042 41.7763C28.6077 41.7763 29.2226 41.42 29.5885 40.8413C29.9555 40.2622 30.0976 39.488 30.0976 38.6014V30.9924C30.0976 30.7943 29.9847 30.6219 29.8405 30.5201C29.6918 30.4186 29.5151 30.3659 29.335 30.3694ZM21.7436 31.6159C22.7472 31.6159 23.4251 32.4561 23.4251 33.312C23.4251 33.4052 23.415 33.4662 23.405 33.4939C23.3959 33.5217 23.3969 33.5181 23.3828 33.5277C23.3551 33.5458 23.1998 33.5857 22.9034 33.5857H20.0622V33.25C20.0622 32.3543 20.8107 31.6159 21.7436 31.6159ZM26.5381 36.3387C25.9897 36.3387 25.5743 36.7924 25.5743 37.3176C25.5743 37.8216 25.9836 38.2813 26.5381 38.2813C27.0633 38.2813 27.4857 37.8357 27.4857 37.3176C27.4857 36.7798 27.0562 36.3387 26.5381 36.3387Z" fill="#35495E"/>
<path d="M9.96185 0.600098L15.8155 0.601878L19.6418 6.95341L23.4547 0.602768L29.3034 0.601284L19.6712 17.3092L9.96185 0.600098Z" fill="#35495E"/>
<path d="M3.57776 0.644393L9.95688 0.601074L19.6656 17.3099L29.2984 0.601964L35.6885 0.608789L19.6644 28.1084L3.57776 0.644393Z" fill="#41B883"/>
</g>
<defs>
<clipPath id="clip0_1_48">
<rect width="37.978" height="37.978" fill="white" transform="translate(0.644165 0.483398)"/>
</clipPath>
</defs>
</svg>
