<svg width="50" height="51" viewBox="0 0 50 51" fill="none" xmlns="http://www.w3.org/2000/svg">
<g clip-path="url(#clip0_1_210)">
<path fill-rule="evenodd" clip-rule="evenodd" d="M29.1667 15.5288C28.6142 15.5288 28.0843 15.7483 27.6936 16.139C27.3029 16.5297 27.0834 17.0596 27.0834 17.6121V34.2788C27.0834 34.8313 27.3029 35.3612 27.6936 35.752C28.0843 36.1427 28.6142 36.3621 29.1667 36.3621H37.5C38.0526 36.3621 38.5825 36.1427 38.9732 35.752C39.3639 35.3612 39.5834 34.8313 39.5834 34.2788V17.6121C39.5834 17.0596 39.3639 16.5297 38.9732 16.139C38.5825 15.7483 38.0526 15.5288 37.5 15.5288H29.1667ZM35.4167 19.6955H31.25V32.1955H35.4167V19.6955Z" fill="#FFBC13"/>
<path d="M12.5001 15.5288C11.9475 15.5288 11.4176 15.7483 11.0269 16.139C10.6362 16.5297 10.4167 17.0596 10.4167 17.6121C10.4167 18.1647 10.6362 18.6946 11.0269 19.0853C11.4176 19.476 11.9475 19.6955 12.5001 19.6955H20.8334C21.3859 19.6955 21.9159 19.476 22.3066 19.0853C22.6973 18.6946 22.9167 18.1647 22.9167 17.6121C22.9167 17.0596 22.6973 16.5297 22.3066 16.139C21.9159 15.7483 21.3859 15.5288 20.8334 15.5288H12.5001ZM12.5001 23.8621C11.9475 23.8621 11.4176 24.0816 11.0269 24.4723C10.6362 24.863 10.4167 25.3929 10.4167 25.9455C10.4167 26.498 10.6362 27.0279 11.0269 27.4186C11.4176 27.8093 11.9475 28.0288 12.5001 28.0288H20.8334C21.3859 28.0288 21.9159 27.8093 22.3066 27.4186C22.6973 27.0279 22.9167 26.498 22.9167 25.9455C22.9167 25.3929 22.6973 24.863 22.3066 24.4723C21.9159 24.0816 21.3859 23.8621 20.8334 23.8621H12.5001ZM10.4167 34.2788C10.4167 33.7263 10.6362 33.1964 11.0269 32.8057C11.4176 32.415 11.9475 32.1955 12.5001 32.1955H20.8334C21.3859 32.1955 21.9159 32.415 22.3066 32.8057C22.6973 33.1964 22.9167 33.7263 22.9167 34.2788C22.9167 34.8313 22.6973 35.3612 22.3066 35.752C21.9159 36.1427 21.3859 36.3621 20.8334 36.3621H12.5001C11.9475 36.3621 11.4176 36.1427 11.0269 35.752C10.6362 35.3612 10.4167 34.8313 10.4167 34.2788Z" fill="#FFBC13"/>
<path fill-rule="evenodd" clip-rule="evenodd" d="M8.33337 7.19531C6.67577 7.19531 5.08606 7.85379 3.91396 9.0259C2.74185 10.198 2.08337 11.7877 2.08337 13.4453V38.4453C2.08337 40.1029 2.74185 41.6926 3.91396 42.8647C5.08606 44.0368 6.67577 44.6953 8.33337 44.6953H41.6667C43.3243 44.6953 44.914 44.0368 46.0861 42.8647C47.2582 41.6926 47.9167 40.1029 47.9167 38.4453V13.4453C47.9167 11.7877 47.2582 10.198 46.0861 9.0259C44.914 7.85379 43.3243 7.19531 41.6667 7.19531H8.33337ZM41.6667 11.362H8.33337C7.78084 11.362 7.25094 11.5815 6.86023 11.9722C6.46953 12.3629 6.25004 12.8928 6.25004 13.4453V38.4453C6.25004 38.9978 6.46953 39.5278 6.86023 39.9185C7.25094 40.3092 7.78084 40.5286 8.33337 40.5286H41.6667C42.2192 40.5286 42.7491 40.3092 43.1398 39.9185C43.5305 39.5278 43.75 38.9978 43.75 38.4453V13.4453C43.75 12.8928 43.5305 12.3629 43.1398 11.9722C42.7491 11.5815 42.2192 11.362 41.6667 11.362Z" fill="#FFBC13"/>
</g>
<defs>
<clipPath id="clip0_1_210">
<rect width="50" height="50" fill="white" transform="translate(0 0.945312)"/>
</clipPath>
</defs>
</svg>
