<svg width="152" height="39" viewBox="0 0 152 39" fill="none" xmlns="http://www.w3.org/2000/svg">
<g clip-path="url(#clip0_1_164)">
<path d="M49.4495 15.7816C49.4495 13.0775 46.8199 10.2056 42.2699 10.2056C37.1603 10.2056 31.5472 13.954 30.6893 21.4318C29.8128 28.9844 34.5121 32.3412 39.2488 32.3412C43.9854 32.3412 46.4658 30.495 49.002 28.0335C46.8199 25.292 44.0043 26.5603 43.4634 26.84C42.8667 27.1382 42.1021 27.5486 40.5356 27.5486C38.7079 27.5486 36.8432 26.7281 36.8432 23.3154C48.5545 22.1593 49.4495 18.4854 49.4495 15.7816ZM43.6498 16.2291C43.5753 17.0682 43.2397 18.5043 37.3095 19.3059C38.559 14.8678 40.9457 14.5322 42.0462 14.5322C43.0719 14.5322 43.7243 15.3338 43.6498 16.2291ZM23.8079 16.9563C23.8079 16.9563 21.2907 24.8631 21.0852 25.5158C21.0108 24.8445 19.1646 10.6531 19.1646 10.6531C14.8754 10.6531 12.5817 13.7114 11.3696 16.9377C11.3696 16.9377 8.31108 24.8631 8.05024 25.5343C8.0314 24.919 7.58391 17.0311 7.58391 17.0311C7.32277 13.0772 3.70514 10.672 0.7773 10.672L4.32044 32.1734C8.81481 32.1549 11.2389 29.1151 12.5072 25.8888C12.5072 25.8888 15.211 18.8958 15.3229 18.5787C15.3417 18.877 17.2624 32.1734 17.2624 32.1734C21.7753 32.1734 24.1997 29.32 25.5051 26.2058L31.8268 10.672C27.3696 10.672 25.0202 13.7114 23.8079 16.9563ZM66.0091 10.1682C63.2306 10.1682 61.1047 11.6788 59.3144 13.898V13.8795L60.9183 0.956055C57.2259 0.956055 54.2236 4.16358 53.6454 8.93733L50.8479 32.0056C52.9741 32.0056 55.2304 31.3903 56.4425 29.8238C57.5241 31.2222 59.1466 32.3412 61.5522 32.3412C67.7809 32.3412 72.0512 25.1057 72.0512 18.3176C72.0141 12.1263 69.0115 10.1682 66.0091 10.1682ZM65.4312 21.2646C64.7785 25.05 62.6712 27.6237 60.6383 27.6237C58.5872 27.6237 57.7108 26.7096 57.7108 26.7096C58.1023 23.3902 58.3446 21.3576 59.0907 19.6047C59.8367 17.8519 61.6081 15.0544 63.4543 15.0544C65.2631 15.0544 66.0839 17.4603 65.4312 21.2646ZM87.6039 10.6714H83.2588L83.2777 10.4476C83.5759 7.6131 84.2471 6.12136 86.4663 5.87907C87.9769 5.7298 88.6482 4.9464 88.816 4.0888C88.9467 3.41756 89.3568 1.08618 89.3568 1.08618C80.6295 1.03024 77.8883 4.79743 77.1797 10.5409L77.1608 10.6717H77.0675C75.6503 10.6717 74.084 12.2753 73.8229 14.3078L73.7296 15.0539H76.6389L74.1959 35.2314L73.4499 38.8493C73.5432 38.8493 73.6551 38.8678 73.7481 38.8678C77.8324 38.7186 80.4428 35.4925 81.0211 30.8118L82.9232 15.0539H84.2845C85.627 15.0539 87.1938 13.7114 87.4735 11.4733L87.6039 10.6714ZM110.206 10.2986C105.189 10.2986 100.453 13.9911 98.9979 19.7905C97.5436 25.5903 99.7439 32.4528 107.129 32.4528C114.495 32.4528 118.747 25.3106 118.747 19.3616C118.747 13.4499 114.737 10.2986 110.206 10.2986ZM112.238 21.0773C111.977 23.7067 110.821 27.6976 107.651 27.6976C104.462 27.6976 104.91 23.0354 105.227 20.8162C105.562 18.448 106.886 15.0724 109.74 15.0724C112.294 15.0724 112.537 18.1121 112.238 21.0773ZM143.531 16.956C143.531 16.956 141.013 24.8628 140.808 25.5155C140.733 24.8442 138.887 10.6528 138.887 10.6528C134.598 10.6528 132.304 13.7111 131.092 16.9374C131.092 16.9374 128.033 24.8628 127.773 25.534C127.754 24.9187 127.306 17.0308 127.306 17.0308C127.045 13.0769 123.427 10.6717 120.5 10.6717L124.024 32.1731C128.518 32.1546 130.943 29.1148 132.211 25.8885C132.211 25.8885 134.915 18.8955 135.008 18.5784C135.027 18.8767 136.947 32.1731 136.947 32.1731C141.461 32.1731 143.885 29.3198 145.19 26.2056L151.512 10.672C147.073 10.672 144.724 13.7111 143.531 16.956ZM91.7067 1.08648L88.0514 30.5695L87.3057 34.206C87.3987 34.206 87.5106 34.2248 87.6039 34.2248C91.5386 34.1689 94.336 30.7188 94.858 26.3737L96.9653 9.4596C97.5995 4.294 94.5224 1.08677 91.7067 1.08677" fill="#4353FF"/>
</g>
<defs>
<clipPath id="clip0_1_164">
<rect width="150.741" height="37.978" fill="white" transform="translate(0.775208 0.956055)"/>
</clipPath>
</defs>
</svg>
