<svg width="50" height="51" viewBox="0 0 50 51" fill="none" xmlns="http://www.w3.org/2000/svg">
<path d="M44.7917 5.11182H5.20835C4.93209 5.11182 4.66713 5.22156 4.47178 5.41691C4.27643 5.61226 4.16669 5.87722 4.16669 6.15348V45.7368C4.16669 46.0131 4.27643 46.278 4.47178 46.4734C4.66713 46.6687 4.93209 46.7785 5.20835 46.7785H44.7917C45.068 46.7785 45.3329 46.6687 45.5283 46.4734C45.7236 46.278 45.8334 46.0131 45.8334 45.7368V6.15348C45.8334 5.87722 45.7236 5.61226 45.5283 5.41691C45.3329 5.22156 45.068 5.11182 44.7917 5.11182ZM23.9584 44.6951H6.25002V20.7368H23.9584V44.6951ZM43.75 44.6951H26.0417V20.7368H43.75V44.6951ZM43.75 18.6535H6.25002V7.19515H43.75V18.6535Z" fill="#FFBC13"/>
</svg>
