<svg width="61" height="60" viewBox="0 0 61 60" fill="none" xmlns="http://www.w3.org/2000/svg">
<g clip-path="url(#clip0_1_33)">
<path d="M2.19272 29.6407C2.19133 34.6819 3.50853 39.6042 6.01319 43.9428L1.95319 58.7666L17.1234 54.7889C21.3193 57.073 26.0205 58.2699 30.7978 58.2703H30.8104C46.5813 58.2703 59.4192 45.437 59.426 29.6633C59.429 22.0198 56.455 14.8324 51.0518 9.42492C45.6495 4.01795 38.4646 1.03864 30.8092 1.03516C15.0364 1.03516 2.19947 13.8677 2.19295 29.6407" fill="url(#paint0_linear_1_33)"/>
<path d="M1.1712 29.6316C1.16957 34.8542 2.53399 39.9525 5.12794 44.4465L0.922363 59.8016L16.6365 55.6814C20.9663 58.0421 25.8412 59.2867 30.8017 59.2886H30.8145C47.1512 59.2886 60.4503 45.9937 60.4572 29.6553C60.46 21.7372 57.3791 14.2914 51.7828 8.69023C46.1859 3.08977 38.744 0.00325581 30.8145 0C14.4749 0 1.17771 13.293 1.1712 29.6316ZM10.5296 43.6725L9.94283 42.7411C7.47632 38.8193 6.17446 34.2872 6.17632 29.6335C6.18143 16.0533 17.2335 5.00465 30.8238 5.00465C37.4052 5.00744 43.5903 7.57302 48.2424 12.2279C52.8942 16.8833 55.454 23.0716 55.4524 29.6535C55.4463 43.2337 44.394 54.2837 30.8145 54.2837H30.8047C26.3831 54.2814 22.0465 53.0939 18.2647 50.85L17.3647 50.3163L8.03957 52.7611L10.5296 43.6725Z" fill="url(#paint1_linear_1_33)"/>
<path d="M23.4055 17.2433C22.8506 16.01 22.2667 15.9851 21.739 15.9635C21.3069 15.9449 20.8129 15.9463 20.3195 15.9463C19.8255 15.9463 19.0229 16.1321 18.3446 16.8728C17.6655 17.6142 15.752 19.4058 15.752 23.0498C15.752 26.6938 18.4062 30.2156 18.7762 30.7103C19.1467 31.204 23.9002 38.9212 31.4285 41.89C37.6853 44.3572 38.9585 43.8665 40.3164 43.7428C41.6746 43.6196 44.6988 41.9517 45.3157 40.2221C45.9332 38.4928 45.9332 37.0105 45.7481 36.7007C45.5629 36.3921 45.069 36.2068 44.3283 35.8365C43.5876 35.4663 39.946 33.6742 39.2671 33.427C38.5881 33.18 38.0943 33.0568 37.6004 33.7984C37.1064 34.5389 35.6881 36.2068 35.2557 36.7007C34.8239 37.1958 34.3915 37.2575 33.6511 36.887C32.9099 36.5154 30.5246 35.7342 27.6946 33.2112C25.4927 31.2479 24.0062 28.8235 23.5741 28.0819C23.142 27.3414 23.5278 26.94 23.8992 26.571C24.232 26.2391 24.6402 25.7061 25.0108 25.2738C25.3802 24.8412 25.5034 24.5326 25.7504 24.0386C25.9976 23.5442 25.8739 23.1117 25.689 22.7412C25.5034 22.3707 24.0641 18.7077 23.4055 17.2433Z" fill="white"/>
</g>
<defs>
<linearGradient id="paint0_linear_1_33" x1="2875.59" y1="5774.17" x2="2875.59" y2="1.03516" gradientUnits="userSpaceOnUse">
<stop stop-color="#1FAF38"/>
<stop offset="1" stop-color="#60D669"/>
</linearGradient>
<linearGradient id="paint1_linear_1_33" x1="2977.67" y1="5980.16" x2="2977.67" y2="0" gradientUnits="userSpaceOnUse">
<stop stop-color="#F9F9F9"/>
<stop offset="1" stop-color="white"/>
</linearGradient>
<clipPath id="clip0_1_33">
<rect width="59.5349" height="60" fill="white" transform="translate(0.922363)"/>
</clipPath>
</defs>
</svg>
