<svg width="32" height="33" viewBox="0 0 32 33" fill="none" xmlns="http://www.w3.org/2000/svg">
<path d="M17.4414 14.3084L11.06 5.36176C10.986 5.25781 10.8882 5.17308 10.7748 5.11463C10.6614 5.05618 10.5356 5.02571 10.408 5.02576H7.04003C6.89323 5.02595 6.74932 5.06652 6.62404 5.14304C6.49876 5.21957 6.39696 5.32909 6.32977 5.45961C6.26258 5.59013 6.2326 5.73662 6.24311 5.88304C6.25362 6.02946 6.30422 6.17017 6.38937 6.28976L14.5587 17.7431M17.4414 14.3084L25.6107 25.7618C25.6958 25.8813 25.7464 26.0221 25.757 26.1685C25.7675 26.3149 25.7375 26.4614 25.6703 26.5919C25.6031 26.7224 25.5013 26.8319 25.376 26.9085C25.2508 26.985 25.1068 27.0256 24.96 27.0258H21.592C21.4644 27.0258 21.3387 26.9953 21.2253 26.9369C21.1118 26.8784 21.014 26.7937 20.94 26.6898L14.5587 17.7431M17.4414 14.3084L25.2307 5.02576M14.5587 17.7431L6.76937 27.0258" stroke="black" stroke-width="2" stroke-linecap="round" stroke-linejoin="round"/>
</svg>
