<svg width="40" height="39" viewBox="0 0 40 39" fill="none" xmlns="http://www.w3.org/2000/svg">
<g clip-path="url(#clip0_1_154)">
<path d="M33.3146 0.956055H7.33767C3.77198 0.956055 0.881409 3.84662 0.881409 7.41232V32.4171C0.881409 35.9828 3.77198 38.8733 7.33767 38.8733H33.3146C36.8803 38.8733 39.7709 35.9828 39.7709 32.4171V7.41232C39.7709 3.84662 36.8803 0.956055 33.3146 0.956055Z" fill="#470137"/>
<path d="M21.3266 10.9278L16.474 18.937L21.6656 27.4418C21.6991 27.5014 21.7083 27.5712 21.6918 27.6375C21.6837 27.6657 21.6664 27.6727 21.6398 27.6738L21.6103 27.6733L21.5745 27.6724C21.555 27.6724 21.5333 27.6733 21.5092 27.6773H17.766L17.6925 27.6761C17.4908 27.6707 17.3454 27.6419 17.2568 27.4939C16.9105 26.8192 16.5626 26.1453 16.2132 25.4721C15.9007 24.8717 15.5796 24.2758 15.2501 23.6846L15.1045 23.4242C14.7104 22.7238 14.3235 22.0194 13.9436 21.3111H13.9175C13.5668 22.012 13.2058 22.7077 12.8348 23.3981C12.4606 24.0938 12.091 24.7852 11.726 25.4721C11.3608 26.1595 10.9868 26.8422 10.6043 27.5201C10.5428 27.6583 10.4405 27.6872 10.2982 27.6919L10.239 27.6928H6.66492L6.64942 27.6932L6.59838 27.6978C6.56997 27.6995 6.55296 27.6934 6.54749 27.6505C6.53776 27.5869 6.5517 27.522 6.58668 27.4679L11.6217 19.1978L6.71702 10.9019C6.66497 10.8327 6.65626 10.7761 6.69089 10.7324C6.71014 10.7101 6.73432 10.6926 6.7615 10.6813C6.78868 10.6699 6.81813 10.6651 6.84751 10.6671H10.5259C10.6061 10.6627 10.6863 10.6761 10.7608 10.7063C10.8231 10.7417 10.8767 10.7907 10.9172 10.8498C11.2303 11.5456 11.5782 12.2412 11.9609 12.9368C12.3406 13.6279 12.7276 14.3149 13.1218 14.9978C13.51 15.6701 13.8711 16.3576 14.2045 17.0588H14.2306C14.5722 16.3578 14.9244 15.6621 15.2871 14.9718C15.6434 14.2935 16.0086 13.6108 16.3827 12.9237C16.752 12.2456 17.1129 11.5629 17.4654 10.8759C17.4855 10.8115 17.5213 10.7532 17.5698 10.7063C17.6342 10.6736 17.7066 10.66 17.7785 10.6671H21.1961C21.2275 10.6592 21.2606 10.6618 21.2904 10.6744C21.3203 10.687 21.3452 10.709 21.3615 10.737C21.3777 10.765 21.3845 10.7975 21.3807 10.8297C21.3769 10.8618 21.3627 10.8919 21.3404 10.9153L21.3266 10.9278ZM28.9936 28.0138L28.8137 28.0157C27.6129 28.0341 26.4231 27.7846 25.3308 27.2853C24.3133 26.8144 23.4627 26.0457 22.8916 25.0808C22.3156 24.1243 22.0201 22.9325 22.0052 21.5055L22.0045 21.3893C21.9948 20.192 22.3008 19.0132 22.8917 17.9718C23.4831 16.941 24.3453 16.0918 25.3849 15.516L25.4744 15.4673C26.6046 14.8412 27.9699 14.5281 29.5702 14.5281L29.6401 14.5288L29.72 14.5314L29.8096 14.5354L29.9093 14.5411L30.0767 14.553L30.2663 14.5682L30.405 14.5803V9.44084C30.405 9.3192 30.4571 9.25834 30.5615 9.25824H33.8487C33.8699 9.25519 33.8916 9.25713 33.912 9.26392C33.9324 9.2707 33.9509 9.28214 33.9661 9.29733C33.9812 9.31251 33.9927 9.33102 33.9995 9.3514C34.0063 9.37177 34.0082 9.39345 34.0052 9.41471V24.833C34.0052 25.092 34.0152 25.3707 34.0352 25.6692L34.0838 26.3459L34.1097 26.7374C34.1129 26.7916 34.0996 26.8455 34.0717 26.8921C34.0438 26.9387 34.0024 26.9757 33.953 26.9984C33.105 27.352 32.2217 27.6143 31.3181 27.7809C30.551 27.9226 29.7735 28.0004 28.9936 28.0138ZM30.405 24.7808V17.6587C30.264 17.6205 30.12 17.5943 29.9746 17.5804C29.7969 17.5625 29.6184 17.5538 29.4397 17.5543C28.8067 17.5479 28.181 17.691 27.6136 17.9718C27.061 18.2467 26.5891 18.6602 26.244 19.1719C25.8995 19.6756 25.7214 20.3334 25.7097 21.1452L25.7091 21.2329C25.6964 21.8015 25.7893 22.3676 25.983 22.9024C26.1407 23.3334 26.39 23.725 26.7137 24.0504C27.0234 24.3497 27.3985 24.573 27.8093 24.7025C28.2432 24.843 28.6967 24.9135 29.1528 24.9114C29.3961 24.9114 29.6222 24.9027 29.8311 24.8851C29.9977 24.8726 30.1628 24.8451 30.3245 24.8031L30.405 24.7808Z" fill="#FF61F6"/>
</g>
<defs>
<clipPath id="clip0_1_154">
<rect width="38.8958" height="37.978" fill="white" transform="translate(0.879395 0.956055)"/>
</clipPath>
</defs>
</svg>
